<svg xmlns="http://www.w3.org/2000/svg" xmlns:xlink="http://www.w3.org/1999/xlink" width="140.078" height="140.08" viewBox="0 0 140.078 140.08">
  <defs>
    <linearGradient id="linear-gradient" x1="0.5" x2="0.5" y2="1.011" gradientUnits="objectBoundingBox">
      <stop offset="0" stop-color="#f0047f"/>
      <stop offset="1" stop-color="#13017c"/>
    </linearGradient>
    <clipPath id="clip-path">
      <rect id="Rectangle_1728" data-name="Rectangle 1728" width="115.178" height="95.159" transform="translate(71.837 373.316)" fill="none"/>
    </clipPath>
    <linearGradient id="linear-gradient-2" x1="0.5" y1="0" x2="0.5" y2="1" xlink:href="#linear-gradient"/>
  </defs>
  <g id="Group_5599" data-name="Group 5599" transform="translate(-51.922 -339.077)">
    <path id="Path_12356" data-name="Path 12356" d="M121.961,476.657v-2.5a65.04,65.04,0,1,0-65.039-65.041,65.125,65.125,0,0,0,65.039,65.041v5A70.04,70.04,0,1,1,192,409.116a70.042,70.042,0,0,1-70.039,70.041Z" fill="url(#linear-gradient)"/>
    <g id="Group_5598" data-name="Group 5598">
      <g id="Group_5597" data-name="Group 5597" clip-path="url(#clip-path)">
        <g id="Group_5593" data-name="Group 5593">
          <path id="Path_12357" data-name="Path 12357" d="M109.355,468.475a6.784,6.784,0,0,1-2.152-.36,8.463,8.463,0,0,1-3.079-1.862L74.059,436.188a6.712,6.712,0,0,1-1.863-7.119,8.491,8.491,0,0,1,1.863-3.081l44.933-44.931,28.207.022a2.107,2.107,0,0,1,0,4.215h0l-26.46-.022-43.7,43.7a2.8,2.8,0,0,0,0,4.238L107.1,463.273a2.8,2.8,0,0,0,4.239,0l43.026-43.026-.652-30.176a2.106,2.106,0,0,1,2.06-2.153,2.144,2.144,0,0,1,2.153,2.061l.691,31.975-44.3,44.3A6.98,6.98,0,0,1,109.355,468.475Z" fill="url(#linear-gradient-2)"/>
        </g>
        <g id="Group_5594" data-name="Group 5594">
          <path id="Path_12358" data-name="Path 12358" d="M139.781,406.917a8.671,8.671,0,1,1,8.671-8.671A8.68,8.68,0,0,1,139.781,406.917Zm0-13.74a5.07,5.07,0,1,0,5.07,5.069A5.075,5.075,0,0,0,139.781,393.177Z" fill="url(#linear-gradient-2)"/>
        </g>
        <g id="Group_5595" data-name="Group 5595">
          <path id="Path_12359" data-name="Path 12359" d="M118.9,441.746a11.283,11.283,0,0,0-2.96-11.376,16.056,16.056,0,0,0-2.46-1.96l-3.993,3.994-2.069-2.07,2.531-2.816.714-.714a23.934,23.934,0,0,1-6.1-3.957c-4.493-4.493-4.314-10.234.143-14.692a10.718,10.718,0,0,1,9.164-3.173l-.106,3.743a7.017,7.017,0,0,0-6.134,1.927c-2.853,2.852-2.568,6.346.215,9.128a26.117,26.117,0,0,0,5.883,3.958l6.382-6.383,2.212,2.212-5.884,5.883a16.125,16.125,0,0,1,2.46,2.033,11.1,11.1,0,0,1,3.709,8.629l.143.142,11.232-11.232,2.818,2.817-15.9,15.9Z" fill="url(#linear-gradient-2)"/>
        </g>
        <g id="Group_5596" data-name="Group 5596">
          <path id="Path_12360" data-name="Path 12360" d="M140.037,400.288a1.8,1.8,0,0,1-1.273-3.074l22.809-22.8a4.4,4.4,0,0,1,5.611-.144c2.023,1.591,1.989,4.711,1.963,5.289V387.7c.069.624.373,1.549.673,1.553.324-.014,1.047-.678,1.387-1.189l.227-.278,9.908-9.7a1.8,1.8,0,0,1,2.547,2.547l-9.794,9.584c-.481.674-2,2.536-4.115,2.632-2.745.127-4.243-2.469-4.429-4.93l0-.137,0-8.373a3.531,3.531,0,0,0-.591-2.31.773.773,0,0,0-.991.005l-22.656,22.657A1.8,1.8,0,0,1,140.037,400.288Z" fill="url(#linear-gradient-2)"/>
        </g>
      </g>
    </g>
  </g>
</svg>
