<?xml version="1.0" encoding="utf-8"?>
<!-- Generator: Adobe Illustrator 25.0.1, SVG Export Plug-In . SVG Version: 6.00 Build 0)  -->
<svg version="1.1" id="Layer_1" xmlns="http://www.w3.org/2000/svg" xmlns:xlink="http://www.w3.org/1999/xlink" x="0px" y="0px"
	 viewBox="0 0 743.3 570.3" style="enable-background:new 0 0 743.3 570.3;" xml:space="preserve">
<style type="text/css">
	.st0{fill:#18013D;}
	.st1{opacity:0.7;fill:#000122;enable-background:new    ;}
	.st2{fill:#16013D;}
	.st3{fill:#12022C;}
	.st4{fill:#E2DEE1;}
	.st5{fill:url(#Path_14005_1_);}
	.st6{fill:url(#Path_14006_1_);}
	.st7{fill:#F0047F;}
	.st8{fill:#13007C;}
	.st9{fill:url(#Path_14010_1_);}
	.st10{fill:url(#Path_14013_1_);}
	.st11{fill:#F0047F;stroke:#F0047F;stroke-width:3.562;stroke-linecap:round;stroke-linejoin:round;}
	.st12{fill:none;stroke:#F0047F;stroke-width:3.562;stroke-linecap:round;stroke-linejoin:round;}
	.st13{fill:none;stroke:#F0047F;stroke-width:3.562;stroke-linecap:round;stroke-linejoin:round;stroke-dasharray:0,7.38;}
	.st14{fill:#FFFFFF;}
	.st15{fill:url(#Rectangle_4565_1_);}
	.st16{clip-path:url(#SVGID_2_);}
	.st17{fill:url(#Path_14032_1_);}
	.st18{fill:url(#Path_14033_1_);}
	.st19{fill:url(#Path_14034_1_);}
	.st20{fill:url(#Path_14035_1_);}
	.st21{fill:url(#Path_14037_1_);}
	.st22{fill:url(#Path_14038_1_);}
	.st23{fill:url(#Path_14040_1_);}
	.st24{fill:url(#Path_14043_1_);}
	.st25{fill:url(#Path_14046_1_);}
	.st26{fill:none;stroke:#3D891F;stroke-width:0.857;stroke-miterlimit:10;}
	.st27{fill:url(#Path_14050_1_);}
	.st28{fill:url(#Path_14052_1_);}
	.st29{fill:url(#Path_14055_1_);}
	.st30{fill:url(#Path_14056_1_);}
	.st31{fill:url(#Path_14058_1_);}
	.st32{fill:url(#Path_14059_1_);}
	.st33{fill:url(#Path_14062_1_);}
	.st34{clip-path:url(#SVGID_4_);}
	.st35{fill:#FF0000;}
	.st36{fill:url(#Path_14064_1_);}
	.st37{fill:url(#Path_14065_1_);}
	.st38{fill:url(#Path_14066_1_);}
	.st39{fill:url(#Path_14067_1_);}
	.st40{fill:url(#Path_14068_1_);}
	.st41{fill:url(#Path_14069_1_);}
	.st42{fill:url(#Path_14070_1_);}
	.st43{fill:#F0047F;stroke:#F0047F;stroke-width:2.605;stroke-linecap:round;stroke-linejoin:round;}
	.st44{fill:none;stroke:#F0047F;stroke-width:2.605;stroke-linecap:round;stroke-linejoin:round;}
	.st45{fill:url(#Path_14078_1_);}
	.st46{fill:url(#Path_14080_1_);}
	.st47{fill:url(#Path_14083_1_);}
	.st48{fill:none;stroke:#FF0000;stroke-width:0.301;}
	.st49{fill:none;stroke:#FF0000;stroke-width:0.397;}
	.st50{fill:url(#Rectangle_4568_1_);}
	.st51{fill:url(#Path_14089_1_);}
	.st52{clip-path:url(#SVGID_6_);}
	.st53{clip-path:url(#SVGID_8_);}
	.st54{clip-path:url(#SVGID_10_);}
	.st55{fill:url(#Path_14092_1_);}
	.st56{fill:url(#Path_14093_1_);}
	.st57{fill:none;stroke:#FFFFFF;stroke-width:0.243;}
	.st58{clip-path:url(#SVGID_12_);}
	.st59{fill:url(#Rectangle_4570_1_);}
	.st60{clip-path:url(#SVGID_14_);}
	.st61{fill:url(#Path_14098_1_);}
	.st62{fill:url(#Path_14099_1_);}
	.st63{fill:url(#Path_14100_1_);}
	.st64{fill:url(#Path_14101_1_);}
	.st65{fill:url(#Path_14102_1_);}
	.st66{fill:url(#Path_14103_1_);}
	.st67{clip-path:url(#SVGID_16_);}
	.st68{fill:url(#Rectangle_4571_1_);}
	.st69{clip-path:url(#SVGID_18_);}
	.st70{fill:url(#Path_14106_1_);}
	.st71{clip-path:url(#SVGID_20_);}
	.st72{fill:url(#Rectangle_4572_1_);}
	.st73{clip-path:url(#SVGID_22_);}
	.st74{fill:none;stroke:#FFFFFF;stroke-width:0.729;}
	.st75{fill:url(#Path_14111_1_);}
	.st76{fill:url(#Path_14112_1_);}
	.st77{fill:url(#Path_14113_1_);}
	.st78{clip-path:url(#SVGID_24_);}
	.st79{fill:url(#Path_14115_1_);}
	.st80{fill:url(#Rectangle_4578_1_);}
	.st81{fill:none;stroke:#000000;stroke-width:1.787;}
	.st82{fill:none;stroke:#CA1430;stroke-width:1.787;}
	.st83{clip-path:url(#SVGID_26_);}
	.st84{fill:url(#Path_14132_1_);}
	.st85{fill:url(#Path_14133_1_);}
	.st86{fill:url(#Path_14136_1_);}
	.st87{fill:url(#Path_14137_1_);}
	.st88{fill:url(#Path_14140_1_);}
	.st89{fill:url(#Path_14141_1_);}
	.st90{fill:none;stroke:#FF0000;stroke-width:3.825;stroke-linecap:round;}
	.st91{clip-path:url(#SVGID_28_);}
	.st92{fill:url(#Path_14145_1_);}
	.st93{fill:url(#Path_14146_1_);}
	.st94{fill:url(#Path_14147_1_);}
	.st95{fill:url(#Path_14148_1_);}
	.st96{fill:url(#Path_14149_1_);}
	.st97{fill:url(#Rectangle_4580_1_);}
	.st98{fill:url(#Path_14151_1_);}
	.st99{clip-path:url(#SVGID_30_);}
	.st100{fill:url(#Path_14153_1_);}
	.st101{fill:url(#Rectangle_4581_1_);}
	.st102{fill:url(#Rectangle_4582_1_);}
	.st103{fill:url(#Path_14156_1_);}
	.st104{clip-path:url(#SVGID_32_);}
	.st105{fill:url(#Path_14157_1_);}
	.st106{fill:url(#Path_14158_1_);}
	.st107{fill:url(#Path_14159_1_);}
</style>
<g id="Group_7044" transform="translate(-292.553 -330.112)">
	<g id="Group_7144" transform="translate(292.553 330.112)">
		<g id="Group_7143">
			<path id="Path_14001" class="st0" d="M651.6,213.9c43.8-53,67.3-82.2,43.6-146.3c-1.3-3.5-2.7-7.1-4.3-10.8
				C660.2-15,364.3-7.9,413.4,19.4C447.3,38.2,431.7,47,387,47.8c-19.9,0.5-45.7-0.7-75.4-3.2C150,31.1,141.9,70.2,224.7,101.8
				c82.9,31.6-21.6,91-92,111.5c-11.5,3.3-22.8,7.3-33.9,11.9C41.7,249.6,12.1,285.6,3.1,323C-16.6,404.4,61,492,163.3,477.7
				c46.9-6.6,131.5-6,207.4,10.5c46.9,10.2,90.6,26.6,119.8,51.1c61.4,51.3,135.1,30.7,151.4-2c4.2-8,4.4-17.5,0.5-25.6
				c-19.6-41.6,15-69.7,56-73.1c41-3.5,66.5-69.2,19.9-109.8C671.6,288.1,605.5,269.8,651.6,213.9z"/>
			<path id="Path_14002" class="st1" d="M651.6,213.9c43.8-53,67.3-82.2,43.6-146.3c-16.4-2.7-33-4-49.6-4
				c-150.1,0-271.9,106-271.9,236.9c0,129.7,119.8,235.1,268.2,236.8c4.2-8,4.4-17.5,0.5-25.6c-19.6-41.6,15-69.7,56-73.1
				c41-3.5,66.5-69.2,19.9-109.8C671.6,288.1,605.5,269.8,651.6,213.9z"/>
			<path id="Path_14003" class="st2" d="M370.8,482.7c0-110.5-102.8-200-229.6-200c-51.9,0-99.7,15-138.1,40.3
				C-16.6,404.4,61,492,163.3,477.7c46.9-6.6,131.5-6,207.4,10.5C370.8,486.3,370.8,484.5,370.8,482.7z"/>
			<path id="Path_14004" class="st3" d="M413.4,128.7c0-29.7-9.6-57.4-26.4-80.9c-19.9,0.5-45.7-0.7-75.4-3.2
				C150,31.1,141.9,70.2,224.7,101.8c82.9,31.6-21.6,91-92,111.5c-11.5,3.3-22.8,7.3-33.9,11.9c32.4,35.1,82,57.5,137.7,57.5
				C334.2,282.7,413.4,213.8,413.4,128.7z"/>
		</g>
	</g>
	<circle id="Ellipse_439" class="st4" cx="680.6" cy="616.3" r="139.4"/>
	<g id="Group_7162" transform="translate(541.431 475.249)">
		<g id="Group_7156">
			
				<linearGradient id="Path_14005_1_" gradientUnits="userSpaceOnUse" x1="-132.784" y1="395.9645" x2="-132.784" y2="394.9535" gradientTransform="matrix(285.768 0 0 -285.768 38088.2852 113153.9844)">
				<stop  offset="0" style="stop-color:#F0047F"/>
				<stop  offset="1" style="stop-color:#13007C"/>
			</linearGradient>
			<path id="Path_14005" class="st5" d="M142.9,280.7v-5.1c73.3,0,132.7-59.4,132.7-132.7c0-73.3-59.4-132.7-132.7-132.7
				c-73.3,0-132.7,59.4-132.7,132.7c0.1,73.2,59.4,132.6,132.7,132.7v10.2C64,285.8,0,221.8,0,142.9S64,0,142.9,0
				s142.9,64,142.9,142.9c0,0,0,0,0,0c0,78.9-64,142.9-142.9,142.9V280.7z"/>
			<g id="Group_7145" transform="translate(24.258 23.071)">
				
					<linearGradient id="Path_14006_1_" gradientUnits="userSpaceOnUse" x1="-159.3166" y1="373.4622" x2="-159.3166" y2="372.4622" gradientTransform="matrix(43.274 0 0 -43.274 6915.9019 16226.043)">
					<stop  offset="0" style="stop-color:#F0047F"/>
					<stop  offset="1" style="stop-color:#13007C"/>
				</linearGradient>
				<path id="Path_14006" class="st6" d="M21.6,108.1C9.7,108.1,0,98.4,0,86.5s9.7-21.6,21.6-21.6s21.6,9.7,21.6,21.6c0,0,0,0,0,0
					C43.3,98.4,33.6,108.1,21.6,108.1z M21.6,73c-7.4,0-13.5,6-13.5,13.5c0,7.4,6,13.5,13.5,13.5c7.4,0,13.5-6,13.5-13.5l0,0
					C35.1,79,29.1,73,21.6,73z"/>
				<path id="Path_14007" class="st7" d="M220.2,138c-11.9,0-21.6-9.7-21.6-21.6s9.7-21.6,21.6-21.6s21.6,9.7,21.6,21.6c0,0,0,0,0,0
					C241.8,128.3,232.1,137.9,220.2,138z M220.2,102.9c-7.4,0-13.5,6-13.5,13.5s6,13.5,13.5,13.5c7.4,0,13.5-6,13.5-13.5
					C233.7,108.9,227.6,102.9,220.2,102.9z"/>
				<path id="Path_14008" class="st8" d="M36.5,181.9c-9.1,0-16.5-7.4-16.5-16.5c0-9.1,7.4-16.5,16.5-16.5c9.1,0,16.5,7.4,16.5,16.5
					c0,0,0,0,0,0C53,174.5,45.6,181.9,36.5,181.9z M36.5,155.2c-5.7,0-10.3,4.6-10.3,10.3c0,5.7,4.6,10.3,10.3,10.3
					c5.7,0,10.3-4.6,10.3-10.3l0,0C46.8,159.8,42.2,155.2,36.5,155.2L36.5,155.2z"/>
				<path id="Path_14009" class="st8" d="M150.3,236.8c9.7,0,17.6-7.9,17.6-17.6c0-9.7-7.9-17.6-17.6-17.6
					c-9.7,0-17.6,7.9-17.6,17.6c0,0,0,0,0,0C132.8,228.9,140.6,236.8,150.3,236.8"/>
				
					<linearGradient id="Path_14010_1_" gradientUnits="userSpaceOnUse" x1="-159.3164" y1="372.4621" x2="-159.3164" y2="373.4621" gradientTransform="matrix(43.278 0 0 -43.278 7045.2168 16360.251)">
					<stop  offset="0" style="stop-color:#F0047F"/>
					<stop  offset="1" style="stop-color:#13007C"/>
				</linearGradient>
				<path id="Path_14010" class="st9" d="M150.3,240.8c-12,0-21.6-9.7-21.6-21.6c0-12,9.7-21.6,21.6-21.6c12,0,21.6,9.7,21.6,21.6
					c0,0,0,0,0,0C171.9,231.1,162.3,240.8,150.3,240.8z M150.3,205.7c-7.4,0-13.5,6-13.5,13.5s6,13.5,13.5,13.5
					c7.4,0,13.5-6,13.5-13.5l0,0C163.8,211.8,157.8,205.7,150.3,205.7L150.3,205.7z"/>
				<path id="Path_14011" class="st8" d="M175.8,72c6.7,0,12.2-5.5,12.2-12.2s-5.5-12.2-12.2-12.2s-12.2,5.5-12.2,12.2l0,0
					C163.5,66.5,169,72,175.8,72"/>
				<path id="Path_14012" class="st7" d="M175.8,74.8c-8.3,0-15.1-6.7-15.1-15.1c0-8.3,6.7-15.1,15.1-15.1c8.3,0,15.1,6.7,15.1,15.1
					c0,0,0,0,0,0C190.8,68.1,184.1,74.8,175.8,74.8z M175.8,50.4c-5.2,0-9.4,4.2-9.4,9.4c0,5.2,4.2,9.4,9.4,9.4
					c5.2,0,9.4-4.2,9.4-9.4c0,0,0,0,0,0C185.1,54.6,180.9,50.4,175.8,50.4z"/>
				
					<linearGradient id="Path_14013_1_" gradientUnits="userSpaceOnUse" x1="-160.4394" y1="373.1178" x2="-159.4394" y2="373.1178" gradientTransform="matrix(35.116 0 0 -35.116 5707.0371 13124.041)">
					<stop  offset="0" style="stop-color:#F0047F"/>
					<stop  offset="1" style="stop-color:#13007C"/>
				</linearGradient>
				<path id="Path_14013" class="st10" d="M90.6,39.2c9.7,0,17.6-7.9,17.6-17.6c0-9.7-7.9-17.6-17.6-17.6C80.9,4.1,73,11.9,73,21.6
					c0,0,0,0,0,0C73,31.3,80.9,39.2,90.6,39.2"/>
				<path id="Path_14014" class="st8" d="M90.6,43.3C78.7,43.3,69,33.6,69,21.6S78.6,0,90.6,0c11.9,0,21.6,9.7,21.6,21.6
					c0,0,0,0,0,0C112.2,33.6,102.5,43.3,90.6,43.3z M90.6,8.2c-7.4,0-13.5,6-13.5,13.5c0,7.4,6,13.5,13.5,13.5
					c7.4,0,13.5-6,13.5-13.5c0,0,0,0,0,0C104.1,14.2,98,8.2,90.6,8.2z"/>
			</g>
			<g id="Group_7146" transform="translate(76.438 123.184)">
				<path id="Path_14015" class="st7" d="M1.2,3.9c-1-0.5-1.5-1.7-1-2.7l0,0c0.5-1,1.7-1.5,2.7-1c0,0,0,0,0,0l0,0
					c1,0.5,1.5,1.7,1,2.7c0,0,0,0,0,0l0,0C3.6,3.6,2.8,4.1,2,4.1l0,0C1.8,4.1,1.5,4,1.2,3.9z"/>
			</g>
			<path id="Path_14016" class="st11" d="M69.3,121L69.3,121 M87.7,129.4L87.7,129.4"/>
			<g id="Group_7147" transform="translate(84.317 172.2)">
				<path id="Path_14017" class="st7" d="M0.3,3.1C-0.3,2.2,0,0.9,0.9,0.3c0,0,0,0,0,0l0,0c1-0.6,2.2-0.3,2.8,0.6l0,0
					c0.6,1,0.3,2.2-0.6,2.8l0,0C2.8,4,2.4,4.1,2.1,4.1l0,0C1.4,4.1,0.7,3.7,0.3,3.1z"/>
			</g>
			<path id="Path_14018" class="st12" d="M79.5,178.6L79.5,178.6 M93.2,169.9L93.2,169.9"/>
			<g id="Group_7148" transform="translate(122.443 75.118)">
				<path id="Path_14019" class="st7" d="M2,10.6C1.8,9.5,2.5,8.4,3.5,8.1l0,0C4.6,7.9,5.7,8.5,6,9.6l0,0c0.3,1.1-0.4,2.2-1.5,2.5
					l0,0c-0.2,0-0.3,0.1-0.5,0.1l0,0C3.1,12.2,2.3,11.5,2,10.6z M0.1,2.5c-0.3-1.1,0.4-2.2,1.5-2.5l0,0C2.6-0.2,3.7,0.4,4,1.5
					c0,0,0,0,0,0l0,0C4.3,2.6,3.6,3.7,2.5,4c0,0,0,0,0,0l0,0C2.4,4.1,2.2,4.1,2,4.1l0,0C1.1,4.1,0.3,3.4,0.1,2.5L0.1,2.5z"/>
			</g>
			<path id="Path_14020" class="st12" d="M122.5,69.1L122.5,69.1 M128.5,93.3L128.5,93.3"/>
			<g id="Group_7149" transform="translate(193.227 139.381)">
				<path id="Path_14021" class="st7" d="M0,3c-0.1-1.1,0.8-2.1,1.9-2.2l0,0C3.1,0.8,4,1.7,4.1,2.8l0,0c0.1,1.1-0.8,2.1-1.9,2.1
					c0,0,0,0,0,0H2C1,4.9,0.1,4.1,0,3z M7.7,2.6C7.6,1.5,8.5,0.5,9.6,0.4l0,0c1.1-0.1,2.1,0.8,2.1,1.9c0,0,0,0,0,0l0,0
					c0.1,1.1-0.8,2.1-1.9,2.2c0,0,0,0,0,0H9.7C8.6,4.5,7.7,3.7,7.7,2.6L7.7,2.6z M15.3,2.1C15.2,1,16.1,0.1,17.2,0c0,0,0,0,0,0l0,0
					c1.1-0.1,2.1,0.8,2.1,1.9c0,0,0,0,0,0l0,0C19.4,3,18.6,4,17.5,4.1h-0.1C16.3,4.1,15.4,3.2,15.3,2.1L15.3,2.1z"/>
			</g>
			<path id="Path_14022" class="st11" d="M187.6,142.7L187.6,142.7 M218.2,141L218.2,141"/>
			<line id="Line_252" class="st13" x1="181.5" y1="102.2" x2="178.4" y2="105.1"/>
			<path id="Path_14023" class="st12" d="M175.4,108L175.4,108 M187.6,96.4L187.6,96.4"/>
			<g id="Group_7155" transform="translate(77.278 77.236)">
				<g id="Group_7151">
					
						<image style="overflow:visible;opacity:0.5;enable-background:new    ;" width="115" height="115" id="Rectangle_4563" xlink:href="BEC5017454001572.png"  transform="matrix(1.1455 0 0 1.1455 0 0)">
					</image>
					<g id="Group_7150" transform="translate(17.394 17.358)">
						<path id="Rectangle_4564" class="st14" d="M42.1,0h12.2c23.2,0,42.1,18.8,42.1,42.1v12.2c0,23.2-18.8,42.1-42.1,42.1H42.1
							C18.8,96.4,0,77.6,0,54.3V42.1C0,18.8,18.8,0,42.1,0z"/>
					</g>
				</g>
				
					<linearGradient id="Rectangle_4565_1_" gradientUnits="userSpaceOnUse" x1="-210.9597" y1="318.9509" x2="-210.9597" y2="318.0669" gradientTransform="matrix(88.982 0 0 -88.982 18837.2168 28402.1445)">
					<stop  offset="0" style="stop-color:#F0047F"/>
					<stop  offset="1" style="stop-color:#13007C"/>
				</linearGradient>
				<path id="Rectangle_4565" class="st15" d="M60,21.1h11.3c21.5,0,38.8,17.4,38.8,38.8v11.3c0,21.5-17.4,38.8-38.8,38.8H60
					c-21.5,0-38.8-17.4-38.8-38.8V59.9C21.1,38.5,38.5,21.1,60,21.1z"/>
				<g id="Group_7154" transform="translate(28.621 45.57)">
					<g id="Group_7152">
						<path id="Path_14024" class="st14" d="M7.1,34.5c-0.6,0-1.2-0.1-1.8-0.2c-2.2-0.4-3.9-1.9-4.7-3.9c-3.2-7.8,8-15.5,8.5-15.8
							l2.2,3.3c-2.4,1.6-8.7,7.1-7.1,11.1c0.3,0.8,1,1.4,1.9,1.6c4.2,0.9,12.8-4.1,18-9.1c1.9-1.8,4-4,6.1-6.4
							C38.8,5.8,47.8-3.8,53.8,1.5c0.9,0.8,1.4,1.9,1.5,3c0.2,3.6-3.8,8.1-8.5,13.2c-3.5,3.9-8.4,9.2-8.1,11.6
							c0,0.3,0.2,0.6,0.5,0.8c2.2,1.7,7.1-3.4,11.1-7.6c5.1-5.3,9.9-10.3,14-7.5c4.1,2.8,2.3,7,1.2,9.8C64.1,28,63.8,29.1,65,30
							c1.8,1.4,5.7-0.9,9.8-3.4c2.3-1.5,4.8-2.8,7.3-4l1.6,3.6c-2.4,1.1-4.7,2.4-6.9,3.8c-5.3,3.2-10.3,6.3-14.3,3.1
							c-3.6-2.9-1.9-6.8-0.7-9.7c1.4-3.4,1.5-4.2,0.3-5c-1.4-1-6.2,4-9,6.9c-5.3,5.5-11.3,11.8-16.3,8c-1.2-0.8-1.9-2.2-2-3.6
							c-0.4-4.2,4.2-9.3,9.2-14.7c3.2-3.5,7.6-8.3,7.5-10.3c0-0.1-0.1-0.2-0.2-0.3C48,1.7,39,11.4,33.1,17.7
							c-2.2,2.4-4.3,4.6-6.3,6.5C22.1,28.8,13.4,34.5,7.1,34.5z"/>
					</g>
					<g id="Group_7153" transform="translate(49.478 35.77)">
						<path id="Path_14025" class="st14" d="M13.8,15.6L7.9,9.7L5,12.5L0,0l12.7,5.2L10,7.8l5.7,5.7L13.8,15.6z"/>
					</g>
				</g>
			</g>
		</g>
		<g id="Group_7161" transform="translate(156.811 191.014)">
			<g id="Group_7157" transform="translate(2.455 8.12)">
				<path id="Path_14026" class="st7" d="M0.5,0.7c0.7-0.9,2-1,2.9-0.3l0,0c0.9,0.7,1,2,0.3,2.9c0,0,0,0,0,0l0,0
					c-0.7,0.9-2,1-2.9,0.2l0,0C0.1,3.1-0.1,2.2,0.1,1.5l0,0C0.2,1.2,0.3,0.9,0.5,0.7z"/>
			</g>
			<g id="Group_7158" transform="translate(4.506 15.891)">
				<path id="Path_14027" class="st7" d="M0.5,0.7c0.7-0.9,2-1,2.9-0.3l0,0c0.9,0.7,1,2,0.3,2.9c0,0,0,0,0,0l0,0
					c-0.7,0.9-2,1-2.9,0.2l0,0C0.1,3.1-0.1,2.2,0.1,1.5l0,0C0.2,1.2,0.3,0.9,0.5,0.7z"/>
			</g>
			<g id="Group_7159" transform="translate(6.929 23.86)">
				<path id="Path_14028" class="st7" d="M0.5,0.7c0.7-0.9,2-1,2.9-0.3l0,0c0.9,0.7,1,2,0.3,2.9c0,0,0,0,0,0l0,0
					c-0.7,0.9-2,1-2.9,0.2l0,0C0.1,3.1-0.1,2.2,0.1,1.5l0,0C0.2,1.2,0.3,0.9,0.5,0.7z"/>
			</g>
			<g id="Group_7160">
				<path id="Path_14029" class="st7" d="M0.5,0.7c0.7-0.9,2-1,2.9-0.3l0,0c0.9,0.7,1,2,0.3,2.9c0,0,0,0,0,0l0,0
					c-0.7,0.9-2,1-2.9,0.2l0,0C0.1,3.1-0.1,2.2,0.1,1.5l0,0C0.2,1.2,0.3,0.9,0.5,0.7z"/>
			</g>
		</g>
	</g>
	<circle id="Ellipse_440" class="st4" cx="456.9" cy="482.2" r="57.9"/>
	<circle id="Ellipse_441" class="st4" cx="424.3" cy="686.8" r="59.4"/>
	<g id="Group_7170" transform="translate(396.886 422.204)">
		<g id="Group_7168" transform="translate(2.572 2.142)">
			<g>
				<defs>
					<path id="SVGID_1_" d="M0,57.9c0,32,25.9,57.9,57.9,57.9s57.9-25.9,57.9-57.9S89.9,0,57.9,0S0,25.9,0,57.9L0,57.9"/>
				</defs>
				<clipPath id="SVGID_2_">
					<use xlink:href="#SVGID_1_"  style="overflow:visible;"/>
				</clipPath>
				<g id="Group_7167" class="st16">
					<path id="Path_14030" class="st8" d="M91.4,47.2L61,40l-21.2-2.8l-0.3,2.5l21,2.8l28.9,6.9l6.3,24.7v37.5L32,113.6l-1.5-9.5
						l21.4-10l-6.1-13.5l-19.4,5.9l-5.9-4.9l2.8-28.1l-2.6-0.3l-3,29.4l8,6.7l18.6-5.7l4.1,9.1l-20.8,9.7l2.1,13.6l68.4-2.1V73.9
						L91.4,47.2z"/>
					<path id="Path_14031" class="st14" d="M79.6,53.5c-5.4-1.2-10.9,2.1-12.2,7.5c-1.2,5.4,2.2,10.7,7.6,11.8c0,0,0.1,0,0.1,0
						c5.4,1.2,10.9-2.1,12.2-7.6c1.2-5.4-2.2-10.7-7.6-11.8C79.7,53.5,79.7,53.5,79.6,53.5"/>
					<g id="Group_7163" transform="translate(66.332 52.359)">
						
							<linearGradient id="Path_14032_1_" gradientUnits="userSpaceOnUse" x1="-173.237" y1="423.407" x2="-173.237" y2="423.407" gradientTransform="matrix(1 0 0 -1 195.087 436.567)">
							<stop  offset="0" style="stop-color:#F0047F"/>
							<stop  offset="1" style="stop-color:#13007C"/>
						</linearGradient>
						<path id="Path_14032" class="st17" d="M21.9,13.2L21.9,13.2z"/>
						
							<linearGradient id="Path_14033_1_" gradientUnits="userSpaceOnUse" x1="-173.237" y1="423.407" x2="-173.237" y2="423.407" gradientTransform="matrix(1 0 0 -1 181.901 444.768)">
							<stop  offset="0" style="stop-color:#F0047F"/>
							<stop  offset="1" style="stop-color:#13007C"/>
						</linearGradient>
						<path id="Path_14033" class="st18" d="M8.7,21.4L8.7,21.4z"/>
						
							<linearGradient id="Path_14034_1_" gradientUnits="userSpaceOnUse" x1="-8338.4932" y1="423.407" x2="-8337.4551" y2="423.407" gradientTransform="matrix(1.400757e-02 0 0 -1 130.2558 423.666)">
							<stop  offset="0" style="stop-color:#F0047F"/>
							<stop  offset="1" style="stop-color:#13007C"/>
						</linearGradient>
						<path id="Path_14034" class="st19" d="M13.5,0.3L13.5,0.3L13.5,0.3L13.5,0.3z"/>
						
							<linearGradient id="Path_14035_1_" gradientUnits="userSpaceOnUse" x1="-62.5006" y1="395.2483" x2="-61.4626" y2="395.2483" gradientTransform="matrix(22.118 0 0 -21.6205 1381.9672 8556.2588)">
							<stop  offset="0" style="stop-color:#F0047F"/>
							<stop  offset="1" style="stop-color:#13007C"/>
						</linearGradient>
						<path id="Path_14035" class="st20" d="M13.5,0.3L13.5,0.3C12.7,0.1,11.9,0,11,0C5.9,0,1.5,3.5,0.3,8.5l0,0
							C0.1,9.2,0,10,0,10.8c0,5.1,3.7,9.5,8.7,10.5c0.8,0.2,1.6,0.3,2.4,0.3c5.1,0,9.6-3.5,10.8-8.5c0.2-0.8,0.3-1.6,0.3-2.4
							C22.1,5.7,18.5,1.3,13.5,0.3z M20.2,12.8L20.2,12.8c-1,4.2-4.8,7.2-9.1,7.1c-0.7,0-1.4-0.1-2-0.2l0,0
							c-4.2-0.9-7.3-4.6-7.3-8.9c0-0.7,0.1-1.3,0.2-2c1-4.2,4.8-7.2,9.1-7.1c0.7,0,1.4,0.1,2,0.2h0h0c4.2,0.9,7.3,4.6,7.3,8.9
							C20.4,11.5,20.3,12.1,20.2,12.8L20.2,12.8z"/>
					</g>
					<path id="Path_14036" class="st14" d="M72.5,78.2C64.2,75.7,59.5,67,61.9,58.7c0-0.1,0.1-0.2,0.1-0.3
						c2.8-8.4,11.8-12.9,20.2-10.3c8.3,2.5,13.1,11.2,10.6,19.5c0,0.1-0.1,0.2-0.1,0.2C89.9,76.3,81,80.8,72.5,78.2 M99.4,78.9
						c1.3-1.7,2.4-3.6,3.2-5.6L99,70c0.2-0.7,0.4-1.3,0.6-2c0.1-0.2,0.1-0.5,0.1-0.7l4.8-1.2c0.2-2.1,0.2-4.3-0.1-6.4l-4.8-1.1
						c-0.2-0.9-0.5-1.8-0.8-2.7l3.5-3.4c-0.9-2-2-3.8-3.3-5.5l-4.7,1.4c-0.7-0.7-1.3-1.4-2.1-2l1.3-4.6c-1.8-1.3-3.7-2.3-5.7-3.1
						L84.4,42c-0.7-0.2-1.4-0.4-2.1-0.6c-0.2-0.1-0.5-0.1-0.7-0.1l-1.2-4.7c-2.2-0.2-4.4-0.2-6.5,0.1l-1.1,4.7
						c-1,0.2-1.9,0.5-2.8,0.8l-3.5-3.4c-2,0.9-3.9,2-5.6,3.3l1.4,4.6c-0.7,0.6-1.4,1.3-2,2l-4.7-1.3C54.1,49.1,53,51,52.2,53
						l3.6,3.3c-0.2,0.7-0.4,1.3-0.6,2c-0.1,0.2-0.1,0.5-0.1,0.7l-4.8,1.2c-0.2,2.1-0.2,4.3,0.1,6.4l4.8,1.1c0.2,0.9,0.5,1.8,0.8,2.7
						l-3.5,3.4c0.9,2,2,3.8,3.3,5.5l4.7-1.4c0.6,0.7,1.3,1.4,2.1,2l-1.3,4.6C63,85.9,65,87,67,87.8l3.4-3.5c0.7,0.2,1.4,0.4,2.1,0.6
						c0.2,0.1,0.5,0.1,0.7,0.1l1.2,4.7c2.2,0.2,4.4,0.2,6.5-0.1l1.1-4.7c1-0.2,1.9-0.5,2.8-0.8l3.5,3.4c2-0.9,3.9-2,5.6-3.3
						l-1.4-4.6c0.7-0.6,1.4-1.3,2-2L99.4,78.9z"/>
					<g id="Group_7164" transform="translate(48.835 35.237)">
						
							<linearGradient id="Path_14037_1_" gradientUnits="userSpaceOnUse" x1="-41.7789" y1="411.548" x2="-40.7629" y2="411.548" gradientTransform="matrix(57.117 0 0 -55.873 2385.8215 23022.3535)">
							<stop  offset="0" style="stop-color:#F0047F"/>
							<stop  offset="1" style="stop-color:#13007C"/>
						</linearGradient>
						<path id="Path_14037" class="st21" d="M56.9,24.3l-0.1-0.9l-4.9-1.1c-0.1-0.4-0.2-0.9-0.4-1.3l3.6-3.5l-0.4-0.8
							c-0.9-2.1-2.1-4-3.5-5.8l-0.5-0.7l-4.8,1.4c-0.3-0.3-0.7-0.7-1-1l1.3-4.7l-0.7-0.5c-1.9-1.3-3.9-2.4-6-3.3l-0.8-0.3l-3.5,3.6
							c-0.5-0.1-0.9-0.3-1.4-0.4l-1.3-4.7l-0.9-0.1c-1-0.1-2.1-0.2-3.1-0.2c-1.2,0-2.5,0.1-3.7,0.2l-0.9,0.1l-1.2,4.8
							c-0.5,0.1-0.9,0.2-1.4,0.4L17.8,2L17,2.4c-2.1,0.9-4.1,2-5.9,3.4l-0.7,0.5l1.4,4.7c-0.3,0.3-0.7,0.6-1,1L6,10.7l-0.5,0.7
							c-1.4,1.8-2.5,3.8-3.4,5.9l-0.4,0.8l3.6,3.4c-0.1,0.4-0.2,0.9-0.4,1.3L0.3,24l-0.1,0.9C0,25.9,0,27,0,28
							c0,1.2,0.1,2.4,0.2,3.6l0.1,0.9l4.9,1.1c0.1,0.4,0.2,0.9,0.4,1.3l-3.6,3.4l0.4,0.8c0.9,2.1,2.1,4,3.5,5.8l0.5,0.7l4.8-1.4
							c0.3,0.3,0.7,0.7,1,1L11,50l0.7,0.5c1.9,1.3,3.9,2.4,6,3.3l0.8,0.3l3.4-3.6c0.5,0.1,0.9,0.3,1.4,0.4l1.3,4.7l0.9,0.1
							c1,0.1,2.1,0.2,3.1,0.2c1.2,0,2.5-0.1,3.7-0.2l0.9-0.1l1.2-4.8c0.5-0.1,0.9-0.2,1.4-0.4l3.5,3.5l0.8-0.3
							c2.1-0.9,4.1-2,5.9-3.4l0.7-0.5l-1.4-4.7c0.3-0.3,0.7-0.6,1-1l4,1.1l0.8,0.2l0.5-0.7c1.4-1.8,2.5-3.8,3.4-5.9l0.3-0.8
							l-3.6-3.4c0.1-0.4,0.2-0.9,0.3-1.3l4.8-1.2l0.1-0.9c0.1-1,0.2-2.1,0.2-3.1C57.1,26.7,57,25.5,56.9,24.3z M23.3,50.9L23.3,50.9
							z M54.5,29.8L49.8,31l-0.2,0.8c-0.1,0.3-0.1,0.5-0.1,0.7v0v0c-0.1,0.6-0.3,1.3-0.5,1.9l-0.3,0.8l3.5,3.2
							c-0.6,1.3-1.3,2.6-2.2,3.8L45.4,41l-0.5,0.6c-0.6,0.7-1.3,1.3-1.9,1.9L42.3,44l1.4,4.5c-1.2,0.9-2.5,1.6-3.9,2.2l-3.4-3.3
							l-0.8,0.3c-0.9,0.3-1.8,0.5-2.7,0.7l-0.8,0.2l-1.1,4.6c-0.8,0.1-1.7,0.1-2.5,0.1c-0.7,0-1.3,0-2-0.1l-1.2-4.6l-0.8-0.1
							c-0.3,0-0.5-0.1-0.7-0.1h0c-0.7-0.1-1.3-0.3-2-0.5l-0.8-0.2L17.8,51c-1.4-0.6-2.7-1.3-3.9-2.1l1.3-4.5l-0.6-0.5
							c-0.7-0.6-1.3-1.2-2-1.9l-0.5-0.6l-4.6,1.3c-0.9-1.2-1.6-2.4-2.3-3.7l3.4-3.3l-0.3-0.8C8,34,7.8,33.2,7.6,32.3l-0.2-0.8
							l-4.7-1.1c-0.1-0.8-0.1-1.6-0.1-2.4c0-0.6,0-1.3,0.1-1.9l4.7-1.2l0.1-0.8c0-0.2,0.1-0.5,0.1-0.7c0.1-0.6,0.3-1.3,0.5-1.9
							l0.3-0.8l-3.5-3.2c0.6-1.3,1.3-2.6,2.2-3.8l4.6,1.2l0.5-0.6c0.6-0.7,1.2-1.3,1.9-1.9l0.6-0.5l-1.4-4.5
							c1.2-0.9,2.5-1.6,3.9-2.2l3.4,3.3l0.8-0.3c0.9-0.3,1.7-0.5,2.6-0.7l0.8-0.2L26,2.7c0.8-0.1,1.7-0.1,2.5-0.1c0.7,0,1.3,0,2,0.1
							l1.2,4.6l0.8,0.1c0.3,0,0.5,0.1,0.7,0.1l0,0c0.7,0.1,1.3,0.3,2,0.5L36,8.3l3.3-3.4C40.6,5.4,42,6.2,43.2,7l-1.3,4.5l0.6,0.5
							c0.7,0.6,1.4,1.2,2,1.9l0.5,0.6l4.6-1.3c0.9,1.2,1.6,2.4,2.3,3.7l-3.4,3.3l0.3,0.8c0.3,0.8,0.6,1.7,0.7,2.6l0.2,0.8l4.7,1.1
							c0.1,0.8,0.1,1.6,0.1,2.4C54.5,28.5,54.5,29.2,54.5,29.8L54.5,29.8z"/>
						
							<linearGradient id="Path_14038_1_" gradientUnits="userSpaceOnUse" x1="-43.0785" y1="411.8798" x2="-42.0625" y2="411.8798" gradientTransform="matrix(34.829 0 0 -34.0856 1511.2448 14067.0879)">
							<stop  offset="0" style="stop-color:#F0047F"/>
							<stop  offset="1" style="stop-color:#13007C"/>
						</linearGradient>
						<path id="Path_14038" class="st22" d="M33.8,11.7c-1.7-0.5-3.5-0.8-5.2-0.8c-7.5,0-14.2,4.8-16.6,11.9
							c-0.5,1.7-0.8,3.4-0.8,5.1c0.1,7.5,5,14.1,12.2,16.3c1.7,0.5,3.5,0.8,5.2,0.8c7.5,0,14.2-4.8,16.6-11.9
							c0.5-1.7,0.8-3.4,0.8-5.1C45.9,20.4,41,13.8,33.8,11.7z M42.7,32.3c-2,6.1-7.8,10.2-14.2,10.1c-1.5,0-3-0.2-4.5-0.7L23.7,43
							l0.4-1.2c-6.1-1.8-10.3-7.4-10.4-13.8c0-1.5,0.2-2.9,0.7-4.3c2-6.1,7.8-10.2,14.2-10.1c1.5,0,3,0.2,4.5,0.7
							c6.1,1.8,10.3,7.4,10.4,13.8C43.4,29.4,43.2,30.9,42.7,32.3L42.7,32.3z"/>
					</g>
					<path id="Path_14039" class="st14" d="M24.8,88.8c3.7-0.1,6.6-3.1,6.5-6.8c-0.1-3.7-3.1-6.6-6.8-6.5c-3.6,0.1-6.5,3-6.5,6.6
						C18,85.9,21.1,88.9,24.8,88.8"/>
					
						<linearGradient id="Path_14040_1_" gradientUnits="userSpaceOnUse" x1="1.3409" y1="448.1977" x2="2.3969" y2="448.1977" gradientTransform="matrix(15.0141 0 0 -15.0125 -3.0874 6810.7539)">
						<stop  offset="0" style="stop-color:#F0047F"/>
						<stop  offset="1" style="stop-color:#13007C"/>
					</linearGradient>
					<path id="Path_14040" class="st23" d="M24.8,74.7c-4.1,0.1-7.4,3.5-7.3,7.7s3.5,7.4,7.7,7.3c4.1-0.1,7.3-3.4,7.3-7.5
						C32.4,78,29,74.6,24.8,74.7z M24.8,88c-3.2-0.1-5.7-2.8-5.6-6c0.1-3.2,2.8-5.7,6-5.6c3.1,0.1,5.6,2.7,5.6,5.8
						C30.7,85.4,28,88,24.8,88L24.8,88z"/>
					<path id="Path_14041" class="st8" d="M24.8,79.3c-1.6,0-2.9,1.4-2.9,3c0,1.6,1.4,2.9,3,2.9c1.6,0,2.9-1.3,2.9-2.9
						C27.8,80.6,26.4,79.3,24.8,79.3z"/>
					<path id="Path_14042" class="st14" d="M48.2,94.5c3.7-0.1,6.6-3.1,6.5-6.8c-0.1-3.7-3.1-6.6-6.8-6.5c-3.6,0.1-6.5,3-6.5,6.6
						C41.4,91.5,44.5,94.5,48.2,94.5"/>
					
						<linearGradient id="Path_14043_1_" gradientUnits="userSpaceOnUse" x1="1.342" y1="448.1974" x2="2.398" y2="448.1974" gradientTransform="matrix(15.0161 0 0 -15.0145 20.2876 6817.2749)">
						<stop  offset="0" style="stop-color:#F0047F"/>
						<stop  offset="1" style="stop-color:#13007C"/>
					</linearGradient>
					<path id="Path_14043" class="st24" d="M48.2,80.3c-4.1,0.1-7.4,3.5-7.3,7.7c0.1,4.1,3.5,7.4,7.7,7.3c4.1-0.1,7.3-3.4,7.3-7.5
						C55.8,83.6,52.4,80.3,48.2,80.3z M48.2,93.6c-3.2-0.1-5.7-2.8-5.6-6c0.1-3.2,2.8-5.7,6-5.6c3.1,0.1,5.6,2.7,5.6,5.8
						C54.1,91.1,51.4,93.6,48.2,93.6L48.2,93.6z"/>
					<path id="Path_14044" class="st8" d="M48.2,84.9c-1.6,0-2.9,1.4-2.9,3c0,1.6,1.4,2.9,3,2.9c1.6,0,2.9-1.3,2.9-2.9
						C51.2,86.2,49.8,84.9,48.2,84.9z"/>
					<path id="Path_14045" class="st14" d="M29.3,115.4c3.7-0.1,6.6-3.1,6.5-6.8c-0.1-3.7-3.1-6.6-6.8-6.5c-3.6,0.1-6.5,3-6.5,6.6
						C22.6,112.4,25.6,115.4,29.3,115.4"/>
					
						<linearGradient id="Path_14046_1_" gradientUnits="userSpaceOnUse" x1="1.342" y1="448.1974" x2="2.398" y2="448.1974" gradientTransform="matrix(15.0161 0 0 -15.0145 1.4296 6838.1528)">
						<stop  offset="0" style="stop-color:#F0047F"/>
						<stop  offset="1" style="stop-color:#13007C"/>
					</linearGradient>
					<path id="Path_14046" class="st25" d="M29.3,101.2c-4.1,0.1-7.4,3.5-7.3,7.7c0.1,4.1,3.5,7.4,7.7,7.3c4.1-0.1,7.3-3.4,7.3-7.5
						C37,104.5,33.5,101.2,29.3,101.2z M29.3,114.5c-3.2-0.1-5.7-2.8-5.6-6c0.1-3.2,2.8-5.7,6-5.6c3.1,0.1,5.6,2.7,5.6,5.8
						C35.2,112,32.6,114.5,29.3,114.5L29.3,114.5z"/>
					<path id="Path_14047" class="st8" d="M29.3,105.8c-1.6,0-2.9,1.4-2.9,3c0,1.6,1.4,2.9,3,2.9c1.6,0,2.9-1.3,2.9-2.9
						C32.3,107.1,31,105.8,29.3,105.8z"/>
					<path id="Path_14048" class="st26" d="M33.1,40.9c-3.7-0.8-7.4,1.4-8.2,5.1c-0.8,3.6,1.5,7.2,5.2,8c0,0,0.1,0,0.1,0
						c3.7,0.8,7.4-1.4,8.2-5.1C39.1,45.3,36.8,41.7,33.1,40.9C33.2,40.9,33.1,40.9,33.1,40.9z"/>
					<path id="Path_14049" class="st14" d="M43.6,56.5c0.7-1,1.4-2.1,1.8-3.2l-2-1.9c0.1-0.4,0.2-0.8,0.3-1.2c0-0.1,0.1-0.3,0.1-0.4
						l2.7-0.7c0.1-1.2,0.1-2.4,0-3.7l-2.7-0.6c-0.1-0.5-0.3-1.1-0.5-1.6l2-1.9c-0.5-1.1-1.2-2.2-1.9-3.1l-2.7,0.8
						c-0.4-0.4-0.8-0.8-1.2-1.1l0.7-2.7c-1-0.7-2.1-1.3-3.3-1.8l-1.9,2c-0.4-0.1-0.8-0.2-1.2-0.3c-0.1,0-0.3-0.1-0.4-0.1l-0.7-2.7
						c-1.2-0.1-2.5-0.1-3.7,0L28.2,35c-0.5,0.1-1.1,0.3-1.6,0.4l-2-2c-1.1,0.5-2.2,1.1-3.2,1.9l0.8,2.6c-0.4,0.4-0.8,0.7-1.2,1.2
						l-2.7-0.7c-0.7,1-1.4,2.1-1.8,3.2l2,1.9c-0.1,0.4-0.2,0.8-0.3,1.2c0,0.1-0.1,0.3-0.1,0.4l-2.7,0.7c-0.1,1.2-0.1,2.4,0,3.7
						l2.7,0.6c0.1,0.5,0.3,1.1,0.5,1.6l-2,1.9c0.5,1.1,1.1,2.2,1.9,3.1l2.7-0.8c0.4,0.4,0.8,0.8,1.2,1.1l-0.7,2.6
						c1,0.7,2.1,1.3,3.3,1.8l1.9-2c0.4,0.1,0.8,0.2,1.2,0.3c0.1,0,0.3,0.1,0.4,0.1l0.7,2.7c1.2,0.1,2.5,0.1,3.7,0l0.7-2.7
						c0.5-0.1,1.1-0.3,1.6-0.4l2,2c1.1-0.5,2.2-1.1,3.2-1.9l-0.8-2.6c0.4-0.4,0.8-0.8,1.2-1.2L43.6,56.5z"/>
					
						<linearGradient id="Path_14050_1_" gradientUnits="userSpaceOnUse" x1="5.5684" y1="447.1658" x2="6.5814" y2="447.1658" gradientTransform="matrix(32.9491 0 0 -32.23 -169.1975 14459.5996)">
						<stop  offset="0" style="stop-color:#F0047F"/>
						<stop  offset="1" style="stop-color:#13007C"/>
					</linearGradient>
					<path id="Path_14050" class="st27" d="M47.3,45.3l-0.1-0.6l-2.8-0.7c-0.1-0.2-0.1-0.4-0.2-0.6l2-2L46,40.9
						c-0.5-1.2-1.2-2.3-2-3.3l-0.4-0.5L40.9,38c-0.2-0.1-0.3-0.3-0.5-0.4l0.8-2.7l-0.5-0.3c-1.1-0.8-2.2-1.4-3.4-1.9l-0.5-0.2
						l-2,2.1c-0.2-0.1-0.4-0.1-0.7-0.2l-0.7-2.7l-0.6-0.1c-0.6-0.1-1.2-0.1-1.8-0.1c-0.7,0-1.4,0-2.1,0.1l-0.6,0.1l-0.7,2.7
						c-0.2,0.1-0.4,0.1-0.7,0.2l-2-2l-0.5,0.2c-1.2,0.5-2.3,1.2-3.4,2L20.4,35l0.8,2.7c-0.2,0.1-0.3,0.3-0.5,0.5L18,37.4l-0.3,0.5
						c-0.8,1-1.4,2.2-1.9,3.4l-0.2,0.6l2.1,1.9c-0.1,0.2-0.1,0.4-0.2,0.6l-2.8,0.7l-0.1,0.6c-0.1,0.6-0.1,1.2-0.1,1.8
						c0,0.7,0,1.4,0.1,2.1l0.1,0.6l2.8,0.7c0.1,0.2,0.1,0.4,0.2,0.6l-2,2l0.2,0.5c0.5,1.2,1.2,2.3,2,3.3l0.4,0.5l2.8-0.8
						c0.1,0.2,0.3,0.3,0.5,0.4l-0.8,2.7l0.5,0.3c1.1,0.8,2.2,1.4,3.4,1.9l0.5,0.2l2-2c0.2,0.1,0.4,0.1,0.7,0.2l0.7,2.7l0.6,0.1
						c0.6,0.1,1.2,0.1,1.8,0.1c0.7,0,1.4,0,2.1-0.1l0.6-0.1l0.7-2.7c0.2-0.1,0.4-0.1,0.7-0.2l2,2l0.5-0.2c1.2-0.5,2.3-1.2,3.4-2
						l0.5-0.4l-0.8-2.7c0.2-0.1,0.3-0.3,0.5-0.5l2.2,0.6l0.6,0.1l0.3-0.5c0.8-1,1.4-2.2,1.9-3.4l0.2-0.6l-2.1-1.9
						c0.1-0.2,0.1-0.4,0.2-0.6l2.8-0.7l0.1-0.6c0.1-0.6,0.1-1.2,0.1-1.8C47.4,46.7,47.4,46,47.3,45.3z M17.4,44.5L17.4,44.5z
						 M27.9,60.7L27.9,60.7L27.9,60.7z M45.7,48.4L43,49.1l-0.1,0.5c0,0.1-0.1,0.3-0.1,0.4v0v0c-0.1,0.4-0.2,0.7-0.3,1.1l-0.2,0.5
						l2,1.8c-0.3,0.7-0.7,1.4-1.2,2l-2.6-0.7l-0.4,0.4c-0.3,0.4-0.7,0.8-1.1,1.1l-0.4,0.4l0.8,2.6c-0.7,0.4-1.3,0.8-2.1,1.2
						l-1.9-1.9L35,58.6c-0.5,0.2-1,0.3-1.5,0.4L33,59.2l-0.6,2.6c-0.4,0-0.9,0.1-1.3,0.1c-0.3,0-0.7,0-1.1-0.1l-0.7-2.6l-0.5-0.1
						c-0.1,0-0.3,0-0.4-0.1h0c-0.4-0.1-0.8-0.2-1.1-0.3l-0.5-0.2l-1.9,1.9c-0.7-0.3-1.4-0.7-2.1-1.1l0.7-2.6L23,56.4
						c-0.4-0.3-0.8-0.7-1.1-1.1L21.5,55l-2.6,0.8c-0.5-0.6-0.9-1.3-1.2-2l2-1.9l-0.2-0.5c-0.2-0.5-0.3-1-0.4-1.5l-0.1-0.5l-2.7-0.6
						c0-0.4-0.1-0.9-0.1-1.3c0-0.3,0-0.7,0.1-1l2.7-0.7l0.1-0.5c0-0.1,0-0.3,0.1-0.4l0,0c0.1-0.4,0.2-0.7,0.3-1.1l0.2-0.5l-2-1.8
						c0.3-0.7,0.7-1.4,1.2-2l2.6,0.7l0.4-0.4c0.3-0.4,0.7-0.7,1.1-1.1l0.4-0.4l-0.8-2.6c0.7-0.5,1.3-0.8,2.1-1.2l1.9,1.9l0.5-0.2
						c0.5-0.2,1-0.3,1.5-0.4l0.5-0.1l0.6-2.6c0.4,0,0.9-0.1,1.3-0.1c0.3,0,0.7,0,1.1,0.1l0.7,2.6l0.5,0.1c0.1,0,0.3,0.1,0.4,0.1
						c0.4,0.1,0.8,0.2,1.1,0.3l0.5,0.2l1.9-1.9c0.7,0.3,1.4,0.7,2.1,1.1l-0.7,2.6l0.4,0.4c0.4,0.3,0.8,0.7,1.1,1.1l0.4,0.4l2.6-0.8
						c0.5,0.6,0.9,1.3,1.2,2L42.2,43l0.2,0.5c0.2,0.5,0.3,1,0.4,1.5l0.1,0.5l2.7,0.6c0,0.4,0.1,0.9,0.1,1.3
						C45.7,47.7,45.7,48.1,45.7,48.4L45.7,48.4z"/>
					<path id="Path_14051" class="st14" d="M31,54.1c3.7-0.1,6.6-3.1,6.5-6.8c-0.1-3.7-3.1-6.6-6.8-6.5c-3.6,0.1-6.5,3-6.5,6.6
						C24.2,51.2,27.2,54.1,31,54.1"/>
					
						<linearGradient id="Path_14052_1_" gradientUnits="userSpaceOnUse" x1="1.3409" y1="448.1977" x2="2.3969" y2="448.1977" gradientTransform="matrix(15.0141 0 0 -15.0125 3.0686 6776.0029)">
						<stop  offset="0" style="stop-color:#F0047F"/>
						<stop  offset="1" style="stop-color:#13007C"/>
					</linearGradient>
					<path id="Path_14052" class="st28" d="M31,39.9c-4.1,0.1-7.4,3.5-7.3,7.7s3.5,7.4,7.7,7.3c4.1-0.1,7.3-3.4,7.3-7.5
						C38.6,43.2,35.1,39.9,31,39.9z M31,53.2c-3.2-0.1-5.7-2.8-5.6-6c0.1-3.2,2.8-5.7,6-5.6c3.1,0.1,5.6,2.7,5.6,5.8
						C36.9,50.7,34.2,53.3,31,53.2L31,53.2z"/>
					<path id="Path_14053" class="st8" d="M31,44.5c-1.6,0-2.9,1.4-2.9,3c0,1.6,1.4,2.9,3,2.9c1.6,0,2.9-1.3,2.9-2.9
						C33.9,45.8,32.6,44.5,31,44.5z"/>
					<path id="Path_14054" class="st14" d="M95,113.4c0.7-0.5,1.4-1.2,2-1.9l-1-1.8c0.2-0.2,0.3-0.5,0.5-0.8
						c0.1-0.1,0.1-0.2,0.2-0.3l2.1,0.1c0.4-0.8,0.6-1.7,0.8-2.6l-1.8-1c0-0.4,0-0.8,0-1.2l1.9-1c-0.1-0.9-0.3-1.8-0.7-2.7l-2.1,0
						c-0.2-0.4-0.4-0.7-0.6-1.1l1.1-1.7c-0.6-0.7-1.2-1.4-1.9-2l-1.8,1c-0.3-0.2-0.5-0.3-0.8-0.5c-0.1-0.1-0.2-0.1-0.3-0.1l0.1-2.1
						c-0.9-0.4-1.8-0.6-2.7-0.8l-1.1,1.8c-0.4,0-0.8,0-1.2,0l-1-1.8c-0.9,0.1-1.8,0.3-2.7,0.6l0,2.1c-0.4,0.2-0.7,0.4-1.1,0.6
						L81,95.2c-0.7,0.5-1.4,1.2-2,1.9l1,1.8c-0.2,0.2-0.3,0.5-0.5,0.8c-0.1,0.1-0.1,0.2-0.2,0.3l-2.1-0.1c-0.4,0.8-0.6,1.7-0.8,2.6
						l1.8,1c0,0.4,0,0.8,0,1.2l-1.9,1c0.1,0.9,0.3,1.8,0.7,2.7l2.1,0c0.2,0.4,0.4,0.7,0.6,1.1l-1.1,1.7c0.6,0.7,1.2,1.4,1.9,2l1.8-1
						c0.3,0.2,0.5,0.3,0.8,0.5c0.1,0.1,0.2,0.1,0.3,0.1l-0.1,2.1c0.9,0.4,1.8,0.6,2.7,0.8l1.1-1.8c0.4,0,0.8,0,1.2,0l1,1.8
						c0.9-0.1,1.8-0.3,2.7-0.6l0-2.1c0.4-0.2,0.7-0.4,1.1-0.6L95,113.4z"/>
					<g id="Group_7165" transform="translate(75.938 92.53)">
						
							<linearGradient id="Path_14055_1_" gradientUnits="userSpaceOnUse" x1="-182.843" y1="383.236" x2="-182.843" y2="383.236" gradientTransform="matrix(1 0 0 -1 186.047 390.105)">
							<stop  offset="0" style="stop-color:#F0047F"/>
							<stop  offset="1" style="stop-color:#13007C"/>
						</linearGradient>
						<path id="Path_14055" class="st29" d="M3.2,6.9L3.2,6.9z"/>
						
							<linearGradient id="Path_14056_1_" gradientUnits="userSpaceOnUse" x1="-71.6808" y1="354.9676" x2="-70.6448" y2="354.9676" gradientTransform="matrix(24.0671 0 0 -23.547 1724.7241 8370.1973)">
							<stop  offset="0" style="stop-color:#F0047F"/>
							<stop  offset="1" style="stop-color:#13007C"/>
						</linearGradient>
						<path id="Path_14056" class="st30" d="M22.2,11.8c0,0,0-0.1,0-0.1l1.9-1l0-0.3c-0.1-0.9-0.3-1.9-0.7-2.8l-0.1-0.3l-2.1,0
							c-0.1-0.2-0.2-0.4-0.3-0.6l1.1-1.8l-0.2-0.2c-0.6-0.8-1.3-1.5-2-2.1l-0.2-0.2l-1.9,1c-0.2-0.1-0.4-0.2-0.6-0.4l0,0l-0.1,0
							L17.1,1l-0.3-0.1C15.9,0.5,15,0.3,14,0.1l-0.3,0l-1.1,1.8c-0.2,0-0.4,0-0.6,0c-0.1,0-0.1,0-0.2,0l-1-1.8l-0.3,0
							c-1,0.1-1.9,0.3-2.8,0.7L7.5,0.8l0,2.1C7.3,3,7.1,3.1,6.9,3.2L5,2.1L4.8,2.3C4,2.9,3.3,3.5,2.7,4.3L2.5,4.5l1.1,1.8
							C3.5,6.5,3.3,6.7,3.2,6.9c0,0,0,0,0,0.1L1.1,6.8L0.9,7.1C0.6,8,0.3,8.9,0.1,9.8l0,0.3l1.8,1.1c0,0.2,0,0.4,0,0.6
							c0,0,0,0.1,0,0.1l-1.9,1l0,0.3c0.1,0.9,0.3,1.9,0.7,2.8l0.1,0.3l2.1,0c0.1,0.2,0.2,0.4,0.3,0.6l-1.1,1.8l0.2,0.2
							c0.6,0.8,1.3,1.5,2,2.1l0.2,0.2l1.9-1c0.2,0.1,0.4,0.2,0.6,0.4l0,0l0,0l0,0L7,22.5l0.3,0.1c0.9,0.4,1.8,0.6,2.8,0.8l0.3,0
							l1.1-1.8c0.2,0,0.4,0,0.6,0h0.1l1,1.8l0.3,0c1-0.1,1.9-0.3,2.8-0.7l0.3-0.1l0-2.1c0.2-0.1,0.4-0.2,0.7-0.3l1.6,1l0.2,0.2
							l0.2-0.2c0.8-0.6,1.5-1.2,2.1-2l0.2-0.2l-1.1-1.8c0.1-0.2,0.2-0.4,0.4-0.6l0,0l0,0l0,0l0,0c0,0,0,0,0,0l2.1,0.1l0.1-0.3
							c0.4-0.9,0.7-1.8,0.8-2.7l0-0.3l-1.8-1.1C22.2,12.2,22.2,12,22.2,11.8z M22.5,15.8l-2.1-0.1L20.3,16c-0.1,0.1-0.1,0.2-0.1,0.3
							l0,0v0c-0.1,0.3-0.3,0.5-0.5,0.7l-0.2,0.2l1,1.7c-0.5,0.5-1,1-1.5,1.4l-1.7-1.1L17,19.4c-0.3,0.2-0.7,0.4-1,0.6l-0.2,0.1l0,2
							c-0.7,0.2-1.4,0.4-2.1,0.5l-1-1.8l-0.3,0c-0.1,0-0.2,0-0.4,0c-0.3,0-0.5,0-0.8,0l-0.3,0l-1,1.7c-0.7-0.1-1.4-0.3-2-0.6l0.1-2
							l-0.2-0.1c-0.1,0-0.2-0.1-0.3-0.1l0,0c-0.3-0.1-0.5-0.3-0.7-0.5L6.5,19l-1.8,1c-0.5-0.4-1-0.9-1.5-1.5l1.1-1.7l-0.2-0.2
							c-0.2-0.3-0.4-0.7-0.6-1l-0.1-0.2l-2.1,0c-0.2-0.6-0.4-1.3-0.5-2l1.8-0.9l0-0.3c0-0.1,0-0.2,0-0.4c0-0.3,0-0.5,0-0.8l0-0.3
							L1,9.7c0.1-0.7,0.3-1.3,0.6-2l2.1,0.1l0.1-0.2c0-0.1,0.1-0.2,0.1-0.3l0,0C4.1,7,4.2,6.8,4.4,6.6l0.2-0.2l-1-1.7
							c0.5-0.5,1-1,1.5-1.4l1.7,1.1l0.2-0.1c0.3-0.2,0.7-0.4,1-0.6l0.3-0.1l0-2C9,1.2,9.7,1,10.4,0.9l1,1.8l0.3,0c0.1,0,0.3,0,0.4,0
							c0.3,0,0.5,0,0.8,0l0.3,0l1-1.7c0.7,0.1,1.4,0.3,2,0.6l-0.1,2l0.2,0.1c0.1,0,0.2,0.1,0.3,0.1l0,0c0.3,0.1,0.5,0.3,0.7,0.5
							l0.2,0.1l1.8-1c0.5,0.4,1,0.9,1.5,1.5l-1.1,1.7l0.1,0.2c0.2,0.3,0.4,0.7,0.6,1l0.1,0.2l2.1,0c0.2,0.6,0.4,1.3,0.5,2l-1.8,0.9
							l0,0.3c0,0.1,0,0.2,0,0.4c0,0.3,0,0.5,0,0.8l0,0.3l1.8,1C22.9,14.5,22.7,15.2,22.5,15.8z"/>
					</g>
					<path id="Path_14057" class="st14" d="M86.5,109c2.7,0.8,5.5-0.6,6.4-3.3c0.8-2.6-0.7-5.4-3.3-6.2c0,0-0.1,0-0.1,0
						c-2.7-0.8-5.5,0.6-6.4,3.3C82.3,105.5,83.8,108.2,86.5,109C86.4,109,86.5,109,86.5,109"/>
					<g id="Group_7166" transform="translate(82.458 98.912)">
						
							<linearGradient id="Path_14058_1_" gradientUnits="userSpaceOnUse" x1="-11662.0859" y1="376.854" x2="-11661.0049" y2="376.854" gradientTransform="matrix(1.000977e-02 0 0 -1 120.6313 387.391)">
							<stop  offset="0" style="stop-color:#F0047F"/>
							<stop  offset="1" style="stop-color:#13007C"/>
						</linearGradient>
						<path id="Path_14058" class="st31" d="M3.9,10.5L3.9,10.5L3.9,10.5L3.9,10.5z"/>
						
							<linearGradient id="Path_14059_1_" gradientUnits="userSpaceOnUse" x1="-83.9149" y1="350.0451" x2="-82.8369" y2="350.0451" gradientTransform="matrix(11.034 0 0 -10.7762 925.4858 3777.5596)">
							<stop  offset="0" style="stop-color:#F0047F"/>
							<stop  offset="1" style="stop-color:#13007C"/>
						</linearGradient>
						<path id="Path_14059" class="st32" d="M7.1,0.2C6.6,0.1,6.1,0,5.5,0C3.1,0,1,1.5,0.2,3.8C0.1,4.3,0,4.9,0,5.4
							c0,2.4,1.6,4.5,3.9,5.1c0.5,0.2,1.1,0.2,1.6,0.2c2.4,0,4.5-1.5,5.3-3.8C11,6.5,11,5.9,11,5.4C11,3,9.4,0.9,7.1,0.2z M10,6.7
							C9.3,8.6,7.5,9.9,5.5,9.9c-0.5,0-0.9-0.1-1.4-0.2L4,10.1l0.1-0.4C2.2,9.2,0.9,7.4,0.9,5.4c0-0.4,0.1-0.9,0.2-1.3
							c0.6-1.9,2.4-3.2,4.5-3.2c0.5,0,0.9,0.1,1.4,0.2c1.9,0.6,3.3,2.3,3.3,4.3C10.2,5.8,10.1,6.3,10,6.7L10,6.7z"/>
					</g>
					<path id="Path_14060" class="st8" d="M88.6,102.2c-1.2-0.4-2.4,0.3-2.8,1.4c-0.4,1.1,0.3,2.4,1.4,2.7c0,0,0,0,0,0
						c1.2,0.4,2.4-0.3,2.8-1.4C90.5,103.8,89.8,102.6,88.6,102.2C88.7,102.2,88.6,102.2,88.6,102.2z"/>
				</g>
			</g>
		</g>
		<g id="Group_7169">
			
				<linearGradient id="Path_14062_1_" gradientUnits="userSpaceOnUse" x1="11.201" y1="449.1495" x2="11.201" y2="448.1385" gradientTransform="matrix(120.074 0 0 -120.074 -1284.9111 53931.1797)">
				<stop  offset="0" style="stop-color:#F0047F"/>
				<stop  offset="1" style="stop-color:#13007C"/>
			</linearGradient>
			<path id="Path_14062" class="st33" d="M60,117.9v-2.1c30.8,0,55.8-25,55.8-55.8c0-30.8-25-55.8-55.8-55.8
				C29.2,4.3,4.3,29.2,4.3,60c0,30.8,25,55.7,55.8,55.8v4.3c-33.2,0-60-26.9-60-60S26.9,0,60,0s60,26.9,60,60c0,0,0,0,0,0
				c0,33.2-26.9,60-60,60L60,117.9z"/>
		</g>
	</g>
	<g id="Group_7194" transform="translate(361.514 624.601)">
		<g id="Group_7183" transform="translate(3.967 4.202)">
			<g>
				<defs>
					<path id="SVGID_3_" d="M0,57.4c0,31.7,25.7,57.4,57.4,57.4s57.4-25.7,57.4-57.4S89.1,0,57.4,0l0,0C25.7,0,0,25.7,0,57.4"/>
				</defs>
				<clipPath id="SVGID_4_">
					<use xlink:href="#SVGID_3_"  style="overflow:visible;"/>
				</clipPath>
				<g id="Group_7182" class="st34">
					<path id="Path_14063" class="st35" d="M31.1,90.2L31.1,90.2z M30.4,76.6H11.5v13.3l9.4,6.7l9.4-6.7 M20.9,98.2l-10.8-7.6V75.3
						h21.6v15.3L20.9,98.2z"/>
					<g id="Group_7171" transform="translate(9.619 74.763)">
						
							<linearGradient id="Path_14064_1_" gradientUnits="userSpaceOnUse" x1="28.8293" y1="168.7509" x2="28.8293" y2="167.7509" gradientTransform="matrix(22.64 0 0 -24.069 -641.3754 4061.6694)">
							<stop  offset="0" style="stop-color:#F0047F"/>
							<stop  offset="1" style="stop-color:#13007C"/>
						</linearGradient>
						<path id="Path_14064" class="st36" d="M11.3,24.1L0,16.1V0h22.6v16.1L11.3,24.1z M1,15.5l10.3,7.3 M1,1h20.6l-0.2,14.6V15h0
							v0.7l0.2-0.1 M2.4,14.9l8.9,6.3l8.9-6.3V2.3H2.4V14.9z"/>
					</g>
					<g id="Group_7172" transform="translate(15.83 83.127)">
						
							<linearGradient id="Path_14065_1_" gradientUnits="userSpaceOnUse" x1="16.249" y1="162.4171" x2="16.249" y2="161.4171" gradientTransform="matrix(10.0931 0 0 -8.9642 -158.9585 1455.9316)">
							<stop  offset="0" style="stop-color:#F0047F"/>
							<stop  offset="1" style="stop-color:#13007C"/>
						</linearGradient>
						<path id="Path_14065" class="st37" d="M7.7,9H2.4C1.1,9,0,8,0,6.7c0,0,0-0.1,0-0.1V2.4C0,1.1,1,0,2.3,0c0,0,0.1,0,0.1,0h5.3
							c1.3,0,2.4,1,2.4,2.3c0,0,0,0.1,0,0.1v4.2c0,1.3-1,2.4-2.3,2.4C7.8,9,7.7,9,7.7,9z M2.4,1.9c-0.6,0-0.6,0.4-0.6,0.5v4.2
							c0,0.5,0.4,0.5,0.5,0.5h5.3c0.5,0,0.5-0.4,0.5-0.5V2.4c0-0.5-0.4-0.5-0.5-0.5H2.4z"/>
					</g>
					<g id="Group_7173" transform="translate(17.609 78.441)">
						
							<linearGradient id="Path_14066_1_" gradientUnits="userSpaceOnUse" x1="8.2356" y1="171.2284" x2="8.2356" y2="170.2284" gradientTransform="matrix(6.5435 0 0 -3.94 -50.6257 674.6393)">
							<stop  offset="0" style="stop-color:#F0047F"/>
							<stop  offset="1" style="stop-color:#13007C"/>
						</linearGradient>
						<path id="Path_14066" class="st38" d="M6.5,3.9H4.7V2.7c0-0.3-0.1-0.8-0.6-0.8H2.5c-0.6,0-0.6,0.6-0.6,0.8v1.2H0V2.7
							C-0.1,1.3,0.9,0.1,2.3,0c0.1,0,0.1,0,0.2,0H4c1.4,0,2.5,1.2,2.5,2.6c0,0,0,0.1,0,0.1V3.9z"/>
					</g>
					
						<linearGradient id="Path_14067_1_" gradientUnits="userSpaceOnUse" x1="38.2514" y1="243.6392" x2="38.2514" y2="242.6392" gradientTransform="matrix(21.802 0 0 -21.801 -737.0999 5386.3325)">
						<stop  offset="0" style="stop-color:#F0047F"/>
						<stop  offset="1" style="stop-color:#13007C"/>
					</linearGradient>
					<path id="Path_14067" class="st39" d="M97.8,84.7h9.9v-9.9h-9.9V84.7z M99.8,76.7h5.9v5.9h-5.9V76.7z M86,84.7h9.9v-9.9H86
						V84.7z M87.9,76.7h5.9v5.9h-5.9V76.7z M101.8,80.7h2v-2h-2V80.7z M89.9,80.7h2v-2h-2L89.9,80.7z M105.8,86.7v2h-2v-2h-5.9v9.9
						h2v-5.9h2v2h5.9v-5.9L105.8,86.7z M86,96.6h9.9v-9.9H86V96.6z M87.9,88.6h5.9v5.9h-5.9V88.6z M89.9,92.6h2v-2h-2L89.9,92.6z
						 M105.8,96.6h2v-2h-2V96.6z M101.8,96.6h2v-2h-2V96.6z"/>
					<g id="Group_7174" transform="translate(31.454 11.018)">
						
							<linearGradient id="Path_14068_1_" gradientUnits="userSpaceOnUse" x1="9.8683" y1="232.0808" x2="9.8683" y2="231.0808" gradientTransform="matrix(51.5628 0 0 -36.7184 -483.059 8521.6426)">
							<stop  offset="0" style="stop-color:#F0047F"/>
							<stop  offset="1" style="stop-color:#13007C"/>
						</linearGradient>
						<path id="Path_14068" class="st40" d="M46.2,36.7H5.3c-2.9,0.1-5.3-2.2-5.3-5c0-0.1,0-0.2,0-0.3V5.3C-0.1,2.5,2.2,0.1,5,0
							c0.1,0,0.2,0,0.3,0h40.9c2.9-0.1,5.3,2.2,5.3,5c0,0.1,0,0.2,0,0.3v26.1c0.1,2.9-2.2,5.2-5,5.3C46.4,36.7,46.3,36.7,46.2,36.7z
							 M5.3,3C4.1,2.9,3.1,3.7,3,4.9c0,0.1,0,0.2,0,0.4v26.1c-0.1,1.2,0.8,2.3,2,2.4c0.1,0,0.2,0,0.4,0h40.9c1.2,0.1,2.3-0.8,2.4-2
							c0-0.1,0-0.2,0-0.4V5.3c0.1-1.2-0.8-2.3-2-2.4c-0.1,0-0.2,0-0.4,0H5.3z"/>
					</g>
					<g id="Group_7175" transform="translate(-4.999 67.129)">
						
							<linearGradient id="Path_14069_1_" gradientUnits="userSpaceOnUse" x1="46.3213" y1="175.9698" x2="46.3213" y2="174.9698" gradientTransform="matrix(51.5618 0 0 -36.7184 -2362.625 6461.3232)">
							<stop  offset="0" style="stop-color:#F0047F"/>
							<stop  offset="1" style="stop-color:#13007C"/>
						</linearGradient>
						<path id="Path_14069" class="st41" d="M46.2,36.7H5.3c-2.9,0.1-5.3-2.2-5.3-5c0-0.1,0-0.2,0-0.3V5.3C-0.1,2.5,2.2,0.1,5,0
							c0.1,0,0.2,0,0.3,0h40.9c2.9-0.1,5.3,2.2,5.3,5c0,0.1,0,0.2,0,0.3v26.1c0.1,2.9-2.2,5.2-5,5.3C46.4,36.7,46.3,36.7,46.2,36.7z
							 M5.3,3C4.1,2.9,3.1,3.7,3,5c0,0.1,0,0.2,0,0.4v26.1c-0.1,1.2,0.8,2.3,2,2.4c0.1,0,0.2,0,0.4,0h40.9c1.2,0.1,2.3-0.8,2.4-2
							c0-0.1,0-0.2,0-0.4V5.3c0.1-1.2-0.8-2.3-2-2.4c-0.1,0-0.2,0-0.4,0H5.3z"/>
					</g>
					<g id="Group_7176" transform="translate(69.669 67.129)">
						
							<linearGradient id="Path_14070_1_" gradientUnits="userSpaceOnUse" x1="-28.3467" y1="175.9698" x2="-28.3467" y2="174.9698" gradientTransform="matrix(51.5628 0 0 -36.7184 1487.4132 6461.3232)">
							<stop  offset="0" style="stop-color:#F0047F"/>
							<stop  offset="1" style="stop-color:#13007C"/>
						</linearGradient>
						<path id="Path_14070" class="st42" d="M46.2,36.7H5.3c-2.9,0.1-5.3-2.2-5.3-5c0-0.1,0-0.2,0-0.3V5.3C-0.1,2.5,2.2,0.1,5,0
							c0.1,0,0.2,0,0.3,0h40.9c2.9-0.1,5.3,2.2,5.3,5c0,0.1,0,0.2,0,0.3v26.1c0.1,2.9-2.2,5.2-5,5.3C46.4,36.7,46.3,36.7,46.2,36.7z
							 M5.3,3C4.1,2.9,3.1,3.7,3,4.9c0,0.1,0,0.2,0,0.4v26.1c-0.1,1.2,0.8,2.3,2,2.4c0.1,0,0.2,0,0.4,0h40.9c1.2,0.1,2.3-0.8,2.4-2
							c0-0.1,0-0.2,0-0.4V5.3c0.1-1.2-0.8-2.3-2-2.4c-0.1,0-0.2,0-0.4,0L5.3,3z"/>
					</g>
					<g id="Group_7177" transform="translate(31.256 53.646)">
						<path id="Path_14071" class="st7" d="M0.4,6.4c-0.6-0.6-0.6-1.5,0-2.1l0,0C1,3.7,2,3.7,2.5,4.3l0,0c0.6,0.6,0.6,1.5,0,2.1l0,0
							C2.3,6.7,1.9,6.8,1.5,6.8l0,0C1.1,6.8,0.7,6.7,0.4,6.4z M4.3,2.5C3.7,2,3.7,1,4.3,0.4l0,0c0.6-0.6,1.5-0.6,2.1,0l0,0
							C7,1,7,1.9,6.4,2.5c0,0,0,0,0,0l0,0C6.1,2.8,5.7,3,5.3,3l0,0C4.9,3,4.6,2.8,4.3,2.5L4.3,2.5z"/>
					</g>
					<path id="Path_14072" class="st43" d="M28.9,62.8L28.9,62.8 M40.4,51.3L40.4,51.3"/>
					<g id="Group_7178" transform="translate(78.14 53.646)">
						<path id="Path_14073" class="st7" d="M4.3,6.4c-0.6-0.6-0.6-1.5,0-2.1c0,0,0,0,0,0l0,0c0.6-0.6,1.5-0.6,2.1,0l0,0
							C7,4.9,7,5.8,6.4,6.4c0,0,0,0,0,0l0,0C6.1,6.7,5.7,6.8,5.3,6.8l0,0C4.9,6.8,4.6,6.7,4.3,6.4z M0.4,2.5C-0.1,2-0.1,1,0.4,0.4
							l0,0C1-0.1,2-0.1,2.5,0.4l0,0C3.1,1,3.1,2,2.5,2.5l0,0C2.3,2.8,1.9,3,1.5,3l0,0C1.1,3,0.7,2.8,0.4,2.5L0.4,2.5z"/>
					</g>
					<path id="Path_14074" class="st44" d="M87.3,62.8L87.3,62.8 M75.8,51.3L75.8,51.3"/>
					<g id="Group_7179" transform="translate(54.052 83.956)">
						<path id="Path_14075" class="st7" d="M5,1.5C5,0.7,5.7,0,6.5,0c0,0,0,0,0,0l0,0C7.3,0,8,0.7,8,1.5c0,0,0,0,0,0l0,0
							C8,2.3,7.3,3,6.5,3l0,0C5.7,3,5,2.3,5,1.5z M0,1.5C0,0.7,0.7,0,1.5,0c0,0,0,0,0,0l0,0C2.3,0,3,0.7,3,1.5c0,0,0,0,0,0l0,0
							C3,2.3,2.3,3,1.5,3l0,0C0.7,3,0,2.3,0,1.5C0,1.5,0,1.5,0,1.5L0,1.5z"/>
					</g>
					<path id="Path_14076" class="st44" d="M65.5,85.4L65.5,85.4 M50.5,85.4L50.5,85.4"/>
					<path id="Path_14077" class="st14" d="M65,72c0.7-0.6,1.4-1.2,2-1.9l-1-1.8c0.2-0.2,0.3-0.5,0.5-0.8c0.1-0.1,0.1-0.2,0.1-0.3
						l2.1,0.1c0.4-0.8,0.6-1.7,0.8-2.6l-1.8-1c0-0.4,0-0.8,0-1.2l1.8-1c-0.1-0.9-0.3-1.8-0.6-2.7l-2.1,0c-0.2-0.4-0.4-0.7-0.6-1.1
						l1.1-1.7c-0.6-0.7-1.2-1.4-1.9-2l-1.8,1c-0.2-0.2-0.5-0.3-0.8-0.5c-0.1-0.1-0.2-0.1-0.3-0.1l0.1-2.1c-0.8-0.4-1.7-0.6-2.6-0.8
						l-1,1.8c-0.4,0-0.8,0-1.2,0l-1-1.8c-0.9,0.1-1.8,0.3-2.7,0.7l0,2.1c-0.4,0.2-0.7,0.4-1.1,0.6l-1.7-1.1c-0.7,0.6-1.4,1.2-2,1.9
						l1,1.8c-0.2,0.2-0.3,0.5-0.5,0.8c-0.1,0.1-0.1,0.2-0.1,0.3l-2.1-0.1c-0.4,0.8-0.6,1.7-0.8,2.6l1.8,1c0,0.4,0,0.8,0,1.2l-1.8,1
						c0.1,0.9,0.3,1.8,0.7,2.7l2.1,0c0.2,0.4,0.4,0.7,0.6,1.1l-1.1,1.7c0.6,0.7,1.2,1.4,1.9,2l1.8-1c0.2,0.2,0.5,0.3,0.8,0.5
						c0.1,0.1,0.2,0.1,0.3,0.1l-0.1,2.1c0.8,0.4,1.7,0.6,2.6,0.8l1-1.8c0.4,0,0.8,0,1.2,0l1,1.8c0.9-0.1,1.8-0.3,2.7-0.7l0-2.1
						c0.4-0.2,0.7-0.4,1.1-0.6L65,72z"/>
					<g id="Group_7180" transform="translate(45.761 50.482)">
						
							<linearGradient id="Path_14078_1_" gradientUnits="userSpaceOnUse" x1="-6.885" y1="193.0008" x2="-6.885" y2="192.0008" gradientTransform="matrix(24.702 0 0 -24.705 182.4246 4768.0898)">
							<stop  offset="0" style="stop-color:#F0047F"/>
							<stop  offset="1" style="stop-color:#13007C"/>
						</linearGradient>
						<path id="Path_14078" class="st45" d="M13.2,24.7l-1-1.9H12l-1.1,1.8l-0.6-0.1c-1-0.2-1.9-0.4-2.8-0.8l-0.6-0.2L7,21.3
							l-0.2-0.1L5,22.3l-0.5-0.4c-0.8-0.6-1.5-1.4-2.1-2.1l-0.4-0.5l1.1-1.8c0-0.1-0.1-0.1-0.1-0.2l-2.1,0l-0.2-0.6
							c-0.3-0.9-0.6-1.9-0.7-2.9L0,13.2l1.9-1c0-0.1,0-0.1,0-0.2L0,10.9l0.1-0.6c0.2-1,0.4-1.9,0.8-2.8l0.2-0.6L3.4,7
							c0-0.1,0.1-0.1,0.1-0.2L2.4,5l0.4-0.5C3.4,3.7,4.1,3,4.9,2.5l0.5-0.4l1.8,1.1l0.2-0.1l0-2.1L8,0.8c0.9-0.3,1.9-0.6,2.9-0.7
							L11.5,0l1,1.9h0.2L13.8,0l0.6,0.1c1,0.2,1.9,0.4,2.8,0.8l0.6,0.2l-0.1,2.1l0.2,0.1l1.9-1.1l0.5,0.4c0.8,0.6,1.5,1.4,2.1,2.1
							l0.4,0.5l-1.1,1.8c0,0.1,0.1,0.1,0.1,0.2l2.1,0L23.9,8c0.3,0.9,0.6,1.9,0.7,2.9l0.1,0.6l-1.9,1c0,0.1,0,0.1,0,0.2l1.8,1.1
							l-0.1,0.6c-0.2,1-0.4,1.9-0.8,2.8l-0.2,0.6l-2.1-0.1c0,0.1-0.1,0.1-0.1,0.2l1.1,1.9l-0.4,0.5c-0.6,0.8-1.4,1.5-2.1,2.1
							l-0.5,0.4l-1.8-1.1l-0.2,0.1l0,2.1l-0.6,0.2c-0.9,0.3-1.9,0.6-2.9,0.7L13.2,24.7z M13.3,21l0.9,1.8c0.4-0.1,0.9-0.2,1.3-0.3
							l0-2l0.5-0.2c0.3-0.2,0.7-0.3,1-0.5l0.5-0.3l1.7,1.1c0.3-0.3,0.7-0.6,1-0.9l-1-1.7l0.3-0.5c0.2-0.2,0.3-0.5,0.4-0.7
							c0-0.1,0.1-0.1,0.1-0.2l0.3-0.6l2,0.1c0.2-0.4,0.3-0.8,0.4-1.3l-1.7-1l0-0.6c0-0.4,0-0.7,0-1.1l0-0.6l1.8-0.9
							c-0.1-0.4-0.2-0.9-0.3-1.3l-2,0l-0.2-0.5c-0.2-0.3-0.3-0.7-0.5-1l-0.3-0.5l1.1-1.7c-0.3-0.3-0.6-0.7-0.9-1l-1.7,1l-0.5-0.3
							c-0.2-0.2-0.5-0.3-0.7-0.4l-0.7-0.4l0-0.6L16,2.4c-0.4-0.2-0.8-0.3-1.3-0.4l-1,1.7l-0.6,0c-0.4,0-0.7,0-1.1,0l-0.6,0l-0.9-1.8
							C10.1,2,9.6,2.1,9.2,2.2l0,2L8.7,4.5C8.4,4.6,8,4.8,7.7,5L7.2,5.3L5.5,4.2c-0.3,0.3-0.7,0.6-1,0.9l1,1.7L5.2,7.4
							C5.1,7.6,4.9,7.8,4.8,8.1c0,0.1-0.1,0.2-0.1,0.2L4.4,8.8l-2-0.1C2.3,9.2,2.1,9.6,2,10l1.7,1l0,0.6c0,0.4,0,0.7,0,1.1l0,0.6
							l-1.8,0.9c0.1,0.4,0.2,0.9,0.3,1.3l2,0L4.5,16c0.2,0.3,0.3,0.7,0.5,1l0.3,0.5l-1.1,1.7c0.3,0.3,0.6,0.7,0.9,1l1.7-1l0.5,0.3
							c0.2,0.2,0.5,0.3,0.7,0.4l0.7,0.4l0,0.6l-0.1,1.4c0.4,0.2,0.8,0.3,1.3,0.4l1-1.7l0.6,0c0.4,0,0.7,0,1.1,0L13.3,21z"/>
					</g>
					<path id="Path_14079" class="st14" d="M56.7,67.6c2.6,0.8,5.4-0.7,6.2-3.3c0.8-2.6-0.7-5.4-3.3-6.2c-2.6-0.8-5.4,0.7-6.2,3.3
						C52.5,64,54,66.8,56.7,67.6"/>
					<g id="Group_7181" transform="translate(52.237 56.958)">
						
							<linearGradient id="Path_14080_1_" gradientUnits="userSpaceOnUse" x1="-18.533" y1="187.8183" x2="-18.533" y2="186.8183" gradientTransform="matrix(11.7551 0 0 -11.7536 223.737 2207.54)">
							<stop  offset="0" style="stop-color:#F0047F"/>
							<stop  offset="1" style="stop-color:#13007C"/>
						</linearGradient>
						<path id="Path_14080" class="st46" d="M5.9,11.8c-0.6,0-1.2-0.1-1.7-0.3l0,0c-3.1-0.9-4.8-4.2-3.9-7.3
							c0.9-3.1,4.2-4.8,7.3-3.9c3.1,0.9,4.8,4.2,3.9,7.3C10.7,10.1,8.5,11.8,5.9,11.8L5.9,11.8z M4.7,9.8c2.2,0.7,4.4-0.6,5.1-2.7
							C10.4,4.9,9.2,2.6,7.1,2C4.9,1.3,2.6,2.5,2,4.7C1.3,6.8,2.5,9.1,4.7,9.8C4.7,9.8,4.7,9.8,4.7,9.8z"/>
					</g>
					<path id="Path_14081" class="st8" d="M57.5,64.9c1.2,0.4,2.4-0.3,2.7-1.5c0.4-1.2-0.3-2.4-1.5-2.7c-1.2-0.4-2.4,0.3-2.7,1.5
						C55.7,63.4,56.3,64.6,57.5,64.9C57.5,64.9,57.5,64.9,57.5,64.9"/>
				</g>
			</g>
		</g>
		<g id="Group_7184">
			
				<linearGradient id="Path_14083_1_" gradientUnits="userSpaceOnUse" x1="46.5979" y1="246.7462" x2="46.5979" y2="245.7352" gradientTransform="matrix(123.266 0 0 -123.266 -5682.312 30415.4199)">
				<stop  offset="0" style="stop-color:#F0047F"/>
				<stop  offset="1" style="stop-color:#13007C"/>
			</linearGradient>
			<path id="Path_14083" class="st47" d="M61.6,121.1v-2.2c31.6,0,57.2-25.6,57.2-57.2S93.2,4.4,61.6,4.4S4.4,30,4.4,61.6
				c0,0,0,0,0,0c0,31.6,25.6,57.2,57.2,57.2v4.4C27.6,123.3,0,95.7,0,61.6C0,27.6,27.6,0,61.6,0s61.6,27.6,61.6,61.6c0,0,0,0,0,0
				c0,34-27.6,61.6-61.6,61.6V121.1z"/>
		</g>
		<path id="Path_14084" class="st48" d="M77.8,36.1"/>
		<g id="Group_7193" transform="translate(37.508 24.363)">
			<g id="Group_7192">
				<path id="Path_14085" class="st49" d="M42.6,12.9"/>
				<g id="Group_7185" transform="translate(44.495 11.921)">
					<path id="Path_14086" class="st7" d="M0.5,0.3C0.5,0.4,0.5,0.4,0.5,0.3C0.5,0.4,0.5,0.4,0.5,0.3L0.4,0.4V0.3L0.5,0.3
						C0.5,0.3,0.5,0.3,0.5,0.3C0.5,0.3,0.5,0.3,0.5,0.3 M0.4,0.5L0.4,0.5l0.2,0.2h0.2L0.6,0.5c0,0,0.1,0,0.1-0.1c0,0,0-0.1,0-0.1
						c0,0,0-0.1-0.1-0.1c0,0-0.1,0-0.2,0H0.2v0.5h0.1L0.4,0.5z M0.1,0.4c0-0.1,0-0.1,0-0.1c0,0,0-0.1,0.1-0.1c0,0,0.1-0.1,0.1-0.1
						c0,0,0.1,0,0.1,0c0.1,0,0.1,0,0.1,0c0,0,0.1,0,0.1,0.1c0,0,0.1,0.1,0.1,0.1c0,0,0,0.1,0,0.1c0,0.1,0,0.1,0,0.1
						C0.7,0.7,0.6,0.8,0.4,0.8c0,0-0.1,0-0.1,0c0,0-0.1,0-0.1-0.1c0,0-0.1-0.1-0.1-0.1C0.1,0.5,0.1,0.5,0.1,0.4 M0,0.4
						c0,0.1,0,0.1,0,0.2c0,0.1,0.1,0.2,0.2,0.2c0.1,0,0.2,0,0.3,0c0.1,0,0.1-0.1,0.1-0.1c0,0,0.1-0.1,0.1-0.1c0-0.1,0-0.2,0-0.3
						c0-0.1-0.1-0.2-0.2-0.2C0.5,0,0.4,0,0.3,0c-0.1,0-0.1,0.1-0.1,0.1c0,0-0.1,0.1-0.1,0.1C0,0.3,0,0.4,0,0.4"/>
				</g>
				<g id="Group_7191">
					<g id="Group_7189">
						<g id="Group_7187">
							
								<image style="overflow:visible;opacity:0.5;enable-background:new    ;" width="16" height="16" id="Rectangle_4566" xlink:href="BEC5017454001576.png"  transform="matrix(1.1456 0 0 1.1456 0 0)">
							</image>
							<g id="Group_7186" transform="translate(3.32 3)">
								<path id="Rectangle_4567" class="st14" d="M2.4,0h7c1.3,0,2.4,1.1,2.4,2.4v7c0,1.3-1.1,2.4-2.4,2.4h-7
									C1.1,11.8,0,10.7,0,9.4v-7C0,1.1,1.1,0,2.4,0z"/>
							</g>
						</g>
						
							<linearGradient id="Rectangle_4568_1_" gradientUnits="userSpaceOnUse" x1="-0.6092" y1="224.806" x2="-0.6092" y2="223.922" gradientTransform="matrix(10.902 0 0 -10.902 15.869 2454.3135)">
							<stop  offset="0" style="stop-color:#F0047F"/>
							<stop  offset="1" style="stop-color:#13007C"/>
						</linearGradient>
						<path id="Rectangle_4568" class="st50" d="M5.8,3.5h6.9c1.1,0,2,0.9,2,2v6.9c0,1.1-0.9,2-2,2H5.8c-1.1,0-2-0.9-2-2V5.5
							C3.8,4.4,4.7,3.5,5.8,3.5z"/>
						<g id="Group_7188" transform="translate(4.467 6.122)">
							<path id="Path_14087" class="st14" d="M10.5,4.6c-0.5,0.3-1,0.5-1.5,0.1C8.6,4.3,8.8,3.8,9,3.4c0.2-0.5,0.2-0.6,0-0.8
								c-0.2-0.2-0.9,0.5-1.4,1C6.8,4.4,6,5.3,5.3,4.8C5.2,4.6,5.1,4.5,5,4.3C5,3.7,5.6,2.9,6.3,2.2c0.5-0.5,1.1-1.2,1.1-1.5
								c0,0,0-0.1,0-0.1C6.9,0.1,5.7,1.5,4.7,2.5C4.4,2.8,4.1,3.2,3.8,3.4C3.1,4.2,2.1,4.7,1,4.9c-0.1,0-0.2,0-0.3,0
								C0.4,4.8,0.2,4.6,0.1,4.3c-0.4-1.1,1.2-2.2,1.2-2.2l0.3,0.4c-0.4,0.3-1.3,1.1-1,1.7c0,0.1,0.2,0.2,0.3,0.3
								c0.6,0.1,1.9-0.6,2.6-1.3c0.3-0.3,0.6-0.6,0.9-0.9c1.2-1.3,2.5-2.7,3.4-2c0.1,0.1,0.2,0.3,0.2,0.4c0,0.5-0.5,1.1-1.2,1.9
								C6.2,3.1,5.5,3.8,5.5,4.2c0,0.1,0,0.1,0.1,0.1C6,4.6,6.7,3.9,7.3,3.3c0.7-0.8,1.4-1.5,2-1.1s0.3,1,0.2,1.4s-0.2,0.6,0,0.8
								c0.2,0.2,0.6,0,1.2-0.3L10.5,4.6z"/>
						</g>
						<path id="Path_14088" class="st14" d="M13.6,13.5l-0.9-0.9l-0.4,0.4l-0.7-1.8l1.8,0.7l-0.4,0.4l0.8,0.8L13.6,13.5z"/>
					</g>
					<g id="Group_7190" transform="translate(17.544 5.177)">
						
							<linearGradient id="Path_14089_1_" gradientUnits="userSpaceOnUse" x1="-11.1841" y1="218.9051" x2="-12.1821" y2="218.9051" gradientTransform="matrix(27.8307 0 0 -11.9142 339.005 2614.0322)">
							<stop  offset="0" style="stop-color:#F0047F"/>
							<stop  offset="1" style="stop-color:#13007C"/>
						</linearGradient>
						<path id="Path_14089" class="st51" d="M13.6,0c-0.8,0-1.6,0.2-2.4,0.5c-0.4,0.1-0.8,0.4-1.1,0.7C9.8,1.4,9.6,1.7,9.6,2
							c0,0.3,0.1,0.6,0.4,0.7c0.3,0.2,0.6,0.4,0.9,0.5c0.8,0.2,1.5,0.5,2.2,0.9c0.4,0.1,0.7,0.5,0.7,0.9c0,0.2-0.1,0.3-0.2,0.5
							c-0.7,0.7-1.5,1.2-2.5,1.4C10.6,7.1,10,7.2,9.3,7.2c-0.4,0-0.9,0-1.3-0.3C7.9,6.8,7.7,6.6,7.7,6.3c0-0.4,0.3-0.8,0.6-1.1
							c0.3-0.3,0.6-0.5,1-0.7c0.3-0.1,0.6-0.2,0.9-0.2c0.2,0,0.4,0,0.4-0.1s-0.1-0.1-0.2-0.1c-0.7,0-1.5,0.2-2.1,0.7
							C7.6,5.2,7.1,5.9,7.1,6.7c0,0.7,0.7,1.1,2,1.1c0.8,0,1.6-0.2,2.4-0.5c0.8-0.3,1.6-0.8,2.2-1.4c0.3-0.3,0.5-0.6,0.6-1
							c0-0.3-0.2-0.7-0.4-0.9c-0.3-0.3-0.6-0.5-0.9-0.6c-0.3-0.1-0.7-0.3-1.2-0.5c-0.5-0.2-0.9-0.3-1-0.4c-0.3-0.2-0.5-0.3-0.5-0.5
							c0-0.2,0.3-0.5,0.8-0.8c0.8-0.4,1.7-0.7,2.6-0.7c0.7,0,1.1,0.2,1,0.5c0,0.2-0.1,0.4-0.4,0.6C14.1,1.7,14,1.7,14,1.7
							c0,0.1,0.1,0.1,0.2,0c0.2-0.1,0.3-0.3,0.4-0.5c0.1-0.2,0.2-0.4,0.2-0.6C14.9,0.2,14.5,0,13.6,0z M7.8,3.5l-1.8,0
							c0,0-0.1,0-0.1,0C5.6,3.6,5.5,3.7,5.5,3.8c0,0.1,0.1,0.1,0.2,0.1h0.1c1.8,0,2.6-0.1,2.6-0.3C8.4,3.5,8.2,3.5,7.8,3.5z
							 M27.8,5.3c0,0-0.1,0-0.1,0c-0.3,0.4-0.6,0.7-0.9,1c-0.3,0.3-0.6,0.5-0.9,0.7c-0.2,0.1-0.4,0.1-0.5,0
							c-0.1-0.1-0.1-0.3-0.1-0.5c0-0.3,0.1-0.6,0.2-0.9c0.1-0.2,0.2-0.5,0.4-0.9C26,4.6,26.1,4.3,26.2,4c0-0.2-0.1-0.3-0.3-0.3
							c-0.3,0-0.5,0.2-0.8,0.3c-0.4,0.3-0.8,0.7-1.1,1.1c-0.5,0.5-0.8,0.9-1.1,1.3c0.4-1.1,0.7-1.8,0.8-2c0.1-0.1,0.1-0.2,0.1-0.4
							c0-0.1-0.1-0.1-0.2-0.2c-0.1,0-0.2,0-0.3,0c-0.1,0-0.1,0-0.2,0.1C23.1,4,23,4,23,4.1c0,0.1,0,0.1,0,0.2c0,0.1,0,0.2-0.1,0.3
							c0,0.1-0.1,0.4-0.3,0.8c-0.4,0.4-0.8,0.8-1.2,1.2c-0.3,0.3-0.6,0.5-1,0.7C20.6,7,20.8,6.5,21.1,6c0.3-0.6,0.5-1,0.6-1.2
							c0,0,0-0.1-0.2-0.2c-0.3-0.2-0.6-0.2-0.7,0c-0.6,0.7-1.3,1.4-2,2c-0.3,0.3-0.7,0.5-1.1,0.6c-0.2,0-0.2-0.1-0.2-0.4
							c0-0.3,0.2-0.5,0.3-0.8C18,5.6,18.3,5.2,18.6,5c0.3-0.3,0.7-0.5,1.1-0.7c0.3-0.2,0.7-0.3,1-0.3c0.3,0,0.5,0.1,0.6,0.2
							c0.1,0,0.1,0,0.1-0.1c0-0.1-0.1-0.2-0.2-0.3c-0.2-0.1-0.4-0.2-0.6-0.2c-0.2,0-0.4,0-0.7,0.1c-0.3,0.1-0.6,0.2-0.9,0.4
							c-0.4,0.2-0.8,0.5-1.1,0.8c-0.1,0.1-0.3,0.3-0.4,0.4l0,0l0,0c-0.1,0.1-0.1,0.2-0.2,0.3c-0.2,0.3-0.5,0.5-0.7,0.7
							c-0.3,0.3-0.6,0.5-0.9,0.7c-0.2,0.1-0.4,0.1-0.5,0C15.1,7,15,6.9,15,6.8c0-0.1,0-0.2,0-0.3c0.2-0.6,0.4-1.2,0.7-1.8
							c0-0.1,0.1-0.2,0.1-0.2c0,0,0-0.1,0-0.1C16,4.3,16,4.3,16,4.2c0-0.1,0-0.1,0-0.2c0-0.1-0.2-0.2-0.4-0.2h-0.1
							c-0.1,0-0.3,0.3-0.4,0.7c0,0,0,0.1,0,0.2c-0.2,0.3-0.5,0.8-1,1.3c0,0,0,0.1,0,0.1c0,0,0,0,0,0.1c0,0.1,0.1,0.1,0.2,0
							c0.2-0.2,0.3-0.4,0.5-0.6c-0.2,0.4-0.4,0.9-0.4,1.3c0,0.1,0,0.1,0,0.2c0.1,0.3,0.4,0.5,0.7,0.5c0.2,0,0.4,0,0.5-0.1
							c0.5-0.3,1-0.6,1.3-1l0,0c0,0,0,0.1,0,0.1c0,0.2,0.1,0.3,0.2,0.5c0.1,0.1,0.2,0.3,0.4,0.3c0.1,0.1,0.3,0.1,0.4,0.1
							c0.5,0,1-0.4,1.8-1.2c0.2-0.2,0.5-0.6,1-1.2c-0.3,1-0.8,1.9-1.2,2.9c-1,0.6-1.9,1.3-2.7,2.1c-0.4,0.3-0.6,0.8-0.6,1.3
							c0,0.3,0.2,0.6,0.6,0.7c0.1,0,0.2,0,0.2,0c0.6,0,1.2-0.5,1.8-1.4c0.2-0.4,0.7-1.3,1.4-2.7c0.4-0.3,0.8-0.6,1.2-1
							c0.4-0.4,0.8-0.7,1-0.9l-0.3,0.8c-0.1,0.4-0.2,0.6-0.2,0.7c0,0,0,0.1,0,0.1c0,0,0,0,0.1,0c0.2,0,0.4-0.1,0.6-0.2
							c0.3-0.3,0.6-0.7,0.8-1.1c0.3-0.5,0.7-0.9,1.1-1.4c0.4-0.3,0.6-0.5,0.8-0.5c0.1,0,0.1,0,0.1,0.1c0,0.1-0.1,0.3-0.2,0.4
							c-0.1,0.3-0.3,0.5-0.4,0.8c-0.1,0.2-0.1,0.4-0.2,0.6c0,0.2,0,0.3,0,0.5c0,0.2,0.1,0.3,0.2,0.5c0.2,0.1,0.4,0.2,0.6,0.2
							c0.3,0,0.6-0.1,0.9-0.3c0.3-0.2,0.6-0.5,0.9-0.8c0.3-0.3,0.5-0.5,0.7-0.9C27.8,5.5,27.8,5.4,27.8,5.3
							C27.8,5.4,27.8,5.4,27.8,5.3L27.8,5.3z M19.1,8.7C19,8.9,18.9,9,18.8,9.1l-0.2,0.4c-0.1,0.2-0.2,0.3-0.2,0.4l-0.2,0.4
							c-0.1,0.2-0.2,0.3-0.3,0.4s-0.2,0.2-0.3,0.3c-0.1,0.1-0.3,0.3-0.4,0.4c-0.1,0.1-0.2,0.2-0.4,0.2c-0.1,0-0.2,0-0.2-0.1
							c-0.1-0.1-0.1-0.2-0.1-0.2c0-0.5,0.3-0.9,0.6-1.2c0.7-0.6,1.4-1.2,2.1-1.8C19.2,8.3,19.2,8.5,19.1,8.7L19.1,8.7z M16.6,2.1
							c0,0-0.1,0.1-0.2,0.2l-0.2,0.2c-0.2,0.1-0.4,0.3-0.5,0.5c0,0.2,0.2,0.3,0.5,0.3c0.1,0,0.1-0.1,0.2-0.2
							c0.1-0.1,0.1-0.2,0.2-0.4L16.6,2.1C16.7,2.1,16.6,2.1,16.6,2.1C16.6,2.1,16.6,2.1,16.6,2.1L16.6,2.1z M1.2,6.5V4.3h3.5V3.2
							H1.2v-2H5V0H0v7.7h5.1V6.5L1.2,6.5z"/>
					</g>
				</g>
			</g>
		</g>
	</g>
	<g id="Group_7222" transform="translate(847.91 704.034)">
		<g id="Group_7214">
			<g>
				<defs>
					<rect id="SVGID_5_" x="0" y="0" width="123.3" height="123.3"/>
				</defs>
				<clipPath id="SVGID_6_">
					<use xlink:href="#SVGID_5_"  style="overflow:visible;"/>
				</clipPath>
				<g id="Group_7213" class="st52">
					<g id="Group_7196" transform="translate(0 0)">
						<g>
							<defs>
								<rect id="SVGID_7_" x="0" y="0" width="123.3" height="123.3"/>
							</defs>
							<clipPath id="SVGID_8_">
								<use xlink:href="#SVGID_7_"  style="overflow:visible;"/>
							</clipPath>
							<g id="Group_7195" class="st53">
								<path id="Path_14090" class="st4" d="M61.7,120.8c32.6,0,59.1-26.5,59.1-59.1S94.3,2.6,61.7,2.6C29,2.6,2.6,29,2.6,61.7
									C2.6,94.3,29,120.8,61.7,120.8C61.7,120.8,61.7,120.8,61.7,120.8"/>
							</g>
						</g>
					</g>
					<g id="Group_7198" transform="translate(2.56 2.561)">
						<g>
							<defs>
								<path id="SVGID_9_" d="M0,59.1c0,32.6,26.5,59.1,59.1,59.1c32.6,0,59.1-26.5,59.1-59.1C118.2,26.5,91.8,0,59.1,0
									C26.5,0,0,26.5,0,59.1C0,59.1,0,59.1,0,59.1"/>
							</defs>
							<clipPath id="SVGID_10_">
								<use xlink:href="#SVGID_9_"  style="overflow:visible;"/>
							</clipPath>
							<g id="Group_7197" class="st54">
								<path id="Path_14091" class="st14" d="M99.8,184.7H18.4c-10.7,0-19.4-7-19.4-15.6V34.6C-1,26,7.7,19,18.4,19h81.5
									c10.7,0,19.4,7,19.4,15.6v134.5C119.2,177.7,110.6,184.7,99.8,184.7"/>
								
									<linearGradient id="Path_14092_1_" gradientUnits="userSpaceOnUse" x1="-459.2103" y1="164.2835" x2="-459.2023" y2="164.2835" gradientTransform="matrix(122.316 0 0 -108.8149 54167.457 17948.8984)">
									<stop  offset="0" style="stop-color:#F0047F"/>
									<stop  offset="1" style="stop-color:#13007C"/>
								</linearGradient>
								<path id="Path_14092" class="st55" d="M99.8,126.1v0.7H18.4C7.3,126.8-2,122.1-2,116V28.8C-2,22.7,7.3,18,18.4,18h81.5
									c11.1,0,20.4,4.7,20.4,10.8V116c0,6.1-9.3,10.8-20.4,10.8v-1.3c10.3,0,18.4-4.4,18.4-9.5V28.8c0-5.1-8.1-9.5-18.4-9.5H18.4
									C8.1,19.3,0,23.7,0,28.8V116c0,5.1,8.1,9.5,18.4,9.5h81.5V126.1z"/>
								
									<linearGradient id="Path_14093_1_" gradientUnits="userSpaceOnUse" x1="-476.1158" y1="171.0972" x2="-476.0918" y2="171.0972" gradientTransform="matrix(61.608 0 0 -4.0959 27361.8906 768.924)">
									<stop  offset="0" style="stop-color:#F0047F"/>
									<stop  offset="1" style="stop-color:#13007C"/>
								</linearGradient>
								<path id="Path_14093" class="st56" d="M23.2,66.1h55.7c1.6,0,3,0.9,3,2s-1.3,2-3,2H23.2c-1.6,0-3-0.9-3-2
									S21.6,66.1,23.2,66.1"/>
								<path id="Path_14094" class="st14" d="M23.7,79c-1.8,0-3.3,1.4-3.3,3.2c0,0,0,0.1,0,0.1v27.4c0,1.8,1.4,3.3,3.2,3.3
									c0,0,0.1,0,0.1,0h18c1.8,0,3.3-1.4,3.3-3.2c0,0,0-0.1,0-0.1V82.4c0-1.8-1.4-3.3-3.2-3.3c0,0-0.1,0-0.1,0L23.7,79z"/>
								<path id="Path_14095" class="st57" d="M23.7,79c-1.8,0-3.3,1.4-3.3,3.2c0,0,0,0.1,0,0.1v27.4c0,1.8,1.4,3.3,3.2,3.3
									c0,0,0.1,0,0.1,0h18c1.8,0,3.3-1.4,3.3-3.2c0,0,0-0.1,0-0.1V82.4c0-1.8-1.4-3.3-3.2-3.3c0,0-0.1,0-0.1,0L23.7,79z"/>
							</g>
						</g>
					</g>
					<g id="Group_7200" transform="translate(26.845 109.439)">
						<g>
							<defs>
								<path id="SVGID_11_" d="M0,0c3.8,2.8,7.9,5.1,12.2,6.9c0.6-0.4,1-1,0.9-1.7V2c0-1.1-0.9-2-2-2c0,0-0.1,0-0.1,0L0,0z"/>
							</defs>
							<clipPath id="SVGID_12_">
								<use xlink:href="#SVGID_11_"  style="overflow:visible;"/>
							</clipPath>
							<g id="Group_7199" class="st58">
								
									<linearGradient id="Rectangle_4570_1_" gradientUnits="userSpaceOnUse" x1="-621.6766" y1="61.3621" x2="-621.5986" y2="61.3621" gradientTransform="matrix(13.16 0 0 -6.867 6251.2178 424.807)">
									<stop  offset="0" style="stop-color:#F0047F"/>
									<stop  offset="1" style="stop-color:#13007C"/>
								</linearGradient>
								<rect id="Rectangle_4570" x="0" y="0" class="st59" width="13.2" height="6.9"/>
							</g>
						</g>
					</g>
					<g id="Group_7202" transform="translate(2.56 2.561)">
						<g>
							<defs>
								<path id="SVGID_13_" d="M0,59.1c0,32.6,26.5,59.1,59.1,59.1c32.6,0,59.1-26.5,59.1-59.1C118.2,26.5,91.8,0,59.1,0
									C26.5,0,0,26.5,0,59.1C0,59.1,0,59.1,0,59.1"/>
							</defs>
							<clipPath id="SVGID_14_">
								<use xlink:href="#SVGID_13_"  style="overflow:visible;"/>
							</clipPath>
							<g id="Group_7201" class="st60">
								
									<linearGradient id="Path_14098_1_" gradientUnits="userSpaceOnUse" x1="-551.7215" y1="173.457" x2="-551.6675" y2="173.457" gradientTransform="matrix(18.654 0 0 -3.072 8378.459 622.7958)">
									<stop  offset="0" style="stop-color:#F0047F"/>
									<stop  offset="1" style="stop-color:#13007C"/>
								</linearGradient>
								<path id="Path_14098" class="st61" d="M20.5,88.4h15.6c0.8,0,1.5,0.7,1.5,1.5s-0.7,1.5-1.5,1.5H20.5c-0.8,0-1.5-0.7-1.5-1.5
									S19.6,88.4,20.5,88.4"/>
								
									<linearGradient id="Path_14099_1_" gradientUnits="userSpaceOnUse" x1="-551.7215" y1="173.457" x2="-551.6675" y2="173.457" gradientTransform="matrix(18.654 0 0 -3.072 8378.459 615.8098)">
									<stop  offset="0" style="stop-color:#F0047F"/>
									<stop  offset="1" style="stop-color:#13007C"/>
								</linearGradient>
								<path id="Path_14099" class="st62" d="M20.5,81.4h15.6c0.8,0,1.5,0.7,1.5,1.5s-0.7,1.5-1.5,1.5H20.5c-0.8,0-1.5-0.7-1.5-1.5
									S19.6,81.4,20.5,81.4"/>
								
									<linearGradient id="Path_14100_1_" gradientUnits="userSpaceOnUse" x1="-554.9198" y1="173.457" x2="-554.8648" y2="173.457" gradientTransform="matrix(18.653 0 0 -3.072 8440.9492 615.8098)">
									<stop  offset="0" style="stop-color:#F0047F"/>
									<stop  offset="1" style="stop-color:#13007C"/>
								</linearGradient>
								<path id="Path_14100" class="st63" d="M83.4,81.4H99c0.8,0,1.5,0.7,1.5,1.5s-0.7,1.5-1.5,1.5H83.4c-0.8,0-1.5-0.7-1.5-1.5
									S82.6,81.4,83.4,81.4"/>
								
									<linearGradient id="Path_14101_1_" gradientUnits="userSpaceOnUse" x1="-551.8152" y1="173.457" x2="-551.7603" y2="173.457" gradientTransform="matrix(18.733 0 0 -3.072 8413.6885 629.2333)">
									<stop  offset="0" style="stop-color:#F0047F"/>
									<stop  offset="1" style="stop-color:#13007C"/>
								</linearGradient>
								<path id="Path_14101" class="st64" d="M20.8,94.8h15.6c0.8,0,1.6,0.6,1.6,1.5c0,0.8-0.6,1.6-1.5,1.6c0,0-0.1,0-0.1,0H20.8
									c-0.8,0-1.6-0.6-1.6-1.5C19.2,95.6,19.9,94.9,20.8,94.8C20.8,94.8,20.8,94.8,20.8,94.8"/>
								
									<linearGradient id="Path_14102_1_" gradientUnits="userSpaceOnUse" x1="-554.9955" y1="173.457" x2="-554.9406" y2="173.457" gradientTransform="matrix(18.7321 0 0 -3.072 8475.8389 629.2333)">
									<stop  offset="0" style="stop-color:#F0047F"/>
									<stop  offset="1" style="stop-color:#13007C"/>
								</linearGradient>
								<path id="Path_14102" class="st65" d="M83.4,94.8H99c0.8,0,1.6,0.6,1.6,1.5c0,0.8-0.6,1.6-1.5,1.6c0,0-0.1,0-0.1,0H83.4
									c-0.8,0-1.6-0.6-1.6-1.5C81.8,95.6,82.5,94.9,83.4,94.8C83.3,94.8,83.4,94.8,83.4,94.8"/>
								
									<linearGradient id="Path_14103_1_" gradientUnits="userSpaceOnUse" x1="-554.9955" y1="173.457" x2="-554.9406" y2="173.457" gradientTransform="matrix(18.7321 0 0 -3.072 8475.8389 629.2333)">
									<stop  offset="0" style="stop-color:#F0047F"/>
									<stop  offset="1" style="stop-color:#13007C"/>
								</linearGradient>
								<path id="Path_14103" class="st66" d="M83.4,94.8H99c0.8,0,1.6,0.6,1.6,1.5c0,0.8-0.6,1.6-1.5,1.6c0,0-0.1,0-0.1,0H83.4
									c-0.8,0-1.6-0.6-1.6-1.5C81.8,95.6,82.5,94.9,83.4,94.8C83.3,94.8,83.4,94.8,83.4,94.8"/>
							</g>
						</g>
					</g>
					<g id="Group_7204" transform="translate(52.372 110.463)">
						<g>
							<defs>
								<path id="SVGID_15_" d="M2,0c0,0-2,0-2,2.6v3.9c0,0,0,2.6,2,2.6h14.3c0,0,2,0,2-2.6V2.6c0,0,0-2.6-2-2.6H2z"/>
							</defs>
							<clipPath id="SVGID_16_">
								<use xlink:href="#SVGID_15_"  style="overflow:visible;"/>
							</clipPath>
							<g id="Group_7203" class="st67">
								
									<linearGradient id="Rectangle_4571_1_" gradientUnits="userSpaceOnUse" x1="-604.6288" y1="59.2621" x2="-604.5738" y2="59.2621" gradientTransform="matrix(18.352 0 0 -9.215 9140.21 550.7073)">
									<stop  offset="0" style="stop-color:#F0047F"/>
									<stop  offset="1" style="stop-color:#13007C"/>
								</linearGradient>
								<rect id="Rectangle_4571" x="0" y="0" class="st68" width="18.4" height="9.2"/>
							</g>
						</g>
					</g>
					<g id="Group_7206" transform="translate(2.56 2.561)">
						<g>
							<defs>
								<path id="SVGID_17_" d="M0,59.1c0,32.6,26.5,59.1,59.1,59.1c32.6,0,59.1-26.5,59.1-59.1C118.2,26.5,91.8,0,59.1,0
									C26.5,0,0,26.5,0,59.1C0,59.1,0,59.1,0,59.1"/>
							</defs>
							<clipPath id="SVGID_18_">
								<use xlink:href="#SVGID_17_"  style="overflow:visible;"/>
							</clipPath>
							<g id="Group_7205" class="st69">
								
									<linearGradient id="Path_14106_1_" gradientUnits="userSpaceOnUse" x1="-555.1144" y1="173.457" x2="-555.0594" y2="173.457" gradientTransform="matrix(18.654 0 0 -3.072 8441.3506 622.7958)">
									<stop  offset="0" style="stop-color:#F0047F"/>
									<stop  offset="1" style="stop-color:#13007C"/>
								</linearGradient>
								<path id="Path_14106" class="st70" d="M83.4,88.4H99c0.8,0,1.5,0.7,1.5,1.5s-0.7,1.5-1.5,1.5H83.4c-0.8,0-1.5-0.7-1.5-1.5
									S82.5,88.4,83.4,88.4"/>
							</g>
						</g>
					</g>
					<g id="Group_7208" transform="translate(84.546 109.439)">
						<g>
							<defs>
								<path id="SVGID_19_" d="M2,0C0.9,0,0,0.9,0,2C0,2,0,2,0,2v3.1c0,0.5,0.2,1,0.5,1.4c4-1.7,7.9-3.9,11.4-6.5H2z"/>
							</defs>
							<clipPath id="SVGID_20_">
								<use xlink:href="#SVGID_19_"  style="overflow:visible;"/>
							</clipPath>
							<g id="Group_7207" class="st71">
								
									<linearGradient id="Rectangle_4572_1_" gradientUnits="userSpaceOnUse" x1="-700.0019" y1="61.5766" x2="-699.9169" y2="61.5766" gradientTransform="matrix(11.949 0 0 -6.535 6376.1167 405.6709)">
									<stop  offset="0" style="stop-color:#F0047F"/>
									<stop  offset="1" style="stop-color:#13007C"/>
								</linearGradient>
								<rect id="Rectangle_4572" x="0" y="0" class="st72" width="11.9" height="6.5"/>
							</g>
						</g>
					</g>
					<g id="Group_7210" transform="translate(2.56 2.561)">
						<g>
							<defs>
								<path id="SVGID_21_" d="M0,59.1c0,32.6,26.5,59.1,59.1,59.1c32.6,0,59.1-26.5,59.1-59.1C118.2,26.5,91.8,0,59.1,0
									C26.5,0,0,26.5,0,59.1C0,59.1,0,59.1,0,59.1"/>
							</defs>
							<clipPath id="SVGID_22_">
								<use xlink:href="#SVGID_21_"  style="overflow:visible;"/>
							</clipPath>
							<g id="Group_7209" class="st73">
								<path id="Path_14109" class="st14" d="M52,119.2c-1.8,0-3.3,1.4-3.3,3.2c0,0,0,0.1,0,0.1v11.3c0,1.8,1.4,3.3,3.2,3.3
									c0,0,0.1,0,0.1,0h18.1c1.8,0,3.3-1.4,3.3-3.2c0,0,0-0.1,0-0.1v-11.3c0-1.8-1.4-3.3-3.2-3.3c0,0-0.1,0-0.1,0H52z"/>
								<path id="Path_14110" class="st74" d="M52,119.2c-1.8,0-3.3,1.4-3.3,3.2c0,0,0,0.1,0,0.1v11.3c0,1.8,1.4,3.3,3.2,3.3
									c0,0,0.1,0,0.1,0h18.1c1.8,0,3.3-1.4,3.3-3.2c0,0,0-0.1,0-0.1v-11.3c0-1.8-1.4-3.3-3.2-3.3c0,0-0.1,0-0.1,0H52z"/>
								
									<linearGradient id="Path_14111_1_" gradientUnits="userSpaceOnUse" x1="-561.641" y1="173.457" x2="-561.583" y2="173.457" gradientTransform="matrix(17.613 0 0 -3.072 7984.8018 573.2558)">
									<stop  offset="0" style="stop-color:#F0047F"/>
									<stop  offset="1" style="stop-color:#13007C"/>
								</linearGradient>
								<path id="Path_14111" class="st75" d="M86.8,38.9h14.5c0.8,0,1.5,0.7,1.5,1.5s-0.7,1.5-1.5,1.5H86.8c-0.8,0-1.5-0.7-1.5-1.5
									S86,38.9,86.8,38.9"/>
								
									<linearGradient id="Path_14112_1_" gradientUnits="userSpaceOnUse" x1="-561.641" y1="173.457" x2="-561.583" y2="173.457" gradientTransform="matrix(17.613 0 0 -3.072 7984.8018 579.3517)">
									<stop  offset="0" style="stop-color:#F0047F"/>
									<stop  offset="1" style="stop-color:#13007C"/>
								</linearGradient>
								<path id="Path_14112" class="st76" d="M86.8,45h14.5c0.8,0,1.5,0.7,1.5,1.5s-0.7,1.5-1.5,1.5H86.8c-0.8,0-1.5-0.7-1.5-1.5
									S86,45,86.8,45"/>
								
									<linearGradient id="Path_14113_1_" gradientUnits="userSpaceOnUse" x1="-561.641" y1="173.457" x2="-561.583" y2="173.457" gradientTransform="matrix(17.613 0 0 -3.072 7984.8018 585.4457)">
									<stop  offset="0" style="stop-color:#F0047F"/>
									<stop  offset="1" style="stop-color:#13007C"/>
								</linearGradient>
								<path id="Path_14113" class="st77" d="M86.8,51h14.5c0.8,0,1.5,0.7,1.5,1.5s-0.7,1.5-1.5,1.5H86.8c-0.8,0-1.5-0.7-1.5-1.5
									S86,51,86.8,51"/>
							</g>
						</g>
					</g>
					<g id="Group_7212" transform="translate(0 0)">
						<g>
							<defs>
								<rect id="SVGID_23_" x="0" y="0" width="123.3" height="123.3"/>
							</defs>
							<clipPath id="SVGID_24_">
								<use xlink:href="#SVGID_23_"  style="overflow:visible;"/>
							</clipPath>
							<g id="Group_7211" class="st78">
								
									<linearGradient id="Path_14115_1_" gradientUnits="userSpaceOnUse" x1="-456.5923" y1="166.8151" x2="-456.5843" y2="166.8151" gradientTransform="matrix(122.316 0 0 -122.321 53856.8867 20466.6699)">
									<stop  offset="0" style="stop-color:#F0047F"/>
									<stop  offset="1" style="stop-color:#13007C"/>
								</linearGradient>
								<path id="Path_14115" class="st79" d="M61.7,120.8v-2c31.5,0,57.1-25.5,57.1-57.1c0-31.5-25.5-57.1-57.1-57.1
									C30.2,4.6,4.6,30.2,4.6,61.7c0,0,0,0,0,0c0,31.5,25.6,57,57.1,57.1v4.1c-33.8,0-61.2-27.4-61.2-61.2c0,0,0,0,0,0l0,0
									c0-33.8,27.4-61.2,61.2-61.2s61.2,27.4,61.2,61.2c0,33.8-27.4,61.2-61.2,61.2l0,0L61.7,120.8z"/>
							</g>
						</g>
					</g>
				</g>
			</g>
		</g>
		<g id="Group_7215" transform="translate(30.796 40.602)">
			<path id="Path_14116" class="st8" d="M2.4,7.4L2.6,7L0.4,1.5C0.3,1.3,0.2,1.1,0.2,0.8c0-0.1,0-0.3,0.1-0.4
				c0.1-0.1,0.2-0.2,0.3-0.3C0.8,0,0.9,0,1.1,0c0.2,0,0.4,0.1,0.6,0.2C1.8,0.4,1.9,0.7,2,0.9l1.5,4.4l1.4-4.1C5,1,5.1,0.7,5.2,0.5
				c0.1-0.1,0.2-0.3,0.3-0.4C5.6,0,5.8,0,5.9,0c0.3,0,0.5,0.2,0.7,0.4c0.1,0.1,0.1,0.2,0.1,0.4c0,0.1,0,0.2-0.1,0.4S6.5,1.4,6.5,1.6
				L4.2,7.6C4,8.1,3.8,8.5,3.6,8.9C3.4,9.2,3.1,9.4,2.8,9.6C2.4,9.8,2,9.9,1.6,9.8c-0.4,0-0.8,0-1.2-0.2C0.1,9.6,0,9.3,0,9.1
				c0-0.2,0.1-0.3,0.2-0.5c0.2-0.1,0.4-0.2,0.5-0.2c0.1,0,0.2,0,0.3,0c0.1,0,0.2,0,0.3,0c0.2,0,0.3,0,0.5-0.1C1.9,8.3,2,8.2,2.1,8.1
				C2.2,7.9,2.3,7.7,2.4,7.4z"/>
			<path id="Path_14117" class="st8" d="M14.5,3.6c0,0.5-0.1,1-0.2,1.5c-0.2,0.4-0.4,0.8-0.7,1.2c-0.3,0.3-0.7,0.6-1.1,0.7
				c-0.5,0.2-1,0.3-1.5,0.3c-0.5,0-1-0.1-1.4-0.3C8.6,6.6,8,5.9,7.6,5.1c-0.2-0.5-0.3-1-0.2-1.5c0-0.5,0.1-1,0.2-1.5
				C7.8,1.7,8,1.3,8.4,1c0.3-0.3,0.7-0.6,1.1-0.7c0.9-0.3,2-0.3,2.9,0c0.9,0.3,1.5,1,1.8,1.9C14.4,2.6,14.5,3.1,14.5,3.6z M12.7,3.6
				c0-0.6-0.1-1.2-0.5-1.7c-0.3-0.4-0.8-0.6-1.3-0.6c-0.3,0-0.6,0.1-0.9,0.3C9.7,1.8,9.5,2.1,9.4,2.4C9.1,3.2,9.1,4,9.4,4.8
				C9.5,5.1,9.7,5.4,10,5.6c0.3,0.2,0.6,0.3,0.9,0.3c0.5,0,1-0.2,1.3-0.6C12.6,4.8,12.7,4.2,12.7,3.6L12.7,3.6z"/>
			<path id="Path_14118" class="st8" d="M20.5,6.2V6c-0.2,0.3-0.4,0.5-0.7,0.7C19.6,6.8,19.3,7,19,7.1c-0.3,0.1-0.6,0.1-0.9,0.1
				c-0.4,0-0.8-0.1-1.2-0.3c-0.3-0.2-0.6-0.4-0.8-0.7c-0.2-0.5-0.4-1.1-0.3-1.6V1.1c0-0.3,0.1-0.6,0.2-0.8C16.2,0.1,16.4,0,16.7,0
				c0.2,0,0.5,0.1,0.7,0.3c0.2,0.2,0.3,0.5,0.2,0.8v2.8c0,0.3,0,0.7,0.1,1c0.1,0.3,0.2,0.5,0.4,0.7c0.2,0.2,0.5,0.3,0.7,0.2
				c0.3,0,0.6-0.1,0.8-0.3c0.3-0.2,0.5-0.4,0.6-0.7c0.1-0.5,0.2-1.1,0.2-1.7V1.1c0-0.3,0.1-0.6,0.2-0.8C20.8,0.1,21,0,21.3,0
				c0.2,0,0.5,0.1,0.6,0.3c0.2,0.2,0.3,0.5,0.2,0.8v5.1c0,0.3-0.1,0.5-0.2,0.8c-0.3,0.3-0.8,0.3-1.2,0c0,0,0,0,0,0
				C20.5,6.7,20.5,6.5,20.5,6.2z"/>
			<path id="Path_14119" class="st8" d="M25.7,4.7v1.5c0,0.3-0.1,0.6-0.3,0.8c-0.2,0.2-0.4,0.3-0.6,0.3c-0.2,0-0.5-0.1-0.6-0.3
				c-0.2-0.2-0.3-0.5-0.2-0.8V1.2c0-0.8,0.3-1.2,0.9-1.2c0.2,0,0.5,0.1,0.6,0.3c0.1,0.2,0.2,0.5,0.2,0.8c0.2-0.3,0.4-0.6,0.7-0.8
				C26.5,0.1,26.8,0,27.2,0c0.4,0,0.8,0.1,1.1,0.3c0.3,0.1,0.5,0.4,0.5,0.7c0,0.2-0.1,0.4-0.2,0.5c-0.1,0.1-0.3,0.2-0.5,0.2
				c-0.2,0-0.3-0.1-0.5-0.1c-0.2-0.1-0.4-0.1-0.7-0.1c-0.2,0-0.5,0.1-0.6,0.2c-0.2,0.2-0.3,0.4-0.4,0.6c-0.1,0.3-0.2,0.6-0.2,1
				C25.7,3.7,25.7,4.1,25.7,4.7z"/>
			<path id="Path_14120" class="st8" d="M1.9,11.3l1.2,4l1.1-3.7c0.1-0.4,0.2-0.6,0.2-0.8c0.1-0.2,0.2-0.3,0.3-0.4
				c0.4-0.3,0.9-0.3,1.2,0c0.1,0.1,0.2,0.3,0.3,0.4c0.1,0.2,0.1,0.4,0.3,0.8l1.1,3.7l1.2-4c0.1-0.3,0.1-0.5,0.2-0.6
				c0-0.1,0.1-0.2,0.2-0.3c0.1-0.1,0.3-0.2,0.5-0.1c0.2,0,0.4,0.1,0.6,0.2c0.1,0.1,0.2,0.3,0.2,0.5c0,0.3-0.1,0.6-0.2,0.8l-1.5,4.3
				c-0.1,0.4-0.2,0.6-0.3,0.8c-0.1,0.2-0.2,0.3-0.3,0.4c-0.2,0.1-0.4,0.2-0.6,0.2c-0.2,0-0.5-0.1-0.6-0.2c-0.2-0.1-0.3-0.3-0.3-0.5
				c-0.1-0.2-0.2-0.4-0.2-0.8l-1-3.5l-1,3.5c-0.1,0.4-0.2,0.7-0.4,1.1c-0.2,0.3-0.5,0.4-0.8,0.4c-0.2,0-0.3,0-0.5-0.1
				c-0.1-0.1-0.3-0.2-0.3-0.3C2.1,16.9,2,16.7,2,16.5c-0.1-0.2-0.1-0.3-0.2-0.5l-1.4-4.3c-0.1-0.3-0.2-0.5-0.2-0.8
				c0-0.2,0.1-0.4,0.2-0.5c0.1-0.1,0.3-0.2,0.6-0.2c0.2,0,0.5,0.1,0.6,0.2C1.7,10.8,1.8,11,1.9,11.3z"/>
			<path id="Path_14121" class="st8" d="M16.4,14.3h-3.5c0,0.4,0.1,0.7,0.2,1.1c0.3,0.6,0.9,0.9,1.5,0.9c0.2,0,0.4,0,0.6-0.1
				c0.2-0.1,0.4-0.1,0.5-0.2c0.2-0.1,0.3-0.2,0.5-0.3c0.1-0.1,0.3-0.3,0.5-0.5C16.9,15,17,15,17.1,15c0.2,0,0.3,0,0.4,0.2
				c0.1,0.1,0.2,0.3,0.2,0.4c0,0.2-0.1,0.4-0.2,0.6c-0.1,0.2-0.3,0.4-0.6,0.6c-0.3,0.2-0.6,0.4-1,0.5c-0.4,0.1-0.9,0.2-1.3,0.2
				c-1,0.1-1.9-0.3-2.7-1c-0.7-0.7-1-1.7-1-2.6c0-0.5,0.1-1,0.2-1.5c0.1-0.4,0.4-0.8,0.7-1.2c0.3-0.3,0.7-0.6,1.1-0.7
				c0.5-0.2,1-0.3,1.5-0.3c0.6,0,1.2,0.1,1.8,0.4c0.5,0.3,0.9,0.7,1.1,1.1c0.2,0.4,0.4,0.9,0.4,1.4c0,0.4-0.1,0.7-0.4,0.9
				C17.1,14.2,16.8,14.3,16.4,14.3z M12.9,13.3h3.2c0-0.5-0.2-1-0.5-1.4c-0.3-0.3-0.7-0.5-1.1-0.5c-0.4,0-0.8,0.2-1.1,0.5
				C13.1,12.3,12.9,12.8,12.9,13.3z"/>
			<path id="Path_14122" class="st8" d="M20.8,8.6v2.7c0.3-0.3,0.6-0.6,1-0.8c0.4-0.2,0.8-0.3,1.3-0.3c0.5,0,1.1,0.1,1.5,0.4
				c0.5,0.3,0.8,0.7,1,1.2c0.3,0.6,0.4,1.2,0.4,1.9c0,0.5-0.1,1-0.2,1.5c-0.1,0.4-0.3,0.8-0.6,1.2c-0.3,0.3-0.6,0.6-0.9,0.8
				c-0.4,0.2-0.8,0.3-1.2,0.3c-0.3,0-0.5,0-0.8-0.1c-0.2-0.1-0.4-0.1-0.6-0.3c-0.2-0.1-0.3-0.2-0.4-0.3c-0.1-0.1-0.3-0.3-0.5-0.5
				v0.2c0,0.3-0.1,0.5-0.2,0.8c-0.2,0.2-0.4,0.3-0.6,0.3c-0.2,0-0.4-0.1-0.6-0.3c-0.2-0.2-0.2-0.5-0.2-0.8V8.7
				c0-0.3,0.1-0.6,0.2-0.8c0.1-0.2,0.4-0.3,0.6-0.3c0.2,0,0.5,0.1,0.6,0.3C20.7,8.1,20.8,8.3,20.8,8.6z M20.9,13.9
				c0,0.6,0.1,1.2,0.5,1.6c0.3,0.4,0.8,0.6,1.3,0.6c0.5,0,0.9-0.2,1.2-0.6c0.4-0.5,0.5-1.1,0.5-1.7c0-0.4-0.1-0.8-0.2-1.2
				c-0.1-0.3-0.3-0.6-0.6-0.8c-0.2-0.2-0.6-0.3-0.9-0.3c-0.3,0-0.6,0.1-0.9,0.3c-0.3,0.2-0.5,0.5-0.6,0.8C21,13,20.9,13.5,20.9,13.9
				L20.9,13.9z"/>
			<path id="Path_14123" class="st8" d="M33.2,15.1c0,0.9-0.5,1.8-1.4,2.1c-0.5,0.2-1.1,0.3-1.7,0.3c-0.6,0-1.1-0.1-1.6-0.3
				c-0.4-0.2-0.7-0.4-1-0.7c-0.2-0.3-0.3-0.6-0.3-0.9c0-0.2,0.1-0.4,0.2-0.5c0.1-0.1,0.3-0.2,0.5-0.2c0.2,0,0.3,0,0.4,0.1
				c0.1,0.1,0.2,0.2,0.3,0.4c0.2,0.3,0.4,0.5,0.7,0.7c0.3,0.2,0.7,0.3,1,0.2c0.3,0,0.6-0.1,0.9-0.2c0.2-0.1,0.3-0.3,0.3-0.5
				c0-0.3-0.1-0.5-0.4-0.7c-0.4-0.2-0.8-0.3-1.2-0.4c-0.5-0.1-1-0.3-1.5-0.5c-0.4-0.1-0.7-0.4-0.9-0.7c-0.2-0.3-0.4-0.6-0.3-1
				c0-0.4,0.1-0.7,0.3-1c0.2-0.3,0.6-0.6,0.9-0.8c0.5-0.2,1-0.3,1.5-0.3c0.4,0,0.8,0,1.2,0.1c0.3,0.1,0.6,0.2,0.9,0.4
				c0.2,0.1,0.4,0.3,0.6,0.5c0.1,0.2,0.2,0.4,0.2,0.6c0,0.2-0.1,0.4-0.2,0.5c-0.2,0.1-0.4,0.2-0.6,0.2c-0.2,0-0.3-0.1-0.5-0.2
				c-0.2-0.1-0.3-0.3-0.4-0.5c-0.1-0.2-0.3-0.3-0.5-0.4c-0.2-0.1-0.5-0.2-0.7-0.2c-0.3,0-0.6,0.1-0.8,0.2c-0.2,0.1-0.3,0.3-0.3,0.5
				c0,0.2,0.1,0.4,0.2,0.5c0.2,0.1,0.4,0.2,0.6,0.3c0.3,0.1,0.6,0.2,1.1,0.3c0.5,0.1,0.9,0.3,1.3,0.5c0.3,0.2,0.6,0.4,0.8,0.7
				C33.1,14.5,33.2,14.8,33.2,15.1z"/>
			<path id="Path_14124" class="st8" d="M35.6,9.4c-0.2,0-0.5-0.1-0.6-0.2c-0.3-0.3-0.4-0.9,0-1.3c0,0,0,0,0,0
				c0.2-0.2,0.4-0.2,0.6-0.2c0.2,0,0.4,0.1,0.6,0.2c0.2,0.2,0.3,0.4,0.3,0.6c0,0.2-0.1,0.5-0.3,0.6C36,9.3,35.8,9.4,35.6,9.4z
				 M36.5,11.2v5.1c0,0.3-0.1,0.6-0.3,0.8c-0.2,0.2-0.4,0.3-0.6,0.3c-0.2,0-0.5-0.1-0.6-0.3c-0.2-0.2-0.3-0.5-0.2-0.8v-5.1
				c0-0.3,0.1-0.6,0.2-0.8c0.2-0.2,0.4-0.3,0.6-0.3c0.2,0,0.5,0.1,0.6,0.3C36.4,10.7,36.5,11,36.5,11.2L36.5,11.2z"/>
			<path id="Path_14125" class="st8" d="M38.4,10.4h0.2V9.3c0-0.3,0-0.5,0-0.7c0-0.1,0.1-0.3,0.1-0.4C38.8,8.1,38.9,8,39,7.9
				c0.1-0.1,0.3-0.1,0.4-0.1c0.2,0,0.4,0.1,0.6,0.3c0.1,0.1,0.2,0.3,0.2,0.4c0,0.2,0.1,0.5,0,0.7v1.2H41c0.2,0,0.4,0,0.6,0.2
				c0.1,0.1,0.2,0.3,0.2,0.5c0,0.2-0.1,0.4-0.3,0.5c-0.3,0.1-0.5,0.2-0.8,0.1h-0.3v3.3c0,0.2,0,0.4,0,0.6c0,0.1,0.1,0.3,0.2,0.4
				c0.1,0.1,0.3,0.2,0.4,0.1c0.1,0,0.3,0,0.4-0.1c0.1,0,0.3-0.1,0.4-0.1c0.1,0,0.3,0.1,0.4,0.2c0.1,0.1,0.2,0.3,0.2,0.4
				c0,0.3-0.2,0.6-0.5,0.7c-0.4,0.2-0.9,0.3-1.3,0.2c-0.4,0-0.9-0.1-1.3-0.3c-0.3-0.2-0.5-0.5-0.6-0.8c-0.1-0.4-0.1-0.9-0.1-1.3
				v-3.4h-0.2c-0.2,0-0.4-0.1-0.6-0.2c-0.1-0.1-0.2-0.3-0.2-0.5c0-0.2,0.1-0.3,0.2-0.5C38,10.4,38.2,10.4,38.4,10.4z"/>
			<path id="Path_14126" class="st8" d="M48,14.3h-3.5c0,0.4,0.1,0.7,0.2,1.1c0.3,0.6,0.9,0.9,1.5,0.9c0.2,0,0.4,0,0.6-0.1
				c0.2-0.1,0.4-0.1,0.5-0.2c0.2-0.1,0.3-0.2,0.5-0.3c0.1-0.1,0.3-0.3,0.5-0.5c0.1-0.1,0.3-0.1,0.4-0.1c0.2,0,0.3,0,0.4,0.2
				c0.1,0.1,0.2,0.3,0.2,0.4c0,0.2-0.1,0.4-0.2,0.6c-0.1,0.2-0.3,0.5-0.6,0.6c-0.3,0.2-0.6,0.4-1,0.5c-0.4,0.1-0.9,0.2-1.3,0.2
				c-1,0.1-1.9-0.3-2.7-1c-0.7-0.7-1-1.7-0.9-2.6c0-0.5,0.1-1,0.2-1.5c0.1-0.4,0.4-0.8,0.7-1.2c0.3-0.3,0.7-0.6,1.1-0.7
				c0.5-0.2,1-0.3,1.5-0.3c0.6,0,1.2,0.1,1.8,0.4c0.5,0.3,0.9,0.7,1.1,1.1c0.2,0.4,0.4,0.9,0.4,1.4c0,0.4-0.1,0.7-0.4,0.9
				C48.7,14.2,48.3,14.3,48,14.3z M44.5,13.3h3.2c0-0.5-0.2-1-0.5-1.4c-0.3-0.3-0.7-0.5-1.1-0.5c-0.4,0-0.8,0.2-1.1,0.5
				C44.7,12.3,44.5,12.8,44.5,13.3z"/>
		</g>
		<rect id="Rectangle_4575" x="11.9" y="39.8" class="st7" width="14" height="16.6"/>
		<g id="Group_7221" transform="translate(41.562 72.247)">
			<g id="Group_7217">
				
					<image style="overflow:visible;opacity:0.5;enable-background:new    ;" width="35" height="34" id="Rectangle_4576" xlink:href="BEC5017454001571.png"  transform="matrix(1.1455 0 0 1.1455 2.349899e-04 0)">
				</image>
				<g id="Group_7216" transform="translate(5.863 5.062)">
					<path id="Rectangle_4577" class="st14" d="M12.2,0h3.6C22.5,0,28,5.5,28,12.2v3.6C28,22.5,22.5,28,15.8,28h-3.6
						C5.5,28,0,22.5,0,15.8v-3.6C0,5.5,5.5,0,12.2,0z"/>
				</g>
			</g>
			
				<linearGradient id="Rectangle_4578_1_" gradientUnits="userSpaceOnUse" x1="-484.9057" y1="95.9507" x2="-484.9057" y2="95.0667" gradientTransform="matrix(25.854 0 0 -25.854 12556.623 2486.9038)">
				<stop  offset="0" style="stop-color:#F0047F"/>
				<stop  offset="1" style="stop-color:#13007C"/>
			</linearGradient>
			<path id="Rectangle_4578" class="st80" d="M18.2,6.1h3.3c6.2,0,11.3,5.1,11.3,11.3v3.3c0,6.2-5.1,11.3-11.3,11.3h-3.3
				C12,32,6.9,26.9,6.9,20.7v-3.3C6.9,11.2,12,6.1,18.2,6.1z"/>
			<g id="Group_7220" transform="translate(9.125 13.259)">
				<g id="Group_7218">
					<path id="Path_14127" class="st14" d="M2.1,10c-0.2,0-0.3,0-0.5,0C0.9,9.9,0.4,9.4,0.2,8.8c-0.9-2.3,2.3-4.5,2.5-4.6l0.6,0.9
						C2.6,5.6,0.7,7.2,1.2,8.4c0.1,0.2,0.3,0.4,0.5,0.5C3,9.1,5.5,7.7,7,6.2c0.6-0.5,1.2-1.2,1.8-1.9c2.5-2.7,5.1-5.5,6.8-3.9
						C15.9,0.7,16,1,16,1.3c0.1,1.1-1.1,2.3-2.5,3.8c-1,1.1-2.4,2.7-2.4,3.4c0,0.1,0.1,0.2,0.1,0.2c0.6,0.5,2.1-1,3.2-2.2
						c1.5-1.5,2.9-3,4.1-2.2c1.2,0.8,0.7,2,0.3,2.8c-0.4,0.9-0.4,1.2-0.1,1.5c0.5,0.4,1.6-0.3,2.8-1c0.7-0.4,1.4-0.8,2.1-1.2l0.5,1
						c-0.7,0.3-1.4,0.7-2,1.1c-1.5,0.9-3,1.8-4.1,0.9c-1-0.8-0.6-2-0.2-2.8c0.4-1,0.4-1.2,0.1-1.5c-0.4-0.3-1.8,1.2-2.6,2
						c-1.5,1.6-3.3,3.4-4.7,2.3c-0.3-0.2-0.6-0.6-0.6-1c-0.1-1.2,1.2-2.7,2.7-4.3c0.9-1,2.2-2.4,2.2-3c0,0,0-0.1,0-0.1
						c-0.9-0.8-3.5,2-5.3,3.9C9,5.8,8.4,6.5,7.8,7C6.4,8.4,3.9,10,2.1,10z"/>
				</g>
				<g id="Group_7219" transform="translate(14.376 10.393)">
					<path id="Path_14128" class="st14" d="M4,4.5L2.3,2.8L1.5,3.6L0,0l3.7,1.5L2.9,2.3l1.7,1.7L4,4.5z"/>
				</g>
			</g>
		</g>
	</g>
	<circle id="Ellipse_442" class="st4" cx="865.1" cy="424" r="59.4"/>
	<g id="Group_7255" transform="translate(803.773 362.158)">
		<g id="Group_7253" transform="translate(2.699)">
			<path id="Path_14129" class="st81" d="M48.1,26"/>
			<path id="Path_14130" class="st82" d="M97.4,26"/>
			<path id="Path_14131" class="st82" d="M96.7,26"/>
			<g id="Group_7235" transform="translate(2.559 2.557)">
				<g>
					<defs>
						<path id="SVGID_25_" d="M0,59.1c0,32.6,26.5,59.1,59.1,59.1c32.6,0,59.1-26.5,59.1-59.1C118.1,26.5,91.7,0,59.1,0
							C26.4,0,0,26.5,0,59.1L0,59.1"/>
					</defs>
					<clipPath id="SVGID_26_">
						<use xlink:href="#SVGID_25_"  style="overflow:visible;"/>
					</clipPath>
					<g id="Group_7234" class="st83">
						<g id="Group_7223" transform="translate(6.995 28.862)">
							
								<linearGradient id="Path_14132_1_" gradientUnits="userSpaceOnUse" x1="-408.4843" y1="478.6551" x2="-408.4843" y2="477.6551" gradientTransform="matrix(76.757 0 0 -25.891 31392.4121 12392.8496)">
								<stop  offset="0" style="stop-color:#F0047F"/>
								<stop  offset="1" style="stop-color:#13007C"/>
							</linearGradient>
							<path id="Path_14132" class="st84" d="M69,25.9H7.8c-6.2,0-7.8-5.1-7.8-7.8V7.8C0,1.6,5.1,0,7.8,0H69c6.2,0,7.8,5.1,7.8,7.8
								v10.3C76.8,24.3,71.7,25.9,69,25.9z M7.8,3.2C5.4,3,3.3,4.9,3.2,7.3c0,0.2,0,0.3,0,0.5v10.3c-0.1,2.4,1.7,4.5,4.2,4.6
								c0.2,0,0.3,0,0.5,0H69c2.4,0.1,4.5-1.7,4.6-4.2c0-0.2,0-0.3,0-0.5V7.8c0.1-2.4-1.7-4.5-4.2-4.6c-0.2,0-0.3,0-0.5,0L7.8,3.2z"
								/>
						</g>
						<g id="Group_7224" transform="translate(44.751 40.269)">
							
								<linearGradient id="Path_14133_1_" gradientUnits="userSpaceOnUse" x1="-449.6501" y1="475.0681" x2="-448.6501" y2="475.0681" gradientTransform="matrix(26.238 0 0 -3.072 11797.8965 1460.9547)">
								<stop  offset="0" style="stop-color:#F0047F"/>
								<stop  offset="1" style="stop-color:#13007C"/>
							</linearGradient>
							<path id="Path_14133" class="st85" d="M24.7,3.1H1.5C0.7,3.1,0,2.4,0,1.6C-0.1,0.7,0.6,0,1.5,0c0,0,0.1,0,0.1,0h23.2
								c0.8,0,1.5,0.7,1.5,1.6C26.2,2.4,25.5,3.1,24.7,3.1z"/>
						</g>
						<g id="Group_7225" transform="translate(15.777 39.758)">
							<path id="Path_14134" class="st7" d="M4.5,4.1H2c-1.1,0-2-0.9-2-2c0-1.1,0.9-2,2-2h2.5c1.1,0,2,0.9,2,2
								C6.6,3.2,5.6,4.1,4.5,4.1z"/>
						</g>
						<g id="Group_7226" transform="translate(26.124 39.758)">
							<path id="Path_14135" class="st8" d="M4.5,4.1H2c-1.1,0-2-0.9-2-2c0-1.1,0.9-2,2-2h2.5c1.1,0,2,0.9,2,2
								C6.6,3.2,5.6,4.1,4.5,4.1z"/>
						</g>
						<g id="Group_7227" transform="translate(6.995 62.044)">
							
								<linearGradient id="Path_14136_1_" gradientUnits="userSpaceOnUse" x1="-408.4843" y1="445.4734" x2="-408.4843" y2="444.4734" gradientTransform="matrix(76.757 0 0 -25.883 31392.4121 11530.1768)">
								<stop  offset="0" style="stop-color:#F0047F"/>
								<stop  offset="1" style="stop-color:#13007C"/>
							</linearGradient>
							<path id="Path_14136" class="st86" d="M69,25.9H7.8c-6.2,0-7.8-5.1-7.8-7.8V7.8C0,1.6,5.1,0,7.8,0H69c6.2,0,7.8,5.1,7.8,7.8
								v10.3C76.8,24.3,71.7,25.9,69,25.9z M7.8,3.2C5.4,3,3.3,4.9,3.2,7.3c0,0.2,0,0.3,0,0.5v10.3c-0.1,2.4,1.7,4.5,4.2,4.6
								c0.2,0,0.3,0,0.5,0H69c2.4,0.1,4.5-1.7,4.6-4.2c0-0.2,0-0.3,0-0.5V7.8c0.1-2.4-1.7-4.5-4.2-4.6c-0.2,0-0.3,0-0.5,0H7.8z"/>
						</g>
						<g id="Group_7228" transform="translate(44.751 73.452)">
							
								<linearGradient id="Path_14137_1_" gradientUnits="userSpaceOnUse" x1="-449.6504" y1="441.8912" x2="-448.6504" y2="441.8912" gradientTransform="matrix(26.236 0 0 -3.07 11797.0391 1358.1443)">
								<stop  offset="0" style="stop-color:#F0047F"/>
								<stop  offset="1" style="stop-color:#13007C"/>
							</linearGradient>
							<path id="Path_14137" class="st87" d="M24.7,3.1H1.5C0.7,3.1,0,2.4,0,1.5S0.7,0,1.5,0h23.2c0.8,0,1.5,0.7,1.5,1.5
								S25.5,3.1,24.7,3.1L24.7,3.1z"/>
						</g>
						<g id="Group_7229" transform="translate(15.777 72.941)">
							<path id="Path_14138" class="st7" d="M4.5,4.1H2c-1.1,0-2-1-2-2.1c0-1.1,0.9-2,2-2h2.5c1.1,0,2,1,2,2.1
								C6.5,3.2,5.6,4.1,4.5,4.1z"/>
						</g>
						<g id="Group_7230" transform="translate(26.124 72.941)">
							<path id="Path_14139" class="st8" d="M4.5,4.1H2c-1.1,0-2-1-2-2.1c0-1.1,0.9-2,2-2h2.5c1.1,0,2,1,2,2.1
								C6.5,3.2,5.6,4.1,4.5,4.1z"/>
						</g>
						<g id="Group_7231" transform="translate(6.995 95.226)">
							
								<linearGradient id="Path_14140_1_" gradientUnits="userSpaceOnUse" x1="-408.4843" y1="412.2914" x2="-408.4843" y2="411.2914" gradientTransform="matrix(76.757 0 0 -25.885 31392.4121 10672.1553)">
								<stop  offset="0" style="stop-color:#F0047F"/>
								<stop  offset="1" style="stop-color:#13007C"/>
							</linearGradient>
							<path id="Path_14140" class="st88" d="M69,25.9H7.8c-6.2,0-7.8-5.1-7.8-7.8V7.8C0,1.6,5.1,0,7.8,0H69c6.2,0,7.8,5.1,7.8,7.8
								v10.3C76.8,24.3,71.7,25.9,69,25.9z M7.8,3.2C5.4,3,3.3,4.9,3.2,7.3c0,0.2,0,0.3,0,0.5v10.3c-0.1,2.4,1.7,4.5,4.2,4.6
								c0.2,0,0.3,0,0.5,0H69c2.4,0.1,4.5-1.7,4.6-4.2c0-0.2,0-0.3,0-0.5V7.8c0.1-2.4-1.7-4.5-4.2-4.6c-0.2,0-0.3,0-0.5,0H7.8z"/>
						</g>
						<g id="Group_7232" transform="translate(44.751 106.635)">
							
								<linearGradient id="Path_14141_1_" gradientUnits="userSpaceOnUse" x1="-449.6504" y1="408.7083" x2="-448.6504" y2="408.7083" gradientTransform="matrix(26.236 0 0 -3.07 11797.0391 1256.2722)">
								<stop  offset="0" style="stop-color:#F0047F"/>
								<stop  offset="1" style="stop-color:#13007C"/>
							</linearGradient>
							<path id="Path_14141" class="st89" d="M24.7,3.1H1.5C0.7,3.1,0,2.4,0,1.5S0.7,0,1.5,0h23.2c0.8,0,1.5,0.7,1.5,1.5
								S25.5,3.1,24.7,3.1L24.7,3.1z"/>
						</g>
						<line id="Line_253" class="st90" x1="20.3" y1="108.2" x2="17.8" y2="108.2"/>
						<g id="Group_7233" transform="translate(26.124 106.123)">
							<path id="Path_14142" class="st8" d="M4.5,4.1H2c-1.1,0-2-0.9-2-2c0-1.1,0.9-2,2-2h2.5c1.1,0,2,0.9,2,2
								C6.6,3.2,5.6,4.1,4.5,4.1z"/>
						</g>
						<path id="Path_14143" class="st14" d="M82.1,100.2c13.9,0,25.3-11.3,25.3-25.3S96.1,49.7,82.1,49.7C68.2,49.7,56.9,61,56.9,75
							c0,0,0,0,0,0C56.9,88.9,68.2,100.2,82.1,100.2"/>
					</g>
				</g>
			</g>
			<g id="Group_7243" transform="translate(59.438 52.29)">
				<g>
					<defs>
						<path id="SVGID_27_" d="M0,25.3c0,13.9,11.3,25.3,25.3,25.3c13.9,0,25.3-11.3,25.3-25.3S39.2,0,25.3,0C11.3,0,0,11.3,0,25.3
							C0,25.3,0,25.3,0,25.3"/>
					</defs>
					<clipPath id="SVGID_28_">
						<use xlink:href="#SVGID_27_"  style="overflow:visible;"/>
					</clipPath>
					<g id="Group_7242" class="st91">
						<rect id="Rectangle_4579" x="9.7" y="10.2" class="st14" width="32.5" height="40.7"/>
						<g id="Group_7236" transform="translate(8.553 9.094)">
							
								<linearGradient id="Path_14145_1_" gradientUnits="userSpaceOnUse" x1="-468.7417" y1="448.2437" x2="-468.7417" y2="447.2437" gradientTransform="matrix(34.817 0 0 -43.044 16337.5674 19294.207)">
								<stop  offset="0" style="stop-color:#F0047F"/>
								<stop  offset="1" style="stop-color:#13007C"/>
							</linearGradient>
							<path id="Path_14145" class="st92" d="M33.7,43H1.2C0.5,43,0,42.5,0,41.9V1.2C0,0.5,0.5,0,1.2,0h32.5c0.6,0,1.2,0.5,1.2,1.2
								v40.7C34.8,42.5,34.3,43,33.7,43z M2.3,40.7h30.2V2.3H2.3V40.7z"/>
						</g>
						<g id="Group_7237" transform="translate(14.238 18.79)">
							
								<linearGradient id="Path_14146_1_" gradientUnits="userSpaceOnUse" x1="-476.5436" y1="454.7808" x2="-475.5436" y2="454.7808" gradientTransform="matrix(23.4411 0 0 -1.666 11170.71 758.5019)">
								<stop  offset="0" style="stop-color:#F0047F"/>
								<stop  offset="1" style="stop-color:#13007C"/>
							</linearGradient>
							<path id="Path_14146" class="st93" d="M22.6,1.7H0.8C0.4,1.7,0,1.3,0,0.8C0,0.4,0.4,0,0.8,0h21.8c0.5,0,0.8,0.4,0.8,0.8
								C23.4,1.3,23.1,1.7,22.6,1.7C22.6,1.7,22.6,1.7,22.6,1.7z"/>
						</g>
						<g id="Group_7238" transform="translate(14.765 23.631)">
							
								<linearGradient id="Path_14147_1_" gradientUnits="userSpaceOnUse" x1="-477.3038" y1="436.4142" x2="-476.3038" y2="436.4142" gradientTransform="matrix(22.386 0 0 -7.472 10684.917 3264.6292)">
								<stop  offset="0" style="stop-color:#F0047F"/>
								<stop  offset="1" style="stop-color:#13007C"/>
							</linearGradient>
							<path id="Path_14147" class="st94" d="M22.4,7.5H0V0h22.4V7.5z M1.3,6.1H21V1.3H1.3V6.1z"/>
						</g>
						<g id="Group_7239" transform="translate(26.573 32.222)">
							
								<linearGradient id="Path_14148_1_" gradientUnits="userSpaceOnUse" x1="-494.8961" y1="429.4564" x2="-493.8961" y2="429.4564" gradientTransform="matrix(10.578 0 0 -5.259 5235.0132 2261.1416)">
								<stop  offset="0" style="stop-color:#F0047F"/>
								<stop  offset="1" style="stop-color:#13007C"/>
							</linearGradient>
							<path id="Path_14148" class="st95" d="M10.6,5.3H0V0h10.6V5.3z M1.3,3.9h7.9V1.3H1.3V3.9z"/>
						</g>
						<g id="Group_7240" transform="translate(14.741 32.222)">
							
								<linearGradient id="Path_14149_1_" gradientUnits="userSpaceOnUse" x1="-483.0641" y1="429.4564" x2="-482.0641" y2="429.4564" gradientTransform="matrix(10.578 0 0 -5.259 5109.854 2261.1416)">
								<stop  offset="0" style="stop-color:#F0047F"/>
								<stop  offset="1" style="stop-color:#13007C"/>
							</linearGradient>
							<path id="Path_14149" class="st96" d="M10.6,5.3H0V0h10.6V5.3z M1.3,3.9h7.9V1.3H1.3V3.9z"/>
						</g>
						
							<linearGradient id="Rectangle_4580_1_" gradientUnits="userSpaceOnUse" x1="-480.6665" y1="462.6176" x2="-480.6665" y2="461.6176" gradientTransform="matrix(4.872 0 0 -4.871 2367.7654 2266.2034)">
							<stop  offset="0" style="stop-color:#F0047F"/>
							<stop  offset="1" style="stop-color:#13007C"/>
						</linearGradient>
						<rect id="Rectangle_4580" x="23.5" y="12.8" class="st97" width="4.9" height="4.9"/>
						<path id="Path_14150" class="st8" d="M33.6,43.1c0,0-0.1-0.1-0.2-0.1c0,0-0.1,0-0.1,0c-0.1,0-0.1,0.1-0.1,0.2v5.1
							c0,0.1,0.1,0.2,0.1,0.2c0.1,0,0.2,0,0.2,0l1.1-1.1l0.7,1.5c0,0.1,0.1,0.1,0.1,0.1c0.1,0,0.1,0,0.2,0l0.6-0.3
							c0.1,0,0.1-0.1,0.1-0.1c0-0.1,0-0.1,0-0.2l-0.7-1.6h1.3c0.1,0,0.2-0.1,0.2-0.1c0-0.1,0-0.2,0-0.2L33.6,43.1z"/>
						<g id="Group_7241" transform="translate(14.719 38.455)">
							
								<linearGradient id="Path_14151_1_" gradientUnits="userSpaceOnUse" x1="-478.4604" y1="422.1425" x2="-477.4604" y2="422.1425" gradientTransform="matrix(18.1694 0 0 -6.541 8693.3486 2764.5244)">
								<stop  offset="0" style="stop-color:#F0047F"/>
								<stop  offset="1" style="stop-color:#13007C"/>
							</linearGradient>
							<path id="Path_14151" class="st98" d="M8.1,6.5c-0.2,0-0.4-0.1-0.6-0.2C7.3,6.2,7.1,6,7,5.7C6.9,5,7.5,4,8.2,2.8
								c0.4-0.5,0.7-1.1,0.9-1.7c-1,0.4-1.9,1.1-2.7,1.8C6.3,3.1,6.1,3.2,6.1,3.2S5.9,3.4,5.7,3.5C4.1,5,2.3,6.4,1.1,6.2
								C0.8,6.2,0.4,6,0.2,5.7C0,5.3-0.1,4.8,0.1,4.4C0.5,3,3,1.7,3.3,1.6l0.5,1C2.9,3,1.4,4,1.1,4.7c0,0.1,0,0.2,0,0.3
								c0,0,0.1,0.1,0.1,0.1C1.9,5.2,3.1,4.4,5,2.7c0.2-0.2,0.3-0.3,0.4-0.4s0.2-0.1,0.3-0.2C7.3,0.7,9.2-0.7,10,0.4
								c0.6,0.7-0.1,1.7-0.9,3c-0.4,0.6-0.8,1.3-1,2C8.9,5.1,9.6,4.6,10.2,4c1.3-1,2.5-2,3.2-1.2c0.4,0.4,0.5,1.1,0.3,1.6
								c-0.1,0.4-0.1,0.4,0.4,0.6c1.2,0.3,2.4,0.1,3.4-0.5l0.6,0.9c-1.3,0.8-2.9,1-4.4,0.6C13,6,12.5,5.2,12.6,4.4
								c0-0.1,0-0.1,0.1-0.2c0.1-0.3,0.1-0.4,0-0.6C12.1,4,11.5,4.4,11,4.9C9.9,5.7,8.9,6.5,8.1,6.5z"/>
						</g>
					</g>
				</g>
			</g>
			<g id="Group_7248" transform="translate(2.559 2.557)">
				<g>
					<defs>
						<path id="SVGID_29_" d="M0,59.1c0,32.6,26.5,59.1,59.1,59.1c32.6,0,59.1-26.5,59.1-59.1C118.1,26.5,91.7,0,59.1,0
							C26.4,0,0,26.5,0,59.1L0,59.1"/>
					</defs>
					<clipPath id="SVGID_30_">
						<use xlink:href="#SVGID_29_"  style="overflow:visible;"/>
					</clipPath>
					<g id="Group_7247" class="st99">
						<g id="Group_7244" transform="translate(55.598 48.454)">
							
								<linearGradient id="Path_14153_1_" gradientUnits="userSpaceOnUse" x1="-457.762" y1="458.4895" x2="-457.762" y2="457.4895" gradientTransform="matrix(53.066 0 0 -53.066 24318.1465 24330.209)">
								<stop  offset="0" style="stop-color:#F0047F"/>
								<stop  offset="1" style="stop-color:#13007C"/>
							</linearGradient>
							<path id="Path_14153" class="st100" d="M26.5,53.1C11.9,53.1,0,41.2,0,26.5C0,11.9,11.9,0,26.5,0c14.7,0,26.5,11.9,26.5,26.5
								c0,0,0,0,0,0C53,41.2,41.2,53,26.5,53.1z M26.5,2.6c-13.2,0-24,10.7-24,24s10.7,24,24,24c13.2,0,24-10.7,24-24
								C50.5,13.3,39.8,2.6,26.5,2.6L26.5,2.6z"/>
						</g>
						<g id="Group_7245" transform="translate(43.784 55.797)">
							
								<linearGradient id="Rectangle_4581_1_" gradientUnits="userSpaceOnUse" x1="-480.4476" y1="456.5979" x2="-480.4476" y2="455.5979" gradientTransform="matrix(3.162 0 0 -4.835 1520.7565 2207.6511)">
								<stop  offset="0" style="stop-color:#F0047F"/>
								<stop  offset="1" style="stop-color:#13007C"/>
							</linearGradient>
							<rect id="Rectangle_4581" x="0" y="0" class="st101" width="3.2" height="4.8"/>
						</g>
						<g id="Group_7246" transform="translate(43.784 89.052)">
							
								<linearGradient id="Rectangle_4582_1_" gradientUnits="userSpaceOnUse" x1="-480.4476" y1="423.3417" x2="-480.4476" y2="422.3417" gradientTransform="matrix(3.162 0 0 -4.836 1520.7565 2047.2804)">
								<stop  offset="0" style="stop-color:#F0047F"/>
								<stop  offset="1" style="stop-color:#13007C"/>
							</linearGradient>
							<rect id="Rectangle_4582" x="0" y="0" class="st102" width="3.2" height="4.8"/>
						</g>
					</g>
				</g>
			</g>
			<path id="Path_14155" class="st14" d="M110.6,58.2l-11.2,7.9l-11.2-7.9V42.4h22.3V58.2z"/>
			
				<linearGradient id="Path_14156_1_" gradientUnits="userSpaceOnUse" x1="-402.2887" y1="510.1017" x2="-402.2887" y2="509.1017" gradientTransform="matrix(23.821 0 0 -25.268 9682.3857 12930.9336)">
				<stop  offset="0" style="stop-color:#F0047F"/>
				<stop  offset="1" style="stop-color:#13007C"/>
			</linearGradient>
			<path id="Path_14156" class="st103" d="M110.6,58.2L110.6,58.2z M89.1,57.8l10.4,7.4l10.4-7.4V43.1H89.1V57.8z M99.5,66.9
				l-11.9-8.4V41.7h23.8v16.8L99.5,66.9z"/>
			<g id="Group_7252">
				<g>
					<defs>
						<rect id="SVGID_31_" x="0" y="0" width="123.3" height="123.3"/>
					</defs>
					<clipPath id="SVGID_32_">
						<use xlink:href="#SVGID_31_"  style="overflow:visible;"/>
					</clipPath>
					<g id="Group_7251" class="st104">
						<g id="Group_7249" transform="translate(93.838 50.332)">
							
								<linearGradient id="Path_14157_1_" gradientUnits="userSpaceOnUse" x1="-501.679" y1="461.5563" x2="-501.679" y2="460.5563" gradientTransform="matrix(11.1303 0 0 -9.8832 5589.4067 4561.6562)">
								<stop  offset="0" style="stop-color:#F0047F"/>
								<stop  offset="1" style="stop-color:#13007C"/>
							</linearGradient>
							<path id="Path_14157" class="st105" d="M8.5,9.9H2.6C1.2,9.9,0,8.8,0,7.4c0-0.1,0-0.1,0-0.2V2.6C0,1.2,1.1,0,2.5,0
								c0.1,0,0.1,0,0.2,0h5.8c1.4,0,2.6,1.1,2.6,2.5c0,0.1,0,0.1,0,0.2v4.6c0,1.4-1.1,2.6-2.5,2.6C8.6,9.9,8.5,9.9,8.5,9.9z M2.7,2
								C2,2.1,2,2.5,2,2.6v4.6c0,0.6,0.4,0.6,0.6,0.6h5.8c0.6,0,0.6-0.4,0.6-0.6V2.6C9.1,2,8.7,2,8.5,2L2.7,2z"/>
						</g>
						<g id="Group_7250" transform="translate(95.801 45.163)">
							
								<linearGradient id="Path_14158_1_" gradientUnits="userSpaceOnUse" x1="-509.2863" y1="470.4715" x2="-509.2863" y2="469.4715" gradientTransform="matrix(7.2201 0 0 -4.341 3680.6873 2042.3224)">
								<stop  offset="0" style="stop-color:#F0047F"/>
								<stop  offset="1" style="stop-color:#13007C"/>
							</linearGradient>
							<path id="Path_14158" class="st106" d="M7.2,4.3h-2V3c0-0.3-0.1-0.9-0.7-0.9H2.7C2,2.1,2,2.8,2,3v1.4H0V3
								c-0.1-1.5,1-2.9,2.6-3c0.1,0,0.1,0,0.2,0h1.7C6,0,7.2,1.3,7.2,2.9c0,0,0,0.1,0,0.1L7.2,4.3z"/>
						</g>
					</g>
				</g>
			</g>
		</g>
		<g id="Group_7254" transform="translate(0 0.101)">
			
				<linearGradient id="Path_14159_1_" gradientUnits="userSpaceOnUse" x1="-395.6534" y1="509.0864" x2="-395.6534" y2="508.0753" gradientTransform="matrix(124.276 0 0 -124.276 49232.3594 63267.2188)">
				<stop  offset="0" style="stop-color:#F0047F"/>
				<stop  offset="1" style="stop-color:#13007C"/>
			</linearGradient>
			<path id="Path_14159" class="st107" d="M62.1,122.1v-2.2c31.9,0,57.7-25.8,57.7-57.7S94,4.4,62.1,4.4S4.4,30.3,4.4,62.1
				c0,31.8,25.9,57.7,57.7,57.7v4.4C27.8,124.3,0,96.5,0,62.1S27.8,0,62.1,0c34.3,0,62.1,27.8,62.1,62.1c0,34.3-27.8,62.1-62.1,62.1
				L62.1,122.1z"/>
		</g>
	</g>
</g>
</svg>
