<?xml version="1.0" encoding="utf-8"?>
<!-- Generator: Adobe Illustrator 25.0.1, SVG Export Plug-In . SVG Version: 6.00 Build 0)  -->
<svg version="1.1" id="Layer_1" xmlns="http://www.w3.org/2000/svg" xmlns:xlink="http://www.w3.org/1999/xlink" x="0px" y="0px"
	 viewBox="0 0 702.2 519.2" style="enable-background:new 0 0 702.2 519.2;" xml:space="preserve">
<style type="text/css">
	.st0{fill:#18013D;}
	.st1{fill:#000112;}
	.st2{fill:#16013F;}
	.st3{fill:#12022C;}
	.st4{fill:none;stroke:#FF0000;stroke-width:4.452;}
	.st5{fill:url(#Path_13780_1_);}
	.st6{fill:#F0047F;}
	.st7{clip-path:url(#SVGID_2_);}
	.st8{fill:#FFFFFF;}
	.st9{fill:url(#Path_13784_1_);}
	.st10{fill:none;stroke:#FF0000;stroke-width:4.398;}
	.st11{clip-path:url(#SVGID_4_);}
	.st12{fill:#13007C;}
	.st13{fill:#E2DEE1;}
	.st14{fill:url(#Path_13799_1_);}
	.st15{clip-path:url(#SVGID_6_);}
	.st16{fill:url(#Path_13800_1_);}
	.st17{fill:url(#Path_13801_1_);}
	.st18{fill:url(#Path_13802_1_);}
	.st19{fill:url(#Path_13803_1_);}
	.st20{fill:url(#Path_13804_1_);}
	.st21{fill:url(#Path_13805_1_);}
	.st22{fill:url(#Path_13806_1_);}
	.st23{fill:url(#Path_13807_1_);}
	.st24{fill:none;stroke:#F0047F;stroke-width:2.623;stroke-linecap:round;stroke-linejoin:round;stroke-dasharray:0,4.783;}
	.st25{fill:none;stroke:#F0047F;stroke-width:2.623;stroke-linecap:round;stroke-linejoin:round;}
	.st26{fill:none;stroke:#F0047F;stroke-width:2.623;stroke-linecap:round;stroke-linejoin:round;stroke-dasharray:0,4.392;}
	.st27{fill:url(#Path_13812_1_);}
	.st28{fill:url(#Path_13814_1_);}
	.st29{fill:url(#Rectangle_4511_1_);}
	.st30{clip-path:url(#SVGID_8_);}
	.st31{fill:url(#Path_13819_1_);}
	.st32{fill:url(#Path_13820_1_);}
	.st33{fill:url(#Path_13821_1_);}
	.st34{fill:url(#Path_13826_1_);}
	.st35{fill:url(#Path_13827_1_);stroke:#FFFFFF;stroke-width:1.71;stroke-miterlimit:10;}
	.st36{fill:url(#Path_13828_1_);stroke:#FFFFFF;stroke-width:1.71;stroke-miterlimit:10;}
	.st37{clip-path:url(#SVGID_10_);}
	.st38{fill:none;}
	.st39{clip-path:url(#SVGID_12_);}
	.st40{clip-path:url(#SVGID_14_);}
	.st41{fill:url(#Path_13832_1_);}
	.st42{fill:url(#Path_13833_1_);}
	.st43{fill:url(#Path_13834_1_);}
	.st44{fill:url(#Path_13835_1_);}
	.st45{fill:url(#Path_13836_1_);}
	.st46{clip-path:url(#SVGID_16_);}
	.st47{fill:url(#Path_13839_1_);}
</style>
<g id="Group_6978" transform="translate(-266.467 -340.39)">
	<g id="Group_6929">
		<path id="Path_13775" class="st0" d="M271.1,540.8c6.7,22.9,21.4,44.3,45,60c3.1,2.1,6,4.1,8.8,5.9c45.4,31.2,39.2,37.3,25.4,98
			c-11.4,50.2,2.8,108.2,53.6,137c6.8,3.8,14,7,21.4,9.5c4.1,1.6,8.5,2.8,12.9,4c1.6,0.3,3.1,0.7,4.8,1c3.8,0.9,7.8,1.6,11.7,2.1
			c0.6,0.2,1.1,0.3,1.7,0.3c4.5,0.5,9,0.9,13.5,1c2.2,0.1,4.4,0.1,6.6-0.2c7.3,0,14.6-0.7,21.7-2.1c31.2-5.3,58.7-20,83.1-34.7
			c39.3-23.8,70.6-48,95.6-33.5c46.2,26.9,91.3,35,131.1,31c27.1-2.4,53.3-10.9,76.8-24.7c57.1-33.3,86.4-92.5,62.6-134.4
			c-12.2-21.4-18.1-38.8-20-53.5v-0.2c-9-66.9,65.2-80.4,33.1-160.4c-38.1-95.2-119.7-118.2-193.2-101.9
			c-47.6,10.2-91.9,36.9-118.9,70.9c-18.3,23.1-36.1,37.3-53.3,44.7c-33.6,14.5-65.4,4.1-96.4-12.4c-28.3-15-55.9-35.2-84.2-46.1
			c-13.1-5.2-26.6-8.3-40-7.9C295.2,396.4,251.6,475.4,271.1,540.8z"/>
		<path id="Path_13776" class="st1" d="M271.1,540.8c6.7,22.9,21.4,44.3,45,60c3.1,2.1,6,4.1,8.8,5.9c45.4,31.2,39.2,37.3,25.4,98
			c-11.4,50.2,2.8,108.2,53.6,137c6.8,3.8,14,7,21.4,9.5c4.1,1.6,8.5,2.8,12.9,4c1.6,0.3,3.1,0.7,4.8,1c3.8,0.9,7.8,1.6,11.7,2.1
			c0.6,0.2,1.1,0.3,1.7,0.3c4.5,0.5,9,0.9,13.5,1c2.2,0.1,4.4,0.1,6.6-0.2c7.3,0,14.6-0.7,21.7-2.1c31.2-5.3,58.7-20,83.1-34.7
			c1.8-4.8,4.1-9.4,6.7-13.8c19.1-31.2,58-42.6,91.9-56.4c5.3-2.2,10.7-4.5,16-7.1h0.2c52.6-24.5,100.4-64,125.6-114.5v-0.2
			c2.1-4,3.9-8.1,5.5-12.2c5.1-12.2,8.7-24.9,10.7-38c3.6-22.1,2.1-46.7-12.1-64c-22.3-27.1-64.2-25.2-98-16c-0.2,0-0.3,0.2-0.5,0.2
			c-31.6,8.5-61.9,21-92.8,31.4c-0.2,0.2-0.2,0.2-0.3,0.2c-4.5,1.6-9,3.1-13.5,4.5l-8.8,2.6c-33.3,9.8-68.3,15.7-102.5,10.5
			c-37.3-5.9-73.7-26.9-90.2-60.7c-9.3-19-11.6-40.4-10-61.4c0.7-8.6,2.8-16.9,5.2-25.4c-13.1-5.2-26.6-8.3-40-7.9
			C295.2,396.4,251.6,475.4,271.1,540.8z"/>
		<path id="Path_13777" class="st2" d="M674.2,730.7c6.4,6.1,13.8,11.1,21.9,14.7h0.2c18.6,8.3,40.4,10.2,60.9,8.6
			c21.6-1.7,43.3-6.7,61.4-18.3c39-25.2,54-74.7,85.9-108.5c6.9-7.4,14.6-13.9,22.9-19.5v-0.2c-9-66.9,65.2-80.4,33.1-160.4
			C922.5,351.9,840.9,329,767.4,345.2c2,4.1,3.7,8.3,5.2,12.6c14,40.9,4.8,89-23.3,122c-6.6,7.6-13.9,14.5-21.7,20.9
			c-26.2,22.1-56.9,40.4-70.7,71.1c-8.3,18.6-9.5,39.7-9.8,60C646.3,667.1,649,706.2,674.2,730.7z"/>
		<path id="Path_13778" class="st3" d="M478.1,490.4c1.6,10.2,10,17.8,18.6,23.3c10.2,6.2,21.5,10.5,33.3,12.8
			c11.6,2.1,23.5,2.1,34.8,4.3c12.9,2.4,25.2,7.8,38.3,8.6c3,0.2,6,0.1,9-0.2c7.8-0.7,15.4-3.1,22.3-7.1c0.2,0,0.2,0,0.3-0.2
			c1.6-0.9,3.1-1.9,4.7-2.9c6.9-4.8,12.9-12.2,13.1-20.7c0.3-11.9-10.9-20.9-21.4-26.6c-12.4-6.6-25.7-11.6-35.9-21
			c-33.6,14.5-65.4,4.1-96.4-12.4c-1.3,2-2.6,3.9-4.1,5.7C486.2,464.7,475.8,476.8,478.1,490.4z"/>
	</g>
	<g id="Group_6937">
		<path id="Path_13779" class="st4" d="M325.9,603"/>
		<g id="Group_6930">
			
				<linearGradient id="Path_13780_1_" gradientUnits="userSpaceOnUse" x1="362.1155" y1="855.9243" x2="361.1175" y2="855.9243" gradientTransform="matrix(272.5919 0 0 -116.668 -97918.2188 100458.3906)">
				<stop  offset="0" style="stop-color:#F0047F"/>
				<stop  offset="1" style="stop-color:#13007C"/>
			</linearGradient>
			<path id="Path_13780" class="st5" d="M652.5,541.1c-6.4,0-14.2,1.7-23.4,5.2c-4,1.5-7.7,3.7-11,6.5c-3,2.7-4.5,5.5-4.5,8.2
				c0,2.9,1.5,5.5,3.8,7.1c2.8,2.1,5.9,3.7,9.3,4.8c7.5,2.4,14.8,5.2,22,8.3c4.5,2.1,6.8,5,6.8,8.7c-0.2,1.7-0.8,3.4-1.9,4.7
				c-3.2,5.1-11.3,9.8-24.2,14c-5.9,1.9-12,2.9-18.2,2.9c-6.1,0-10.3-0.9-12.5-2.7c-2-1.4-3.2-3.6-3.3-6.1c0-3.6,2-7.3,6.1-10.9
				c2.9-2.7,6.3-4.9,9.9-6.5c2.7-1.3,5.7-2.1,8.7-2.3c2.3,0,3.5-0.3,3.6-0.9s-0.6-0.8-2.3-0.8c-7.3,0.1-14.4,2.4-20.3,6.7
				c-7.8,5-11.7,11.1-11.7,18.3c0,7.2,6.4,10.8,19.1,10.8c6.5,0,14.2-1.8,23.2-5.4c9-3.6,16.4-8.1,22-13.5c3.7-3.7,5.6-7.1,5.6-10.3
				c0-3.2-1.4-6-4.2-8.6c-2.6-2.5-5.6-4.5-8.8-6c-3.1-1.4-7.2-3.1-12.2-5c-5-1.9-8.4-3.2-10.1-4.1c-3.1-1.5-4.7-3.1-4.7-4.8
				c0-2.1,2.6-4.6,7.7-7.4c7.8-4.2,16.5-6.5,25.3-6.9c6.9,0,10.3,1.7,10.3,5.2c0,1.6-1.3,3.7-4,6.2c-0.5,0.4-0.9,0.9-1.3,1.5
				c0,1,0.7,1,2.2,0.2c1.8-1.1,3.2-2.6,4.1-4.5c1.3-1.8,2-4,2.2-6.2C665.8,543.3,661.3,541.1,652.5,541.1z M595.8,575l-17.9,0.1
				c-0.5,0-0.9,0.1-1.3,0.4c-1.8,0.8-2.7,1.8-2.7,2.9c0,0.7,0.7,1.1,2.2,1.1h0.6c17.2-0.4,25.8-1.4,25.8-3
				C602.5,575.5,600.3,575,595.8,575z M791.7,593.4c-0.4-0.2-0.9-0.1-1.1,0.3c-2.6,3.6-5.6,6.9-9,9.9c-2.7,2.5-5.6,4.8-8.8,6.8
				c-2.1,1.2-3.8,1.1-5-0.2c-0.6-0.7-1-2.2-1-4.4c0-2.2,0.8-5.2,2.3-8.9c0.9-2.2,2.3-5,4.1-8.5s2.8-6.2,2.8-8.2c0-2-0.9-3-2.8-3
				c-1.9,0-4.4,1.1-7.5,3.3c-4,3.3-7.7,6.8-11.3,10.6c-4.4,4.6-8.1,8.7-11,12.3c4.2-11.1,6.7-17.6,7.6-19.5c0.6-1.2,1.1-2.4,1.3-3.7
				c0-0.8-0.6-1.3-1.7-1.5c-0.9-0.2-1.9-0.3-2.8-0.2c-0.7,0-1.4,0.4-1.8,1c-0.4,0.5-0.7,1-0.9,1.6c-0.2,0.6-0.3,1.2-0.4,1.8
				c-0.2,0.8-0.4,1.7-0.7,2.5c-0.4,0.9-1.3,3.7-2.9,8.2c-3.6,4.1-7.5,8-11.6,11.6c-4.5,3.9-7.6,6.4-9.5,7.3c1.4-2.9,3.4-7.2,6.2-13
				c2.8-5.8,4.7-9.8,5.7-12.2c0.2-0.5-0.3-1-1.6-1.7c-3.3-1.6-5.5-1.7-6.5-0.1c-5.9,7.3-12.6,13.9-20,19.7
				c-4.7,3.7-8.1,5.6-10.4,5.6c-1.6,0-2.4-1.4-2.4-4.2c0-1.6,1.1-4.1,3.2-7.6c2.1-3.4,4.8-6.5,7.8-9.2c3.1-2.8,6.6-5.1,10.3-7
				c3.1-1.8,6.7-2.8,10.3-3c3,0,5,0.8,5.9,2.3c0.6,0.2,1,0,1-0.6c0-1.1-0.8-2.3-2.4-3.4c-1.6-1.1-3.6-1.7-5.6-1.7
				c-2.2,0-4.4,0.3-6.5,0.8c-3.2,1-6.3,2.4-9.2,4.2c-4,2.3-7.7,5.1-11.1,8.2c-1.4,1.3-2.8,2.6-4.1,4.1c0,0,0,0-0.1,0.1
				c0,0,0,0.1-0.1,0.1c-0.7,0.8-1.4,1.6-2,2.5c-2.2,2.6-4.6,5.1-7.1,7.3c-2.7,2.6-5.6,4.8-8.8,6.8c-2.1,1.1-3.7,1-4.8-0.2
				c-0.7-0.8-1-1.8-1-2.8c0-0.9,0-1.9,0.1-2.8c0.2-2.5,2.7-8.4,7.3-17.5c0.4-0.7,0.8-1.5,1.2-2.3c0.1-0.2,0.2-0.6,0.4-1
				c0.2-0.6,0.5-1.1,0.8-1.6c0.4-0.6,0.5-1.4,0.3-2.1c-0.4-1.3-1.6-1.9-3.6-1.9h-0.8c-1.2,0.2-2.6,2.6-4.2,7.1
				c-0.3,0.5-0.4,1-0.2,1.6c-2.3,3.4-5.4,7.5-9.3,12.5c-0.3,0.3-0.4,0.6-0.5,1c0,0.2,0,0.5,0.1,0.7c0.4,0.8,1,0.8,1.7,0
				c2.7-3.1,4.3-5.2,4.7-6.1c-2.6,5.7-3.9,10-3.9,12.8c0,0.7,0.1,1.4,0.2,2.1c0.8,2.9,3.5,4.8,6.4,4.6c1.7-0.1,3.5-0.4,5.1-1.1
				c3.5-1.3,7.8-4.7,12.9-10.3c0.1-0.1,0.2-0.3,0.3-0.4c-0.1,0.4-0.1,0.9-0.1,1.3c0,1.6,0.6,3.2,1.6,4.5c1,1.4,2.3,2.5,3.8,3.3
				c1.3,0.7,2.7,1.1,4.2,1.1c4.4,0,10.3-4,17.5-12.1c1.9-2.1,5.2-5.9,9.7-11.4c-2.3,6.9-6.3,16.3-12.1,28.2
				c-13.6,9-22.6,16-26.8,20.9c-4.2,4.9-6.4,9-6.4,12.3s2.1,5.4,6.2,6.5c0.8,0.2,1.6,0.3,2.4,0.4c5.9,0,11.9-4.5,17.9-13.4
				c2.3-3.6,6.9-12.5,13.8-26.6c2.3-1.3,6.3-4.4,11.9-9.4c4.1-3.7,7.3-6.7,9.7-9.2c-1,2.7-1.9,5.3-2.7,7.7c-1.4,4-2.2,6.2-2.4,6.6
				c-0.1,0.3-0.2,0.7-0.2,1c0,0.2,0.4,0.4,1.1,0.4s2.5-0.7,5.4-2.2c0.6-0.4,3.4-3.9,8.3-10.3c4.9-6.5,8.6-10.9,11.1-13.3
				c3.6-3.1,6.1-4.7,7.4-4.7c0.6,0,1,0.3,1,0.9c-0.3,1.4-0.9,2.7-1.6,3.8c-1.4,2.6-2.7,5.3-3.8,8.1c-0.8,1.9-1.4,3.8-1.8,5.8
				c-0.3,1.7-0.5,3.4-0.5,5.1c-0.1,1.6,0.6,3.2,1.7,4.4c1.1,1.2,3.1,1.8,5.8,1.9c3.1-0.1,6.1-1.2,8.6-3.1c3.3-2.4,6.3-5.1,9.1-8.2
				c2.5-2.5,4.7-5.3,6.5-8.3c0.1-0.2,0.2-0.4,0.2-0.7C792.4,593.8,792.1,593.6,791.7,593.4z M706.4,626.1c-1,2.1-1.7,3.5-2.1,4.2
				s-1,2-2.1,3.9c-1,1.9-1.8,3.3-2.4,4.2c-0.6,0.9-1.3,2.1-2.4,3.7c-1,1.6-1.9,2.9-2.7,3.9c-0.8,1-1.8,2.1-2.8,3.3
				c-1.2,1.3-2.5,2.5-3.9,3.6c-1.5,1.2-2.7,1.8-3.5,1.8c-0.8,0-1.6-0.3-2.3-0.7c-0.8-0.6-1.2-1.5-1.1-2.4c0-3.7,2.1-7.7,6.3-11.9
				c4.2-4.2,11.1-10,20.8-17.2C708,622.7,707.4,624,706.4,626.1z M682.5,561.5c-0.3,0-1.1,0.6-2.4,1.7l-2.1,1.6
				c-3.5,2.7-5.2,4.2-5.2,4.5c0,1.7,1.7,2.5,5.2,2.5c0.6,0,1.4-0.8,2.4-2.4c0.8-1,1.3-2.2,1.6-3.5l1-3.9c0-0.2-0.1-0.5-0.4-0.5
				C682.6,561.5,682.5,561.5,682.5,561.5L682.5,561.5z M531.7,604.9v-22h34.5v-10.7h-34.5v-19.7H569v-11.4h-49.2v75.1h49.9v-11.4
				H531.7z"/>
		</g>
		<path id="Path_13781" class="st4" d="M765.1,616.9"/>
		<g id="Group_6931">
			<path id="Path_13782" class="st6" d="M788.8,610.5c0,0.2-0.1,0.4-0.2,0.5c-0.2,0.1-0.4,0.2-0.6,0.2h-0.6v-1.3h0.6
				c0.2,0,0.4,0,0.6,0.2C788.7,610.1,788.8,610.3,788.8,610.5 M787.4,612.2h0.5l1.2,1.8h1.5l-1.4-2c0.3-0.1,0.6-0.3,0.8-0.6
				c0.2-0.3,0.2-0.5,0.2-0.9c0-0.5-0.2-0.9-0.6-1.2c-0.5-0.3-1-0.4-1.5-0.4h-1.9v5h1.3V612.2z M784.3,611.4c0-0.5,0.1-1,0.3-1.4
				c0.4-0.9,1.1-1.6,2-2c0.9-0.4,1.9-0.4,2.9,0c0.9,0.4,1.6,1.1,2,2c0.4,0.9,0.4,2,0,2.9c-0.2,0.4-0.5,0.8-0.8,1.2
				c-0.3,0.3-0.7,0.6-1.2,0.8c-0.9,0.4-1.9,0.4-2.9,0c-0.4-0.2-0.8-0.5-1.2-0.8c-0.3-0.3-0.6-0.7-0.8-1.2
				C784.4,612.4,784.3,611.9,784.3,611.4 M783.7,611.4c0,0.6,0.1,1.2,0.3,1.7c0.4,1,1.3,1.9,2.3,2.3c1.1,0.5,2.3,0.5,3.4,0
				c1-0.4,1.9-1.3,2.3-2.3c0.5-1.1,0.5-2.3,0-3.4c-0.4-1-1.3-1.9-2.3-2.3c-1.1-0.5-2.3-0.5-3.4,0c-1,0.4-1.9,1.3-2.3,2.3
				C783.8,610.3,783.7,610.9,783.7,611.4"/>
		</g>
		<g id="Group_6933">
			<g>
				<defs>
					<polygon id="SVGID_1_" points="331,700.3 804.4,708.1 798.1,516.6 331,516.6 					"/>
				</defs>
				<clipPath id="SVGID_2_">
					<use xlink:href="#SVGID_1_"  style="overflow:visible;"/>
				</clipPath>
				<g id="Group_6932" class="st7">
					<path id="Path_13783" class="st8" d="M732.8,676.9H535.5c-12.9,0-16.3-10.6-16.3-16.3v-17.2c0-12.9,10.6-16.3,16.3-16.3h156
						l-3.9,3.2c-2.4,2-4.7,4.2-6.8,6.5c-4.8,5.5-7.1,10.2-7.1,14.3c0,2.8,1.1,7.7,8.6,9.6c1,0.3,2.1,0.4,3.2,0.5
						c7.1,0,13.7-4.8,20.4-14.7c1.9-3,5.1-9,9.8-18.4l0.5-1h16.6l-3.6,3.2c-11.9,10.5-13.1,28.6-2.6,40.5c0.8,1,1.7,1.8,2.7,2.7
						L732.8,676.9z M535.5,630.9c-0.5,0-12.6,0.2-12.6,12.6v17.2c0,0.5,0.2,12.6,12.6,12.6h188.1c-10.5-12.1-10.5-30.1,0-42.3h-5
						c-4.5,8.9-7.5,14.7-9.4,17.7l-0.1,0.1c-7.4,11-15.1,16.4-23.5,16.4c-1.4,0-2.8-0.2-4.1-0.6c-10.6-2.7-11.4-10.8-11.4-13.2
						c0-5,2.6-10.5,8-16.7c1.1-1.3,2.3-2.5,3.6-3.7L535.5,630.9z"/>
					
						<linearGradient id="Path_13784_1_" gradientUnits="userSpaceOnUse" x1="361.5078" y1="856.446" x2="361.5078" y2="855.502" gradientTransform="matrix(206.8799 0 0 -45.994 -74164.2266 40021.8906)">
						<stop  offset="0" style="stop-color:#F0047F"/>
						<stop  offset="1" style="stop-color:#13007C"/>
					</linearGradient>
					<path id="Path_13784" class="st9" d="M686.4,629.1H535.5c0,0-14.4,0-14.4,14.4v17.2c0,0,0,14.4,14.4,14.4h192.5
						c-12.7-11.1-14-30.4-2.9-43.1c0.9-1,1.8-2,2.8-2.9h-10.6c-4.7,9.4-7.9,15.5-9.8,18.5l-0.1,0.1c-7.1,10.5-14.2,15.5-22,15.5
						c-1.2,0-2.5-0.2-3.6-0.5c-9-2.3-10-8.7-10-11.4c0-4.5,2.5-9.6,7.5-15.5C681.5,633.4,683.8,631.1,686.4,629.1"/>
					<path id="Path_13785" class="st10" d="M639.6,516.6"/>
				</g>
			</g>
		</g>
		<g id="Group_6934">
			<path id="Path_13787" class="st8" d="M539,645.7c-0.4,0-0.9-0.1-1.2-0.4c-0.7-0.7-0.7-1.8,0-2.4c0.3-0.3,0.7-0.5,1.2-0.5
				c0.4,0,0.8,0.1,1.1,0.4c0.3,0.3,0.5,0.8,0.5,1.2c0,0.5-0.2,0.9-0.5,1.2C539.9,645.5,539.4,645.7,539,645.7z M540.6,649.2v9.9
				c0,0.6-0.1,1.1-0.5,1.6c-0.3,0.3-0.7,0.5-1.2,0.5c-0.5,0-0.9-0.2-1.2-0.5c-0.3-0.4-0.5-1-0.5-1.5v-9.8c0-0.5,0.1-1.1,0.5-1.5
				c0.3-0.3,0.7-0.5,1.2-0.5c0.5,0,0.9,0.2,1.2,0.5C540.5,648.2,540.7,648.7,540.6,649.2z"/>
			<path id="Path_13788" class="st8" d="M546,642.5h4.7c1.1,0,2.1,0.1,3.1,0.4c0.9,0.2,1.7,0.7,2.4,1.3c1.8,1.6,2.8,4.1,2.8,7.5
				c0,1-0.1,2-0.3,3c-0.2,0.9-0.5,1.7-0.9,2.5c-0.4,0.7-0.9,1.4-1.5,2c-0.5,0.4-1,0.8-1.6,1.1c-0.6,0.3-1.2,0.5-1.8,0.6
				c-0.7,0.1-1.5,0.2-2.2,0.2h-4.7c-0.5,0-1-0.1-1.5-0.3c-0.3-0.2-0.6-0.5-0.6-0.9c-0.1-0.5-0.2-1-0.2-1.4v-13.5
				c-0.1-0.6,0.1-1.3,0.5-1.7C544.8,642.6,545.4,642.4,546,642.5z M547.4,645.4v12.5h2.7c0.6,0,1.1,0,1.4-0.1c0.4,0,0.7-0.1,1-0.3
				c0.3-0.1,0.7-0.3,0.9-0.6c1.2-1.1,1.8-2.9,1.8-5.4c0.1-1.4-0.2-2.8-0.8-4.1c-0.4-0.8-1.1-1.4-1.9-1.7c-0.9-0.3-1.8-0.4-2.8-0.4
				L547.4,645.4z"/>
			<path id="Path_13789" class="st8" d="M580.8,655.1c0,0.7-0.2,1.3-0.4,1.9c-0.3,0.7-0.8,1.4-1.3,2c-0.6,0.7-1.4,1.2-2.3,1.6
				c-1,0.4-2.1,0.6-3.2,0.6c-0.9,0-1.7-0.1-2.5-0.3c-0.7-0.2-1.4-0.5-2.1-0.9c-0.7-0.4-1.2-0.9-1.7-1.5c-0.5-0.6-0.9-1.2-1.2-1.9
				c-0.3-0.7-0.6-1.5-0.7-2.3c-0.2-0.9-0.3-1.7-0.2-2.6c0-1.4,0.2-2.7,0.6-4c0.4-1.1,1-2.1,1.8-3c0.8-0.8,1.7-1.5,2.7-1.9
				c1-0.4,2.2-0.7,3.3-0.7c1.3,0,2.6,0.3,3.8,0.9c1,0.5,1.9,1.3,2.6,2.2c0.5,0.7,0.9,1.6,0.9,2.5c0,0.4-0.2,0.8-0.4,1.1
				c-0.3,0.3-0.6,0.5-1,0.5c-0.4,0-0.7-0.1-1-0.3c-0.3-0.3-0.6-0.7-0.8-1.2c-0.4-0.8-0.9-1.5-1.6-2c-0.7-0.5-1.5-0.7-2.3-0.7
				c-1.4,0-2.7,0.6-3.5,1.7c-1,1.5-1.4,3.2-1.3,5c0,1.2,0.2,2.4,0.6,3.6c0.3,0.9,0.9,1.6,1.6,2.1c0.7,0.5,1.6,0.7,2.5,0.7
				c0.9,0,1.8-0.3,2.6-0.8c0.8-0.6,1.3-1.4,1.6-2.3c0.1-0.4,0.3-0.8,0.6-1.2c0.3-0.3,0.7-0.5,1.1-0.5c0.4,0,0.8,0.2,1.1,0.5
				C580.7,654.2,580.8,654.7,580.8,655.1z"/>
			<path id="Path_13790" class="st8" d="M586.6,644.3v5.1c0.4-0.4,0.8-0.8,1.2-1.2c0.4-0.3,0.8-0.5,1.3-0.7c0.5-0.1,1-0.2,1.6-0.2
				c0.8,0,1.5,0.2,2.2,0.6c0.7,0.4,1.2,0.9,1.5,1.6c0.2,0.4,0.4,0.9,0.5,1.4c0.1,0.6,0.1,1.2,0.1,1.7v6.6c0,0.6-0.1,1.1-0.5,1.6
				c-0.3,0.3-0.7,0.5-1.2,0.5c-1.1,0-1.6-0.7-1.6-2.1v-5.8c0-0.9-0.1-1.7-0.5-2.5c-0.4-0.6-1.1-1-1.8-0.9c-0.6,0-1.1,0.2-1.6,0.5
				c-0.5,0.4-0.8,0.9-1.1,1.4c-0.2,0.9-0.3,1.8-0.3,2.7v4.5c0,0.6-0.1,1.1-0.4,1.5c-0.3,0.4-0.8,0.6-1.2,0.5c-1.1,0-1.6-0.7-1.6-2.1
				v-14.9c0-0.6,0.1-1.1,0.4-1.6c0.3-0.4,0.7-0.5,1.2-0.5c0.5,0,0.9,0.2,1.2,0.5C586.4,643.2,586.6,643.7,586.6,644.3z"/>
			<path id="Path_13791" class="st8" d="M607,655.1h-6.4c0,0.7,0.1,1.4,0.5,2.1c0.3,0.5,0.7,1,1.2,1.3c0.5,0.3,1,0.5,1.6,0.5
				c0.4,0,0.7,0,1.1-0.1c0.3-0.1,0.7-0.3,0.9-0.5c0.3-0.2,0.6-0.4,0.8-0.7c0.3-0.2,0.6-0.6,1-1c0.2-0.2,0.5-0.2,0.7-0.2
				c0.3,0,0.6,0.1,0.8,0.3c0.2,0.2,0.3,0.5,0.3,0.8c0,0.4-0.1,0.8-0.3,1.1c-0.3,0.5-0.6,0.9-1.1,1.2c-0.5,0.4-1.1,0.7-1.8,0.9
				c-0.8,0.3-1.6,0.4-2.5,0.4c-1.8,0.1-3.6-0.6-4.9-1.9c-1.2-1.4-1.9-3.2-1.8-5.1c0-1,0.1-1.9,0.4-2.8c0.3-0.8,0.7-1.6,1.3-2.2
				c0.6-0.6,1.3-1.1,2-1.4c0.9-0.3,1.8-0.5,2.7-0.5c1.2,0,2.3,0.3,3.3,0.8c0.9,0.5,1.6,1.3,2.1,2.2c0.4,0.8,0.7,1.8,0.7,2.7
				c0,0.9-0.2,1.4-0.7,1.7C608.3,655,607.6,655.1,607,655.1z M600.5,653.1h6c0-1-0.3-1.9-0.9-2.6c-0.5-0.6-1.3-0.9-2.1-0.9
				c-0.8,0-1.5,0.3-2,0.9C600.9,651.3,600.6,652.2,600.5,653.1z"/>
			<path id="Path_13792" class="st8" d="M623.8,657c0,0.5-0.1,0.9-0.4,1.4c-0.3,0.5-0.7,1-1.1,1.4c-0.6,0.5-1.2,0.8-1.9,1.1
				c-0.8,0.3-1.7,0.4-2.6,0.4c-1.8,0.1-3.5-0.6-4.8-1.9c-1.2-1.4-1.8-3.1-1.7-5c0-1.3,0.2-2.6,0.8-3.7c0.5-1,1.3-1.9,2.3-2.5
				c1.8-1,3.9-1.2,5.9-0.5c0.7,0.2,1.3,0.6,1.8,1c0.5,0.4,0.8,0.8,1.1,1.3c0.2,0.4,0.4,0.8,0.4,1.3c0,0.4-0.2,0.8-0.4,1
				c-0.3,0.3-0.7,0.4-1.1,0.4c-0.2,0-0.5-0.1-0.7-0.2c-0.2-0.2-0.4-0.4-0.6-0.7c-0.3-0.6-0.8-1-1.3-1.4c-0.5-0.3-1.1-0.5-1.7-0.5
				c-0.9,0-1.8,0.4-2.3,1.2c-0.6,1-1,2.1-0.9,3.2c0,0.6,0.1,1.2,0.2,1.8c0.1,0.5,0.4,1,0.7,1.4c0.3,0.4,0.6,0.7,1,0.9
				c0.4,0.2,0.9,0.3,1.3,0.3c0.6,0,1.2-0.1,1.7-0.5c0.5-0.4,1-0.9,1.2-1.5c0.2-0.3,0.4-0.6,0.7-0.9c0.2-0.2,0.5-0.3,0.9-0.3
				c0.4,0,0.8,0.2,1,0.5C623.6,656.2,623.7,656.6,623.8,657z"/>
			<path id="Path_13793" class="st8" d="M634.3,659.6l-2.9-5l-1.8,1.8v2.7c0,0.6-0.1,1.1-0.5,1.5c-0.3,0.3-0.7,0.5-1.2,0.5
				c-0.5,0-0.9-0.2-1.2-0.5c-0.3-0.5-0.5-1-0.4-1.6v-14.6c0-0.6,0.1-1.2,0.4-1.7c0.3-0.4,0.7-0.6,1.2-0.6c0.5,0,0.9,0.2,1.2,0.5
				c0.3,0.5,0.5,1,0.4,1.6v8.3l3.7-4c0.3-0.4,0.7-0.7,1-1c0.3-0.2,0.6-0.3,0.9-0.3c0.8,0,1.4,0.6,1.4,1.4c0,0,0,0,0,0.1
				c0,0.5-0.4,1.2-1.3,2l-1.7,1.7l3.4,5.5c0.2,0.4,0.4,0.7,0.5,0.9c0.1,0.2,0.2,0.4,0.2,0.6c0,0.5-0.1,0.9-0.4,1.3
				c-0.3,0.3-0.7,0.5-1.1,0.5c-0.3,0-0.7-0.1-0.9-0.3C634.9,660.5,634.6,660.1,634.3,659.6z"/>
			<path id="Path_13794" class="st8" d="M648.3,655.1h-6.4c0,0.7,0.1,1.4,0.5,2.1c0.3,0.5,0.7,1,1.2,1.3c0.5,0.3,1,0.5,1.6,0.5
				c0.4,0,0.7,0,1.1-0.1c0.3-0.1,0.7-0.3,0.9-0.5c0.3-0.2,0.6-0.4,0.8-0.7c0.3-0.2,0.6-0.6,1-1c0.2-0.2,0.5-0.2,0.7-0.2
				c0.3,0,0.6,0.1,0.8,0.3c0.2,0.2,0.3,0.5,0.3,0.8c0,0.4-0.1,0.8-0.3,1.1c-0.3,0.5-0.6,0.9-1.1,1.2c-0.5,0.4-1.1,0.7-1.8,0.9
				c-0.8,0.3-1.6,0.4-2.5,0.4c-1.8,0.1-3.6-0.6-4.9-1.9c-1.2-1.4-1.9-3.2-1.8-5.1c0-1,0.1-1.9,0.4-2.8c0.3-0.8,0.7-1.6,1.3-2.2
				c0.6-0.6,1.3-1.1,2-1.4c0.9-0.3,1.8-0.5,2.7-0.5c1.2,0,2.3,0.3,3.3,0.8c0.9,0.5,1.6,1.3,2.1,2.2c0.4,0.8,0.7,1.8,0.7,2.7
				c0,0.9-0.2,1.4-0.7,1.7C649.7,655,649,655.1,648.3,655.1z M641.9,653.1h6c0-1-0.3-1.9-0.9-2.6c-0.5-0.6-1.3-0.9-2.1-0.9
				c-0.8,0-1.5,0.3-2,0.9C642.2,651.3,641.9,652.2,641.9,653.1z"/>
			<path id="Path_13795" class="st8" d="M656.6,656.3v2.9c0,0.6-0.1,1.1-0.5,1.6c-0.3,0.3-0.7,0.5-1.2,0.5c-0.4,0-0.9-0.2-1.2-0.5
				c-0.3-0.4-0.5-1-0.5-1.6v-9.5c0-1.5,0.5-2.3,1.6-2.3c0.5,0,0.9,0.2,1.2,0.5c0.3,0.5,0.4,1,0.4,1.6c0.3-0.6,0.7-1.1,1.2-1.6
				c0.5-0.4,1.1-0.6,1.7-0.5c0.7,0,1.4,0.2,2,0.5c0.6,0.2,1,0.8,1,1.4c0,0.4-0.1,0.8-0.4,1c-0.2,0.3-0.6,0.4-0.9,0.4
				c-0.3,0-0.6-0.1-0.9-0.2c-0.4-0.1-0.8-0.2-1.2-0.2c-0.4,0-0.8,0.1-1.2,0.4c-0.3,0.3-0.6,0.7-0.7,1.2c-0.2,0.6-0.3,1.2-0.3,1.8
				C656.6,654.4,656.6,655.2,656.6,656.3z"/>
		</g>
		<path id="Path_13796" class="st6" d="M740.7,644.4l-3.9,3.9l13.2,15.4l25.8-32.4l-4.3-3.4L750,655.2L740.7,644.4z"/>
		<g id="Group_6936">
			<g>
				<defs>
					<polygon id="SVGID_3_" points="331.8,696 803.4,710.3 798.9,516.6 331.8,516.6 					"/>
				</defs>
				<clipPath id="SVGID_4_">
					<use xlink:href="#SVGID_3_"  style="overflow:visible;"/>
				</clipPath>
				<g id="Group_6935" class="st11">
					<path id="Path_13797" class="st12" d="M766.7,647.6c2.5,9.9-3.4,19.9-13.3,22.4c-9.9,2.5-19.9-3.4-22.4-13.3
						c-2.5-9.9,3.4-19.9,13.3-22.4c5.4-1.4,11.1-0.2,15.6,3.1l3-3.7c-10.2-7.7-24.6-5.7-32.3,4.5c-7.7,10.2-5.7,24.6,4.5,32.3
						s24.6,5.7,32.3-4.5c5-6.5,6.1-15.2,2.9-22.8L766.7,647.6z"/>
				</g>
			</g>
		</g>
	</g>
	<circle id="Ellipse_422" class="st13" cx="408.2" cy="530.6" r="52.4"/>
	<circle id="Ellipse_423" class="st13" cx="472.9" cy="748" r="52.4"/>
	<circle id="Ellipse_424" class="st13" cx="809" cy="440.4" r="52.4"/>
	<circle id="Ellipse_425" class="st13" cx="867.3" cy="711.3" r="52.4"/>
	<g id="Group_6953">
		
			<linearGradient id="Path_13799_1_" gradientUnits="userSpaceOnUse" x1="361.0912" y1="856.4269" x2="361.0912" y2="855.4159" gradientTransform="matrix(108.468 0 0 -108.468 -38758.6016 93372.2812)">
			<stop  offset="0" style="stop-color:#F0047F"/>
			<stop  offset="1" style="stop-color:#13007C"/>
		</linearGradient>
		<path id="Path_13799" class="st14" d="M408.2,583.9V582c27.8,0,50.4-22.5,50.4-50.4c0-27.8-22.5-50.4-50.4-50.4
			c-27.8,0-50.4,22.5-50.4,50.4c0,27.8,22.6,50.3,50.4,50.4v3.9c-30,0-54.2-24.3-54.2-54.2c0-30,24.3-54.2,54.2-54.2
			c30,0,54.2,24.3,54.2,54.2l0,0c0,30-24.3,54.2-54.2,54.2V583.9z"/>
		<g id="Group_6946">
			<g>
				<defs>
					<path id="SVGID_5_" d="M358,531.7c0,27.9,22.6,50.5,50.5,50.5s50.5-22.6,50.5-50.5c0-27.9-22.6-50.5-50.5-50.5
						C380.6,481.3,358,503.9,358,531.7C358,531.7,358,531.7,358,531.7"/>
				</defs>
				<clipPath id="SVGID_6_">
					<use xlink:href="#SVGID_5_"  style="overflow:visible;"/>
				</clipPath>
				<g id="Group_6945" class="st15">
					
						<linearGradient id="Path_13800_1_" gradientUnits="userSpaceOnUse" x1="356.9615" y1="856.5887" x2="356.9615" y2="855.5887" gradientTransform="matrix(18.979 0 0 -20.13 -6398.3447 17790.5645)">
						<stop  offset="0" style="stop-color:#F0047F"/>
						<stop  offset="1" style="stop-color:#13007C"/>
					</linearGradient>
					<path id="Path_13800" class="st16" d="M385.3,560.6L385.3,560.6z M368.1,560.3l8.3,5.9l8.3-5.9v-11.7h-16.6V560.3z
						 M376.4,567.6l-9.5-6.7v-13.4h19v13.4L376.4,567.6z"/>
					<g id="Group_6938">
						
							<linearGradient id="Path_13801_1_" gradientUnits="userSpaceOnUse" x1="357.0615" y1="856.5845" x2="357.0615" y2="855.5845" gradientTransform="matrix(19.366 0 0 -20.565 -6538.4243 18162.8984)">
							<stop  offset="0" style="stop-color:#F0047F"/>
							<stop  offset="1" style="stop-color:#13007C"/>
						</linearGradient>
						<path id="Path_13801" class="st17" d="M376.4,567.8l-9.7-6.8v-13.7h19.4V561L376.4,567.8z M367.1,560.8l9.3,6.6l9.3-6.6v-13.1
							h-18.6L367.1,560.8z M376.4,566.4l-8.5-6v-12h17v12L376.4,566.4z M368.3,560.2l8.1,5.7l8.1-5.7v-11.4h-16.2V560.2z
							 M385.3,560.8l0-0.4h0V560.8z"/>
					</g>
					<g id="Group_6939">
						
							<linearGradient id="Path_13802_1_" gradientUnits="userSpaceOnUse" x1="351.2529" y1="856.8979" x2="351.2529" y2="855.8979" gradientTransform="matrix(8.8668 0 0 -7.8748 -2738.1223 7302.1812)">
							<stop  offset="0" style="stop-color:#F0047F"/>
							<stop  offset="1" style="stop-color:#13007C"/>
						</linearGradient>
						<path id="Path_13802" class="st18" d="M378.7,554.3H374c-1.1,0-2.1,0.9-2.1,2c0,0,0,0.1,0,0.1v3.7c0,1.1,0.9,2.1,2,2.1
							c0,0,0.1,0,0.1,0h4.7c1.1,0,2.1-0.9,2.1-2c0,0,0-0.1,0-0.1v-3.7c0-1.1-0.9-2.1-2-2.1C378.8,554.3,378.7,554.3,378.7,554.3z
							 M379.2,560.1c0,0.1,0,0.5-0.5,0.5H374c-0.1,0-0.5,0-0.5-0.5v-3.7c0-0.1,0-0.5,0.5-0.5h4.6c0.1,0,0.5,0,0.5,0.5V560.1z"/>
						
							<linearGradient id="Path_13803_1_" gradientUnits="userSpaceOnUse" x1="345.4426" y1="857.5454" x2="345.4426" y2="856.5454" gradientTransform="matrix(5.7491 0 0 -3.462 -1609.5977 3519.0029)">
							<stop  offset="0" style="stop-color:#F0047F"/>
							<stop  offset="1" style="stop-color:#13007C"/>
						</linearGradient>
						<path id="Path_13803" class="st19" d="M375.1,552.6c0-0.2,0-0.7,0.6-0.7h1.4c0.5,0,0.5,0.5,0.6,0.7v1.1h1.6v-1.1
							c0.1-1.2-0.9-2.3-2.1-2.4c0,0-0.1,0-0.1,0h-1.4c-1.2,0-2.2,1-2.2,2.2c0,0,0,0.1,0,0.1v1.1h1.6V552.6z"/>
					</g>
					
						<linearGradient id="Path_13804_1_" gradientUnits="userSpaceOnUse" x1="357.009" y1="856.5988" x2="357.009" y2="855.5988" gradientTransform="matrix(19.161 0 0 -19.165 -6397.5073 16963.6641)">
						<stop  offset="0" style="stop-color:#F0047F"/>
						<stop  offset="1" style="stop-color:#13007C"/>
					</linearGradient>
					<path id="Path_13804" class="st20" d="M444,555.7h8.7V547H444V555.7z M445.8,548.7h5.2v5.2h-5.2V548.7z M433.6,555.7h8.7V547
						h-8.7L433.6,555.7z M435.3,548.7h5.2v5.2h-5.2L435.3,548.7z M447.5,552.2h1.7v-1.7h-1.7V552.2z M437,552.2h1.7v-1.7H437V552.2z
						 M451,557.4v1.7h-1.7v-1.7H444v8.7h1.7v-5.2h1.7v1.7h5.2v-5.2L451,557.4z M433.6,566.1h8.7v-8.7h-8.7V566.1z M435.3,559.2h5.2
						v5.2h-5.2L435.3,559.2z M437,562.6h1.7v-1.7H437V562.6z M451,566.1h1.7v-1.7H451V566.1z M447.5,566.1h1.7v-1.7h-1.7
						L447.5,566.1z"/>
					<g id="Group_6940">
						
							<linearGradient id="Path_13805_1_" gradientUnits="userSpaceOnUse" x1="359.871" y1="856.514" x2="359.871" y2="855.514" gradientTransform="matrix(45.3234 0 0 -32.27 -15902.2373 28130.666)">
							<stop  offset="0" style="stop-color:#F0047F"/>
							<stop  offset="1" style="stop-color:#13007C"/>
						</linearGradient>
						<path id="Path_13805" class="st21" d="M426.3,523.2h-35.9c-2.5,0.1-4.6-1.9-4.7-4.4c0-0.1,0-0.2,0-0.3v-22.9
							c-0.1-2.5,1.9-4.6,4.4-4.7c0.1,0,0.2,0,0.3,0h35.9c2.5-0.1,4.6,1.9,4.7,4.4c0,0.1,0,0.2,0,0.3v22.9c0.1,2.5-1.9,4.6-4.4,4.7
							C426.5,523.2,426.4,523.2,426.3,523.2z M390.4,493.5c-1.1-0.1-2,0.7-2.1,1.7c0,0.1,0,0.2,0,0.3v22.9c-0.1,1.1,0.7,2,1.8,2.1
							c0.1,0,0.2,0,0.3,0h35.9c1.1,0.1,2-0.7,2.1-1.7c0-0.1,0-0.2,0-0.3v-22.9c0.1-1.1-0.7-2-1.8-2.1c-0.1,0-0.2,0-0.3,0
							L390.4,493.5z"/>
					</g>
					<g id="Group_6941">
						
							<linearGradient id="Path_13806_1_" gradientUnits="userSpaceOnUse" x1="359.8709" y1="856.514" x2="359.8709" y2="855.514" gradientTransform="matrix(45.3224 0 0 -32.2701 -15933.9209 28180.0332)">
							<stop  offset="0" style="stop-color:#F0047F"/>
							<stop  offset="1" style="stop-color:#13007C"/>
						</linearGradient>
						<path id="Path_13806" class="st22" d="M394.2,572.5h-35.9c-2.5,0.1-4.6-1.9-4.7-4.4c0-0.1,0-0.2,0-0.3v-22.9
							c-0.1-2.5,1.9-4.6,4.4-4.7c0.1,0,0.2,0,0.3,0h35.9c2.5-0.1,4.6,1.9,4.7,4.4c0,0.1,0,0.2,0,0.3v22.9c0.1,2.5-1.9,4.6-4.4,4.7
							C394.4,572.5,394.3,572.5,394.2,572.5z M358.3,542.9c-1.1-0.1-2,0.7-2.1,1.7c0,0.1,0,0.2,0,0.3v22.9c-0.1,1.1,0.7,2,1.8,2.1
							c0.1,0,0.2,0,0.3,0h35.9c1.1,0.1,2-0.7,2.1-1.7c0-0.1,0-0.2,0-0.3v-22.9c0.1-1.1-0.7-2-1.8-2.1c-0.1,0-0.2,0-0.3,0H358.3z"/>
					</g>
					<g id="Group_6942">
						
							<linearGradient id="Path_13807_1_" gradientUnits="userSpaceOnUse" x1="359.871" y1="856.514" x2="359.871" y2="855.514" gradientTransform="matrix(45.3234 0 0 -32.2701 -15868.6523 28180.0332)">
							<stop  offset="0" style="stop-color:#F0047F"/>
							<stop  offset="1" style="stop-color:#13007C"/>
						</linearGradient>
						<path id="Path_13807" class="st23" d="M459.9,572.5H424c-2.5,0.1-4.6-1.9-4.7-4.4c0-0.1,0-0.2,0-0.3v-22.9
							c-0.1-2.5,1.9-4.6,4.4-4.7c0.1,0,0.2,0,0.3,0h35.9c2.5-0.1,4.6,1.9,4.7,4.4c0,0.1,0,0.2,0,0.3v22.9c0.1,2.5-1.9,4.6-4.4,4.7
							C460,572.5,460,572.5,459.9,572.5z M424,542.9c-1.1-0.1-2,0.7-2.1,1.7c0,0.1,0,0.2,0,0.3v22.9c-0.1,1.1,0.7,2,1.8,2.1
							c0.1,0,0.2,0,0.3,0h35.9c1.1,0.1,2-0.7,2.1-1.7c0-0.1,0-0.2,0-0.3v-22.9c0.1-1.1-0.7-2-1.8-2.1c-0.1,0-0.2,0-0.3,0H424z"/>
					</g>
					<line id="Line_243" class="st24" x1="390.2" y1="529.7" x2="385.1" y2="534.8"/>
					<path id="Path_13808" class="st25" d="M383.4,536.5L383.4,536.5 M393.6,526.3L393.6,526.3"/>
					<line id="Line_244" class="st24" x1="428" y1="529.7" x2="433.1" y2="534.8"/>
					<path id="Path_13809" class="st25" d="M434.8,536.5L434.8,536.5 M424.6,526.3L424.6,526.3"/>
					<line id="Line_245" class="st26" x1="406.8" y1="556.4" x2="413.4" y2="556.4"/>
					<path id="Path_13810" class="st25" d="M415.6,556.4L415.6,556.4 M402.4,556.4L402.4,556.4"/>
					<path id="Path_13811" class="st8" d="M415.1,544.6c0.6-0.5,1.2-1,1.7-1.7l-0.9-1.6c0.2-0.2,0.3-0.4,0.4-0.7
						c0-0.1,0.1-0.2,0.1-0.2l1.8,0.1c0.3-0.7,0.5-1.5,0.7-2.3l-1.6-0.9c0-0.4,0-0.7,0-1.1l1.6-0.8c-0.1-0.8-0.3-1.6-0.6-2.4l-1.8,0
						c-0.2-0.3-0.3-0.6-0.5-0.9l1-1.5c-0.5-0.6-1-1.2-1.7-1.8l-1.6,0.9c-0.2-0.2-0.4-0.3-0.7-0.4c-0.1,0-0.2-0.1-0.2-0.1l0.1-1.8
						c-0.7-0.3-1.5-0.5-2.3-0.7l-0.9,1.6c-0.4,0-0.7,0-1.1,0l-0.8-1.6c-0.8,0.1-1.6,0.3-2.4,0.6l0,1.8c-0.3,0.2-0.6,0.3-0.9,0.5
						l-1.5-1c-0.6,0.5-1.2,1-1.8,1.7l0.9,1.6c-0.2,0.2-0.3,0.4-0.4,0.7c0,0.1-0.1,0.2-0.1,0.2l-1.8-0.1c-0.3,0.7-0.5,1.5-0.7,2.3
						l1.6,0.9c0,0.4,0,0.7,0,1.1l-1.6,0.8c0.1,0.8,0.3,1.6,0.6,2.4l1.8,0c0.2,0.3,0.3,0.6,0.5,0.9l-1,1.5c0.5,0.6,1,1.2,1.7,1.7
						l1.6-0.9c0.2,0.2,0.4,0.3,0.7,0.4c0.1,0,0.2,0.1,0.2,0.1l-0.1,1.8c0.7,0.3,1.5,0.5,2.3,0.7l0.9-1.6c0.4,0,0.7,0,1.1,0l0.8,1.6
						c0.8-0.1,1.6-0.3,2.4-0.6l0-1.8c0.3-0.2,0.6-0.3,0.9-0.5L415.1,544.6z"/>
					<g id="Group_6943">
						
							<linearGradient id="Path_13812_1_" gradientUnits="userSpaceOnUse" x1="357.5911" y1="856.5742" x2="357.5911" y2="855.5742" gradientTransform="matrix(21.7099 0 0 -21.713 -7354.1685 19124.4375)">
							<stop  offset="0" style="stop-color:#F0047F"/>
							<stop  offset="1" style="stop-color:#13007C"/>
						</linearGradient>
						<path id="Path_13812" class="st27" d="M409.8,547.3l-0.9-1.7h-0.2l-1,1.6l-0.5-0.1c-0.9-0.1-1.7-0.4-2.5-0.7l-0.5-0.2l0.1-1.9
							l-0.1-0.1l-1.6,0.9l-0.4-0.3c-0.7-0.6-1.3-1.2-1.8-1.9l-0.3-0.4l1-1.6l-0.1-0.2l-1.9,0l-0.2-0.5c-0.3-0.8-0.5-1.7-0.6-2.5
							l-0.1-0.5l1.7-0.9c0-0.1,0-0.1,0-0.2l-1.6-1l0.1-0.5c0.1-0.9,0.4-1.7,0.7-2.5l0.2-0.5l1.9,0.1c0,0,0.1-0.1,0.1-0.1l-0.9-1.6
							l0.3-0.4c0.6-0.7,1.2-1.3,1.9-1.8l0.4-0.3l1.6,1l0.2-0.1l0-1.9l0.5-0.2c0.8-0.3,1.7-0.5,2.5-0.6l0.5-0.1l0.9,1.7
							c0.1,0,0.1,0,0.2,0l1-1.6l0.5,0.1c0.9,0.1,1.7,0.4,2.5,0.7l0.5,0.2l-0.1,1.9c0,0,0.1,0.1,0.1,0.1l1.6-0.9l0.4,0.3
							c0.7,0.6,1.3,1.2,1.8,1.9l0.3,0.4l-1,1.6c0,0,0.1,0.1,0.1,0.2l1.9,0l0.2,0.5c0.3,0.8,0.5,1.7,0.6,2.5l0.1,0.5l-1.7,0.9
							c0,0.1,0,0.1,0,0.2l1.6,1l-0.1,0.5c-0.1,0.9-0.4,1.7-0.7,2.5l-0.2,0.5l-1.9-0.1c0,0-0.1,0.1-0.1,0.1l0.9,1.6l-0.3,0.4
							c-0.6,0.7-1.2,1.3-1.9,1.8l-0.4,0.3l-1.6-1c0,0-0.1,0.1-0.2,0.1l0,1.9l-0.5,0.2c-0.8,0.3-1.7,0.5-2.5,0.6L409.8,547.3z
							 M409.9,544.1l0.8,1.6c0.4-0.1,0.8-0.2,1.1-0.3l0-1.8l0.4-0.2c0.3-0.1,0.6-0.3,0.9-0.5l0.4-0.3l1.5,0.9
							c0.3-0.3,0.6-0.5,0.8-0.8l-0.9-1.5l0.3-0.4c0.1-0.2,0.3-0.4,0.4-0.6l0.4-0.7l1.8,0.1c0.1-0.4,0.2-0.7,0.3-1.1l-1.5-0.9l0-0.5
							c0-0.3,0-0.6,0-1l0-0.5l1.6-0.8c-0.1-0.4-0.2-0.8-0.3-1.1l-1.8,0l-0.2-0.5c-0.1-0.3-0.3-0.6-0.5-0.9l-0.3-0.4l0.9-1.5
							c-0.2-0.3-0.5-0.6-0.8-0.8l-1.5,0.9l-0.4-0.3c-0.2-0.1-0.4-0.3-0.6-0.4l-0.6-0.3l0-0.5l0.1-1.3c-0.4-0.1-0.7-0.2-1.1-0.3
							l-0.9,1.5l-0.5,0c-0.3,0-0.6,0-1,0l-0.5,0l-0.8-1.6c-0.4,0.1-0.8,0.2-1.1,0.3l0,1.8l-0.5,0.2c-0.3,0.1-0.6,0.3-0.9,0.5
							l-0.4,0.3l-1.5-0.9c-0.3,0.3-0.6,0.5-0.8,0.8l0.9,1.5l-0.3,0.4c-0.1,0.2-0.3,0.4-0.4,0.6c0,0.1-0.1,0.1-0.1,0.2l-0.2,0.5
							l-1.8-0.1c-0.1,0.4-0.2,0.7-0.3,1.1l1.5,0.9l0,0.5c0,0.3,0,0.7,0,1l0,0.5l-1.6,0.8c0.1,0.4,0.2,0.8,0.3,1.1l1.8,0l0.2,0.5
							c0.1,0.3,0.3,0.6,0.5,0.9l0.3,0.4l-0.9,1.5c0.3,0.3,0.5,0.6,0.8,0.8l1.5-0.9l0.4,0.3c0.2,0.1,0.4,0.3,0.6,0.4
							c0.1,0,0.1,0.1,0.2,0.1l0.4,0.2l0,0.5l-0.1,1.3c0.4,0.1,0.7,0.2,1.1,0.3l0.9-1.5l0.5,0c0.3,0,0.7,0,1,0L409.9,544.1z"/>
					</g>
					<path id="Path_13813" class="st8" d="M407.8,540.7c2.3,0.7,4.8-0.6,5.5-2.9c0.7-2.3-0.6-4.8-2.9-5.5s-4.8,0.6-5.5,2.9
						c0,0,0,0,0,0C404.2,537.5,405.5,540,407.8,540.7"/>
					<g id="Group_6944">
						
							<linearGradient id="Path_13814_1_" gradientUnits="userSpaceOnUse" x1="352.7658" y1="856.7775" x2="352.7658" y2="855.7775" gradientTransform="matrix(10.3247 0 0 -10.3234 -3233.1099 9376.2051)">
							<stop  offset="0" style="stop-color:#F0047F"/>
							<stop  offset="1" style="stop-color:#13007C"/>
						</linearGradient>
						<path id="Path_13814" class="st28" d="M409.1,541.7c-0.5,0-1-0.1-1.5-0.2l0,0c-2.7-0.8-4.3-3.7-3.4-6.4s3.7-4.3,6.4-3.4
							c2.7,0.8,4.3,3.7,3.4,6.4C413.4,540.2,411.4,541.7,409.1,541.7z M408.1,539.9c1.9,0.6,3.9-0.5,4.5-2.4
							c0.6-1.9-0.5-3.9-2.4-4.5s-3.9,0.5-4.5,2.4C405.1,537.3,406.2,539.3,408.1,539.9z"/>
					</g>
					<path id="Path_13815" class="st12" d="M408.5,538.3c1,0.3,2.1-0.3,2.4-1.3c0.3-1-0.3-2.1-1.3-2.4c-1-0.3-2.1,0.3-2.4,1.3
						S407.5,538,408.5,538.3L408.5,538.3"/>
				</g>
			</g>
		</g>
		<g id="Group_6952">
			<g id="Group_6950">
				<g id="Group_6949">
					<g id="Group_6948">
						
							<image style="overflow:visible;opacity:0.5;enable-background:new    ;" width="32" height="32" id="Rectangle_4509" xlink:href="5B060C7CB90CC65F.png"  transform="matrix(1 0 0 1 392.111 491.717)">
						</image>
						<g id="Group_6947">
							<path id="Rectangle_4510" class="st8" d="M402.8,496.8h11.3c2.7,0,4.9,2.2,4.9,4.9V513c0,2.7-2.2,4.9-4.9,4.9h-11.3
								c-2.7,0-4.9-2.2-4.9-4.9v-11.3C397.9,499,400.1,496.8,402.8,496.8z"/>
						</g>
					</g>
					
						<linearGradient id="Rectangle_4511_1_" gradientUnits="userSpaceOnUse" x1="357.0947" y1="856.5931" x2="357.0947" y2="855.7092" gradientTransform="matrix(19.498 0 0 -19.498 -6554.2095 17199.5352)">
						<stop  offset="0" style="stop-color:#F0047F"/>
						<stop  offset="1" style="stop-color:#13007C"/>
					</linearGradient>
					<path id="Rectangle_4511" class="st29" d="M402.8,497.6h11.3c2.3,0,4.1,1.8,4.1,4.1V513c0,2.3-1.8,4.1-4.1,4.1h-11.3
						c-2.3,0-4.1-1.8-4.1-4.1v-11.3C398.7,499.5,400.5,497.6,402.8,497.6z"/>
					<path id="Path_13817" class="st8" d="M416.3,515.7l-1.5-1.5l-0.7,0.7l-1.3-3.2l3.3,1.3l-0.7,0.7l1.5,1.5L416.3,515.7z"/>
				</g>
			</g>
			<g id="Group_6951">
				<path id="Path_13818" class="st8" d="M418.8,510.6c-0.8,0.5-1.9,0.9-2.7,0.3c-0.9-0.7-0.5-1.7-0.2-2.4c0.4-0.9,0.4-1.1,0-1.4
					c-0.4-0.3-1.6,0.9-2.4,1.8c-1.4,1.5-2.9,3-4.1,2.1c-0.3-0.2-0.5-0.5-0.5-0.9c-0.1-1.1,1.1-2.4,2.4-3.7c0.9-1,2-2.2,2-2.7
					c0-0.1,0-0.1-0.1-0.1c-0.9-0.8-3.1,1.7-4.8,3.5c-0.6,0.6-1.1,1.2-1.6,1.7c-1.2,1.2-3.4,2.6-5.1,2.6c-0.2,0-0.3,0-0.5,0
					c-0.5-0.1-1-0.5-1.2-1c-0.8-2,2.1-3.9,2.2-4l0.5,0.7c-0.7,0.5-2.3,1.9-1.9,3c0.1,0.2,0.3,0.4,0.5,0.5c1.1,0.2,3.4-1.1,4.7-2.4
					c0.5-0.5,1-1.1,1.6-1.7c2.2-2.4,4.5-4.8,6-3.5c0.2,0.2,0.3,0.5,0.4,0.7c0.1,0.9-1,2-2.2,3.4c-1,1.1-2.2,2.4-2.1,3.1
					c0,0.1,0.1,0.2,0.2,0.3c0.6,0.5,1.9-0.9,3-2c1.3-1.4,2.5-2.6,3.5-1.9c1,0.7,0.6,1.7,0.3,2.4c-0.3,0.8-0.4,1.1-0.1,1.4
					c0.4,0.3,1.1,0,2.1-0.6"/>
			</g>
		</g>
	</g>
	<g id="Group_6958">
		<g id="Group_6957">
			<g>
				<defs>
					<rect id="SVGID_7_" x="414.5" y="697.9" width="116.8" height="116.8"/>
				</defs>
				<clipPath id="SVGID_8_">
					<use xlink:href="#SVGID_7_"  style="overflow:visible;"/>
				</clipPath>
				<g id="Group_6956" class="st30">
					
						<linearGradient id="Path_13819_1_" gradientUnits="userSpaceOnUse" x1="360.9479" y1="856.4344" x2="360.9479" y2="855.4344" gradientTransform="matrix(93.22 0 0 -90.1609 -33174.6055 77928.1484)">
						<stop  offset="0" style="stop-color:#F0047F"/>
						<stop  offset="1" style="stop-color:#13007C"/>
					</linearGradient>
					<path id="Path_13819" class="st31" d="M512.8,738.4c-4.9-17.3-19.9-27.2-41.9-27.2c-24.6,0-44.6,20.2-44.6,45.1
						c-0.2,24.2,18.9,44.2,43.1,45.1c0.5,0,1,0,1.5,0v-3.2c-0.4,0-0.9,0-1.3,0c-22-0.7-39.3-19.5-39.3-41.8
						c0-22.6,18.2-41.1,40.6-41.1c26,0,34.9,13.7,37.9,23.9l-6.4,1.2l10.3,7.5l6.8-10.9L512.8,738.4z"/>
					<g id="Group_6954">
						
							<linearGradient id="Path_13820_1_" gradientUnits="userSpaceOnUse" x1="359.9257" y1="856.4883" x2="359.9257" y2="855.4883" gradientTransform="matrix(46.539 0 0 -40.677 -16279.1631 35581.4688)">
							<stop  offset="0" style="stop-color:#F0047F"/>
							<stop  offset="1" style="stop-color:#13007C"/>
						</linearGradient>
						<path id="Path_13820" class="st32" d="M484.7,782.8h-26.5c-4,0-7.2-1.8-8.8-5.1c-0.8-1.5-1.2-3.2-1.2-4.9v-20.6
							c0-7.9,6.6-10,10-10h26.5c7.9,0,10,6.6,10,10v20.6C494.7,780.7,488.1,782.8,484.7,782.8z M458.2,746.1c-1,0-6,0.4-6,6v20.6
							c0,1,0.4,6,6,6h26.5c1,0,6-0.4,6-6v-20.6c0-1-0.4-6-6-6L458.2,746.1z"/>
					</g>
					<g id="Group_6955">
						
							<linearGradient id="Path_13821_1_" gradientUnits="userSpaceOnUse" x1="358.5831" y1="856.6181" x2="358.5831" y2="855.6181" gradientTransform="matrix(28.074 0 0 -17.536 -9595.4434 15744.0488)">
							<stop  offset="0" style="stop-color:#F0047F"/>
							<stop  offset="1" style="stop-color:#13007C"/>
						</linearGradient>
						<path id="Path_13821" class="st33" d="M485.5,739.9h-4v-6.4c0-0.7-0.2-7.2-6-7.2h-8c-1,0-6,0.4-6,7.2v6.3h-4v-6.3
							c0-11,9.9-11.2,10-11.2h8c7.9,0,10,7.3,10,11.2V739.9z"/>
					</g>
					<path id="Path_13822" class="st6" d="M458.7,766.8c1.9,0,3.4-1.5,3.4-3.4c0-1.9-1.5-3.4-3.4-3.4c-1.9,0-3.4,1.5-3.4,3.4
						S456.8,766.8,458.7,766.8C458.7,766.8,458.7,766.8,458.7,766.8"/>
					<path id="Path_13823" class="st6" d="M467.2,766.8c1.9,0,3.4-1.5,3.4-3.4c0-1.9-1.5-3.4-3.4-3.4c-1.9,0-3.4,1.5-3.4,3.4
						S465.3,766.8,467.2,766.8C467.2,766.8,467.2,766.8,467.2,766.8"/>
					<path id="Path_13824" class="st6" d="M475.7,766.8c1.9,0,3.4-1.5,3.4-3.4c0-1.9-1.5-3.4-3.4-3.4c-1.9,0-3.4,1.5-3.4,3.4
						S473.8,766.8,475.7,766.8C475.7,766.8,475.7,766.8,475.7,766.8"/>
					<path id="Path_13825" class="st6" d="M484.1,766.8c1.9,0,3.4-1.5,3.4-3.4c0-1.9-1.5-3.4-3.4-3.4c-1.9,0-3.4,1.5-3.4,3.4
						S482.3,766.8,484.1,766.8C484.1,766.8,484.1,766.8,484.1,766.8"/>
				</g>
			</g>
		</g>
		
			<linearGradient id="Path_13826_1_" gradientUnits="userSpaceOnUse" x1="361.0829" y1="856.4272" x2="361.0829" y2="855.4163" gradientTransform="matrix(107.454 0 0 -107.454 -38327.2344 92720.7812)">
			<stop  offset="0" style="stop-color:#F0047F"/>
			<stop  offset="1" style="stop-color:#13007C"/>
		</linearGradient>
		<path id="Path_13826" class="st34" d="M472.6,799.8v-1.9c27.6,0,49.9-22.3,49.9-49.9s-22.3-49.9-49.9-49.9
			c-27.6,0-49.9,22.3-49.9,49.9c0,27.5,22.4,49.9,49.9,49.9v3.8c-29.7,0-53.7-24.1-53.7-53.7s24.1-53.7,53.7-53.7
			c29.7,0,53.7,24.1,53.7,53.7c0,29.7-24.1,53.7-53.7,53.7L472.6,799.8z"/>
	</g>
	<g id="Group_6970">
		<g id="Group_6959">
			
				<linearGradient id="Path_13827_1_" gradientUnits="userSpaceOnUse" x1="360.3445" y1="856.5062" x2="360.3445" y2="855.1622" gradientTransform="matrix(58.55 0 0 -53.904 -20221.0059 46860.6719)">
				<stop  offset="0" style="stop-color:#F0047F"/>
				<stop  offset="1" style="stop-color:#13007C"/>
			</linearGradient>
			<path id="Path_13827" class="st35" d="M853.7,718.7l-5.8,5.8l19.8,23.2l38.7-48.7l-6.5-5.2L867.7,735L853.7,718.7z"/>
			
				<linearGradient id="Path_13828_1_" gradientUnits="userSpaceOnUse" x1="360.5982" y1="856.5037" x2="360.5982" y2="855.4606" gradientTransform="matrix(69.4022 0 0 -69.4039 -24160.2773 60136.2734)">
				<stop  offset="0" style="stop-color:#F0047F"/>
				<stop  offset="1" style="stop-color:#13007C"/>
			</linearGradient>
			<path id="Path_13828" class="st36" d="M892.8,723.4c3.8,14.8-5.2,29.9-20,33.7c-14.8,3.8-29.9-5.2-33.7-20
				c-3.8-14.8,5.2-29.9,20-33.7c8.1-2.1,16.7-0.4,23.4,4.6l4.5-5.5c-15.3-11.6-37-8.5-48.6,6.7c-11.6,15.3-8.5,37,6.7,48.6
				c15.3,11.6,37,8.5,48.6-6.7c7.4-9.8,9.1-22.9,4.4-34.3L892.8,723.4z"/>
		</g>
		<g id="Group_6962">
			<g>
				<defs>
					<rect id="SVGID_9_" x="811.5" y="657.9" width="107.7" height="107.7"/>
				</defs>
				<clipPath id="SVGID_10_">
					<use xlink:href="#SVGID_9_"  style="overflow:visible;"/>
				</clipPath>
				<g id="Group_6961" class="st37">
					<g id="Group_6960">
						<path id="Path_13829" class="st38" d="M865.4,763.5c28.5,0,51.7-23.1,51.7-51.7s-23.1-51.7-51.7-51.7s-51.7,23.1-51.7,51.7
							c0,0,0,0,0,0C813.7,740.3,836.8,763.5,865.4,763.5C865.4,763.5,865.4,763.5,865.4,763.5"/>
					</g>
				</g>
			</g>
		</g>
		<g id="Group_6965">
			<g>
				<defs>
					<path id="SVGID_11_" d="M813.7,711.8c0,28.5,23.1,51.7,51.7,51.7s51.7-23.1,51.7-51.7s-23.1-51.7-51.7-51.7c0,0,0,0,0,0
						C836.8,660.1,813.7,683.2,813.7,711.8C813.7,711.8,813.7,711.8,813.7,711.8"/>
				</defs>
				<clipPath id="SVGID_12_">
					<use xlink:href="#SVGID_11_"  style="overflow:visible;"/>
				</clipPath>
				<g id="Group_6964" class="st39">
					<g id="Group_6963">
						<path id="Path_13830" class="st38" d="M871.5,685.8c0,0-9.7,0-9.7,9.7v24.4c0,0,0,9.7,9.7,9.7h48.9c0,0,9.7,0,9.7-9.7v-24.4
							c0,0,0-9.7-9.7-9.7H871.5z"/>
					</g>
				</g>
			</g>
		</g>
		<g id="Group_6968">
			<g>
				<defs>
					<rect id="SVGID_13_" x="813" y="657.9" width="107.7" height="107.7"/>
				</defs>
				<clipPath id="SVGID_14_">
					<use xlink:href="#SVGID_13_"  style="overflow:visible;"/>
				</clipPath>
				<g id="Group_6967" class="st40">
					<g id="Group_6966">
						
							<linearGradient id="Path_13832_1_" gradientUnits="userSpaceOnUse" x1="361.0849" y1="856.4232" x2="361.0849" y2="855.4302" gradientTransform="matrix(107.7 0 0 -107.7 -38021.9805 92895.1484)">
							<stop  offset="0" style="stop-color:#F0047F"/>
							<stop  offset="1" style="stop-color:#13007C"/>
						</linearGradient>
						<path id="Path_13832" class="st41" d="M866.9,765.6c-29.7,0-53.9-24.1-53.9-53.8s24.1-53.9,53.8-53.9s53.9,24.1,53.9,53.8
							C920.7,741.5,896.6,765.6,866.9,765.6z M866.9,662.3c-27.3,0-49.5,22.2-49.5,49.5c0,27.3,22.2,49.5,49.5,49.5
							c27.3,0,49.5-22.2,49.5-49.5c0,0,0,0,0,0C916.3,684.5,894.2,662.3,866.9,662.3z"/>
					</g>
				</g>
			</g>
		</g>
		<g id="Group_6969">
			
				<linearGradient id="Path_13833_1_" gradientUnits="userSpaceOnUse" x1="338.8526" y1="856.5372" x2="338.8526" y2="855.7313" gradientTransform="matrix(4.11 0 0 -23.4978 -537.1858 20795.6133)">
				<stop  offset="0" style="stop-color:#F0047F"/>
				<stop  offset="1" style="stop-color:#13007C"/>
			</linearGradient>
			<path id="Path_13833" class="st42" d="M855.5,672.5c-0.5,0-1.1-0.2-1.5-0.5c-0.8-0.9-0.8-2.2,0-3c0.4-0.4,0.9-0.6,1.4-0.6
				c0.5,0,1,0.2,1.4,0.5c0.4,0.4,0.7,1,0.6,1.5c0,0.6-0.2,1.1-0.6,1.5C856.6,672.3,856,672.5,855.5,672.5z M857.5,676.9v12.3
				c0.1,0.7-0.2,1.4-0.6,1.9c-0.4,0.4-0.9,0.7-1.5,0.7c-0.6,0-1.1-0.2-1.5-0.7c-0.4-0.6-0.6-1.2-0.6-1.9V677
				c-0.1-0.7,0.1-1.4,0.6-1.9c0.4-0.4,0.9-0.7,1.5-0.6c0.6,0,1.1,0.2,1.5,0.6C857.4,675.6,857.6,676.3,857.5,676.9z"/>
			
				<linearGradient id="Path_13834_1_" gradientUnits="userSpaceOnUse" x1="356.9133" y1="856.5496" x2="356.9133" y2="855.7236" gradientTransform="matrix(18.798 0 0 -22.9153 -5838.3779 20296.9395)">
				<stop  offset="0" style="stop-color:#F0047F"/>
				<stop  offset="1" style="stop-color:#13007C"/>
			</linearGradient>
			<path id="Path_13834" class="st43" d="M864.2,668.5h5.8c1.3,0,2.6,0.1,3.9,0.4c1.1,0.3,2.1,0.9,2.9,1.6c2.3,2,3.4,5.1,3.4,9.3
				c0,1.3-0.1,2.5-0.3,3.8c-0.2,1.1-0.6,2.1-1.1,3.1c-0.5,0.9-1.1,1.7-1.8,2.4c-0.6,0.5-1.2,1-1.9,1.3c-0.7,0.3-1.5,0.6-2.3,0.7
				c-0.9,0.1-1.8,0.2-2.7,0.2h-5.8c-0.6,0-1.3-0.1-1.8-0.4c-0.4-0.2-0.7-0.6-0.8-1.1c-0.1-0.6-0.2-1.2-0.2-1.8v-16.8
				c-0.1-0.8,0.2-1.6,0.6-2.2C862.7,668.7,863.5,668.5,864.2,668.5z M866,672.2v15.5h3.4c0.7,0,1.3,0,1.7-0.1c0.4,0,0.9-0.2,1.3-0.3
				c0.4-0.2,0.8-0.4,1.2-0.7c1.5-1.3,2.2-3.6,2.2-6.8c0.1-1.7-0.2-3.5-1-5.1c-0.5-1-1.4-1.8-2.4-2.1c-1.1-0.3-2.3-0.5-3.5-0.5
				L866,672.2z"/>
		</g>
	</g>
	<g id="Group_6977">
		<g id="Group_6971">
			
				<linearGradient id="Path_13835_1_" gradientUnits="userSpaceOnUse" x1="361.0806" y1="856.4274" x2="361.0806" y2="855.4163" gradientTransform="matrix(107.172 0 0 -107.172 -37889.9492 92171.7734)">
				<stop  offset="0" style="stop-color:#F0047F"/>
				<stop  offset="1" style="stop-color:#13007C"/>
			</linearGradient>
			<path id="Path_13835" class="st44" d="M807.8,492v-1.9c27.5,0,49.8-22.3,49.8-49.8s-22.3-49.8-49.8-49.8
				c-27.5,0-49.8,22.3-49.8,49.8c0,27.5,22.3,49.7,49.8,49.8v3.8c-29.6,0-53.6-24-53.6-53.6s24-53.6,53.6-53.6s53.6,24,53.6,53.6
				s-24,53.6-53.6,53.6l0,0V492z"/>
		</g>
		<g id="Group_6973">
			<g id="Group_6972">
				
					<linearGradient id="Path_13836_1_" gradientUnits="userSpaceOnUse" x1="358.6006" y1="856.0035" x2="359.6006" y2="856.0035" gradientTransform="matrix(33.143 0 0 -35.245 -11094.0703 30594.7402)">
					<stop  offset="0" style="stop-color:#F0047F"/>
					<stop  offset="1" style="stop-color:#13007C"/>
				</linearGradient>
				<path id="Path_13836" class="st45" d="M807.6,442.5L791,430.8v-23.5h33.1v23.5L807.6,442.5z M792.8,429.9l14.8,10.5l14.7-10.4
					l0-1h0v1l0.1-0.1V409h-29.6V429.9z M807.6,440.4l-14.8-10.5V409h29.6v20.9L807.6,440.4z M794.8,429l12.8,9.1l12.8-9.1v-18.1
					h-25.7V429z"/>
			</g>
			<path id="Path_13837" class="st12" d="M806.8,428.6c-0.5,0-0.9-0.2-1.3-0.4l-5.1-4.1c-0.8-0.6-0.9-1.7-0.3-2.5
				c0,0,0.1-0.1,0.1-0.1c0.7-0.8,1.9-0.9,2.8-0.2l3.3,2.6l5-8.3c0.6-0.9,1.8-1.2,2.7-0.7c0.9,0.5,1.2,1.6,0.8,2.4c0,0,0,0.1-0.1,0.1
				l-6.2,10.3c-0.3,0.5-0.8,0.8-1.4,0.9C807,428.6,806.9,428.6,806.8,428.6"/>
		</g>
		<g id="Group_6976">
			<g>
				<defs>
					<rect id="SVGID_15_" x="773" y="445.3" width="67.9" height="32"/>
				</defs>
				<clipPath id="SVGID_16_">
					<use xlink:href="#SVGID_15_"  style="overflow:visible;"/>
				</clipPath>
				<g id="Group_6975" class="st46">
					<path id="Path_13838" class="st12" d="M829.9,459.2c-0.1-0.1-0.3-0.2-0.5-0.2c-0.1,0-0.2,0-0.3,0.1c-0.3,0.1-0.4,0.3-0.4,0.6
						v15.4c0,0.3,0.2,0.5,0.4,0.6c0.1,0,0.2,0.1,0.3,0.1c0.2,0,0.3-0.1,0.5-0.2l3.3-3.2l2,4.6c0.2,0.3,0.5,0.5,0.9,0.3l1.9-0.8
						c0.2-0.1,0.3-0.2,0.4-0.4c0.1-0.2,0.1-0.3,0-0.5l-2.1-4.9h4c0.3,0,0.5-0.2,0.6-0.4c0.1-0.2,0.1-0.5-0.1-0.7L829.9,459.2z"/>
					<g id="Group_6974">
						
							<linearGradient id="Path_13839_1_" gradientUnits="userSpaceOnUse" x1="359.7297" y1="856.0931" x2="360.7297" y2="856.0931" gradientTransform="matrix(54.6832 0 0 -19.6964 -18898.2305 17317.0879)">
							<stop  offset="0" style="stop-color:#F0047F"/>
							<stop  offset="1" style="stop-color:#13007C"/>
						</linearGradient>
						<path id="Path_13839" class="st47" d="M797.3,465c-0.6,0-1.2-0.2-1.8-0.5c-0.7-0.4-1.2-1.1-1.4-1.9c-0.5-2.3,1.3-5.3,3.5-8.8
							c1.1-1.6,2-3.3,2.7-5c-0.9,0.2-3,1.2-8.2,5.5c-0.4,0.4-0.8,0.6-0.9,0.8c-0.1,0.1-0.6,0.5-1,0.9c-5,4.6-10.2,8.8-13.9,8.2
							c-1.1-0.1-2.1-0.8-2.7-1.8c-0.7-1.1-0.9-2.5-0.5-3.7c1.3-4.4,8.9-8.2,9.8-8.6l1.5,3.1c-2.8,1.3-7.4,4.3-8,6.5
							c-0.1,0.3-0.1,0.7,0.1,1c0.1,0.1,0.2,0.2,0.3,0.2c1.7,0.2,5.4-2.2,11.1-7.4c0.7-0.6,1-0.9,1.3-1.1c0.2-0.1,0.5-0.4,0.8-0.7
							c5-4.1,10.5-8.3,13.2-5.2c1.8,2-0.2,5.2-2.7,9.2c-1.1,1.8-3.1,4.9-3.1,6.1c1.2,0,4.6-2.9,6.3-4.2c3.8-3.1,7.5-6.1,9.7-3.5
							c1.1,1.3,1.5,3.2,1,4.9c-0.3,1.3-0.2,1.3,1.1,1.8c4.1,1.5,9.4-1,10.2-1.5l1.9,2.8c-1.3,0.9-7.8,3.9-13.2,1.9
							c-4.1-1.5-3.6-4.2-3.2-5.7c0.2-0.9,0.2-1.3,0-1.7c-1.1,0.3-3.7,2.4-5.2,3.7C802.8,462.6,799.8,465,797.3,465z"/>
					</g>
				</g>
			</g>
		</g>
	</g>
</g>
</svg>
