<?xml version="1.0" encoding="utf-8"?>
<!-- Generator: Adobe Illustrator 25.0.1, SVG Export Plug-In . SVG Version: 6.00 Build 0)  -->
<svg version="1.1" id="Layer_1" xmlns="http://www.w3.org/2000/svg" xmlns:xlink="http://www.w3.org/1999/xlink" x="0px" y="0px"
	 viewBox="0 0 676.2 519.2" style="enable-background:new 0 0 676.2 519.2;" xml:space="preserve">
<style type="text/css">
	.st0{fill:#18013D;}
	.st1{fill:#16013F;}
	.st2{fill:#000122;}
	.st3{opacity:0.33;fill:#12022C;enable-background:new    ;}
	.st4{fill:#E2DEE1;}
	.st5{clip-path:url(#SVGID_2_);}
	.st6{fill:#FFFFFF;}
	.st7{fill:url(#Path_14165_1_);}
	.st8{fill:url(#Path_14166_1_);}
	.st9{fill:#13007C;}
	.st10{fill:none;stroke:#13007C;stroke-width:1.371;stroke-miterlimit:10;}
	.st11{fill:url(#Path_14170_1_);}
	.st12{fill:url(#Path_14175_1_);}
	.st13{fill:url(#Rectangle_4585_1_);}
	.st14{fill:url(#Rectangle_4586_1_);}
	.st15{fill:url(#Rectangle_4587_1_);}
	.st16{fill:url(#Path_14177_1_);}
	.st17{clip-path:url(#SVGID_4_);}
	.st18{fill:url(#Path_14179_1_);}
	.st19{fill:url(#Rectangle_4588_1_);}
	.st20{fill:url(#Rectangle_4589_1_);}
	.st21{fill:url(#Rectangle_4590_1_);}
	.st22{fill:url(#Rectangle_4591_1_);}
	.st23{fill:url(#Rectangle_4592_1_);}
	.st24{fill:url(#Rectangle_4593_1_);}
	.st25{fill:url(#Path_14182_1_);}
	.st26{fill:url(#Rectangle_4594_1_);}
	.st27{fill:url(#Rectangle_4595_1_);}
	.st28{fill:url(#Rectangle_4596_1_);}
	.st29{fill:url(#Rectangle_4597_1_);}
	.st30{fill:url(#Rectangle_4598_1_);}
	.st31{fill:url(#Rectangle_4599_1_);}
	.st32{fill:url(#Path_14185_1_);}
	.st33{fill:url(#Path_14186_1_);stroke:#FFFFFF;stroke-width:1.71;stroke-miterlimit:10;}
	.st34{fill:url(#Path_14187_1_);stroke:#FFFFFF;stroke-width:1.71;stroke-miterlimit:10;}
	.st35{clip-path:url(#SVGID_6_);}
	.st36{fill:none;}
	.st37{clip-path:url(#SVGID_8_);}
	.st38{clip-path:url(#SVGID_10_);}
	.st39{fill:url(#Path_14191_1_);}
	.st40{fill:url(#Path_14192_1_);}
	.st41{fill:url(#Path_14193_1_);}
	.st42{clip-path:url(#SVGID_12_);}
	.st43{fill:url(#Path_14196_1_);}
	.st44{fill:url(#Path_14197_1_);}
	.st45{fill:url(#Path_14198_1_);}
	.st46{fill:url(#Path_14199_1_);}
	.st47{fill:url(#Path_14201_1_);}
	.st48{fill:url(#Path_14202_1_);}
	.st49{fill:url(#Path_14204_1_);}
	.st50{fill:url(#Path_14207_1_);}
	.st51{fill:url(#Path_14210_1_);}
	.st52{fill:none;stroke:#3D891F;stroke-width:0.867;stroke-miterlimit:10;}
	.st53{fill:url(#Path_14214_1_);}
	.st54{fill:url(#Path_14216_1_);}
	.st55{fill:url(#Path_14219_1_);}
	.st56{fill:url(#Path_14220_1_);}
	.st57{fill:url(#Path_14222_1_);}
	.st58{fill:url(#Path_14223_1_);}
	.st59{fill:url(#Path_14226_1_);}
	.st60{clip-path:url(#SVGID_14_);}
	.st61{fill:#FF0000;}
	.st62{fill:url(#Path_14228_1_);}
	.st63{fill:url(#Path_14229_1_);}
	.st64{fill:url(#Path_14230_1_);}
	.st65{fill:url(#Path_14231_1_);}
	.st66{fill:url(#Path_14232_1_);}
	.st67{fill:url(#Path_14233_1_);}
	.st68{fill:url(#Path_14234_1_);}
	.st69{fill:#F0047F;}
	.st70{fill:#F0047F;stroke:#F0047F;stroke-width:6.178;stroke-linecap:round;stroke-linejoin:round;}
	.st71{fill:none;stroke:#F0047F;stroke-width:6.178;stroke-linecap:round;stroke-linejoin:round;}
	.st72{fill:url(#Path_14242_1_);}
	.st73{fill:url(#Path_14244_1_);}
	.st74{fill:url(#Path_14247_1_);}
	.st75{fill:none;stroke:#FF0000;stroke-width:0.715;}
	.st76{fill:none;stroke:#FF0000;stroke-width:0.941;}
	.st77{fill:url(#Rectangle_4604_1_);}
	.st78{fill:url(#Path_14253_1_);}
</style>
<g id="Group_7042" transform="translate(-292.379 -342.361)">
	<g id="Group_7257">
		<path id="Path_14160" class="st0" d="M964.1,661.2c-6.5-22.9-20.6-44.3-43.4-60c-3-2.1-5.8-4.1-8.5-5.9
			c-43.7-31.2-37.7-37.3-24.4-98c11-50.2-2.7-108.2-51.7-137c-6.6-3.8-13.5-7-20.6-9.5c-4-1.6-8.1-2.8-12.5-4c-1.5-0.3-3-0.7-4.7-1
			c-3.7-0.9-7.5-1.6-11.3-2.1c-0.5-0.2-1.1-0.3-1.7-0.3c-4.3-0.5-8.6-0.9-13-1c-2.1-0.1-4.2-0.1-6.3,0.2c-7,0-14,0.7-20.9,2.1
			c-30.1,5.3-56.5,20-80.1,34.7c-37.9,23.8-67.9,48-92,33.5c-44.5-26.9-87.9-35-126.2-31.1c-26.2,2.5-51.5,10.9-73.9,24.7
			c-55,33.3-83.2,92.5-60.3,134.4c11.8,21.4,17.4,38.8,19.3,53.5v0.2c8.6,66.9-62.8,80.4-31.9,160.4
			c36.7,95.2,115.3,118.2,186,101.9c45.8-10.2,88.5-36.9,114.4-70.9c17.6-23.1,34.7-37.3,51.3-44.7c32.4-14.5,63-4.1,92.9,12.4
			c27.2,15,53.8,35.2,81.1,46.1c12.6,5.2,25.6,8.3,38.5,7.9C940.8,805.6,982.9,726.6,964.1,661.2z"/>
		<path id="Path_14161" class="st1" d="M964.1,661.2c-6.5-22.9-20.6-44.3-43.4-60c-3-2.1-5.8-4.1-8.5-5.9
			c-43.7-31.2-37.7-37.3-24.4-98c11-50.2-2.7-108.2-51.7-137c-6.6-3.8-13.5-7-20.6-9.5c-4-1.6-8.1-2.8-12.5-4c-1.5-0.3-3-0.7-4.7-1
			c-3.7-0.9-7.5-1.6-11.3-2.1c-0.5-0.2-1.1-0.3-1.7-0.3c-4.3-0.5-8.6-0.9-13-1c-2.1-0.1-4.2-0.1-6.3,0.2c-7,0-14,0.7-20.9,2.1
			c-30.1,5.3-56.5,20-80.1,34.7c-1.7,4.8-3.9,9.4-6.5,13.8c-18.4,31.2-55.8,42.6-88.5,56.4c-5.1,2.2-10.3,4.5-15.4,7.1h-0.2
			c-50.7,24.5-96.7,64-120.9,114.5v0.2c-2,4-3.8,8.1-5.3,12.2c-4.9,12.2-8.3,24.9-10.3,38c-3.5,22.1-2,46.7,11.6,64
			c21.4,27.1,61.8,25.2,94.3,16c0.2,0,0.3-0.2,0.5-0.2c30.4-8.5,59.6-21,89.4-31.4c0.2-0.2,0.2-0.2,0.3-0.2c4.3-1.6,8.6-3.1,13-4.5
			l8.5-2.6c32.1-9.8,65.8-15.7,98.7-10.5c35.9,5.9,70.9,26.9,86.9,60.7c9,19,11.1,40.4,9.6,61.4c-0.7,8.6-2.7,16.9-5,25.4
			c12.6,5.2,25.6,8.3,38.5,7.9C940.8,805.6,982.9,726.6,964.1,661.2z"/>
		<path id="Path_14162" class="st2" d="M575.9,471.3c-6.1-6.1-13.2-11.1-21.1-14.7h-0.2c-17.9-8.3-38.9-10.2-58.6-8.6
			c-20.8,1.7-41.7,6.7-59.1,18.3c-37.5,25.2-52,74.7-82.7,108.5c-6.6,7.3-14,13.9-22.1,19.5v0.2c8.6,66.9-62.8,80.4-31.9,160.4
			c36.7,95.2,115.3,118.2,186,101.9c-1.9-4.1-3.6-8.3-5-12.6c-13.5-40.9-4.6-89,22.4-122c6.4-7.5,13.4-14.5,20.9-20.9
			c25.2-22.1,54.8-40.4,68.1-71.1c8-18.6,9.1-39.7,9.5-60C602.8,534.9,600.2,495.8,575.9,471.3z"/>
		<path id="Path_14163" class="st3" d="M764.8,711.6c-1.5-10.2-9.6-17.8-17.9-23.3c-9.8-6.2-20.7-10.5-32.1-12.8
			c-11.1-2.1-22.6-2.1-33.6-4.3c-12.5-2.4-24.3-7.8-36.9-8.6c-2.9-0.2-5.8-0.1-8.6,0.2c-7.6,0.7-14.9,3.1-21.4,7.1
			c-0.2,0-0.2,0-0.3,0.2c-1.5,0.9-3,1.9-4.5,2.9c-6.6,4.8-12.5,12.2-12.6,20.7c-0.3,11.9,10.5,20.9,20.6,26.6
			c12,6.6,24.7,11.6,34.5,21c32.4-14.5,63-4.1,92.9,12.4c1.2-2,2.5-3.9,4-5.7C757,737.3,766.9,725.2,764.8,711.6z"/>
	</g>
	<circle id="Ellipse_443" class="st4" cx="800.1" cy="421.3" r="51.2"/>
	<g id="Group_7264">
		<g id="Group_7263">
			<g>
				<defs>
					<path id="SVGID_1_" d="M749.1,421.1c0,27.6,22.4,50,50,50s50-22.4,50-50s-22.4-50-50-50l0,0
						C771.4,371.1,749.1,393.5,749.1,421.1"/>
				</defs>
				<clipPath id="SVGID_2_">
					<use xlink:href="#SVGID_1_"  style="overflow:visible;"/>
				</clipPath>
				<g id="Group_7262" class="st5">
					<path id="Path_14164" class="st6" d="M808.1,491.9c0,3.8-3.4,7-7.6,7H767c-4.2,0-7.6-3.1-7.6-7v-80.1c0-3.8,3.4-7,7.6-7h33.5
						c4.2,0,7.6,3.1,7.6,7V491.9z"/>
					<g id="Group_7258">
						
							<linearGradient id="Path_14165_1_" gradientUnits="userSpaceOnUse" x1="373.2834" y1="857.4023" x2="373.2834" y2="858.4023" gradientTransform="matrix(51.391 0 0 -96.708 -18399.6133 83417.8203)">
							<stop  offset="0" style="stop-color:#F0047F"/>
							<stop  offset="1" style="stop-color:#13007C"/>
						</linearGradient>
						<path id="Path_14165" class="st7" d="M800.5,500.2H767c-4.9,0-8.9-3.7-8.9-8.3v-80.1c0-4.6,4-8.3,8.9-8.3h33.5
							c4.9,0,8.9,3.7,8.9,8.3v80.1C809.5,496.4,805.5,500.2,800.5,500.2z M767,406.2c-3.4,0-6.2,2.5-6.2,5.6v80.1
							c0,3.1,2.8,5.6,6.2,5.6h33.5c3.4,0,6.2-2.5,6.2-5.6v-80.1c0-3.1-2.8-5.6-6.2-5.6L767,406.2z"/>
					</g>
					<rect id="Rectangle_4584" x="763" y="416.1" class="st6" width="41.6" height="70.2"/>
					<g id="Group_7259">
						
							<linearGradient id="Path_14166_1_" gradientUnits="userSpaceOnUse" x1="372.9726" y1="857.4169" x2="372.9726" y2="858.4169" gradientTransform="matrix(43.013 0 0 -71.6 -15258.835 61878.0703)">
							<stop  offset="0" style="stop-color:#F0047F"/>
							<stop  offset="1" style="stop-color:#13007C"/>
						</linearGradient>
						<path id="Path_14166" class="st8" d="M805.3,487h-43v-71.6h43V487z M763.7,485.6H804v-68.9h-40.3V485.6z"/>
					</g>
					<path id="Path_14167" class="st9" d="M786.9,410.8c0,0.5-0.5,1-1,0.9h-6.4c-0.5,0.1-1-0.3-1-0.8c-0.1-0.5,0.3-1,0.8-1
						c0.1,0,0.1,0,0.2,0h6.4C786.4,409.8,786.9,410.2,786.9,410.8"/>
					<path id="Path_14168" class="st10" d="M786.9,410.8c0,0.5-0.5,1-1,0.9h-6.4c-0.5,0.1-1-0.3-1-0.8c-0.1-0.5,0.3-1,0.8-1
						c0.1,0,0.1,0,0.2,0h6.4C786.4,409.8,786.9,410.2,786.9,410.8z"/>
					<path id="Path_14169" class="st6" d="M798.8,435.1l5.5-11.7c-3.4-3.2-5.3-7.7-5.4-12.4c0-11.1,11.5-20.2,25.6-20.2
						s25.6,9,25.6,20.2s-11.5,20.2-25.6,20.2c-4.4,0-8.8-0.9-12.8-2.7L798.8,435.1z"/>
					<g id="Group_7260">
						
							<linearGradient id="Path_14170_1_" gradientUnits="userSpaceOnUse" x1="373.3855" y1="858.4445" x2="373.3855" y2="857.4445" gradientTransform="matrix(54.904 0 0 -47.935 -19676.5801 41539.2422)">
							<stop  offset="0" style="stop-color:#F0047F"/>
							<stop  offset="1" style="stop-color:#13007C"/>
						</linearGradient>
						<path id="Path_14170" class="st11" d="M796.3,437.6l6.5-14.1c-3.3-3.4-5.1-7.9-5.2-12.6c0-11.7,12-21.3,26.8-21.3
							s26.8,9.6,26.8,21.3s-12,21.3-26.8,21.3c-4.4,0-8.8-0.9-12.8-2.6L796.3,437.6z M824.5,392c-13.5,0-24.5,8.5-24.5,19
							c0.1,4.4,1.9,8.5,5.1,11.6l0.6,0.6l-4.4,9.5l10.4-5.4l0.5,0.2c3.9,1.7,8.1,2.6,12.4,2.6c13.5,0,24.5-8.5,24.5-19
							S838,392,824.5,392z"/>
					</g>
					<path id="Path_14171" class="st9" d="M810.1,412.9l1.9-0.2c0.1,0.5,0.3,1,0.7,1.4c0.4,0.3,0.9,0.5,1.4,0.4c0.5,0,1-0.1,1.4-0.4
						c0.3-0.2,0.5-0.6,0.5-0.9c0-0.2-0.1-0.4-0.2-0.6c-0.2-0.2-0.4-0.3-0.7-0.4c-0.2-0.1-0.7-0.2-1.5-0.4c-0.8-0.1-1.5-0.5-2.2-0.9
						c-0.6-0.5-0.9-1.2-0.9-1.9c0-0.5,0.1-1,0.4-1.4c0.3-0.4,0.7-0.8,1.2-1c0.6-0.2,1.2-0.3,1.9-0.3c1-0.1,1.9,0.2,2.7,0.8
						c0.6,0.5,1,1.3,0.9,2.1l-1.9,0.1c0-0.4-0.2-0.8-0.5-1.1c-0.4-0.2-0.8-0.4-1.2-0.3c-0.5,0-0.9,0.1-1.3,0.3
						c-0.2,0.1-0.3,0.4-0.3,0.6c0,0.2,0.1,0.4,0.3,0.6c0.5,0.3,1.1,0.5,1.8,0.6c0.7,0.1,1.4,0.4,2.1,0.7c0.4,0.2,0.8,0.6,1.1,1
						c0.5,1,0.5,2.1-0.1,3c-0.3,0.5-0.8,0.9-1.3,1.1c-0.7,0.2-1.4,0.4-2.1,0.3c-1,0.1-2-0.2-2.8-0.8
						C810.5,414.7,810.1,413.8,810.1,412.9"/>
					<path id="Path_14172" class="st9" d="M819.4,416v-9.5h2.9l1.7,6.5l1.7-6.5h2.9v9.5h-1.8v-7.5l-1.9,7.5H823l-1.9-7.5v7.5
						L819.4,416z"/>
					<path id="Path_14173" class="st9" d="M830,412.9l1.9-0.2c0.1,0.5,0.3,1,0.7,1.4c0.4,0.3,0.9,0.5,1.4,0.4c0.5,0,1-0.1,1.4-0.4
						c0.3-0.2,0.5-0.6,0.5-0.9c0-0.2-0.1-0.4-0.2-0.6c-0.2-0.2-0.4-0.3-0.7-0.4c-0.2-0.1-0.7-0.2-1.5-0.4c-0.8-0.1-1.5-0.5-2.2-0.9
						c-0.6-0.5-0.9-1.2-0.9-1.9c0-0.5,0.1-1,0.4-1.4c0.3-0.4,0.7-0.8,1.2-1c0.6-0.2,1.2-0.3,1.9-0.3c1-0.1,1.9,0.2,2.7,0.8
						c0.6,0.5,1,1.3,1,2.1l-1.9,0.1c0-0.4-0.2-0.8-0.5-1.1c-0.4-0.2-0.8-0.4-1.2-0.3c-0.5,0-0.9,0.1-1.3,0.3
						c-0.2,0.1-0.3,0.4-0.3,0.6c0,0.2,0.1,0.4,0.3,0.6c0.5,0.3,1.1,0.5,1.8,0.6c0.7,0.1,1.4,0.4,2.1,0.7c0.4,0.2,0.8,0.6,1.1,1
						c0.3,0.5,0.4,1,0.4,1.5c0,0.5-0.2,1.1-0.5,1.5c-0.3,0.5-0.8,0.9-1.3,1.1c-0.7,0.2-1.4,0.4-2.1,0.3c-1,0.1-2-0.2-2.8-0.8
						C830.5,414.7,830,413.8,830,412.9"/>
					<path id="Path_14174" class="st6" d="M767,452.5v-11c0,0,0-2.9,2.6-2.9h27.1l-2.9,2.6c0,0.1,0,0.1,0,0.2v11c0,0,0,2.9-2.6,2.9
						h-21.7c-1.4,0-2.6-1.2-2.6-2.6C767,452.7,767,452.6,767,452.5"/>
					<g id="Group_7261">
						
							<linearGradient id="Path_14175_1_" gradientUnits="userSpaceOnUse" x1="371.8615" y1="858.0795" x2="372.8615" y2="858.0795" gradientTransform="matrix(32.5723 0 0 -18.304 -11346.2363 16153.3135)">
							<stop  offset="0" style="stop-color:#F0047F"/>
							<stop  offset="1" style="stop-color:#13007C"/>
						</linearGradient>
						<path id="Path_14175" class="st12" d="M791.2,456.2h-21.7c-1.9,0-3.4-1.6-3.4-3.5c0-0.1,0-0.1,0-0.2v-11
							c-0.1-1.9,1.3-3.5,3.2-3.7c0.1,0,0.1,0,0.2,0h29.2l-4.1,3.8v10.8c0.1,1.9-1.3,3.5-3.2,3.7
							C791.4,456.2,791.3,456.2,791.2,456.2z M769.5,439.5c-1.7,0-1.8,1.7-1.8,2v11c-0.1,1,0.5,1.9,1.5,2c0.1,0,0.2,0,0.2,0h21.7
							c1.7,0,1.8-1.7,1.8-2v-11c0-0.1,0-0.1,0-0.2l0-0.4l1.6-1.5L769.5,439.5z"/>
					</g>
					
						<linearGradient id="Rectangle_4585_1_" gradientUnits="userSpaceOnUse" x1="369.8262" y1="860.67" x2="370.8262" y2="860.67" gradientTransform="matrix(18.011 0 0 -1.424 -5891.0752 1676.4111)">
						<stop  offset="0" style="stop-color:#F0047F"/>
						<stop  offset="1" style="stop-color:#13007C"/>
					</linearGradient>
					<rect id="Rectangle_4585" x="769.9" y="450.1" class="st13" width="18" height="1.4"/>
					
						<linearGradient id="Rectangle_4586_1_" gradientUnits="userSpaceOnUse" x1="370.4531" y1="860.67" x2="371.4531" y2="860.67" gradientTransform="matrix(20.887 0 0 -1.424 -6967.7886 1672.5231)">
						<stop  offset="0" style="stop-color:#F0047F"/>
						<stop  offset="1" style="stop-color:#13007C"/>
					</linearGradient>
					<rect id="Rectangle_4586" x="769.9" y="446.2" class="st14" width="20.9" height="1.4"/>
					
						<linearGradient id="Rectangle_4587_1_" gradientUnits="userSpaceOnUse" x1="370.4531" y1="860.67" x2="371.4531" y2="860.67" gradientTransform="matrix(20.887 0 0 -1.424 -6967.7886 1668.634)">
						<stop  offset="0" style="stop-color:#F0047F"/>
						<stop  offset="1" style="stop-color:#13007C"/>
					</linearGradient>
					<rect id="Rectangle_4587" x="769.9" y="442.3" class="st15" width="20.9" height="1.4"/>
				</g>
			</g>
		</g>
		
			<linearGradient id="Path_14177_1_" gradientUnits="userSpaceOnUse" x1="374.1008" y1="858.3989" x2="374.1008" y2="857.3879" gradientTransform="matrix(105.366 0 0 -105.366 -38617.2539 90814.4453)">
			<stop  offset="0" style="stop-color:#F0047F"/>
			<stop  offset="1" style="stop-color:#13007C"/>
		</linearGradient>
		<path id="Path_14177" class="st16" d="M800.2,471.9V470c27,0,48.9-21.9,48.9-48.9s-21.9-48.9-48.9-48.9s-48.9,21.9-48.9,48.9
			c0,27,21.9,48.9,48.9,48.9v3.8c-29.1,0-52.7-23.6-52.7-52.7c0-29.1,23.6-52.7,52.7-52.7c29.1,0,52.7,23.6,52.7,52.7c0,0,0,0,0,0
			c0,29.1-23.6,52.7-52.7,52.7V471.9z"/>
	</g>
	<circle id="Ellipse_444" class="st4" cx="819.7" cy="765.3" r="51.2"/>
	<g id="Group_7282">
		<g id="Group_7280">
			<g>
				<defs>
					<path id="SVGID_3_" d="M767,764.9c0,28.4,23.1,51.5,51.5,51.5s51.5-23.1,51.5-51.5s-23.1-51.5-51.5-51.5c0,0,0,0,0,0
						C790,713.4,767,736.4,767,764.9"/>
				</defs>
				<clipPath id="SVGID_4_">
					<use xlink:href="#SVGID_3_"  style="overflow:visible;"/>
				</clipPath>
				<g id="Group_7279" class="st17">
					<path id="Path_14178" class="st6" d="M816.3,769.5c0,1-0.8,1.8-1.7,1.8c0,0,0,0-0.1,0h-23.2c-1,0-1.8-0.8-1.8-1.7
						c0,0,0-0.1,0-0.1V736c0-1,0.8-1.8,1.7-1.8c0,0,0.1,0,0.1,0h23.2c1,0,1.8,0.8,1.8,1.7c0,0,0,0,0,0.1L816.3,769.5z"/>
					<g id="Group_7265">
						
							<linearGradient id="Path_14179_1_" gradientUnits="userSpaceOnUse" x1="372.0689" y1="858.4625" x2="372.0689" y2="857.4625" gradientTransform="matrix(29.1806 0 0 -39.3965 -10054.3623 34553.4688)">
							<stop  offset="0" style="stop-color:#F0047F"/>
							<stop  offset="1" style="stop-color:#13007C"/>
						</linearGradient>
						<path id="Path_14179" class="st18" d="M814.4,772.5h-23.2c-1.6,0-2.9-1.2-3-2.8c0-0.1,0-0.1,0-0.2V736c0-1.6,1.2-2.9,2.8-3
							c0.1,0,0.1,0,0.2,0h23.2c1.6,0,2.9,1.2,3,2.8c0,0.1,0,0.1,0,0.2v33.4c0,1.6-1.2,2.9-2.8,3
							C814.6,772.5,814.5,772.5,814.4,772.5z M791.2,735.4c-0.3,0-0.6,0.2-0.6,0.5c0,0.1,0,0.1,0,0.2v33.4c0,0.2,0,0.6,0.7,0.6h23.2
							c0.3,0,0.6-0.2,0.6-0.5c0-0.1,0-0.1,0-0.2V736c0-0.3-0.2-0.6-0.5-0.6c-0.1,0-0.1,0-0.2,0L791.2,735.4z"/>
					</g>
					<g id="Group_7266">
						
							<linearGradient id="Rectangle_4588_1_" gradientUnits="userSpaceOnUse" x1="371.5448" y1="859.1812" x2="372.5448" y2="859.1812" gradientTransform="matrix(28.932 0 0 -3.03 -9926.8018 3347.0227)">
							<stop  offset="0" style="stop-color:#F0047F"/>
							<stop  offset="1" style="stop-color:#13007C"/>
						</linearGradient>
						<rect id="Rectangle_4588" x="822.7" y="742.2" class="st19" width="28.9" height="3"/>
					</g>
					<g id="Group_7267">
						
							<linearGradient id="Rectangle_4589_1_" gradientUnits="userSpaceOnUse" x1="369.9242" y1="859.1812" x2="370.9242" y2="859.1812" gradientTransform="matrix(18.407 0 0 -3.03 -5986.4629 3352.6128)">
							<stop  offset="0" style="stop-color:#F0047F"/>
							<stop  offset="1" style="stop-color:#13007C"/>
						</linearGradient>
						<rect id="Rectangle_4589" x="822.7" y="747.8" class="st20" width="18.4" height="3"/>
					</g>
					<g id="Group_7268">
						
							<linearGradient id="Rectangle_4590_1_" gradientUnits="userSpaceOnUse" x1="369.1477" y1="859.1812" x2="370.1477" y2="859.1812" gradientTransform="matrix(15.675 0 0 -3.03 -4991.396 3347.0227)">
							<stop  offset="0" style="stop-color:#F0047F"/>
							<stop  offset="1" style="stop-color:#13007C"/>
						</linearGradient>
						<rect id="Rectangle_4590" x="795" y="742.2" class="st21" width="15.7" height="3"/>
					</g>
					<g id="Group_7269">
						
							<linearGradient id="Rectangle_4591_1_" gradientUnits="userSpaceOnUse" x1="366.1568" y1="859.1812" x2="367.1568" y2="859.1812" gradientTransform="matrix(9.973 0 0 -3.03 -2856.6865 3352.6128)">
							<stop  offset="0" style="stop-color:#F0047F"/>
							<stop  offset="1" style="stop-color:#13007C"/>
						</linearGradient>
						<rect id="Rectangle_4591" x="795" y="747.8" class="st22" width="10" height="3"/>
					</g>
					<g id="Group_7270">
						
							<linearGradient id="Rectangle_4592_1_" gradientUnits="userSpaceOnUse" x1="369.1477" y1="859.1812" x2="370.1477" y2="859.1812" gradientTransform="matrix(15.675 0 0 -3.03 -4991.396 3358.7188)">
							<stop  offset="0" style="stop-color:#F0047F"/>
							<stop  offset="1" style="stop-color:#13007C"/>
						</linearGradient>
						<rect id="Rectangle_4592" x="795" y="753.9" class="st23" width="15.7" height="3"/>
					</g>
					<g id="Group_7271">
						
							<linearGradient id="Rectangle_4593_1_" gradientUnits="userSpaceOnUse" x1="366.1568" y1="859.1812" x2="367.1568" y2="859.1812" gradientTransform="matrix(9.973 0 0 -3.03 -2856.6865 3364.3088)">
							<stop  offset="0" style="stop-color:#F0047F"/>
							<stop  offset="1" style="stop-color:#13007C"/>
						</linearGradient>
						<rect id="Rectangle_4593" x="795" y="759.5" class="st24" width="10" height="3"/>
					</g>
					<path id="Path_14180" class="st9" d="M825.5,753.6c-1.5,0-2.8,1.2-2.8,2.7c0,0,0,0.1,0,0.1v0.4c0,1.5,1.2,2.8,2.7,2.8
						c0,0,0.1,0,0.1,0h17.7c1.5,0,2.8-1.2,2.8-2.7c0,0,0-0.1,0-0.1v-0.4c0-1.5-1.2-2.8-2.7-2.8c0,0-0.1,0-0.1,0H825.5z"/>
					<path id="Path_14181" class="st6" d="M816.3,813.7c0,1-0.8,1.8-1.7,1.8c0,0,0,0-0.1,0h-23.2c-1,0-1.8-0.8-1.8-1.7
						c0,0,0-0.1,0-0.1v-33.4c0-1,0.8-1.8,1.7-1.8c0,0,0.1,0,0.1,0h23.2c1,0,1.8,0.8,1.8,1.7c0,0,0,0,0,0.1L816.3,813.7z"/>
					<g id="Group_7272">
						
							<linearGradient id="Path_14182_1_" gradientUnits="userSpaceOnUse" x1="372.0689" y1="858.4625" x2="372.0689" y2="857.4625" gradientTransform="matrix(29.1805 0 0 -39.3937 -10054.3164 34595.3047)">
							<stop  offset="0" style="stop-color:#F0047F"/>
							<stop  offset="1" style="stop-color:#13007C"/>
						</linearGradient>
						<path id="Path_14182" class="st25" d="M814.4,816.7h-23.2c-1.6,0-2.9-1.2-3-2.8c0-0.1,0-0.1,0-0.2v-33.4c0-1.6,1.2-2.9,2.8-3
							c0.1,0,0.1,0,0.2,0h23.2c1.6,0,2.9,1.2,3,2.8c0,0.1,0,0.1,0,0.2v33.4c0,1.6-1.2,2.9-2.8,3
							C814.6,816.7,814.5,816.7,814.4,816.7z M791.2,779.6c-0.2,0-0.6,0-0.6,0.7v33.4c0,0.3,0.2,0.6,0.5,0.6c0.1,0,0.1,0,0.2,0h23.2
							c0.3,0,0.6-0.2,0.6-0.5c0-0.1,0-0.1,0-0.2v-33.4c0-0.3-0.2-0.6-0.5-0.6c-0.1,0-0.1,0-0.2,0L791.2,779.6z"/>
					</g>
					<g id="Group_7273">
						
							<linearGradient id="Rectangle_4594_1_" gradientUnits="userSpaceOnUse" x1="371.5448" y1="859.1812" x2="372.5448" y2="859.1812" gradientTransform="matrix(28.932 0 0 -3.03 -9926.8018 3391.2668)">
							<stop  offset="0" style="stop-color:#F0047F"/>
							<stop  offset="1" style="stop-color:#13007C"/>
						</linearGradient>
						<rect id="Rectangle_4594" x="822.7" y="786.4" class="st26" width="28.9" height="3"/>
					</g>
					<g id="Group_7274">
						
							<linearGradient id="Rectangle_4595_1_" gradientUnits="userSpaceOnUse" x1="369.9242" y1="859.1812" x2="370.9242" y2="859.1812" gradientTransform="matrix(18.407 0 0 -3.03 -5986.4629 3396.8577)">
							<stop  offset="0" style="stop-color:#F0047F"/>
							<stop  offset="1" style="stop-color:#13007C"/>
						</linearGradient>
						<rect id="Rectangle_4595" x="822.7" y="792" class="st27" width="18.4" height="3"/>
					</g>
					<g id="Group_7275">
						
							<linearGradient id="Rectangle_4596_1_" gradientUnits="userSpaceOnUse" x1="369.1477" y1="859.1812" x2="370.1477" y2="859.1812" gradientTransform="matrix(15.675 0 0 -3.03 -4991.396 3391.2668)">
							<stop  offset="0" style="stop-color:#F0047F"/>
							<stop  offset="1" style="stop-color:#13007C"/>
						</linearGradient>
						<rect id="Rectangle_4596" x="795" y="786.4" class="st28" width="15.7" height="3"/>
					</g>
					<g id="Group_7276">
						
							<linearGradient id="Rectangle_4597_1_" gradientUnits="userSpaceOnUse" x1="366.1568" y1="859.1812" x2="367.1568" y2="859.1812" gradientTransform="matrix(9.973 0 0 -3.03 -2856.6865 3396.8577)">
							<stop  offset="0" style="stop-color:#F0047F"/>
							<stop  offset="1" style="stop-color:#13007C"/>
						</linearGradient>
						<rect id="Rectangle_4597" x="795" y="792" class="st29" width="10" height="3"/>
					</g>
					<g id="Group_7277">
						
							<linearGradient id="Rectangle_4598_1_" gradientUnits="userSpaceOnUse" x1="369.1477" y1="859.1812" x2="370.1477" y2="859.1812" gradientTransform="matrix(15.675 0 0 -3.03 -4991.396 3402.9629)">
							<stop  offset="0" style="stop-color:#F0047F"/>
							<stop  offset="1" style="stop-color:#13007C"/>
						</linearGradient>
						<rect id="Rectangle_4598" x="795" y="798.1" class="st30" width="15.7" height="3"/>
					</g>
					<g id="Group_7278">
						
							<linearGradient id="Rectangle_4599_1_" gradientUnits="userSpaceOnUse" x1="366.1568" y1="859.1812" x2="367.1568" y2="859.1812" gradientTransform="matrix(9.973 0 0 -3.03 -2856.6865 3408.5537)">
							<stop  offset="0" style="stop-color:#F0047F"/>
							<stop  offset="1" style="stop-color:#13007C"/>
						</linearGradient>
						<rect id="Rectangle_4599" x="795" y="803.7" class="st31" width="10" height="3"/>
					</g>
					<path id="Path_14183" class="st9" d="M825.5,797.9c-1.5,0-2.8,1.2-2.8,2.7c0,0,0,0.1,0,0.1v0.4c0,1.5,1.2,2.8,2.7,2.8
						c0,0,0.1,0,0.1,0h17.7c1.5,0,2.8-1.2,2.8-2.7c0,0,0-0.1,0-0.1v-0.4c0-1.5-1.2-2.8-2.7-2.8c0,0-0.1,0-0.1,0H825.5z"/>
				</g>
			</g>
		</g>
		<g id="Group_7281">
			
				<linearGradient id="Path_14185_1_" gradientUnits="userSpaceOnUse" x1="374.1111" y1="858.3984" x2="374.1111" y2="857.3875" gradientTransform="matrix(106.786 0 0 -106.786 -39131.375 92376.8984)">
				<stop  offset="0" style="stop-color:#F0047F"/>
				<stop  offset="1" style="stop-color:#13007C"/>
			</linearGradient>
			<path id="Path_14185" class="st32" d="M818.5,816.8v-1.9c27.4,0,49.6-22.2,49.6-49.6s-22.2-49.6-49.6-49.6
				c-27.4,0-49.6,22.2-49.6,49.6l0,0c0,27.4,22.2,49.5,49.6,49.6v3.8c-29.5,0-53.4-23.9-53.4-53.4S789,712,818.5,712
				s53.4,23.9,53.4,53.4c0,29.5-23.9,53.4-53.4,53.4L818.5,816.8z"/>
		</g>
	</g>
	<circle id="Ellipse_445" class="st4" cx="409.9" cy="730.9" r="51.2"/>
	<g id="Group_7294">
		<g id="Group_7283">
			
				<linearGradient id="Path_14186_1_" gradientUnits="userSpaceOnUse" x1="373.4785" y1="858.4772" x2="373.4785" y2="857.1332" gradientTransform="matrix(58.55 0 0 -53.904 -21448.998 46986.0469)">
				<stop  offset="0" style="stop-color:#F0047F"/>
				<stop  offset="1" style="stop-color:#13007C"/>
			</linearGradient>
			<path id="Path_14186" class="st33" d="M394.7,737.8l-5.8,5.8l19.8,23.2l38.7-48.7l-6.5-5.2l-32.2,41.1L394.7,737.8z"/>
			
				<linearGradient id="Path_14187_1_" gradientUnits="userSpaceOnUse" x1="373.6975" y1="858.4746" x2="373.6975" y2="857.4316" gradientTransform="matrix(69.4022 0 0 -69.4039 -25528.377 60292.1875)">
				<stop  offset="0" style="stop-color:#F0047F"/>
				<stop  offset="1" style="stop-color:#13007C"/>
			</linearGradient>
			<path id="Path_14187" class="st34" d="M433.8,742.6c3.8,14.8-5.2,29.9-20,33.7s-29.9-5.2-33.7-20c-3.8-14.8,5.2-29.9,20-33.7
				c8.1-2.1,16.7-0.4,23.4,4.7l4.5-5.5c-15.3-11.6-37-8.6-48.6,6.7c-11.6,15.3-8.6,37,6.7,48.6c15.3,11.6,37,8.6,48.6-6.7
				c7.4-9.8,9.1-22.9,4.4-34.3L433.8,742.6z"/>
		</g>
		<g id="Group_7286">
			<g>
				<defs>
					<rect id="SVGID_5_" x="352.5" y="677.1" width="107.7" height="107.7"/>
				</defs>
				<clipPath id="SVGID_6_">
					<use xlink:href="#SVGID_5_"  style="overflow:visible;"/>
				</clipPath>
				<g id="Group_7285" class="st35">
					<g id="Group_7284">
						<path id="Path_14188" class="st36" d="M406.4,782.6c28.5,0,51.7-23.1,51.7-51.7c0-28.5-23.1-51.7-51.7-51.7
							c-28.5,0-51.7,23.1-51.7,51.7S377.8,782.6,406.4,782.6L406.4,782.6"/>
					</g>
				</g>
			</g>
		</g>
		<g id="Group_7289">
			<g>
				<defs>
					<path id="SVGID_7_" d="M354.7,730.9c0,28.5,23.1,51.7,51.7,51.7s51.7-23.1,51.7-51.7s-23.1-51.7-51.7-51.7h0
						C377.8,679.2,354.7,702.4,354.7,730.9L354.7,730.9"/>
				</defs>
				<clipPath id="SVGID_8_">
					<use xlink:href="#SVGID_7_"  style="overflow:visible;"/>
				</clipPath>
				<g id="Group_7288" class="st37">
					<g id="Group_7287">
						<path id="Path_14189" class="st36" d="M412.5,705c0,0-9.7,0-9.7,9.7v24.4c0,0,0,9.7,9.7,9.7h48.9c0,0,9.7,0,9.7-9.7v-24.4
							c0,0,0-9.7-9.7-9.7H412.5z"/>
					</g>
				</g>
			</g>
		</g>
		<g id="Group_7292">
			<g>
				<defs>
					<rect id="SVGID_9_" x="354" y="677.1" width="107.7" height="107.7"/>
				</defs>
				<clipPath id="SVGID_10_">
					<use xlink:href="#SVGID_9_"  style="overflow:visible;"/>
				</clipPath>
				<g id="Group_7291" class="st38">
					<g id="Group_7290">
						
							<linearGradient id="Path_14191_1_" gradientUnits="userSpaceOnUse" x1="374.1176" y1="858.3941" x2="374.1176" y2="857.4011" gradientTransform="matrix(107.7 0 0 -107.7 -39884.5781 93126.5547)">
							<stop  offset="0" style="stop-color:#F0047F"/>
							<stop  offset="1" style="stop-color:#13007C"/>
						</linearGradient>
						<path id="Path_14191" class="st39" d="M407.9,784.8c-29.7,0-53.9-24.1-53.9-53.8c0-29.7,24.1-53.9,53.8-53.9
							c29.7,0,53.9,24.1,53.9,53.8c0,0,0,0,0,0C461.7,760.6,437.6,784.7,407.9,784.8z M407.9,681.4c-27.3,0-49.5,22.2-49.5,49.5
							c0,27.3,22.2,49.5,49.5,49.5c27.3,0,49.5-22.2,49.5-49.5c0,0,0,0,0,0C457.4,703.6,435.2,681.4,407.9,681.4L407.9,681.4z"/>
					</g>
				</g>
			</g>
		</g>
		<g id="Group_7293">
			
				<linearGradient id="Path_14192_1_" gradientUnits="userSpaceOnUse" x1="354.9283" y1="858.5082" x2="354.9283" y2="857.7022" gradientTransform="matrix(4.1101 0 0 -23.4969 -1062.296 20860.2695)">
				<stop  offset="0" style="stop-color:#F0047F"/>
				<stop  offset="1" style="stop-color:#13007C"/>
			</linearGradient>
			<path id="Path_14192" class="st40" d="M396.5,691.6c-0.5,0-1.1-0.2-1.5-0.5c-0.8-0.9-0.8-2.2,0-3c0.4-0.4,0.9-0.6,1.4-0.6
				c0.5,0,1,0.2,1.4,0.5c0.4,0.4,0.7,1,0.6,1.5c0,0.6-0.2,1.1-0.6,1.5C397.6,691.4,397.1,691.6,396.5,691.6z M398.6,696v12.3
				c0.1,0.7-0.2,1.4-0.6,1.9c-0.4,0.4-0.9,0.7-1.5,0.7c-0.6,0-1.1-0.2-1.5-0.7c-0.4-0.6-0.6-1.2-0.6-1.9v-12.2
				c-0.1-0.7,0.1-1.4,0.6-1.9c0.4-0.4,0.9-0.7,1.5-0.6c0.6,0,1.1,0.2,1.5,0.6C398.4,694.8,398.6,695.4,398.6,696L398.6,696z"/>
			
				<linearGradient id="Path_14193_1_" gradientUnits="userSpaceOnUse" x1="370.5169" y1="858.5206" x2="370.5169" y2="857.6935" gradientTransform="matrix(18.7982 0 0 -22.9147 -6553.1631 20360.7637)">
				<stop  offset="0" style="stop-color:#F0047F"/>
				<stop  offset="1" style="stop-color:#13007C"/>
			</linearGradient>
			<path id="Path_14193" class="st41" d="M405.2,687.7h5.8c1.3,0,2.6,0.1,3.9,0.4c1.1,0.3,2.1,0.9,2.9,1.6c2.3,2,3.4,5.1,3.4,9.3
				c0,1.3-0.1,2.5-0.3,3.8c-0.2,1.1-0.6,2.1-1.1,3.1c-0.5,0.9-1.1,1.7-1.8,2.4c-0.6,0.5-1.2,1-1.9,1.3c-0.7,0.3-1.5,0.6-2.3,0.7
				c-0.9,0.1-1.8,0.2-2.7,0.2h-5.8c-0.6,0-1.3-0.1-1.8-0.4c-0.4-0.2-0.7-0.6-0.8-1.1c-0.1-0.6-0.2-1.2-0.2-1.8v-16.8
				c-0.1-0.8,0.2-1.6,0.6-2.2C403.7,687.8,404.5,687.6,405.2,687.7z M407,691.3v15.5h3.4c0.7,0,1.3,0,1.7-0.1c0.4,0,0.9-0.2,1.3-0.3
				c0.4-0.2,0.8-0.4,1.2-0.7c1.5-1.3,2.2-3.6,2.2-6.8c0.1-1.7-0.2-3.5-1-5.1c-0.5-1-1.4-1.8-2.4-2.1c-1.1-0.3-2.3-0.5-3.5-0.5
				L407,691.3z"/>
		</g>
	</g>
	<circle id="Ellipse_446" class="st6" cx="402" cy="488.3" r="51.2"/>
	<g id="Group_7303">
		<circle id="Ellipse_447" class="st4" cx="402.3" cy="489.1" r="51.8"/>
		<g id="Group_7302">
			<g id="Group_7300">
				<g>
					<defs>
						<path id="SVGID_11_" d="M351.2,489c0,28.3,22.9,51.2,51.2,51.2s51.2-22.9,51.2-51.2c0-28.3-22.9-51.2-51.2-51.2
							C374.1,437.9,351.2,460.8,351.2,489"/>
					</defs>
					<clipPath id="SVGID_12_">
						<use xlink:href="#SVGID_11_"  style="overflow:visible;"/>
					</clipPath>
					<g id="Group_7299" class="st42">
						<path id="Path_14194" class="st9" d="M432,479.6l-26.9-6.4l-18.7-2.5L386,473l18.6,2.4l25.5,6.1l5.6,21.8v33.2l-56.3,1.7
							l-1.3-8.4l18.9-8.8l-5.4-11.9l-17.1,5.2l-5.2-4.3l2.5-24.8l-2.3-0.2l-2.6,26l7.1,5.9l16.4-5l3.7,8.1l-18.4,8.6l1.9,12
							l60.5-1.8v-35.5L432,479.6z"/>
						<path id="Path_14195" class="st6" d="M421.5,485.1c-4.8-1.1-9.6,1.9-10.8,6.7c-1,4.7,2,9.4,6.7,10.5c0,0,0.1,0,0.1,0
							c4.8,1.1,9.6-1.9,10.8-6.7c1-4.7-2-9.4-6.7-10.5C421.6,485.1,421.6,485.1,421.5,485.1"/>
						<g id="Group_7295">
							
								<linearGradient id="Path_14196_1_" gradientUnits="userSpaceOnUse" x1="292.379" y1="862.361" x2="292.379" y2="862.361" gradientTransform="matrix(1 0 0 -1 136.721 1358.1429)">
								<stop  offset="0" style="stop-color:#F0047F"/>
								<stop  offset="1" style="stop-color:#13007C"/>
							</linearGradient>
							<path id="Path_14196" class="st43" d="M429.1,495.8L429.1,495.8z"/>
							
								<linearGradient id="Path_14197_1_" gradientUnits="userSpaceOnUse" x1="292.379" y1="862.361" x2="292.379" y2="862.361" gradientTransform="matrix(1 0 0 -1 125.068 1365.389)">
								<stop  offset="0" style="stop-color:#F0047F"/>
								<stop  offset="1" style="stop-color:#13007C"/>
							</linearGradient>
							<path id="Path_14197" class="st44" d="M417.4,503L417.4,503z"/>
							
								<linearGradient id="Path_14198_1_" gradientUnits="userSpaceOnUse" x1="-5933.0952" y1="862.361" x2="-5932.0576" y2="862.361" gradientTransform="matrix(1.300049e-02 0 0 -1 498.8149 1346.7429)">
								<stop  offset="0" style="stop-color:#F0047F"/>
								<stop  offset="1" style="stop-color:#13007C"/>
							</linearGradient>
							<path id="Path_14198" class="st45" d="M421.7,484.4L421.7,484.4L421.7,484.4L421.7,484.4z"/>
							
								<linearGradient id="Path_14199_1_" gradientUnits="userSpaceOnUse" x1="370.1646" y1="858.0704" x2="371.2025" y2="858.0704" gradientTransform="matrix(19.545 0 0 -19.1044 -6825.4507 16886.625)">
								<stop  offset="0" style="stop-color:#F0047F"/>
								<stop  offset="1" style="stop-color:#13007C"/>
							</linearGradient>
							<path id="Path_14199" class="st46" d="M421.7,484.4L421.7,484.4c-0.7-0.2-1.4-0.2-2.1-0.2c-4.5,0-8.5,3.1-9.5,7.5l0,0
								c-0.2,0.7-0.2,1.4-0.2,2.1c0,4.5,3.2,8.4,7.7,9.3c0.7,0.2,1.4,0.2,2.1,0.2c4.5,0,8.5-3.1,9.5-7.5c0.2-0.7,0.2-1.4,0.2-2.1
								C429.3,489.2,426.1,485.3,421.7,484.4z M427.6,495.4L427.6,495.4c-0.9,3.7-4.2,6.3-8,6.3c-0.6,0-1.2-0.1-1.8-0.2l0,0
								c-3.7-0.8-6.4-4-6.5-7.8c0-0.6,0.1-1.2,0.2-1.7c0.9-3.7,4.2-6.3,8.1-6.3c0.6,0,1.2,0.1,1.8,0.2h0h0c3.7,0.8,6.4,4,6.5,7.8
								C427.8,494.3,427.8,494.9,427.6,495.4L427.6,495.4z"/>
						</g>
						<path id="Path_14200" class="st6" d="M415.3,507c-7.3-2.2-11.5-9.9-9.4-17.2c0-0.1,0-0.1,0.1-0.2c2.5-7.4,10.4-11.4,17.9-9.1
							c7.3,2.2,11.5,9.9,9.4,17.2c0,0.1,0,0.1-0.1,0.2C430.7,505.3,422.7,509.3,415.3,507 M439,507.6c1.1-1.5,2.1-3.2,2.8-4.9
							l-3.2-2.9c0.2-0.6,0.4-1.2,0.5-1.8c0.1-0.2,0.1-0.4,0.1-0.6l4.2-1.1c0.2-1.9,0.2-3.8-0.1-5.6l-4.2-1c-0.2-0.8-0.4-1.6-0.7-2.4
							l3.1-3c-0.8-1.7-1.8-3.4-2.9-4.9l-4.2,1.2c-0.6-0.6-1.2-1.2-1.8-1.8l1.1-4.1c-1.6-1.1-3.3-2-5-2.8l-3,3.1
							c-0.6-0.2-1.2-0.4-1.8-0.5c-0.2,0-0.4-0.1-0.7-0.1l-1.1-4.1c-1.9-0.2-3.9-0.2-5.8,0.1l-1,4.1c-0.8,0.2-1.7,0.4-2.5,0.7l-3.1-3
							c-1.8,0.8-3.4,1.7-5,2.9l1.2,4.1c-0.6,0.6-1.2,1.2-1.8,1.8l-4.2-1.1c-1.1,1.5-2.1,3.2-2.8,4.9l3.2,2.9
							c-0.2,0.6-0.4,1.2-0.5,1.8c0,0.2-0.1,0.4-0.1,0.6l-4.2,1.1c-0.2,1.9-0.2,3.8,0.1,5.6l4.2,1c0.2,0.8,0.4,1.6,0.7,2.4l-3.1,3
							c0.8,1.7,1.8,3.4,2.9,4.9l4.2-1.2c0.6,0.6,1.2,1.2,1.8,1.8l-1.1,4.1c1.6,1.1,3.3,2,5,2.8l3-3.1c0.6,0.2,1.2,0.4,1.8,0.5
							c0.2,0,0.4,0.1,0.6,0.1l1.1,4.1c1.9,0.2,3.9,0.2,5.8-0.1l1-4.1c0.8-0.2,1.7-0.4,2.5-0.7l3.1,3c1.8-0.8,3.4-1.7,5-2.9l-1.2-4.1
							c0.6-0.6,1.2-1.2,1.8-1.8L439,507.6z"/>
						<g id="Group_7296">
							
								<linearGradient id="Path_14201_1_" gradientUnits="userSpaceOnUse" x1="372.7471" y1="857.942" x2="373.7611" y2="857.942" gradientTransform="matrix(50.4651 0 0 -49.364 -18416.7246 42845.1211)">
								<stop  offset="0" style="stop-color:#F0047F"/>
								<stop  offset="1" style="stop-color:#13007C"/>
							</linearGradient>
							<path id="Path_14201" class="st47" d="M444.6,490.5l-0.1-0.8l-4.3-1c-0.1-0.4-0.2-0.8-0.3-1.2l3.1-3l-0.3-0.7
								c-0.8-1.8-1.9-3.5-3.1-5.1l-0.5-0.6l-4.3,1.2c-0.3-0.3-0.6-0.6-0.9-0.9l1.2-4.2l-0.6-0.5c-1.6-1.2-3.4-2.1-5.3-2.9l-0.7-0.3
								l-3.1,3.2c-0.4-0.1-0.8-0.2-1.2-0.3l-1.1-4.2l-0.8-0.1c-0.9-0.1-1.8-0.1-2.8-0.1c-1.1,0-2.2,0.1-3.3,0.2l-0.8,0.1l-1,4.2
								c-0.4,0.1-0.8,0.2-1.2,0.3l-3.1-3.1l-0.7,0.3c-1.8,0.8-3.6,1.8-5.2,3l-0.6,0.5l1.3,4.2c-0.3,0.3-0.6,0.6-0.9,0.9l-4.3-1.1
								l-0.5,0.6c-1.2,1.6-2.2,3.3-3,5.2l-0.3,0.7l3.2,3c-0.1,0.4-0.2,0.8-0.3,1.2l-4.3,1.1l-0.1,0.8c-0.1,0.9-0.2,1.8-0.2,2.7
								c0,1.1,0.1,2.1,0.2,3.2l0.1,0.8l4.3,1c0.1,0.4,0.2,0.8,0.3,1.1l-3.1,3l0.3,0.7c0.8,1.8,1.9,3.5,3.1,5.1l0.5,0.6l4.2-1.2
								c0.3,0.3,0.6,0.6,0.9,0.9l-1.2,4.2l0.6,0.5c1.6,1.2,3.4,2.1,5.3,2.9l0.7,0.3l3-3.1c0.4,0.1,0.8,0.2,1.2,0.3l1.1,4.2l0.8,0.1
								c0.9,0.1,1.9,0.1,2.8,0.1c1.1,0,2.2-0.1,3.3-0.2l0.8-0.1l1-4.2c0.4-0.1,0.8-0.2,1.2-0.3l3.1,3.1l0.7-0.3
								c1.8-0.8,3.6-1.8,5.2-3l0.6-0.5l-1.3-4.2c0.3-0.3,0.6-0.6,0.9-0.9l3.5,0.9l0.7,0.2l0.5-0.6c1.2-1.6,2.2-3.3,3-5.2l0.3-0.7
								l-3.2-3c0.1-0.4,0.2-0.8,0.3-1.2l4.3-1.1l0.1-0.8c0.1-0.9,0.2-1.8,0.2-2.7C444.8,492.6,444.7,491.5,444.6,490.5z M415,514
								L415,514z M442.5,495.4l-4.1,1.1l-0.1,0.7c0,0.2-0.1,0.4-0.1,0.6v0v0c-0.1,0.6-0.3,1.1-0.5,1.7l-0.2,0.7l3.1,2.9
								c-0.5,1.2-1.2,2.3-1.9,3.4l-4.1-1.1l-0.5,0.5c-0.5,0.6-1.1,1.2-1.7,1.7l-0.5,0.5l1.2,4c-1.1,0.8-2.2,1.4-3.4,2l-3-3l-0.7,0.2
								c-0.8,0.3-1.6,0.5-2.4,0.6l-0.7,0.1l-1,4c-0.7,0.1-1.5,0.1-2.2,0.1c-0.6,0-1.2,0-1.8-0.1l-1.1-4l-0.7-0.1
								c-0.2,0-0.4-0.1-0.6-0.1h0c-0.6-0.1-1.2-0.3-1.7-0.5l-0.7-0.2l-2.9,3c-1.2-0.5-2.4-1.2-3.5-1.9l1.1-4l-0.6-0.5
								c-0.6-0.5-1.2-1.1-1.7-1.7l-0.5-0.5l-4.1,1.2c-0.8-1-1.4-2.1-2-3.3l3-2.9l-0.2-0.7c-0.3-0.7-0.5-1.5-0.7-2.3l-0.2-0.7l-4.1-1
								c-0.1-0.7-0.1-1.4-0.1-2.1c0-0.6,0-1.1,0.1-1.7l4.1-1.1l0.1-0.7c0-0.2,0.1-0.4,0.1-0.6c0.1-0.6,0.3-1.1,0.5-1.7l0.2-0.7
								l-3.1-2.9c0.5-1.2,1.2-2.3,1.9-3.3l4.1,1.1l0.5-0.5c0.5-0.6,1.1-1.2,1.7-1.7l0.6-0.5l-1.2-4c1.1-0.8,2.2-1.4,3.4-2l3,3
								l0.7-0.2c0.8-0.3,1.5-0.5,2.3-0.6l0.7-0.1l1-4.1c0.7-0.1,1.5-0.1,2.2-0.1c0.6,0,1.2,0,1.8,0.1l1.1,4l0.7,0.1
								c0.2,0,0.4,0.1,0.6,0.1l0,0c0.6,0.1,1.2,0.3,1.7,0.5l0.7,0.2l2.9-3c1.2,0.5,2.4,1.2,3.5,1.9l-1.1,4l0.6,0.5
								c0.6,0.5,1.2,1.1,1.7,1.7l0.5,0.5l4.1-1.2c0.8,1,1.4,2.1,2,3.3l-3,2.9l0.2,0.7c0.3,0.7,0.5,1.5,0.7,2.3l0.2,0.7l4.1,1
								c0.1,0.7,0.1,1.4,0.1,2.1C442.5,494.2,442.5,494.8,442.5,495.4L442.5,495.4z"/>
							
								<linearGradient id="Path_14202_1_" gradientUnits="userSpaceOnUse" x1="371.7078" y1="857.9938" x2="372.7217" y2="857.9938" gradientTransform="matrix(30.778 0 0 -30.1265 -11036.4551 26342.0762)">
								<stop  offset="0" style="stop-color:#F0047F"/>
								<stop  offset="1" style="stop-color:#13007C"/>
							</linearGradient>
							<path id="Path_14202" class="st48" d="M424.2,479.3c-1.5-0.5-3.1-0.7-4.6-0.7c-6.7,0-12.6,4.2-14.7,10.5
								c-0.5,1.5-0.7,3-0.7,4.5c0,6.6,4.4,12.5,10.8,14.4c1.5,0.5,3.1,0.7,4.6,0.7c6.7,0,12.6-4.2,14.7-10.5c0.5-1.5,0.7-3,0.7-4.5
								C434.9,487.1,430.5,481.3,424.2,479.3z M432.1,497.5c-1.8,5.4-6.8,9-12.5,8.9c-1.3,0-2.7-0.2-3.9-0.6l-0.3,1.1l0.3-1.1
								c-5.4-1.6-9.1-6.6-9.2-12.2c0-1.3,0.2-2.6,0.6-3.8c1.8-5.4,6.9-9,12.5-8.9c1.3,0,2.7,0.2,3.9,0.6c5.4,1.6,9.1,6.6,9.2,12.2
								C432.7,495,432.5,496.3,432.1,497.5z"/>
						</g>
						<path id="Path_14203" class="st6" d="M373.1,516.4c3.2-0.1,5.8-2.8,5.7-6c-0.1-3.2-2.8-5.8-6-5.7c-3.2,0.1-5.7,2.7-5.7,5.9
							C367.1,513.8,369.8,516.4,373.1,516.4"/>
						
							<linearGradient id="Path_14204_1_" gradientUnits="userSpaceOnUse" x1="368.1707" y1="858.1625" x2="369.2267" y2="858.1625" gradientTransform="matrix(13.268 0 0 -13.2666 -4518.665 11895.4424)">
							<stop  offset="0" style="stop-color:#F0047F"/>
							<stop  offset="1" style="stop-color:#13007C"/>
						</linearGradient>
						<path id="Path_14204" class="st49" d="M373.1,503.9c-3.7,0.1-6.6,3.1-6.5,6.8c0.1,3.7,3.1,6.6,6.8,6.5c3.6-0.1,6.5-3,6.5-6.6
							C379.8,506.8,376.8,503.8,373.1,503.9z M373.1,515.6c-2.8-0.1-5-2.4-5-5.3c0.1-2.8,2.4-5,5.3-5c2.8,0.1,5,2.3,5,5.1
							C378.3,513.4,376,515.7,373.1,515.6z"/>
						<path id="Path_14205" class="st9" d="M373.1,507.9c-1.4,0-2.6,1.2-2.5,2.6s1.2,2.6,2.6,2.5c1.4,0,2.5-1.2,2.5-2.6
							C375.7,509.1,374.5,507.9,373.1,507.9C373.1,507.9,373.1,507.9,373.1,507.9z"/>
						<path id="Path_14206" class="st6" d="M393.8,521.4c3.2-0.1,5.8-2.8,5.7-6c-0.1-3.2-2.8-5.8-6-5.7c-3.2,0.1-5.7,2.7-5.7,5.9
							C387.8,518.8,390.5,521.4,393.8,521.4"/>
						
							<linearGradient id="Path_14207_1_" gradientUnits="userSpaceOnUse" x1="368.1707" y1="858.1625" x2="369.2267" y2="858.1625" gradientTransform="matrix(13.2681 0 0 -13.2667 -4498.0034 11900.4629)">
							<stop  offset="0" style="stop-color:#F0047F"/>
							<stop  offset="1" style="stop-color:#13007C"/>
						</linearGradient>
						<path id="Path_14207" class="st50" d="M393.8,508.9c-3.7,0.1-6.6,3.1-6.5,6.8c0.1,3.7,3.1,6.6,6.8,6.5c3.6-0.1,6.5-3,6.5-6.6
							C400.5,511.8,397.5,508.8,393.8,508.9z M393.8,520.6c-2.8-0.1-5-2.4-5-5.3s2.4-5,5.3-5c2.8,0.1,5,2.3,5,5.1
							C399,518.4,396.6,520.6,393.8,520.6L393.8,520.6z"/>
						<path id="Path_14208" class="st9" d="M393.8,512.9c-1.4,0-2.6,1.2-2.5,2.6s1.2,2.6,2.6,2.5c1.4,0,2.5-1.2,2.5-2.6
							C396.4,514,395.2,512.9,393.8,512.9C393.8,512.9,393.8,512.9,393.8,512.9z"/>
						<path id="Path_14209" class="st6" d="M377.1,539.8c3.2-0.1,5.8-2.8,5.7-6c-0.1-3.2-2.8-5.8-6-5.7c-3.2,0.1-5.7,2.7-5.7,5.9
							C371.1,537.2,373.8,539.9,377.1,539.8"/>
						
							<linearGradient id="Path_14210_1_" gradientUnits="userSpaceOnUse" x1="368.1707" y1="858.1625" x2="369.2267" y2="858.1625" gradientTransform="matrix(13.268 0 0 -13.2667 -4514.6548 11918.8984)">
							<stop  offset="0" style="stop-color:#F0047F"/>
							<stop  offset="1" style="stop-color:#13007C"/>
						</linearGradient>
						<path id="Path_14210" class="st51" d="M377.1,527.3c-3.7,0.1-6.6,3.1-6.5,6.8s3.1,6.6,6.8,6.5c3.6-0.1,6.5-3,6.5-6.6
							C383.8,530.2,380.8,527.3,377.1,527.3z M377.1,539.1c-2.8-0.1-5-2.4-5-5.3c0.1-2.8,2.4-5,5.3-5c2.8,0.1,5,2.3,5,5.1
							C382.3,536.8,380,539.1,377.1,539.1z"/>
						<path id="Path_14211" class="st9" d="M377.1,531.4c-1.4,0-2.6,1.2-2.5,2.6s1.2,2.6,2.6,2.5c1.4,0,2.5-1.2,2.5-2.6
							C379.7,532.5,378.5,531.4,377.1,531.4C377.1,531.4,377.1,531.4,377.1,531.4z"/>
						<path id="Path_14212" class="st52" d="M380.4,474c-3.3-0.7-6.5,1.3-7.3,4.5c-0.7,3.2,1.3,6.4,4.6,7.1c0,0,0.1,0,0.1,0
							c3.3,0.7,6.5-1.3,7.3-4.5C385.8,477.9,383.7,474.7,380.4,474C380.5,474,380.4,474,380.4,474z"/>
						<path id="Path_14213" class="st6" d="M389.7,487.8c0.7-0.9,1.2-1.8,1.6-2.8l-1.8-1.7c0.1-0.3,0.2-0.7,0.3-1
							c0-0.1,0.1-0.2,0.1-0.4l2.4-0.6c0.1-1.1,0.1-2.2,0-3.2l-2.4-0.6c-0.1-0.5-0.2-0.9-0.4-1.4l1.8-1.7c-0.4-1-1-1.9-1.7-2.8
							l-2.4,0.7c-0.3-0.4-0.7-0.7-1.1-1l0.7-2.3c-0.9-0.6-1.9-1.2-2.9-1.6l-1.7,1.8c-0.3-0.1-0.7-0.2-1.1-0.3c-0.1,0-0.2,0-0.4-0.1
							l-0.6-2.4c-1.1-0.1-2.2-0.1-3.3,0l-0.6,2.4c-0.5,0.1-1,0.2-1.4,0.4l-1.8-1.7c-1,0.4-2,1-2.8,1.7l0.7,2.3c-0.4,0.3-0.7,0.7-1,1
							l-2.4-0.6c-0.7,0.9-1.2,1.8-1.6,2.8l1.8,1.7c-0.1,0.3-0.2,0.7-0.3,1c0,0.1,0,0.2-0.1,0.4l-2.4,0.6c-0.1,1.1-0.1,2.2,0,3.2
							l2.4,0.6c0.1,0.5,0.2,0.9,0.4,1.4l-1.8,1.7c0.4,1,1,1.9,1.7,2.8l2.4-0.7c0.3,0.4,0.7,0.7,1.1,1l-0.7,2.3
							c0.9,0.6,1.9,1.2,2.9,1.6l1.7-1.8c0.3,0.1,0.7,0.2,1.1,0.3c0.1,0,0.2,0,0.4,0.1l0.6,2.4c1.1,0.1,2.2,0.1,3.3,0l0.6-2.4
							c0.5-0.1,1-0.2,1.4-0.4l1.8,1.7c1-0.4,2-1,2.8-1.7l-0.7-2.3c0.4-0.3,0.7-0.7,1-1L389.7,487.8z"/>
						
							<linearGradient id="Path_14214_1_" gradientUnits="userSpaceOnUse" x1="371.5546" y1="858.0015" x2="372.5686" y2="858.0015" gradientTransform="matrix(29.105 0 0 -28.465 -10450.3164 24902.791)">
							<stop  offset="0" style="stop-color:#F0047F"/>
							<stop  offset="1" style="stop-color:#13007C"/>
						</linearGradient>
						<path id="Path_14214" class="st53" d="M393,477.9l-0.1-0.5l-2.5-0.6c0-0.2-0.1-0.4-0.2-0.5l1.8-1.8l-0.2-0.5
							c-0.5-1-1.1-2-1.8-2.9l-0.3-0.4l-2.5,0.7c-0.1-0.1-0.3-0.3-0.4-0.4l0.7-2.4l-0.4-0.3c-0.9-0.7-2-1.2-3-1.7l-0.5-0.2l-1.8,1.8
							c-0.2-0.1-0.4-0.1-0.6-0.2l-0.6-2.4l-0.5-0.1c-0.5-0.1-1.1-0.1-1.6-0.1c-0.6,0-1.3,0-1.9,0.1l-0.5,0.1l-0.6,2.4
							c-0.2,0-0.4,0.1-0.6,0.2l-1.8-1.8l-0.5,0.2c-1.1,0.5-2.1,1-3,1.7l-0.4,0.3l0.7,2.4c-0.1,0.1-0.3,0.3-0.4,0.4l-2.5-0.7
							l-0.3,0.4c-0.7,0.9-1.3,1.9-1.7,3l-0.2,0.5l1.9,1.7c-0.1,0.2-0.1,0.4-0.2,0.5l-2.5,0.6l-0.1,0.5c-0.1,0.5-0.1,1-0.1,1.6
							c0,0.6,0,1.2,0.1,1.9l0.1,0.5l2.5,0.6c0,0.2,0.1,0.4,0.2,0.5l-1.8,1.7l0.2,0.5c0.5,1,1.1,2,1.8,2.9l0.3,0.4l2.5-0.7
							c0.1,0.1,0.3,0.3,0.4,0.4l-0.7,2.4l0.4,0.3c0.9,0.7,2,1.2,3,1.7l0.5,0.2l1.8-1.8c0.2,0.1,0.4,0.1,0.6,0.2l0.6,2.4l0.5,0.1
							c0.5,0.1,1.1,0.1,1.6,0.1c0.6,0,1.3,0,1.9-0.1l0.5-0.1l0.6-2.4c0.2,0,0.4-0.1,0.6-0.2l1.8,1.8l0.5-0.2c1.1-0.5,2.1-1,3-1.7
							l0.4-0.3l-0.7-2.4c0.1-0.1,0.3-0.3,0.4-0.4l2,0.5l0.5,0.1l0.3-0.4c0.7-0.9,1.3-1.9,1.7-3l0.2-0.5l-1.9-1.7
							c0.1-0.2,0.1-0.4,0.1-0.5l2.5-0.6l0.1-0.5C393.1,480.2,393.1,479.1,393,477.9L393,477.9z M366.6,477.2L366.6,477.2z
							 M375.9,491.5L375.9,491.5L375.9,491.5z M391.5,480.7l-2.3,0.6l-0.1,0.5c0,0.1,0,0.2-0.1,0.3v0v0c-0.1,0.3-0.2,0.6-0.3,1
							l-0.2,0.5l1.8,1.6c-0.3,0.6-0.6,1.2-1,1.8l-2.3-0.6l-0.3,0.4c-0.3,0.3-0.6,0.7-1,1l-0.4,0.3l0.7,2.3c-0.6,0.4-1.2,0.7-1.8,1
							l-1.7-1.7l-0.4,0.2c-0.4,0.1-0.9,0.3-1.3,0.4l-0.5,0.1l-0.6,2.3c-0.4,0-0.8,0.1-1.2,0.1c-0.3,0-0.6,0-0.9,0l-0.6-2.3l-0.5-0.1
							c-0.1,0-0.2,0-0.3-0.1h0c-0.3-0.1-0.7-0.2-1-0.3l-0.4-0.1l-1.7,1.7c-0.6-0.3-1.3-0.6-1.8-1l0.6-2.3l-0.4-0.3
							c-0.3-0.3-0.7-0.6-1-0.9l-0.3-0.3l-2.3,0.7c-0.4-0.6-0.8-1.1-1.1-1.7l1.7-1.7l-0.2-0.5c-0.2-0.4-0.3-0.9-0.4-1.3l-0.1-0.5
							l-2.4-0.5c0-0.4-0.1-0.8-0.1-1.1c0-0.3,0-0.6,0-0.9l2.3-0.6l0.1-0.5c0-0.1,0-0.2,0.1-0.3l0,0c0.1-0.3,0.2-0.6,0.3-1l0.2-0.5
							l-1.7-1.6c0.3-0.6,0.6-1.2,1-1.8l2.3,0.6l0.3-0.4c0.3-0.3,0.6-0.7,1-1l0.4-0.3l-0.7-2.3c0.6-0.4,1.2-0.7,1.8-1l1.7,1.7
							l0.4-0.2c0.4-0.1,0.9-0.3,1.3-0.4l0.5-0.1l0.6-2.3c0.4,0,0.8-0.1,1.2-0.1c0.3,0,0.6,0,0.9,0l0.6,2.3l0.5,0.1
							c0.1,0,0.2,0,0.4,0.1c0.3,0.1,0.7,0.2,1,0.3l0.4,0.1l1.7-1.7c0.6,0.3,1.3,0.6,1.8,1l-0.6,2.3l0.4,0.3c0.3,0.3,0.7,0.6,1,0.9
							l0.3,0.3l2.3-0.7c0.4,0.6,0.8,1.1,1.1,1.7l-1.7,1.7l0.2,0.5c0.2,0.4,0.3,0.9,0.4,1.3l0.1,0.5l2.4,0.5c0,0.4,0.1,0.8,0.1,1.1
							C391.6,480.1,391.5,480.4,391.5,480.7L391.5,480.7z"/>
						<path id="Path_14215" class="st6" d="M378.5,485.7c3.2-0.1,5.8-2.8,5.7-6c-0.1-3.2-2.8-5.8-6-5.7c-3.2,0.1-5.7,2.7-5.7,5.9
							C372.5,483.1,375.2,485.7,378.5,485.7"/>
						
							<linearGradient id="Path_14216_1_" gradientUnits="userSpaceOnUse" x1="368.1707" y1="858.1625" x2="369.2267" y2="858.1625" gradientTransform="matrix(13.268 0 0 -13.2666 -4513.2251 11864.7344)">
							<stop  offset="0" style="stop-color:#F0047F"/>
							<stop  offset="1" style="stop-color:#13007C"/>
						</linearGradient>
						<path id="Path_14216" class="st54" d="M378.5,473.2c-3.7,0.1-6.6,3.1-6.5,6.8c0.1,3.7,3.1,6.6,6.8,6.5c3.6-0.1,6.5-3,6.5-6.6
							C385.3,476.1,382.2,473.1,378.5,473.2z M378.5,484.9c-2.8-0.1-5-2.4-5-5.3c0.1-2.8,2.4-5,5.3-5c2.8,0.1,5,2.3,5,5.1
							C383.8,482.7,381.4,485,378.5,484.9L378.5,484.9z"/>
						<path id="Path_14217" class="st9" d="M378.5,477.2c-1.4,0-2.6,1.2-2.5,2.6s1.2,2.6,2.6,2.5c1.4,0,2.5-1.2,2.5-2.6
							C381.2,478.4,380,477.2,378.5,477.2C378.5,477.2,378.5,477.2,378.5,477.2z"/>
						<path id="Path_14218" class="st6" d="M435.1,538.1c0.7-0.5,1.3-1,1.8-1.7l-0.9-1.6c0.2-0.2,0.3-0.4,0.4-0.7
							c0-0.1,0.1-0.2,0.1-0.2l1.9,0.1c0.3-0.7,0.6-1.5,0.7-2.3l-1.6-0.9c0-0.4,0-0.7,0-1.1l1.6-0.8c-0.1-0.8-0.3-1.6-0.6-2.3l-1.9,0
							c-0.2-0.3-0.3-0.6-0.5-0.9l1-1.5c-0.5-0.6-1.1-1.2-1.7-1.7l-1.6,0.9c-0.2-0.2-0.5-0.3-0.7-0.4c-0.1,0-0.2-0.1-0.2-0.1l0.1-1.8
							c-0.8-0.3-1.6-0.5-2.4-0.7l-0.9,1.6c-0.4,0-0.7,0-1.1,0l-0.9-1.6c-0.8,0.1-1.6,0.3-2.4,0.6l0,1.8c-0.3,0.2-0.7,0.3-1,0.5
							l-1.6-1c-0.7,0.5-1.3,1-1.8,1.7l0.9,1.6c-0.2,0.2-0.3,0.4-0.4,0.7c0,0.1-0.1,0.2-0.1,0.2l-1.9-0.1c-0.3,0.7-0.6,1.5-0.7,2.3
							l1.6,0.9c0,0.4,0,0.7,0,1.1l-1.6,0.8c0.1,0.8,0.3,1.6,0.6,2.3l1.9,0c0.2,0.3,0.3,0.6,0.5,0.9l-1,1.5c0.5,0.6,1.1,1.2,1.7,1.7
							l1.6-0.9c0.2,0.2,0.5,0.3,0.7,0.4c0.1,0,0.2,0.1,0.2,0.1l-0.1,1.8c0.8,0.3,1.6,0.6,2.4,0.7l0.9-1.6c0.4,0,0.7,0,1.1,0l0.9,1.6
							c0.8-0.1,1.6-0.3,2.4-0.6l0-1.8c0.3-0.2,0.7-0.3,1-0.5L435.1,538.1z"/>
						<g id="Group_7297">
							
								<linearGradient id="Path_14219_1_" gradientUnits="userSpaceOnUse" x1="292.379" y1="862.361" x2="292.379" y2="862.361" gradientTransform="matrix(1 0 0 -1 128.734 1388.082)">
								<stop  offset="0" style="stop-color:#F0047F"/>
								<stop  offset="1" style="stop-color:#13007C"/>
							</linearGradient>
							<path id="Path_14219" class="st55" d="M421.1,525.7L421.1,525.7z"/>
							
								<linearGradient id="Path_14220_1_" gradientUnits="userSpaceOnUse" x1="370.506" y1="858.0533" x2="371.542" y2="858.0533" gradientTransform="matrix(21.271 0 0 -20.7958 -7463.1416 18373.9902)">
								<stop  offset="0" style="stop-color:#F0047F"/>
								<stop  offset="1" style="stop-color:#13007C"/>
							</linearGradient>
							<path id="Path_14220" class="st56" d="M437.9,530c0,0,0-0.1,0-0.1l1.7-0.9l0-0.3c-0.1-0.8-0.3-1.7-0.6-2.4l-0.1-0.2l-1.9,0
								c-0.1-0.2-0.2-0.4-0.3-0.6l1-1.6l-0.2-0.2c-0.5-0.7-1.1-1.3-1.8-1.8l-0.2-0.2l-1.6,0.9c-0.2-0.1-0.3-0.2-0.5-0.3l0,0l0,0
								l0.1-1.8l-0.2-0.1c-0.8-0.3-1.6-0.6-2.5-0.7l-0.3,0l-1,1.6c-0.2,0-0.4,0-0.5,0h-0.1l-0.9-1.6l-0.3,0
								c-0.9,0.1-1.7,0.3-2.5,0.6l-0.2,0.1l0,1.9c-0.2,0.1-0.4,0.2-0.6,0.3l-1.6-1l-0.2,0.2c-0.7,0.5-1.3,1.1-1.9,1.7l-0.2,0.2
								l0.9,1.6c-0.1,0.2-0.2,0.3-0.3,0.5c0,0,0,0,0,0l-1.9-0.1l-0.1,0.2c-0.3,0.8-0.6,1.6-0.7,2.4l0,0.3l1.6,0.9c0,0.2,0,0.3,0,0.5
								c0,0,0,0.1,0,0.1l-1.7,0.9l0,0.3c0.1,0.8,0.3,1.7,0.6,2.4l0.1,0.2l1.9,0c0.1,0.2,0.2,0.4,0.3,0.6l-1,1.6l0.2,0.2
								c0.5,0.7,1.1,1.3,1.8,1.8l0.2,0.2l1.6-0.9c0.2,0.1,0.3,0.2,0.5,0.3l0,0l0,0l-0.1,1.8l0.2,0.1c0.8,0.3,1.6,0.6,2.5,0.7l0.3,0
								l1-1.6c0.2,0,0.4,0,0.5,0h0.1l0.9,1.6l0.3,0c0.8-0.1,1.7-0.3,2.5-0.6l0.2-0.1l0-1.9c0.2-0.1,0.4-0.2,0.6-0.3l1.4,0.9l0.2,0.1
								l0.2-0.2c0.7-0.5,1.3-1.1,1.9-1.7l0.2-0.2l-0.9-1.6c0.1-0.2,0.2-0.3,0.3-0.5l0,0v0l0,0l0,0c0,0,0,0,0,0l1.9,0.1l0.1-0.2
								c0.3-0.8,0.6-1.6,0.7-2.4l0-0.3l-1.6-0.9C437.9,530.4,437.9,530.2,437.9,530z M438.1,533.6l-1.8-0.1l-0.1,0.2
								c0,0.1-0.1,0.2-0.1,0.2l0,0l0,0c-0.1,0.2-0.3,0.4-0.4,0.6l-0.1,0.2l0.9,1.5c-0.4,0.5-0.9,0.9-1.4,1.3l-1.5-0.9l-0.2,0.1
								c-0.3,0.2-0.6,0.3-0.9,0.5l-0.2,0.1l0,1.8c-0.6,0.2-1.2,0.3-1.8,0.4l-0.8-1.6l-0.2,0c-0.1,0-0.2,0-0.3,0c-0.2,0-0.5,0-0.7,0
								l-0.2,0l-0.9,1.5c-0.6-0.1-1.2-0.3-1.8-0.5l0.1-1.8l-0.2-0.1c-0.1,0-0.2-0.1-0.2-0.1l0,0c-0.2-0.1-0.4-0.3-0.7-0.4l-0.2-0.1
								l-1.6,0.9c-0.5-0.4-0.9-0.8-1.3-1.3l1-1.5l-0.1-0.2c-0.2-0.3-0.4-0.6-0.5-0.9l-0.1-0.2l-1.8,0c-0.2-0.6-0.3-1.2-0.4-1.8
								l1.6-0.8l0-0.2c0-0.1,0-0.2,0-0.3c0-0.2,0-0.5,0-0.7l0-0.2l-1.6-0.9c0.1-0.6,0.3-1.2,0.5-1.7l1.8,0.1l0.1-0.2
								c0-0.1,0.1-0.2,0.1-0.2l0,0c0.1-0.2,0.3-0.4,0.4-0.6l0.1-0.2l-0.9-1.5c0.4-0.5,0.9-0.9,1.3-1.3l1.5,0.9l0.2-0.1
								c0.3-0.2,0.6-0.3,0.9-0.5l0.2-0.1l0-1.8c0.6-0.2,1.2-0.3,1.8-0.4l0.8,1.6l0.2,0c0.1,0,0.2,0,0.3,0c0.2,0,0.5,0,0.7,0l0.2,0
								l0.9-1.5c0.6,0.1,1.2,0.3,1.8,0.5l-0.1,1.8l0.2,0.1c0.1,0,0.2,0.1,0.2,0.1l0,0c0.2,0.1,0.5,0.3,0.7,0.4l0.2,0.1l1.6-0.9
								c0.5,0.4,0.9,0.8,1.3,1.3l-1,1.5l0.1,0.2c0.2,0.3,0.4,0.6,0.5,0.9l0.1,0.2l1.8,0c0.2,0.6,0.3,1.2,0.4,1.8l-1.6,0.8l0,0.2
								c0,0.1,0,0.2,0,0.3c0,0.2,0,0.5,0,0.7l0,0.2l1.6,0.9C438.5,532.5,438.4,533.1,438.1,533.6z"/>
						</g>
						<path id="Path_14221" class="st6" d="M427.6,534.2c2.4,0.7,4.8-0.6,5.6-2.9c0.7-2.3-0.6-4.7-2.9-5.4c0,0-0.1,0-0.1,0
							c-2.4-0.7-4.8,0.6-5.6,2.9C423.9,531.1,425.2,533.5,427.6,534.2C427.5,534.2,427.6,534.2,427.6,534.2"/>
						<g id="Group_7298">
							
								<linearGradient id="Path_14222_1_" gradientUnits="userSpaceOnUse" x1="-8734.0518" y1="862.361" x2="-8732.9766" y2="862.361" gradientTransform="matrix(9.002686e-03 0 0 -1 506.1146 1396.9609)">
								<stop  offset="0" style="stop-color:#F0047F"/>
								<stop  offset="1" style="stop-color:#13007C"/>
							</linearGradient>
							<path id="Path_14222" class="st57" d="M427.5,534.6L427.5,534.6L427.5,534.6L427.5,534.6z"/>
							
								<linearGradient id="Path_14223_1_" gradientUnits="userSpaceOnUse" x1="365.9297" y1="858.2808" x2="367.0078" y2="858.2808" gradientTransform="matrix(9.75 0 0 -9.5272 -3144.1533 8707.0869)">
								<stop  offset="0" style="stop-color:#F0047F"/>
								<stop  offset="1" style="stop-color:#13007C"/>
							</linearGradient>
							<path id="Path_14223" class="st58" d="M430.3,525.5c-0.5-0.1-0.9-0.2-1.4-0.2c-2.1,0-4,1.3-4.7,3.4c-0.1,0.5-0.2,0.9-0.2,1.4
								c0,2.1,1.4,4,3.5,4.6c0.5,0.1,0.9,0.2,1.4,0.2c2.1,0,4-1.3,4.7-3.4c0.1-0.5,0.2-0.9,0.2-1.4
								C433.8,527.9,432.4,526.1,430.3,525.5z M432.9,531.2c-0.6,1.7-2.1,2.8-3.9,2.8c-0.4,0-0.8-0.1-1.2-0.2l-0.1,0.4l0.1-0.4
								c-1.7-0.5-2.9-2-2.9-3.8c0-0.4,0.1-0.8,0.2-1.2c0.6-1.7,2.1-2.9,3.9-2.8c0.4,0,0.8,0.1,1.2,0.2c1.7,0.5,2.9,2,2.9,3.8
								C433,530.4,433,530.8,432.9,531.2L432.9,531.2z"/>
						</g>
						<path id="Path_14224" class="st9" d="M429.5,528.2c-1-0.3-2.1,0.3-2.5,1.3c-0.3,1,0.3,2.1,1.3,2.4c0,0,0,0,0,0
							c1,0.3,2.1-0.3,2.5-1.3C431.1,529.6,430.5,528.5,429.5,528.2C429.5,528.2,429.5,528.2,429.5,528.2z"/>
					</g>
				</g>
			</g>
			<g id="Group_7301">
				
					<linearGradient id="Path_14226_1_" gradientUnits="userSpaceOnUse" x1="374.1062" y1="858.3987" x2="374.1062" y2="857.3877" gradientTransform="matrix(106.108 0 0 -106.108 -39293.707 91518.9609)">
					<stop  offset="0" style="stop-color:#F0047F"/>
					<stop  offset="1" style="stop-color:#13007C"/>
				</linearGradient>
				<path id="Path_14226" class="st59" d="M402,540.2v-1.9c27.2,0,49.3-22.1,49.3-49.3c0-27.2-22.1-49.3-49.3-49.3
					c-27.2,0-49.3,22.1-49.3,49.3c0,0,0,0,0,0c0,27.2,22.1,49.2,49.3,49.3v3.8c-29.3,0-53.1-23.8-53.1-53.1
					c0-29.3,23.8-53.1,53.1-53.1S455,459.7,455,489c0,0,0,0,0,0c0,29.3-23.8,53.1-53.1,53.1V540.2z"/>
			</g>
		</g>
	</g>
	<circle id="Ellipse_448" class="st4" cx="626.4" cy="598.2" r="124.5"/>
	<g id="Group_7327">
		<g id="Group_7316">
			<g>
				<defs>
					<path id="SVGID_13_" d="M502,596.4c0,65.7,53.2,118.9,118.9,118.9c65.7,0,118.9-53.2,118.9-118.9
						c0-65.7-53.2-118.9-118.9-118.9C555.2,477.6,502,530.8,502,596.4C502,596.4,502,596.4,502,596.4"/>
				</defs>
				<clipPath id="SVGID_14_">
					<use xlink:href="#SVGID_13_"  style="overflow:visible;"/>
				</clipPath>
				<g id="Group_7315" class="st60">
					<path id="Path_14227" class="st61" d="M566.3,664.4L566.3,664.4z M564.8,636.1h-39.1v27.6l19.5,13.8l19.5-13.8 M545.3,680.8
						L523,665v-31.6h44.7V665L545.3,680.8z"/>
					<g id="Group_7304">
						
							<linearGradient id="Path_14228_1_" gradientUnits="userSpaceOnUse" x1="373.1294" y1="858.4413" x2="373.1294" y2="857.4413" gradientTransform="matrix(46.867 0 0 -49.822 -16942.1406 43401.5547)">
							<stop  offset="0" style="stop-color:#F0047F"/>
							<stop  offset="1" style="stop-color:#13007C"/>
						</linearGradient>
						<path id="Path_14228" class="st62" d="M545.3,682.1l-23.4-16.6v-33.3h46.9v33.3L545.3,682.1z M524,664.5l21.3,15 M566.6,634.5
							l-0.3,30.2l0-1.4h0v1.4l0.3-0.2 M526.9,663.1l18.5,13l18.5-13v-26h-36.9L526.9,663.1z"/>
					</g>
					<g id="Group_7305">
						
							<linearGradient id="Path_14229_1_" gradientUnits="userSpaceOnUse" x1="370.9533" y1="858.5766" x2="370.9533" y2="857.5766" gradientTransform="matrix(20.8882 0 0 -18.5511 -7203.3872 16577.168)">
							<stop  offset="0" style="stop-color:#F0047F"/>
							<stop  offset="1" style="stop-color:#13007C"/>
						</linearGradient>
						<path id="Path_14229" class="st63" d="M550.7,668.2h-11c-2.7,0.1-4.9-2-5-4.7c0-0.1,0-0.2,0-0.3v-8.6c-0.1-2.7,2-4.9,4.7-5
							c0.1,0,0.2,0,0.3,0h11c2.7-0.1,4.9,2,5,4.7c0,0.1,0,0.2,0,0.3v8.6c0.1,2.7-2,4.9-4.7,5C550.8,668.2,550.8,668.2,550.7,668.2z
							 M539.7,653.5c-1.1,0-1.1,0.8-1.1,1.1v8.6c0,1.1,0.8,1.1,1.1,1.1h11c1.1,0,1.1-0.8,1.1-1.1v-8.6c0-1.1-0.8-1.1-1.1-1.1H539.7z
							"/>
					</g>
					<g id="Group_7306">
						
							<linearGradient id="Path_14230_1_" gradientUnits="userSpaceOnUse" x1="368.8202" y1="858.8516" x2="368.8202" y2="857.8516" gradientTransform="matrix(13.534 0 0 -8.154 -4446.4272 7643.0142)">
							<stop  offset="0" style="stop-color:#F0047F"/>
							<stop  offset="1" style="stop-color:#13007C"/>
						</linearGradient>
						<path id="Path_14230" class="st64" d="M551.9,648.1h-3.8v-2.6c0-0.6-0.2-1.8-1.3-1.8h-3.2c-1.3,0.1-1.3,1.3-1.3,1.8v2.5h-3.8
							v-2.5c-0.2-2.9,1.9-5.4,4.8-5.6c0.1,0,0.2,0,0.3,0h3.2c3.8,0,5.1,3.3,5.1,5.6L551.9,648.1z"/>
					</g>
					
						<linearGradient id="Path_14231_1_" gradientUnits="userSpaceOnUse" x1="373.062" y1="858.4496" x2="373.062" y2="857.4496" gradientTransform="matrix(45.13 0 0 -45.128 -16133.8262 39372.4336)">
						<stop  offset="0" style="stop-color:#F0047F"/>
						<stop  offset="1" style="stop-color:#13007C"/>
					</linearGradient>
					<path id="Path_14231" class="st65" d="M704.5,652.8H725v-20.5h-20.5V652.8z M708.6,636.4h12.3v12.3h-12.3L708.6,636.4z
						 M679.9,652.8h20.5v-20.5h-20.5V652.8z M684,636.4h12.3v12.3H684L684,636.4z M712.7,644.6h4.1v-4.1h-4.1V644.6z M688.1,644.6
						h4.1v-4.1h-4.1V644.6z M720.9,656.9v4.1h-4.1v-4.1h-12.3v20.5h4.1v-12.3h4.1v4.1H725v-12.3L720.9,656.9z M679.9,677.5h20.5
						v-20.5h-20.5V677.5z M684,661h12.3v12.3H684L684,661z M688.1,669.3h4.1v-4.1h-4.1V669.3z M720.9,677.5h4.1v-4.1h-4.1V677.5z
						 M712.7,677.5h4.1v-4.1h-4.1V677.5z"/>
					<g id="Group_7307">
						
							<linearGradient id="Path_14232_1_" gradientUnits="userSpaceOnUse" x1="374.1107" y1="858.4136" x2="374.1107" y2="857.4136" gradientTransform="matrix(106.7219 0 0 -75.9969 -39305.3594 65737.1875)">
							<stop  offset="0" style="stop-color:#F0047F"/>
							<stop  offset="1" style="stop-color:#13007C"/>
						</linearGradient>
						<path id="Path_14232" class="st66" d="M662.7,576.4h-84.6c-8.1,0-11.1-6.6-11.1-11v-54c0-8.1,6.6-11,11.1-11h84.6
							c8.1,0,11.1,6.6,11.1,11v54C673.8,573.4,667.2,576.4,662.7,576.4z M578.1,506.5c-4.5,0.1-4.9,3.4-4.9,4.9v54
							c0.1,4.4,3.5,4.9,4.9,4.9h84.6c4.5-0.1,4.9-3.4,4.9-4.9v-54c-0.1-4.4-3.5-4.9-4.9-4.9L578.1,506.5z"/>
					</g>
					<g id="Group_7308">
						
							<linearGradient id="Path_14233_1_" gradientUnits="userSpaceOnUse" x1="374.1107" y1="858.4136" x2="374.1107" y2="857.4136" gradientTransform="matrix(106.722 0 0 -75.9969 -39380.8555 65853.3438)">
							<stop  offset="0" style="stop-color:#F0047F"/>
							<stop  offset="1" style="stop-color:#13007C"/>
						</linearGradient>
						<path id="Path_14233" class="st67" d="M587.3,692.5h-84.6c-8.1,0-11.1-6.6-11.1-11v-54c0-8.1,6.6-11,11.1-11h84.6
							c8.1,0,11.1,6.6,11.1,11v54C598.3,689.6,591.7,692.5,587.3,692.5z M502.7,622.7c-4.5,0.1-4.9,3.4-4.9,4.9v54
							c0.1,4.4,3.5,4.9,4.9,4.9h84.6c4.4-0.1,4.9-3.4,4.9-4.9v-54c-0.1-4.4-3.5-4.9-4.9-4.9H502.7z"/>
					</g>
					<g id="Group_7309">
						
							<linearGradient id="Path_14234_1_" gradientUnits="userSpaceOnUse" x1="374.1573" y1="858.4528" x2="374.1573" y2="857.4528" gradientTransform="matrix(106.7209 0 0 -75.9969 -39225.8906 65853.3438)">
							<stop  offset="0" style="stop-color:#F0047F"/>
							<stop  offset="1" style="stop-color:#13007C"/>
						</linearGradient>
						<path id="Path_14234" class="st68" d="M746.8,689.5h-84.6c-8.1,0-11.1-6.6-11.1-11v-54c0-8.1,6.6-11,11.1-11h84.6
							c8.1,0,11.1,6.6,11.1,11v54C757.9,686.6,751.3,689.5,746.8,689.5z M662.2,619.7c-4.5,0.1-4.9,3.4-4.9,4.9v54
							c0.1,4.4,3.5,4.9,4.9,4.9h84.6c4.5-0.1,4.9-3.4,4.9-4.9v-54c-0.1-4.4-3.5-4.9-4.9-4.9H662.2z"/>
					</g>
					<g id="Group_7310">
						<path id="Path_14235" class="st69" d="M567.6,601.8c-1.2-1.2-1.2-3.2,0-4.4l0,0c1.2-1.2,3.2-1.2,4.4,0l0,0
							c1.2,1.2,1.2,3.2,0,4.4l0,0c-0.6,0.6-1.4,0.9-2.2,0.9l0,0C568.9,602.8,568.2,602.4,567.6,601.8z M575.5,593.9
							c-1.2-1.2-1.2-3.2,0-4.4l0,0c1.2-1.2,3.2-1.2,4.4,0l0,0c1.2,1.2,1.2,3.1,0,4.3c0,0,0,0,0,0l0,0c-0.6,0.6-1.4,0.9-2.2,0.9l0,0
							C576.9,594.8,576.1,594.5,575.5,593.9L575.5,593.9z"/>
					</g>
					<path id="Path_14236" class="st70" d="M561.8,607.6L561.8,607.6 M585.7,583.7L585.7,583.7"/>
					<g id="Group_7311">
						<path id="Path_14237" class="st69" d="M672.6,601.8c-1.2-1.2-1.2-3.1,0-4.3c0,0,0,0,0,0l0,0c1.2-1.2,3.2-1.2,4.4,0
							c0,0,0,0,0,0l0,0c1.2,1.2,1.2,3.1,0,4.3c0,0,0,0,0,0l0,0c-0.6,0.6-1.4,0.9-2.2,0.9l0,0C674,602.8,673.2,602.4,672.6,601.8z
							 M664.6,593.9c-1.2-1.2-1.2-3.2,0-4.4l0,0c1.2-1.2,3.2-1.2,4.4,0l0,0c1.2,1.2,1.2,3.2,0,4.4l0,0c-0.6,0.6-1.4,0.9-2.2,0.9l0,0
							C666,594.8,665.2,594.5,664.6,593.9L664.6,593.9z"/>
					</g>
					<path id="Path_14238" class="st71" d="M682.7,607.6L682.7,607.6 M658.8,583.7L658.8,583.7"/>
					<g id="Group_7312">
						<path id="Path_14239" class="st69" d="M624.2,654.4c0-1.7,1.4-3.1,3.1-3.1c0,0,0,0,0,0l0,0c1.7,0,3.1,1.4,3.1,3.1c0,0,0,0,0,0
							l0,0c0,1.7-1.4,3.1-3.1,3.1c0,0,0,0,0,0l0,0C625.6,657.5,624.2,656.1,624.2,654.4z M613.9,654.4c0-1.7,1.4-3.1,3-3.1
							c0,0,0,0,0,0l0,0c1.7,0,3.1,1.4,3.1,3.1c0,0,0,0,0,0l0,0c0,1.7-1.4,3.1-3.1,3.1l0,0C615.2,657.5,613.9,656.2,613.9,654.4
							C613.9,654.4,613.9,654.4,613.9,654.4z"/>
					</g>
					<path id="Path_14240" class="st71" d="M637.6,654.4L637.6,654.4 M606.6,654.4L606.6,654.4"/>
					<path id="Path_14241" class="st6" d="M636.5,626.7c1.5-1.1,2.9-2.5,4.1-3.9l-2.1-3.7c0.4-0.5,0.7-1,1-1.6
						c0.1-0.2,0.2-0.4,0.3-0.6l4.3,0.2c0.8-1.7,1.3-3.6,1.6-5.5l-3.7-2.2c0.1-0.8,0.1-1.7,0.1-2.5l3.8-2c-0.2-1.9-0.7-3.8-1.3-5.5
						l-4.3,0c-0.4-0.8-0.8-1.5-1.2-2.2l2.3-3.6c-1.1-1.5-2.5-2.9-3.9-4.1l-3.7,2.1c-0.5-0.4-1-0.7-1.6-1c-0.2-0.1-0.4-0.2-0.6-0.3
						l0.2-4.3c-1.8-0.8-3.6-1.3-5.5-1.6l-2.2,3.7c-0.8-0.1-1.7-0.1-2.5-0.1l-2-3.8c-1.9,0.2-3.8,0.7-5.5,1.3l0,4.3
						c-0.8,0.4-1.5,0.8-2.2,1.2l-3.6-2.3c-1.5,1.1-2.9,2.5-4.1,3.9l2.1,3.7c-0.4,0.5-0.7,1-1,1.6c-0.1,0.2-0.2,0.4-0.3,0.6l-4.3-0.2
						c-0.8,1.8-1.3,3.6-1.6,5.5l3.7,2.2c-0.1,0.8-0.1,1.7-0.1,2.5l-3.8,2c0.2,1.9,0.7,3.8,1.3,5.5l4.3,0c0.4,0.8,0.8,1.5,1.2,2.2
						l-2.3,3.6c1.1,1.5,2.5,2.9,3.9,4.1l3.7-2.1c0.5,0.4,1,0.7,1.6,1c0.2,0.1,0.4,0.2,0.6,0.3l-0.2,4.3c1.8,0.8,3.6,1.3,5.5,1.6
						l2.2-3.7c0.8,0.1,1.7,0.1,2.5,0.1l2,3.8c1.9-0.2,3.8-0.7,5.5-1.3l0-4.3c0.8-0.4,1.5-0.8,2.2-1.2L636.5,626.7z"/>
					<g id="Group_7313">
						
							<linearGradient id="Path_14242_1_" gradientUnits="userSpaceOnUse" x1="373.2755" y1="858.4392" x2="373.2755" y2="857.4392" gradientTransform="matrix(51.138 0 0 -51.1461 -18466.2988 44487.8945)">
							<stop  offset="0" style="stop-color:#F0047F"/>
							<stop  offset="1" style="stop-color:#13007C"/>
						</linearGradient>
						<path id="Path_14242" class="st72" d="M624,633.2l-2.1-3.9c-0.1,0-0.3,0-0.4,0l-2.2,3.8l-1.3-0.2c-2-0.3-4-0.9-5.9-1.7
							l-1.2-0.5l0.2-4.4c-0.1-0.1-0.2-0.1-0.3-0.2l-3.8,2.2l-1-0.8c-1.6-1.3-3-2.8-4.2-4.4l-0.8-1l2.4-3.7l-0.2-0.4l-4.4,0l-0.4-1.2
							c-0.7-1.9-1.2-3.9-1.5-6l-0.2-1.3l3.9-2.1c0-0.1,0-0.3,0-0.4l-3.8-2.2l0.2-1.3c0.3-2,0.9-4,1.7-5.9l0.5-1.2l4.4,0.2
							c0.1-0.1,0.1-0.2,0.2-0.4l-2.2-3.8l0.8-1c1.3-1.6,2.8-3,4.4-4.3l1-0.8l3.7,2.4l0.4-0.2l0-4.4l1.2-0.4c1.9-0.7,3.9-1.2,6-1.5
							l1.3-0.2l2.1,3.9c0.1,0,0.3,0,0.4,0l2.2-3.8l1.3,0.2c2,0.3,4,0.9,5.9,1.7l1.2,0.5l-0.2,4.4c0.1,0.1,0.2,0.1,0.3,0.2l3.8-2.2
							l1,0.8c1.6,1.3,3,2.8,4.2,4.4l0.8,1l-2.4,3.7c0.1,0.1,0.1,0.2,0.2,0.4l4.4,0l0.4,1.2c0.7,1.9,1.2,3.9,1.5,6l0.1,1.3l-3.9,2.1
							c0,0.1,0,0.3,0,0.4l3.8,2.2l-0.2,1.3c-0.3,2-0.9,4-1.7,5.9l-0.5,1.2l-4.4-0.2c-0.1,0.1-0.1,0.2-0.2,0.3l2.2,3.8l-0.8,1
							c-1.3,1.6-2.8,3-4.4,4.3l-1,0.8l-3.7-2.4l-0.4,0.2l0,4.4l-1.2,0.4c-1.9,0.7-3.9,1.2-6,1.5L624,633.2z M624.2,625.5l1.9,3.7
							c0.9-0.2,1.8-0.4,2.7-0.6l0-4.1l1.1-0.5c0.7-0.3,1.4-0.7,2-1.1l1-0.6l3.5,2.2c0.7-0.6,1.4-1.2,2-1.9l-2-3.6l0.7-1
							c0.3-0.5,0.6-0.9,0.9-1.4c0.1-0.2,0.1-0.3,0.2-0.4l0.6-1.2l4.1,0.2c0.3-0.9,0.6-1.7,0.8-2.6l-3.6-2.1l0.1-1.2
							c0.1-0.8,0.1-1.5,0.1-2.3l0-1.2l3.7-1.9c-0.2-0.9-0.4-1.8-0.6-2.7l-4.1,0l-0.5-1.1c-0.3-0.7-0.7-1.4-1.1-2l-0.6-1l2.2-3.5
							c-0.6-0.7-1.2-1.4-1.9-2l-3.6,2l-1-0.7c-0.5-0.3-0.9-0.6-1.4-0.9l-1.5-0.8l-0.1-1.2l0.1-3c-0.9-0.3-1.7-0.6-2.6-0.8l-2.1,3.6
							l-1.2-0.1c-0.8-0.1-1.5-0.1-2.3-0.1l-1.2,0.1l-1.9-3.7c-0.9,0.2-1.8,0.4-2.7,0.6l0,4.1l-1.1,0.5c-0.7,0.3-1.4,0.7-2,1.1
							l-1,0.6l-3.5-2.2c-0.7,0.6-1.4,1.2-2,1.9l2,3.6l-0.7,1c-0.3,0.5-0.6,0.9-0.9,1.4c-0.1,0.2-0.2,0.3-0.3,0.5l-0.5,1.1l-4.2-0.2
							c-0.3,0.9-0.6,1.7-0.8,2.6l3.6,2.1l-0.1,1.2c-0.1,0.8-0.1,1.5-0.1,2.3l0,1.2l-3.7,1.9c0.2,0.9,0.4,1.8,0.6,2.7l4.1,0l0.5,1.1
							c0.3,0.7,0.7,1.4,1.1,2l0.6,1l-2.2,3.5c0.6,0.7,1.2,1.4,1.9,2l3.6-2l1,0.7c0.5,0.3,1,0.6,1.5,0.9l1.5,0.8l0,1.2l-0.1,3
							c0.9,0.3,1.7,0.6,2.6,0.8l2.1-3.6l1.2,0.1c0.8,0.1,1.5,0.1,2.3,0.1L624.2,625.5z"/>
					</g>
					<path id="Path_14243" class="st6" d="M619.3,617.5c5.4,1.7,11.2-1.4,12.9-6.8s-1.4-11.2-6.8-12.9c-5.4-1.7-11.2,1.4-12.9,6.8
						C610.7,610.1,613.8,615.8,619.3,617.5"/>
					<g id="Group_7314">
						
							<linearGradient id="Path_14244_1_" gradientUnits="userSpaceOnUse" x1="371.5076" y1="858.5255" x2="371.5076" y2="857.5255" gradientTransform="matrix(24.3224 0 0 -24.3193 -8413.7061 21474.1973)">
							<stop  offset="0" style="stop-color:#F0047F"/>
							<stop  offset="1" style="stop-color:#13007C"/>
						</linearGradient>
						<path id="Path_14244" class="st73" d="M622.3,619.8c-1.2,0-2.4-0.2-3.5-0.5l0,0c-6.4-2-10-8.8-8.1-15.2c2-6.4,8.8-10,15.2-8.1
							c6.4,2,10,8.8,8.1,15.2C632.3,616.3,627.6,619.8,622.3,619.8L622.3,619.8z M619.8,615.7c4.5,1.4,9.2-1.1,10.6-5.6
							c1.4-4.5-1.1-9.2-5.6-10.6c-4.5-1.4-9.2,1.1-10.6,5.6c-0.7,2.1-0.4,4.5,0.6,6.4C615.9,613.6,617.6,615.1,619.8,615.7z"/>
					</g>
					<path id="Path_14245" class="st9" d="M620.9,612c2.4,0.7,5-0.6,5.7-3c0.7-2.4-0.6-5-3-5.7c-2.4-0.7-5,0.6-5.7,3
						C617.2,608.7,618.5,611.3,620.9,612"/>
				</g>
			</g>
		</g>
		<g id="Group_7317">
			
				<linearGradient id="Path_14247_1_" gradientUnits="userSpaceOnUse" x1="374.5728" y1="858.3766" x2="374.5728" y2="857.3657" gradientTransform="matrix(255.158 0 0 -255.158 -94950.0391 219490.5312)">
				<stop  offset="0" style="stop-color:#F0047F"/>
				<stop  offset="1" style="stop-color:#13007C"/>
			</linearGradient>
			<path id="Path_14247" class="st74" d="M625.2,719.5v-4.6c65.4,0,118.5-53,118.5-118.5S690.6,478,625.2,478
				c-65.4,0-118.5,53-118.5,118.5c0.1,65.4,53.1,118.4,118.5,118.5v9.1c-70.5,0-127.6-57.1-127.6-127.6
				c0-70.5,57.1-127.6,127.6-127.6c70.5,0,127.6,57.1,127.6,127.6c0,0,0,0,0,0c0,70.5-57.1,127.6-127.6,127.6V719.5z"/>
		</g>
		<path id="Path_14248" class="st75" d="M654.8,543.6"/>
		<g id="Group_7326">
			<g id="Group_7325">
				<path id="Path_14249" class="st76" d="M659.6,546.1"/>
				<g id="Group_7318">
					<path id="Path_14250" class="st69" d="M664.6,544.7C664.6,544.7,664.6,544.8,664.6,544.7c-0.1,0.1-0.1,0.1-0.2,0.1h-0.1v-0.3
						h0.1c0,0,0.1,0,0.1,0C664.6,544.6,664.6,544.7,664.6,544.7 M664.3,545L664.3,545l0.3,0.4h0.3l-0.3-0.4c0.1,0,0.1-0.1,0.2-0.1
						c0-0.1,0.1-0.1,0.1-0.2c0-0.1,0-0.2-0.1-0.3c-0.1-0.1-0.2-0.1-0.3-0.1H664v1.1h0.3L664.3,545z M663.6,544.9
						c0-0.3,0.2-0.6,0.5-0.7c0.2-0.1,0.4-0.1,0.6,0c0.1,0,0.2,0.1,0.2,0.2c0.1,0.1,0.1,0.2,0.2,0.2c0.1,0.2,0.1,0.4,0,0.6
						c0,0.1-0.1,0.2-0.2,0.3c-0.1,0.1-0.2,0.1-0.2,0.2c-0.3,0.1-0.6,0.1-0.9-0.2C663.7,545.3,663.6,545.1,663.6,544.9 M663.5,544.9
						c0,0.1,0,0.2,0.1,0.4c0,0.1,0.1,0.2,0.2,0.3c0.1,0.1,0.2,0.2,0.3,0.2c0.2,0.1,0.5,0.1,0.7,0c0.2-0.1,0.4-0.3,0.5-0.5
						c0.1-0.2,0.1-0.5,0-0.7c0-0.1-0.1-0.2-0.2-0.3c-0.1-0.1-0.2-0.2-0.3-0.2c-0.2-0.1-0.5-0.1-0.7,0c-0.1,0-0.2,0.1-0.3,0.2
						c-0.1,0.1-0.2,0.2-0.2,0.3C663.5,544.7,663.5,544.8,663.5,544.9"/>
				</g>
				<g id="Group_7324">
					<g id="Group_7322">
						<g id="Group_7320">
							
								<image style="overflow:visible;opacity:0.5;enable-background:new    ;" width="37" height="38" id="Rectangle_4602" xlink:href="AD11836A4814E6F7.png"  transform="matrix(1 0 0 1 572.262 519.184)">
							</image>
							<g id="Group_7319">
								<path id="Rectangle_4603" class="st6" d="M584,525.5H597c3.1,0,5.7,2.5,5.7,5.7v13.1c0,3.1-2.5,5.7-5.7,5.7H584
									c-3.1,0-5.7-2.5-5.7-5.7v-13.1C578.3,528.1,580.8,525.5,584,525.5z"/>
							</g>
						</g>
						
							<linearGradient id="Rectangle_4604_1_" gradientUnits="userSpaceOnUse" x1="371.2454" y1="858.5363" x2="371.2454" y2="857.6522" gradientTransform="matrix(22.567 0 0 -22.567 -7787.3936 19901.0879)">
							<stop  offset="0" style="stop-color:#F0047F"/>
							<stop  offset="1" style="stop-color:#13007C"/>
						</linearGradient>
						<path id="Rectangle_4604" class="st77" d="M584,526.5H597c2.6,0,4.7,2.1,4.7,4.7v13.1c0,2.6-2.1,4.7-4.7,4.7H584
							c-2.6,0-4.7-2.1-4.7-4.7v-13.1C579.2,528.6,581.3,526.5,584,526.5z"/>
						<g id="Group_7321">
							<path id="Path_14251" class="st6" d="M602.4,541.5c-1,0.5-2.2,1-3.1,0.3c-1-0.8-0.5-2-0.2-2.8c0.4-1,0.5-1.3,0-1.6
								c-0.5-0.3-1.8,1.1-2.8,2.1c-1.6,1.7-3.3,3.5-4.8,2.4c-0.3-0.2-0.5-0.6-0.6-1c-0.1-1.2,1.3-2.7,2.7-4.3c1-1.1,2.3-2.5,2.3-3.2
								c0-0.1,0-0.1-0.1-0.2c-1-0.9-3.6,1.9-5.6,4c-0.7,0.7-1.3,1.4-1.9,2c-1.4,1.3-4,3.1-5.9,3.1c-0.2,0-0.4,0-0.5-0.1
								c-0.6-0.1-1.1-0.5-1.4-1.1c-0.9-2.3,2.4-4.6,2.5-4.6l0.6,0.8c-0.8,0.5-2.7,2.2-2.2,3.4c0.1,0.3,0.3,0.5,0.6,0.5
								c1.3,0.3,3.9-1.2,5.5-2.7c0.6-0.6,1.2-1.2,1.8-1.9c2.6-2.7,5.2-5.6,6.9-4.1c0.2,0.2,0.4,0.5,0.4,0.8c0.1,1.1-1.1,2.4-2.5,3.9
								c-1.1,1.2-2.5,2.8-2.5,3.6c0,0.1,0.1,0.2,0.2,0.3c0.7,0.6,2.2-1,3.4-2.3c1.5-1.6,2.9-3,4.1-2.2c1.2,0.8,0.7,2,0.3,2.8
								c-0.4,0.9-0.5,1.3-0.1,1.6c0.5,0.4,1.3,0,2.5-0.7L602.4,541.5z"/>
						</g>
						<path id="Path_14252" class="st6" d="M599.6,547.3l-1.8-1.8l-0.9,0.9l-1.5-3.8l3.8,1.5l-0.8,0.8l1.7,1.7L599.6,547.3z"/>
					</g>
					<g id="Group_7323">
						
							<linearGradient id="Path_14253_1_" gradientUnits="userSpaceOnUse" x1="373.9528" y1="858.0233" x2="372.9548" y2="858.0233" gradientTransform="matrix(57.6171 0 0 -24.6549 -20880.9258 21696.8281)">
							<stop  offset="0" style="stop-color:#F0047F"/>
							<stop  offset="1" style="stop-color:#13007C"/>
						</linearGradient>
						<path id="Path_14253" class="st78" d="M635.8,530c-1.7,0.1-3.4,0.4-4.9,1.1c-0.8,0.3-1.6,0.8-2.3,1.4c-0.6,0.4-0.9,1-1,1.7
							c0,0.6,0.3,1.2,0.8,1.5c0.6,0.4,1.3,0.8,2,1c1.6,0.5,3.1,1.1,4.7,1.8c0.8,0.3,1.4,1,1.4,1.8c0,0.4-0.2,0.7-0.4,1
							c-0.7,1.1-2.4,2.1-5.1,3c-1.2,0.4-2.5,0.6-3.8,0.6c-0.9,0.1-1.8-0.1-2.6-0.6c-0.4-0.3-0.7-0.8-0.7-1.3
							c0.1-0.9,0.5-1.8,1.3-2.3c0.6-0.6,1.3-1,2.1-1.4c0.6-0.3,1.2-0.4,1.8-0.5c0.5,0,0.7-0.1,0.8-0.2s-0.1-0.2-0.5-0.2
							c-1.5,0-3,0.5-4.3,1.4c-1.5,0.7-2.4,2.2-2.5,3.9c0,1.5,1.3,2.3,4,2.3c1.7-0.1,3.4-0.5,4.9-1.1c1.7-0.6,3.3-1.6,4.7-2.9
							c0.7-0.5,1.1-1.3,1.2-2.2c0-0.7-0.3-1.4-0.9-1.8c-0.5-0.5-1.2-0.9-1.9-1.3c-0.7-0.3-1.5-0.6-2.6-1c-1.1-0.4-1.8-0.7-2.1-0.9
							c-0.7-0.3-1-0.7-1-1c0-0.4,0.5-1,1.6-1.6c1.7-0.9,3.5-1.4,5.3-1.5c1.5,0,2.2,0.4,2.2,1.1c0,0.3-0.3,0.8-0.8,1.3
							c-0.1,0.1-0.2,0.2-0.3,0.3c0,0.2,0.2,0.2,0.5,0c0.4-0.2,0.7-0.6,0.9-0.9c0.3-0.4,0.4-0.8,0.5-1.3
							C638.6,530.5,637.6,530,635.8,530z M623.8,537.2l-3.8,0c-0.1,0-0.2,0-0.3,0.1c-0.4,0.2-0.6,0.4-0.6,0.6c0,0.2,0.2,0.2,0.5,0.2
							h0.1c3.6-0.1,5.5-0.3,5.5-0.6C625.2,537.3,624.7,537.2,623.8,537.2z M665.2,541.1c-0.1,0-0.2,0-0.2,0.1
							c-0.6,0.8-1.2,1.5-1.9,2.1c-0.6,0.5-1.2,1-1.9,1.4c-0.4,0.2-0.8,0.2-1,0c-0.2-0.3-0.2-0.6-0.2-0.9c0-0.7,0.2-1.3,0.5-1.9
							c0.2-0.5,0.5-1.1,0.9-1.8c0.3-0.5,0.5-1.1,0.6-1.7c0-0.4-0.2-0.6-0.6-0.6c-0.6,0.1-1.1,0.3-1.6,0.7c-0.8,0.7-1.6,1.4-2.4,2.2
							c-0.9,1-1.7,1.8-2.3,2.6c0.9-2.4,1.4-3.7,1.6-4.1c0.1-0.2,0.2-0.5,0.3-0.8c0-0.2-0.1-0.3-0.4-0.3c-0.2,0-0.4-0.1-0.6-0.1
							c-0.1,0-0.3,0.1-0.4,0.2c-0.1,0.1-0.1,0.2-0.2,0.3c0,0.1-0.1,0.2-0.1,0.4c0,0.2-0.1,0.4-0.2,0.5c-0.1,0.2-0.3,0.8-0.6,1.7
							c-0.8,0.9-1.6,1.7-2.5,2.4c-0.6,0.6-1.3,1.1-2,1.5c0.3-0.6,0.7-1.5,1.3-2.8s1-2.1,1.2-2.6c0.1-0.1-0.1-0.2-0.3-0.4
							c-0.7-0.3-1.2-0.3-1.4,0c-1.3,1.5-2.7,2.9-4.2,4.2c-0.6,0.6-1.4,1-2.2,1.2c-0.3,0-0.5-0.3-0.5-0.9c0.1-0.6,0.3-1.1,0.7-1.6
							c0.5-0.7,1-1.4,1.7-1.9c0.7-0.6,1.4-1.1,2.2-1.5c0.7-0.4,1.4-0.6,2.2-0.6c0.6,0,1.1,0.2,1.2,0.5c0.1,0.1,0.2,0,0.2-0.1
							c0-0.2-0.2-0.5-0.5-0.7c-0.3-0.2-0.8-0.4-1.2-0.4c-0.5,0-0.9,0.1-1.4,0.2c-0.7,0.2-1.3,0.5-1.9,0.9c-0.8,0.5-1.6,1.1-2.4,1.7
							c-0.3,0.3-0.6,0.6-0.9,0.9l0,0c0,0,0,0,0,0c-0.1,0.2-0.3,0.3-0.4,0.5c-0.5,0.6-1,1.1-1.5,1.5c-0.6,0.5-1.2,1-1.9,1.4
							c-0.4,0.2-0.8,0.2-1-0.1c-0.1-0.2-0.2-0.4-0.2-0.6c0-0.2,0-0.4,0-0.6c0.4-1.3,0.9-2.5,1.5-3.7c0.1-0.2,0.2-0.3,0.3-0.5
							c0-0.1,0-0.1,0.1-0.2s0.1-0.2,0.2-0.3c0.1-0.1,0.1-0.3,0.1-0.4c-0.1-0.3-0.3-0.4-0.8-0.4H640c-0.3,0.1-0.6,0.6-0.9,1.5
							c-0.1,0.1-0.1,0.2-0.1,0.3c-0.5,0.7-1.1,1.6-2,2.6c-0.1,0.1-0.1,0.1-0.1,0.2c0,0,0,0.1,0,0.1c0.1,0.2,0.2,0.2,0.4,0
							c0.4-0.4,0.7-0.8,1-1.3c-0.4,0.8-0.7,1.8-0.8,2.7c0,0.1,0,0.3,0.1,0.4c0.2,0.6,0.7,1,1.4,1c0.4,0,0.7-0.1,1.1-0.2
							c1.1-0.5,2-1.3,2.7-2.2l0.1-0.1c0,0.1,0,0.2,0,0.3c0,0.3,0.1,0.7,0.3,1c0.2,0.3,0.5,0.5,0.8,0.7c0.3,0.1,0.6,0.2,0.9,0.2
							c0.9,0,2.2-0.9,3.7-2.6c0.4-0.4,1.1-1.2,2-2.4c-0.7,2-1.6,4-2.6,6c-2.1,1.2-4,2.7-5.7,4.4c-0.7,0.7-1.2,1.6-1.3,2.6
							c0,0.7,0.4,1.1,1.3,1.4c0.2,0,0.3,0.1,0.5,0.1c1.2,0,2.5-0.9,3.8-2.8c0.5-0.8,1.5-2.6,2.9-5.6c0.9-0.6,1.7-1.3,2.5-2
							c0.9-0.8,1.6-1.4,2.1-1.9c-0.2,0.6-0.4,1.1-0.6,1.6c-0.3,0.8-0.5,1.3-0.5,1.4c0,0.1,0,0.1-0.1,0.2c0,0.1,0.1,0.1,0.2,0.1
							c0.4-0.1,0.8-0.2,1.2-0.5c0.6-0.7,1.2-1.4,1.8-2.2c0.7-1,1.5-1.9,2.3-2.8c0.8-0.7,1.3-1,1.6-1c0.1,0,0.2,0.1,0.2,0.2
							c-0.1,0.3-0.2,0.6-0.3,0.8c-0.3,0.6-0.6,1.1-0.8,1.7c-0.2,0.4-0.3,0.8-0.4,1.2c-0.1,0.4-0.1,0.7-0.1,1.1
							c0,0.3,0.1,0.7,0.4,0.9c0.3,0.3,0.8,0.4,1.2,0.4c0.7,0,1.3-0.2,1.8-0.7c0.7-0.5,1.3-1.1,1.9-1.7c0.5-0.5,1-1.1,1.4-1.8
							c0,0,0-0.1,0.1-0.1C665.3,541.2,665.3,541.1,665.2,541.1L665.2,541.1z M647.2,548c-0.2,0.4-0.4,0.7-0.4,0.9s-0.2,0.4-0.4,0.8
							s-0.4,0.7-0.5,0.9l-0.5,0.8c-0.2,0.3-0.4,0.6-0.6,0.8s-0.4,0.4-0.6,0.7c-0.3,0.3-0.5,0.5-0.8,0.8c-0.2,0.2-0.5,0.3-0.7,0.4
							c-0.2,0-0.3-0.1-0.5-0.2c-0.2-0.1-0.2-0.3-0.2-0.5c0.1-1,0.6-1.9,1.3-2.5c1.4-1.3,2.9-2.5,4.4-3.6
							C647.5,547.3,647.4,547.6,647.2,548z M642.1,534.3c-0.1,0-0.2,0.1-0.5,0.4l-0.4,0.3c-0.4,0.3-0.8,0.6-1.1,0.9
							c0,0.4,0.4,0.5,1.1,0.5c0.1,0,0.3-0.2,0.5-0.5c0.2-0.2,0.3-0.5,0.3-0.7l0.2-0.8C642.2,534.4,642.2,534.3,642.1,534.3
							C642.1,534.3,642.1,534.3,642.1,534.3L642.1,534.3z M610.2,543.5v-4.6h7.3v-2.3h-7.3v-4.2h7.9V530h-10.4v15.9h10.6v-2.4
							L610.2,543.5z"/>
					</g>
				</g>
			</g>
		</g>
	</g>
</g>
</svg>
