<svg xmlns="http://www.w3.org/2000/svg" xmlns:xlink="http://www.w3.org/1999/xlink" width="140.078" height="140.08" viewBox="0 0 140.078 140.08">
  <defs>
    <clipPath id="clip-path">
      <path id="Path_12354" data-name="Path 12354" d="M174.276,149.23a67.539,67.539,0,1,0,67.54-67.539,67.541,67.541,0,0,0-67.54,67.539" fill="none"/>
    </clipPath>
    <linearGradient id="linear-gradient" x1="-0.206" y1="0.52" x2="0.833" y2="0.52" gradientUnits="objectBoundingBox">
      <stop offset="0" stop-color="#f0047f"/>
      <stop offset="1" stop-color="#13017c"/>
    </linearGradient>
    <linearGradient id="linear-gradient-2" x1="-0.036" y1="0.551" x2="1.002" y2="0.551" xlink:href="#linear-gradient"/>
    <linearGradient id="linear-gradient-3" x1="-0.02" y1="0.502" x2="1.019" y2="0.502" xlink:href="#linear-gradient"/>
    <linearGradient id="linear-gradient-4" x1="-0.019" y1="0.5" x2="1.019" y2="0.5" xlink:href="#linear-gradient"/>
    <linearGradient id="linear-gradient-5" x1="-0.007" y1="0.5" x2="1.007" y2="0.5" xlink:href="#linear-gradient"/>
    <linearGradient id="linear-gradient-7" x1="-0.028" y1="0.5" x2="1.028" y2="0.5" xlink:href="#linear-gradient"/>
    <linearGradient id="linear-gradient-10" x1="-0.007" y1="0.5" x2="1.007" y2="0.5" xlink:href="#linear-gradient"/>
    <linearGradient id="linear-gradient-12" x1="-0.028" y1="0.503" x2="1.007" y2="0.503" xlink:href="#linear-gradient"/>
    <linearGradient id="linear-gradient-13" x1="-0.018" y1="0.5" x2="1.018" y2="0.5" xlink:href="#linear-gradient"/>
    <linearGradient id="linear-gradient-14" x1="-0.04" y1="0.502" x2="1.038" y2="0.502" xlink:href="#linear-gradient"/>
    <linearGradient id="linear-gradient-15" x1="-0.039" y1="0.5" x2="1.039" y2="0.5" xlink:href="#linear-gradient"/>
    <linearGradient id="linear-gradient-16" x1="0.5" y1="0" x2="0.5" y2="1.011" xlink:href="#linear-gradient"/>
  </defs>
  <g id="Group_5592" data-name="Group 5592" transform="translate(-171.276 -79.191)">
    <g id="Group_5590" data-name="Group 5590">
      <g id="Group_5589" data-name="Group 5589" clip-path="url(#clip-path)">
        <path id="Path_12323" data-name="Path 12323" d="M280.931,136.789l-35.517-8.433-24.74-3.254-.391,2.975,24.513,3.216,33.678,8,7.374,28.825v43.8l-74.285,2.261-1.722-11.031,24.911-11.615-7.155-15.76-22.625,6.905-6.847-5.727,3.306-32.761-2.984-.3-3.466,34.343,9.313,7.789,21.66-6.61,4.839,10.656-24.265,11.314,2.478,15.877,79.842-2.431v-46.9Z" fill="#13017c"/>
        <path id="Path_12324" data-name="Path 12324" d="M267.144,144.052a11.908,11.908,0,0,0-14.2,8.809,11.612,11.612,0,0,0,9.033,13.853,11.9,11.9,0,0,0,14.2-8.812,11.6,11.6,0,0,0-9.031-13.85" fill="#fff"/>
        <g id="Group_5585" data-name="Group 5585">
          <path id="Path_12325" data-name="Path 12325" d="M277.15,158.125h0Z" fill="url(#linear-gradient)"/>
          <path id="Path_12326" data-name="Path 12326" d="M261.766,167.691h0Z" fill="url(#linear-gradient-2)"/>
          <path id="Path_12327" data-name="Path 12327" d="M267.356,143.075h0l.017,0Z" fill="url(#linear-gradient-3)"/>
          <path id="Path_12328" data-name="Path 12328" d="M267.357,143.075h0a13.172,13.172,0,0,0-2.808-.3,12.846,12.846,0,0,0-12.578,9.866h0a12.358,12.358,0,0,0-.311,2.75,12.683,12.683,0,0,0,10.107,12.3,13.179,13.179,0,0,0,2.808.3,12.843,12.843,0,0,0,12.576-9.869,12.363,12.363,0,0,0,.312-2.757A12.676,12.676,0,0,0,267.357,143.075Zm7.843,14.6h0a10.844,10.844,0,0,1-10.626,8.315,11.22,11.22,0,0,1-2.384-.257h0a10.683,10.683,0,0,1-8.531-10.348,10.388,10.388,0,0,1,.261-2.305,10.848,10.848,0,0,1,10.628-8.312,11.2,11.2,0,0,1,2.383.257l-.016,0,.017,0a10.677,10.677,0,0,1,8.53,10.339A10.383,10.383,0,0,1,275.2,157.679Z" fill="url(#linear-gradient-4)"/>
        </g>
        <path id="Path_12329" data-name="Path 12329" d="M258.9,172.913a18.324,18.324,0,0,1-12.277-23.065,18.924,18.924,0,0,1,23.608-11.994A18.324,18.324,0,0,1,282.5,160.918,18.924,18.924,0,0,1,258.9,172.913m31.33.836a30.434,30.434,0,0,0,3.735-6.509L289.8,163.4c.257-.777.482-1.57.665-2.38.068-.279.117-.558.173-.839l5.549-1.429a30,30,0,0,0-.079-7.455l-5.589-1.3a24.725,24.725,0,0,0-.918-3.2l4.07-3.942a31.283,31.283,0,0,0-3.891-6.417l-5.5,1.6a26.614,26.614,0,0,0-2.429-2.327l1.509-5.4a31.845,31.845,0,0,0-6.658-3.654l-3.938,4.073c-.794-.252-1.6-.469-2.435-.651-.289-.063-.575-.113-.86-.165l-1.456-5.426a32.581,32.581,0,0,0-7.638.079l-1.327,5.461a25.975,25.975,0,0,0-3.276.9l-4.037-3.98a31.926,31.926,0,0,0-6.566,3.808l1.643,5.372a26.01,26.01,0,0,0-2.385,2.369l-5.53-1.475a30.581,30.581,0,0,0-3.735,6.51l4.168,3.844c-.257.778-.485,1.57-.67,2.38-.063.28-.115.557-.165.84l-5.554,1.426a30.357,30.357,0,0,0,.081,7.457l5.587,1.3a25.514,25.514,0,0,0,.919,3.2l-4.071,3.94a30.891,30.891,0,0,0,3.894,6.419l5.5-1.6a25.584,25.584,0,0,0,2.428,2.33l-1.509,5.4a31.738,31.738,0,0,0,6.656,3.649l3.942-4.07c.793.25,1.606.472,2.436.653.284.064.571.111.854.161l1.458,5.429a32.581,32.581,0,0,0,7.638-.076l1.331-5.461a28.462,28.462,0,0,0,3.276-.9l4.034,3.978a32.281,32.281,0,0,0,6.565-3.806l-1.638-5.371a27.954,27.954,0,0,0,2.384-2.374Z" fill="#fff"/>
        <g id="Group_5586" data-name="Group 5586">
          <path id="Path_12330" data-name="Path 12330" d="M297.591,151.088l-.14-1.023-5.7-1.326q-.2-.768-.435-1.52l4.157-4.026-.434-.961a32.751,32.751,0,0,0-4.077-6.725l-.626-.8-5.613,1.635q-.57-.579-1.176-1.127l1.541-5.516-.852-.612a33.347,33.347,0,0,0-6.972-3.826l-.937-.378L272.3,129.05c-.537-.151-1.068-.312-1.623-.434l-1.48-5.515-1.023-.109a34.722,34.722,0,0,0-3.661-.195,33.8,33.8,0,0,0-4.329.278l-1.021.133-1.354,5.571c-.546.132-1.085.281-1.621.446l-4.117-4.06-.927.4a33.441,33.441,0,0,0-6.875,3.987l-.84.632,1.677,5.481q-.593.555-1.153,1.147l-5.645-1.5-.608.809a32.045,32.045,0,0,0-3.918,6.829l-.409.97,4.248,3.918c-.149.505-.289,1.016-.41,1.539l-5.644,1.449-.115,1.03a32.687,32.687,0,0,0-.2,3.592,31.345,31.345,0,0,0,.286,4.234l.14,1.024,5.7,1.325q.2.767.435,1.518l-4.156,4.023.431.96a32.32,32.32,0,0,0,4.083,6.731l.626.8,5.607-1.636q.572.582,1.177,1.13l-1.541,5.518.854.611a33.234,33.234,0,0,0,6.97,3.822l.935.375,4.014-4.144c.537.152,1.081.3,1.637.418l1.481,5.514,1.023.109a34.485,34.485,0,0,0,3.675.2,33.559,33.559,0,0,0,4.314-.277l1.022-.132,1.358-5.575q.816-.2,1.619-.444l4.117,4.06.929-.4a33.792,33.792,0,0,0,6.87-3.983l.841-.631-1.673-5.484q.591-.558,1.153-1.15l4.663,1.246.978.261.608-.809a31.928,31.928,0,0,0,3.919-6.829l.407-.97-4.245-3.919c.148-.505.287-1.015.406-1.536l5.645-1.454.117-1.026a32.028,32.028,0,0,0,.2-3.6A31.142,31.142,0,0,0,297.591,151.088Zm-39.122,31.067h.011Zm36.311-24.6-5.432,1.4-.184.925c-.06.3-.106.56-.159.776l0,.012,0,.013c-.171.758-.383,1.5-.626,2.24l-.3.917,4.077,3.764a28.833,28.833,0,0,1-2.543,4.425l-5.409-1.445-.615.691a26.418,26.418,0,0,1-2.256,2.246l-.723.639,1.6,5.257a30.787,30.787,0,0,1-4.5,2.6l-3.952-3.9-.877.3a26.821,26.821,0,0,1-3.1.851l-.922.2-1.3,5.343c-.964.092-1.935.154-2.917.154-.775,0-1.557-.04-2.341-.1l-1.432-5.329-.94-.166c-.3-.052-.559-.1-.785-.148h-.01c-.78-.17-1.549-.38-2.3-.618l-.884-.279-3.863,3.989a30.2,30.2,0,0,1-4.566-2.5l1.478-5.289-.74-.622a24.167,24.167,0,0,1-2.286-2.193l-.63-.69-5.391,1.573a29.3,29.3,0,0,1-2.653-4.365l3.985-3.857-.327-.911a24.014,24.014,0,0,1-.865-3.013l-.2-.928-5.468-1.27c-.092-.929-.155-1.865-.155-2.812,0-.742.039-1.489.1-2.239l5.457-1.4.168-.951c.048-.272.1-.525.151-.77.173-.755.387-1.5.631-2.241l.3-.918-4.08-3.762a29,29,0,0,1,2.543-4.426l5.417,1.445.615-.7a24.528,24.528,0,0,1,2.247-2.232l.73-.639-1.609-5.263a30.465,30.465,0,0,1,4.5-2.607l3.96,3.9.881-.307a24.423,24.423,0,0,1,3.086-.846l.93-.192,1.3-5.349c.968-.092,1.943-.155,2.93-.155.771,0,1.548.039,2.328.1l1.427,5.321.934.17c.292.054.561.1.81.155h0c.788.172,1.55.377,2.3.615l.886.282,3.86-3.992a30.271,30.271,0,0,1,4.568,2.5l-1.477,5.287.738.622a25.184,25.184,0,0,1,2.292,2.2l.63.684,5.388-1.57a29.789,29.789,0,0,1,2.651,4.363l-3.985,3.86.329.912a23.147,23.147,0,0,1,.863,3.008l.2.93,5.473,1.272c.093.929.156,1.865.156,2.81C294.879,156.063,294.839,156.81,294.78,157.559Z" fill="url(#linear-gradient-5)"/>
          <path id="Path_12331" data-name="Path 12331" d="M270.67,136.42a20.671,20.671,0,0,0-6.1-.922,20.308,20.308,0,0,0-19.38,13.888,19.429,19.429,0,0,0-.948,5.986,19.964,19.964,0,0,0,14.21,18.974,20.657,20.657,0,0,0,6.1.922,20.307,20.307,0,0,0,19.379-13.889,19.427,19.427,0,0,0,.948-5.985A19.962,19.962,0,0,0,270.67,136.42Zm10.4,24.037a17.312,17.312,0,0,1-16.525,11.811,17.673,17.673,0,0,1-5.211-.789l-.442,1.434.442-1.434a16.963,16.963,0,0,1-12.094-16.107,16.419,16.419,0,0,1,.8-5.063A17.31,17.31,0,0,1,264.573,138.5a17.685,17.685,0,0,1,5.213.789,16.964,16.964,0,0,1,12.091,16.107A16.452,16.452,0,0,1,281.075,160.457Z" fill="url(#linear-gradient-5)"/>
        </g>
        <path id="Path_12332" data-name="Path 12332" d="M203.207,185.331a7.758,7.758,0,1,0-7.96-7.755,7.86,7.86,0,0,0,7.96,7.755" fill="#fff"/>
        <path id="Path_12333" data-name="Path 12333" d="M203.207,168.82a8.758,8.758,0,1,0,8.96,8.756A8.866,8.866,0,0,0,203.207,168.82Zm0,15.511a6.758,6.758,0,1,1,6.96-6.755A6.866,6.866,0,0,1,203.207,184.331Z" fill="url(#linear-gradient-7)"/>
        <path id="Path_12334" data-name="Path 12334" d="M203.207,174.171a3.406,3.406,0,1,0,3.48,3.406A3.444,3.444,0,0,0,203.207,174.171Z" fill="#13017c"/>
        <path id="Path_12335" data-name="Path 12335" d="M230.5,191.89a7.758,7.758,0,1,0-7.96-7.756,7.86,7.86,0,0,0,7.96,7.756" fill="#fff"/>
        <path id="Path_12336" data-name="Path 12336" d="M230.5,175.379a8.758,8.758,0,1,0,8.96,8.755A8.867,8.867,0,0,0,230.5,175.379Zm0,15.511a6.759,6.759,0,1,1,6.96-6.756A6.868,6.868,0,0,1,230.5,190.89Z" fill="url(#linear-gradient-7)"/>
        <path id="Path_12337" data-name="Path 12337" d="M230.5,180.729a3.406,3.406,0,1,0,3.48,3.406A3.444,3.444,0,0,0,230.5,180.729Z" fill="#13017c"/>
        <path id="Path_12338" data-name="Path 12338" d="M208.5,216.264a7.759,7.759,0,1,0-7.96-7.756,7.86,7.86,0,0,0,7.96,7.756" fill="#fff"/>
        <path id="Path_12339" data-name="Path 12339" d="M208.5,199.752a8.758,8.758,0,1,0,8.96,8.756A8.868,8.868,0,0,0,208.5,199.752Zm0,15.512a6.759,6.759,0,1,1,6.96-6.756A6.868,6.868,0,0,1,208.5,215.264Z" fill="url(#linear-gradient-7)"/>
        <path id="Path_12340" data-name="Path 12340" d="M208.5,205.1a3.406,3.406,0,1,0,3.48,3.406A3.444,3.444,0,0,0,208.5,205.1Z" fill="#13017c"/>
        <path id="Path_12341" data-name="Path 12341" d="M212.884,129.356a8.06,8.06,0,0,0-9.612,5.971,7.87,7.87,0,0,0,6.115,9.389A8.059,8.059,0,0,0,219,138.743,7.865,7.865,0,0,0,212.884,129.356Z" fill="none" stroke="#3d891f" stroke-miterlimit="10" stroke-width="1.145"/>
        <path id="Path_12342" data-name="Path 12342" d="M225.083,147.55a17.432,17.432,0,0,0,2.139-3.727l-2.385-2.2c.147-.444.276-.9.381-1.363.039-.159.067-.319.1-.48l3.177-.818a17.194,17.194,0,0,0-.045-4.268l-3.2-.743a14.193,14.193,0,0,0-.525-1.834l2.331-2.256a17.914,17.914,0,0,0-2.229-3.674l-3.149.917a15.25,15.25,0,0,0-1.391-1.332l.864-3.092a18.238,18.238,0,0,0-3.812-2.092l-2.255,2.332c-.454-.145-.917-.268-1.394-.373-.165-.036-.329-.064-.492-.1l-.834-3.106a18.729,18.729,0,0,0-4.373.045l-.76,3.127a14.89,14.89,0,0,0-1.876.515l-2.312-2.279a18.309,18.309,0,0,0-3.76,2.18l.942,3.076a14.815,14.815,0,0,0-1.366,1.356l-3.166-.845a17.518,17.518,0,0,0-2.139,3.727l2.386,2.2c-.147.446-.277.9-.383,1.363-.037.16-.066.319-.095.481l-3.18.816a17.4,17.4,0,0,0,.047,4.269l3.2.743a14.558,14.558,0,0,0,.527,1.833l-2.331,2.256a17.7,17.7,0,0,0,2.229,3.675l3.149-.919a14.616,14.616,0,0,0,1.39,1.335l-.864,3.092a18.124,18.124,0,0,0,3.811,2.089l2.257-2.33c.454.143.92.27,1.4.374.162.037.327.064.489.092l.835,3.109a18.729,18.729,0,0,0,4.373-.044l.762-3.127a16.3,16.3,0,0,0,1.876-.514l2.31,2.277a18.5,18.5,0,0,0,3.759-2.179l-.938-3.075a15.914,15.914,0,0,0,1.365-1.359Z" fill="#fff"/>
        <path id="Path_12343" data-name="Path 12343" d="M229.44,134.558l-.093-.683-3.278-.761q-.093-.358-.2-.712l2.389-2.312-.29-.641a18.885,18.885,0,0,0-2.353-3.88l-.417-.532-3.247.945q-.263-.264-.539-.516l.891-3.191-.568-.408a19.231,19.231,0,0,0-4.021-2.207l-.625-.252-2.315,2.394c-.255-.07-.508-.147-.769-.206l-.852-3.173-.683-.072a19.97,19.97,0,0,0-2.11-.112,19.5,19.5,0,0,0-2.5.16l-.681.088-.779,3.2q-.389.1-.772.212l-2.365-2.331-.619.266a19.313,19.313,0,0,0-3.965,2.3l-.561.422.972,3.171c-.18.171-.356.345-.529.525l-3.265-.872-.4.539a18.479,18.479,0,0,0-2.261,3.94l-.273.647,2.452,2.263c-.068.235-.141.466-.2.709l-3.249.834-.076.686a18.74,18.74,0,0,0-.115,2.069,18.064,18.064,0,0,0,.165,2.446l.093.683,3.276.761q.095.358.2.711l-2.388,2.311.288.64a18.661,18.661,0,0,0,2.355,3.883l.417.532,3.245-.947c.175.177.355.349.54.518l-.893,3.193.57.407a19.116,19.116,0,0,0,4.021,2.2l.623.251L206,152.269c.255.071.506.146.769.206l.852,3.174.683.072a20.107,20.107,0,0,0,2.116.112,19.414,19.414,0,0,0,2.49-.159l.681-.088.78-3.2c.259-.064.516-.135.771-.211l2.366,2.332.619-.268a19.481,19.481,0,0,0,3.962-2.3l.561-.42-.968-3.173q.27-.256.53-.527l2.61.7.652.174.4-.54a18.433,18.433,0,0,0,2.262-3.94l.272-.647-2.452-2.262c.067-.235.141-.466.2-.707l3.249-.837.078-.684A18.564,18.564,0,0,0,229.6,137,18.184,18.184,0,0,0,229.44,134.558Zm-34.859-.972h0v0ZM206.865,152.5h.009Zm20.674-14.325-3.08.793-.123.616c-.035.177-.061.322-.089.437l0,.009,0,.009c-.1.429-.218.853-.355,1.269l-.2.612,2.31,2.132a16.458,16.458,0,0,1-1.348,2.347l-3.066-.819-.41.461a14.929,14.929,0,0,1-1.279,1.274l-.482.426.908,2.978a17.492,17.492,0,0,1-2.393,1.385l-2.24-2.208-.585.2a15.241,15.241,0,0,1-1.761.482l-.615.131-.742,3.048c-.516.046-1.034.077-1.559.077-.407,0-.821-.037-1.233-.065l-.813-3.027-.63-.109c-.168-.029-.315-.054-.436-.082H207.3c-.442-.1-.88-.216-1.309-.351l-.589-.186-2.189,2.261a17.11,17.11,0,0,1-2.427-1.328l.837-3-.493-.414a13.831,13.831,0,0,1-1.295-1.244l-.42-.46-3.078.9a16.751,16.751,0,0,1-1.4-2.305l2.275-2.2-.219-.608a13.627,13.627,0,0,1-.491-1.708l-.135-.618-3.118-.724c-.046-.495-.078-.994-.078-1.5,0-.387.038-.78.065-1.172l3.1-.794.113-.632c.029-.16.055-.3.085-.432v0h0c.1-.429.219-.851.358-1.273l.2-.611-2.31-2.131a16.538,16.538,0,0,1,1.348-2.347l3.07.819.41-.464a13.709,13.709,0,0,1,1.274-1.265l.488-.426-.914-2.983a17.289,17.289,0,0,1,2.393-1.385l2.246,2.213.588-.2a13.719,13.719,0,0,1,1.75-.48l.619-.129.742-3.051c.517-.046,1.038-.078,1.564-.078.406,0,.817.037,1.227.065l.809,3.013.616.117c.175.033.329.059.464.089.45.1.882.214,1.3.349l.591.189,2.189-2.264a17.329,17.329,0,0,1,2.428,1.329l-.837,3,.492.414a14.167,14.167,0,0,1,1.3,1.245l.42.456,3.075-.895a16.911,16.911,0,0,1,1.4,2.305l-2.274,2.2.219.608a13.027,13.027,0,0,1,.488,1.7l.134.621,3.123.725c.046.5.078.992.078,1.5C227.6,137.39,227.567,137.783,227.539,138.175Z" fill="url(#linear-gradient-10)"/>
        <path id="Path_12344" data-name="Path 12344" d="M210.388,144.791a7.758,7.758,0,1,0-7.96-7.756,7.86,7.86,0,0,0,7.96,7.756" fill="#fff"/>
        <path id="Path_12345" data-name="Path 12345" d="M210.388,128.28a8.758,8.758,0,1,0,8.96,8.755A8.867,8.867,0,0,0,210.388,128.28Zm0,15.511a6.759,6.759,0,1,1,6.96-6.756A6.867,6.867,0,0,1,210.388,143.791Z" fill="url(#linear-gradient-7)"/>
        <path id="Path_12346" data-name="Path 12346" d="M210.388,133.631a3.406,3.406,0,1,0,3.48,3.406A3.444,3.444,0,0,0,210.388,133.631Z" fill="#13017c"/>
        <path id="Path_12347" data-name="Path 12347" d="M285.05,214.009a13.291,13.291,0,0,0,2.36-2.205l-1.211-2.08c.2-.287.4-.584.576-.893.064-.1.119-.213.178-.321l2.452.093a12.925,12.925,0,0,0,.921-3.058l-2.119-1.213a10.551,10.551,0,0,0,.035-1.421l2.168-1.115a13.2,13.2,0,0,0-.77-3.1l-2.454-.016a11.146,11.146,0,0,0-.7-1.248l1.308-2.024a13.359,13.359,0,0,0-2.255-2.307l-2.13,1.184c-.293-.2-.6-.387-.913-.563-.11-.061-.22-.116-.33-.173l.1-2.4a13.831,13.831,0,0,0-3.132-.9l-1.241,2.07a11.052,11.052,0,0,0-1.455-.032l-1.141-2.12a13.846,13.846,0,0,0-3.172.754l-.015,2.4a11.15,11.15,0,0,0-1.278.677l-2.072-1.279a13.365,13.365,0,0,0-2.36,2.206l1.212,2.081c-.2.286-.4.582-.578.891-.062.106-.119.214-.176.323l-2.452-.1a12.986,12.986,0,0,0-.921,3.058l2.118,1.213a10.719,10.719,0,0,0-.034,1.421l-2.168,1.114a13.009,13.009,0,0,0,.77,3.1l2.453.015a10.828,10.828,0,0,0,.695,1.25l-1.308,2.024a13.34,13.34,0,0,0,2.254,2.305l2.133-1.183c.292.2.6.389.912.565.108.06.219.115.329.17l-.1,2.4a13.866,13.866,0,0,0,3.132.9l1.243-2.07a12.172,12.172,0,0,0,1.454.032l1.141,2.119a13.967,13.967,0,0,0,3.171-.754l.017-2.4a12.232,12.232,0,0,0,1.279-.679Z" fill="#fff"/>
        <g id="Group_5587" data-name="Group 5587">
          <path id="Path_12348" data-name="Path 12348" d="M266.6,197.65h0Z" fill="url(#linear-gradient-12)"/>
          <path id="Path_12349" data-name="Path 12349" d="M288.752,203.364c0-.05,0-.1,0-.151l2.2-1.131-.042-.346a13.717,13.717,0,0,0-.8-3.217l-.122-.319-2.506-.017c-.126-.247-.262-.49-.406-.73l1.336-2.067-.213-.28a13.852,13.852,0,0,0-2.34-2.393l-.262-.211-2.168,1.205c-.224-.144-.446-.289-.683-.421h0l-.06-.031.1-2.427-.32-.135a14.311,14.311,0,0,0-3.246-.932l-.334-.054-1.263,2.1c-.233-.014-.466-.03-.7-.03-.061,0-.122,0-.184,0l-1.156-2.149-.337.039a14.3,14.3,0,0,0-3.287.781l-.326.119-.015,2.448c-.257.124-.511.258-.76.4l-2.115-1.306-.271.2a13.868,13.868,0,0,0-2.449,2.289l-.226.269,1.235,2.12c-.145.214-.292.425-.424.653-.012.021-.022.041-.034.063l-2.483-.1-.137.311a13.491,13.491,0,0,0-.956,3.176l-.058.344,2.156,1.235c-.013.228-.03.456-.03.683,0,.052,0,.1,0,.153l-2.2,1.131.042.345a13.515,13.515,0,0,0,.8,3.219l.122.319,2.5.016c.127.248.262.492.407.731l-1.337,2.069.214.279a13.8,13.8,0,0,0,2.339,2.391l.261.21,2.171-1.2c.223.144.445.29.682.422h0c.021.012.039.02.06.031l-.1,2.426.321.135a14.4,14.4,0,0,0,3.245.934l.334.054,1.265-2.106c.241.013.482.029.724.029l.159,0,1.157,2.15.337-.04a14.519,14.519,0,0,0,3.285-.781l.326-.119.017-2.446c.258-.126.512-.26.762-.4l1.827,1.128.285.176.272-.2a13.788,13.788,0,0,0,2.449-2.288l.225-.269-1.234-2.119c.143-.211.287-.421.417-.646h0l0-.006,0-.005h0c.013-.022.021-.038.033-.059l2.485.094.137-.311a13.444,13.444,0,0,0,.956-3.176l.058-.344-2.157-1.235C288.734,203.821,288.752,203.592,288.752,203.364Zm.311,4.726-2.4-.091-.148.272c-.064.116-.116.217-.167.3l0,.005,0,.006c-.169.293-.354.576-.55.853l-.187.262,1.185,2.036a12.708,12.708,0,0,1-1.781,1.663l-2.027-1.251-.262.159a11.8,11.8,0,0,1-1.226.652l-.29.132-.017,2.347a13.475,13.475,0,0,1-2.4.571l-1.118-2.076-.312.012c-.145.005-.29.008-.435.008q-.479,0-.96-.039l-.309-.025-1.217,2.027a13.337,13.337,0,0,1-2.374-.683l.1-2.352-.289-.145c-.111-.055-.216-.107-.31-.16h0c-.3-.168-.593-.35-.874-.542l-.255-.173-2.09,1.159a12.85,12.85,0,0,1-1.7-1.737l1.281-1.982-.176-.271a10.353,10.353,0,0,1-.663-1.192l-.134-.285-2.4-.014a12.552,12.552,0,0,1-.579-2.327l2.123-1.091-.013-.32c-.006-.144-.009-.289-.009-.434,0-.306.013-.613.041-.921l.029-.319-2.074-1.188a12.455,12.455,0,0,1,.693-2.295l2.406.093.146-.28c.057-.108.11-.209.165-.3v0c.17-.293.355-.576.552-.85l.188-.263L267.023,195a12.831,12.831,0,0,1,1.782-1.664l2.03,1.253.263-.162a10.623,10.623,0,0,1,1.221-.647l.292-.132.015-2.35a13.254,13.254,0,0,1,2.4-.571l1.119,2.079.314-.014c.152-.007.3-.01.456-.01.31,0,.622.014.933.041l.311.026,1.217-2.029a13.392,13.392,0,0,1,2.374.682l-.1,2.346.282.146c.115.06.22.112.318.167h0c.3.168.593.347.873.538l.255.174,2.088-1.16a12.922,12.922,0,0,1,1.7,1.739l-1.28,1.981.175.271a10.638,10.638,0,0,1,.664,1.193l.135.282,2.4.016a12.682,12.682,0,0,1,.579,2.326l-2.123,1.092.014.32c.006.143.009.287.009.431,0,.307-.014.615-.043.922l-.029.321,2.075,1.188A12.351,12.351,0,0,1,289.063,208.09Z" fill="url(#linear-gradient-13)"/>
        </g>
        <path id="Path_12350" data-name="Path 12350" d="M275.173,208.9a5.962,5.962,0,0,0,7.41-3.84,5.761,5.761,0,0,0-3.94-7.223,5.963,5.963,0,0,0-7.41,3.841,5.76,5.76,0,0,0,3.94,7.222" fill="#fff"/>
        <g id="Group_5588" data-name="Group 5588">
          <path id="Path_12351" data-name="Path 12351" d="M275.018,209.374l.012,0h0Z" fill="url(#linear-gradient-14)"/>
          <path id="Path_12352" data-name="Path 12352" d="M278.785,197.356a6.575,6.575,0,0,0-1.879-.275,6.421,6.421,0,0,0-6.15,4.446,6.146,6.146,0,0,0-.284,1.842,6.305,6.305,0,0,0,4.558,6.008,6.556,6.556,0,0,0,1.881.276,6.421,6.421,0,0,0,6.149-4.445,6.15,6.15,0,0,0,.283-1.843A6.3,6.3,0,0,0,278.785,197.356Zm3.321,7.553a5.422,5.422,0,0,1-5.195,3.744,5.55,5.55,0,0,1-1.6-.234l-.143.479.142-.479a5.306,5.306,0,0,1-3.843-5.05,5.128,5.128,0,0,1,.238-1.543,5.421,5.421,0,0,1,5.2-3.745,5.582,5.582,0,0,1,1.594.233,5.306,5.306,0,0,1,3.843,5.051A5.164,5.164,0,0,1,282.106,204.909Z" fill="url(#linear-gradient-15)"/>
        </g>
        <path id="Path_12353" data-name="Path 12353" d="M277.667,200.937a2.607,2.607,0,0,0-3.244,1.687,2.532,2.532,0,0,0,1.725,3.173,2.607,2.607,0,0,0,3.243-1.687A2.531,2.531,0,0,0,277.667,200.937Z" fill="#13017c"/>
      </g>
    </g>
    <g id="Group_5591" data-name="Group 5591">
      <path id="Path_12355" data-name="Path 12355" d="M241.315,216.771v-2.5a65.04,65.04,0,1,0-65.039-65.041,65.125,65.125,0,0,0,65.039,65.041v5a70.04,70.04,0,1,1,70.039-70.041,70.042,70.042,0,0,1-70.039,70.041Z" fill="url(#linear-gradient-16)"/>
    </g>
  </g>
</svg>
