<?xml version="1.0" encoding="utf-8"?>
<!-- Generator: Adobe Illustrator 25.0.1, SVG Export Plug-In . SVG Version: 6.00 Build 0)  -->
<svg version="1.1" id="Layer_1" xmlns="http://www.w3.org/2000/svg" xmlns:xlink="http://www.w3.org/1999/xlink" x="0px" y="0px"
	 viewBox="0 0 140.1 140.1" style="enable-background:new 0 0 140.1 140.1;" xml:space="preserve">
<style type="text/css">
	.st0{clip-path:url(#SVGID_2_);}
	.st1{fill:#13017C;}
	.st2{fill:url(#Path_12325_1_);}
	.st3{fill:url(#Path_12326_1_);}
	.st4{fill:url(#Path_12327_1_);}
	.st5{fill:url(#Path_12328_1_);}
	.st6{fill:url(#Path_12330_1_);}
	.st7{fill:url(#Path_12331_1_);}
	.st8{fill:url(#Path_12333_1_);}
	.st9{fill:url(#Path_12336_1_);}
	.st10{fill:url(#Path_12339_1_);}
	.st11{fill:none;stroke:#3D891F;stroke-width:1.145;stroke-miterlimit:10;}
	.st12{fill:url(#Path_12343_1_);}
	.st13{fill:url(#Path_12345_1_);}
	.st14{fill:url(#Path_12348_1_);}
	.st15{fill:url(#Path_12349_1_);}
	.st16{fill:url(#Path_12351_1_);}
	.st17{fill:url(#Path_12352_1_);}
	.st18{fill:url(#Path_12355_1_);}
</style>
<g id="Group_5592" transform="translate(-171.276 -79.191)">
	<g id="Group_5590">
		<g>
			<defs>
				<path id="SVGID_1_" d="M174.3,149.2c0,37.3,30.2,67.5,67.5,67.5s67.5-30.2,67.5-67.5c0-37.3-30.2-67.5-67.5-67.5
					C204.5,81.7,174.3,111.9,174.3,149.2"/>
			</defs>
			<clipPath id="SVGID_2_">
				<use xlink:href="#SVGID_1_"  style="overflow:visible;"/>
			</clipPath>
			<g id="Group_5589" class="st0">
				<path id="Path_12323" class="st1" d="M280.9,136.8l-35.5-8.4l-24.7-3.3l-0.4,3l24.5,3.2l33.7,8l7.4,28.8v43.8l-74.3,2.3l-1.7-11
					l24.9-11.6l-7.2-15.8l-22.6,6.9l-6.8-5.7l3.3-32.8l-3-0.3l-3.5,34.3l9.3,7.8l21.7-6.6l4.8,10.7l-24.3,11.3l2.5,15.9l79.8-2.4
					v-46.9L280.9,136.8z"/>
				<path id="Path_12324" d="M267.1,144.1c-6.3-1.4-12.7,2.5-14.2,8.8c-1.4,6.3,2.6,12.5,8.9,13.8c0.1,0,0.1,0,0.2,0
					c6.3,1.4,12.7-2.5,14.2-8.8c1.4-6.3-2.6-12.4-8.9-13.8C267.3,144.1,267.2,144.1,267.1,144.1"/>
				<g id="Group_5585">
					
						<linearGradient id="Path_12325_1_" gradientUnits="userSpaceOnUse" x1="171.276" y1="221.191" x2="171.276" y2="221.191" gradientTransform="matrix(1 0 0 -1 105.874 379.316)">
						<stop  offset="0" style="stop-color:#F0047F"/>
						<stop  offset="1" style="stop-color:#13017C"/>
					</linearGradient>
					<path id="Path_12325" class="st2" d="M277.1,158.1L277.1,158.1z"/>
					
						<linearGradient id="Path_12326_1_" gradientUnits="userSpaceOnUse" x1="171.276" y1="221.191" x2="171.276" y2="221.191" gradientTransform="matrix(1 0 0 -1 90.49 388.882)">
						<stop  offset="0" style="stop-color:#F0047F"/>
						<stop  offset="1" style="stop-color:#13017C"/>
					</linearGradient>
					<path id="Path_12326" class="st3" d="M261.8,167.7L261.8,167.7z"/>
					
						<linearGradient id="Path_12327_1_" gradientUnits="userSpaceOnUse" x1="10869.7031" y1="221.191" x2="10870.7422" y2="221.191" gradientTransform="matrix(1.699829e-02 0 0 -1 82.5893 364.266)">
						<stop  offset="0" style="stop-color:#F0047F"/>
						<stop  offset="1" style="stop-color:#13017C"/>
					</linearGradient>
					<path id="Path_12327" class="st4" d="M267.4,143.1L267.4,143.1L267.4,143.1L267.4,143.1z"/>
					
						<linearGradient id="Path_12328_1_" gradientUnits="userSpaceOnUse" x1="-6.5733" y1="398.3546" x2="-5.5353" y2="398.3546" gradientTransform="matrix(25.803 0 0 -25.2165 420.7805 10200.5049)">
						<stop  offset="0" style="stop-color:#F0047F"/>
						<stop  offset="1" style="stop-color:#13017C"/>
					</linearGradient>
					<path id="Path_12328" class="st5" d="M267.4,143.1L267.4,143.1c-0.9-0.2-1.9-0.3-2.8-0.3c-6,0-11.2,4.1-12.6,9.9l0,0
						c-0.2,0.9-0.3,1.8-0.3,2.8c0.1,6,4.3,11.1,10.1,12.3c0.9,0.2,1.9,0.3,2.8,0.3c6,0,11.2-4.1,12.6-9.9c0.2-0.9,0.3-1.8,0.3-2.8
						C277.4,149.4,273.2,144.3,267.4,143.1z M275.2,157.7L275.2,157.7c-1.2,4.9-5.6,8.4-10.6,8.3c-0.8,0-1.6-0.1-2.4-0.3l0,0
						c-4.9-1-8.5-5.3-8.5-10.3c0-0.8,0.1-1.5,0.3-2.3c1.2-4.9,5.6-8.3,10.6-8.3c0.8,0,1.6,0.1,2.4,0.3h0h0c4.9,1,8.5,5.3,8.5,10.3
						C275.5,156.1,275.4,156.9,275.2,157.7L275.2,157.7z"/>
				</g>
				<path id="Path_12329" d="M258.9,172.9c-9.7-2.9-15.2-13.1-12.4-22.8c0-0.1,0.1-0.2,0.1-0.3c3.3-9.8,13.8-15.1,23.6-12
					c9.7,2.9,15.2,13.1,12.4,22.8c0,0.1-0.1,0.2-0.1,0.3C279.2,170.7,268.7,176,258.9,172.9 M290.2,173.7c1.5-2,2.8-4.2,3.7-6.5
					l-4.2-3.8c0.3-0.8,0.5-1.6,0.7-2.4c0.1-0.3,0.1-0.6,0.2-0.8l5.5-1.4c0.3-2.5,0.3-5-0.1-7.5l-5.6-1.3c-0.2-1.1-0.5-2.2-0.9-3.2
					l4.1-3.9c-1-2.3-2.3-4.4-3.9-6.4l-5.5,1.6c-0.8-0.8-1.6-1.6-2.4-2.3l1.5-5.4c-2.1-1.5-4.3-2.7-6.7-3.7l-3.9,4.1
					c-0.8-0.3-1.6-0.5-2.4-0.7c-0.3-0.1-0.6-0.1-0.9-0.2l-1.5-5.4c-2.5-0.3-5.1-0.2-7.6,0.1L259,130c-1.1,0.2-2.2,0.5-3.3,0.9l-4-4
					c-2.3,1-4.5,2.3-6.6,3.8l1.6,5.4c-0.8,0.7-1.6,1.5-2.4,2.4l-5.5-1.5c-1.5,2-2.8,4.2-3.7,6.5l4.2,3.8c-0.3,0.8-0.5,1.6-0.7,2.4
					c-0.1,0.3-0.1,0.6-0.2,0.8l-5.6,1.4c-0.3,2.5-0.3,5,0.1,7.5l5.6,1.3c0.2,1.1,0.5,2.2,0.9,3.2l-4.1,3.9c1,2.3,2.3,4.4,3.9,6.4
					l5.5-1.6c0.8,0.8,1.6,1.6,2.4,2.3l-1.5,5.4c2.1,1.5,4.3,2.7,6.7,3.6l3.9-4.1c0.8,0.2,1.6,0.5,2.4,0.7c0.3,0.1,0.6,0.1,0.9,0.2
					l1.5,5.4c2.5,0.3,5.1,0.2,7.6-0.1l1.3-5.5c1.1-0.2,2.2-0.5,3.3-0.9l4,4c2.3-1,4.5-2.3,6.6-3.8l-1.6-5.4c0.8-0.7,1.6-1.5,2.4-2.4
					L290.2,173.7z"/>
				<g id="Group_5586">
					
						<linearGradient id="Path_12330_1_" gradientUnits="userSpaceOnUse" x1="-10.9543" y1="402.8528" x2="-9.9403" y2="402.8528" gradientTransform="matrix(66.625 0 0 -65.1831 960.6132 26414.5664)">
						<stop  offset="0" style="stop-color:#F0047F"/>
						<stop  offset="1" style="stop-color:#13017C"/>
					</linearGradient>
					<path id="Path_12330" class="st6" d="M297.6,151.1l-0.1-1l-5.7-1.3c-0.1-0.5-0.3-1-0.4-1.5l4.2-4l-0.4-1
						c-1.1-2.4-2.5-4.7-4.1-6.7l-0.6-0.8l-5.6,1.6c-0.4-0.4-0.8-0.8-1.2-1.1l1.5-5.5l-0.9-0.6c-2.2-1.5-4.5-2.8-7-3.8l-0.9-0.4
						l-4,4.2c-0.5-0.2-1.1-0.3-1.6-0.4l-1.5-5.5l-1-0.1c-1.2-0.1-2.4-0.2-3.7-0.2c-1.4,0-2.9,0.1-4.3,0.3l-1,0.1l-1.4,5.6
						c-0.5,0.1-1.1,0.3-1.6,0.4l-4.1-4.1l-0.9,0.4c-2.4,1.1-4.7,2.4-6.9,4l-0.8,0.6l1.7,5.5c-0.4,0.4-0.8,0.8-1.2,1.1l-5.6-1.5
						l-0.6,0.8c-1.6,2.1-2.9,4.4-3.9,6.8l-0.4,1l4.2,3.9c-0.1,0.5-0.3,1-0.4,1.5l-5.6,1.4l-0.1,1c-0.1,1.2-0.2,2.4-0.2,3.6
						c0,1.4,0.1,2.8,0.3,4.2l0.1,1l5.7,1.3c0.1,0.5,0.3,1,0.4,1.5l-4.2,4l0.4,1c1.1,2.4,2.5,4.7,4.1,6.7l0.6,0.8l5.6-1.6
						c0.4,0.4,0.8,0.8,1.2,1.1l-1.5,5.5l0.9,0.6c2.2,1.5,4.5,2.8,7,3.8l0.9,0.4l4-4.1c0.5,0.2,1.1,0.3,1.6,0.4l1.5,5.5l1,0.1
						c1.2,0.1,2.4,0.2,3.7,0.2c1.4,0,2.9-0.1,4.3-0.3l1-0.1l1.4-5.6c0.5-0.1,1.1-0.3,1.6-0.4l4.1,4.1l0.9-0.4c2.4-1.1,4.7-2.4,6.9-4
						l0.8-0.6l-1.7-5.5c0.4-0.4,0.8-0.8,1.2-1.1l4.7,1.2l1,0.3l0.6-0.8c1.6-2.1,2.9-4.4,3.9-6.8l0.4-1l-4.2-3.9
						c0.1-0.5,0.3-1,0.4-1.5l5.6-1.5l0.1-1c0.1-1.2,0.2-2.4,0.2-3.6C297.9,153.9,297.8,152.5,297.6,151.1z M258.5,182.2L258.5,182.2
						L258.5,182.2z M294.8,157.6l-5.4,1.4l-0.2,0.9c-0.1,0.3-0.1,0.6-0.2,0.8v0v0c-0.2,0.8-0.4,1.5-0.6,2.2l-0.3,0.9l4.1,3.8
						c-0.7,1.5-1.6,3-2.5,4.4l-5.4-1.4l-0.6,0.7c-0.7,0.8-1.5,1.5-2.3,2.2l-0.7,0.6l1.6,5.3c-1.4,1-2.9,1.9-4.5,2.6l-4-3.9l-0.9,0.3
						c-1,0.3-2.1,0.6-3.1,0.9l-0.9,0.2l-1.3,5.3c-1,0.1-1.9,0.2-2.9,0.2c-0.8,0-1.6,0-2.3-0.1l-1.4-5.3l-0.9-0.2
						c-0.3-0.1-0.6-0.1-0.8-0.1h0c-0.8-0.2-1.5-0.4-2.3-0.6l-0.9-0.3l-3.9,4c-1.6-0.7-3.1-1.5-4.6-2.5l1.5-5.3l-0.7-0.6
						c-0.8-0.7-1.6-1.4-2.3-2.2l-0.6-0.7l-5.4,1.6c-1-1.4-1.9-2.8-2.7-4.4l4-3.9l-0.3-0.9c-0.4-1-0.6-2-0.9-3l-0.2-0.9l-5.5-1.3
						c-0.1-0.9-0.2-1.9-0.2-2.8c0-0.7,0-1.5,0.1-2.2l5.5-1.4l0.2-1c0-0.3,0.1-0.5,0.2-0.8c0.2-0.8,0.4-1.5,0.6-2.2l0.3-0.9l-4.1-3.8
						c0.7-1.5,1.6-3,2.5-4.4l5.4,1.4l0.6-0.7c0.7-0.8,1.5-1.5,2.2-2.2l0.7-0.6l-1.6-5.3c1.4-1,2.9-1.9,4.5-2.6l4,3.9l0.9-0.3
						c1-0.3,2-0.6,3.1-0.8l0.9-0.2l1.3-5.3c1-0.1,1.9-0.2,2.9-0.2c0.8,0,1.5,0,2.3,0.1l1.4,5.3l0.9,0.2c0.3,0.1,0.6,0.1,0.8,0.2l0,0
						c0.8,0.2,1.5,0.4,2.3,0.6l0.9,0.3l3.9-4c1.6,0.7,3.1,1.5,4.6,2.5l-1.5,5.3l0.7,0.6c0.8,0.7,1.6,1.4,2.3,2.2l0.6,0.7l5.4-1.6
						c1,1.4,1.9,2.8,2.7,4.4l-4,3.9l0.3,0.9c0.4,1,0.6,2,0.9,3l0.2,0.9l5.5,1.3c0.1,0.9,0.2,1.9,0.2,2.8
						C294.9,156.1,294.8,156.8,294.8,157.6L294.8,157.6z"/>
					
						<linearGradient id="Path_12331_1_" gradientUnits="userSpaceOnUse" x1="-9.1785" y1="401.0393" x2="-8.1645" y2="401.0393" gradientTransform="matrix(40.637 0 0 -39.7706 616.9441 16104.9697)">
						<stop  offset="0" style="stop-color:#F0047F"/>
						<stop  offset="1" style="stop-color:#13017C"/>
					</linearGradient>
					<path id="Path_12331" class="st7" d="M270.7,136.4c-2-0.6-4-0.9-6.1-0.9c-8.8,0-16.6,5.6-19.4,13.9c-0.6,1.9-0.9,4-0.9,6
						c0.1,8.8,5.8,16.5,14.2,19c2,0.6,4,0.9,6.1,0.9c8.8,0,16.6-5.6,19.4-13.9c0.6-1.9,0.9-4,0.9-6
						C284.8,146.6,279.1,138.9,270.7,136.4z M281.1,160.5c-2.4,7.1-9,11.9-16.5,11.8c-1.8,0-3.5-0.3-5.2-0.8l-0.4,1.4l0.4-1.4
						c-7.1-2.1-12-8.7-12.1-16.1c0-1.7,0.3-3.4,0.8-5.1c2.4-7.1,9-11.9,16.5-11.8c1.8,0,3.5,0.3,5.2,0.8c7.1,2.1,12,8.7,12.1,16.1
						C281.9,157.1,281.6,158.8,281.1,160.5L281.1,160.5z"/>
				</g>
				<path id="Path_12332" d="M203.2,185.3c4.3-0.1,7.7-3.7,7.6-8c-0.1-4.3-3.7-7.7-8-7.6c-4.2,0.1-7.6,3.5-7.6,7.8
					C195.3,181.9,198.9,185.4,203.2,185.3"/>
				
					<linearGradient id="Path_12333_1_" gradientUnits="userSpaceOnUse" x1="-3.1903" y1="395.1281" x2="-2.1343" y2="395.1281" gradientTransform="matrix(17.5161 0 0 -17.5142 250.0412 7097.9385)">
					<stop  offset="0" style="stop-color:#F0047F"/>
					<stop  offset="1" style="stop-color:#13017C"/>
				</linearGradient>
				<path id="Path_12333" class="st8" d="M203.2,168.8c-4.8,0.1-8.7,4.1-8.6,9c0.1,4.8,4.1,8.7,9,8.6c4.8-0.1,8.6-4,8.6-8.8
					C212.1,172.7,208.1,168.8,203.2,168.8z M203.2,184.3c-3.7-0.1-6.7-3.2-6.6-7c0.1-3.7,3.2-6.7,7-6.6c3.7,0.1,6.6,3.1,6.6,6.8
					C210.1,181.4,207,184.4,203.2,184.3L203.2,184.3z"/>
				<path id="Path_12334" class="st1" d="M203.2,174.2c-1.9,0-3.4,1.6-3.3,3.5c0,1.9,1.6,3.4,3.5,3.3c1.9,0,3.3-1.6,3.3-3.4
					C206.7,175.7,205.1,174.2,203.2,174.2z"/>
				<path id="Path_12335" d="M230.5,191.9c4.3-0.1,7.7-3.7,7.6-8c-0.1-4.3-3.7-7.7-8-7.6c-4.2,0.1-7.6,3.5-7.6,7.8
					C222.6,188.5,226.2,191.9,230.5,191.9"/>
				
					<linearGradient id="Path_12336_1_" gradientUnits="userSpaceOnUse" x1="-3.1903" y1="395.1281" x2="-2.1343" y2="395.1281" gradientTransform="matrix(17.5161 0 0 -17.5142 277.3342 7104.4976)">
					<stop  offset="0" style="stop-color:#F0047F"/>
					<stop  offset="1" style="stop-color:#13017C"/>
				</linearGradient>
				<path id="Path_12336" class="st9" d="M230.5,175.4c-4.8,0.1-8.7,4.1-8.6,9c0.1,4.8,4.1,8.7,9,8.6c4.8-0.1,8.6-4,8.6-8.8
					C239.4,179.2,235.4,175.3,230.5,175.4z M230.5,190.9c-3.7-0.1-6.7-3.2-6.6-7c0.1-3.7,3.2-6.7,7-6.6c3.7,0.1,6.6,3.1,6.6,6.8
					C237.4,187.9,234.3,190.9,230.5,190.9z"/>
				<path id="Path_12337" class="st1" d="M230.5,180.7c-1.9,0-3.4,1.6-3.3,3.5c0,1.9,1.6,3.4,3.5,3.3c1.9,0,3.3-1.6,3.3-3.4
					C234,182.2,232.4,180.7,230.5,180.7z"/>
				<path id="Path_12338" d="M208.5,216.3c4.3-0.1,7.7-3.7,7.6-8s-3.7-7.7-8-7.6c-4.2,0.1-7.6,3.5-7.6,7.8
					C200.6,212.8,204.2,216.3,208.5,216.3"/>
				
					<linearGradient id="Path_12339_1_" gradientUnits="userSpaceOnUse" x1="-3.1903" y1="395.1281" x2="-2.1343" y2="395.1281" gradientTransform="matrix(17.5161 0 0 -17.5142 255.3342 7128.8643)">
					<stop  offset="0" style="stop-color:#F0047F"/>
					<stop  offset="1" style="stop-color:#13017C"/>
				</linearGradient>
				<path id="Path_12339" class="st10" d="M208.5,199.8c-4.8,0.1-8.7,4.1-8.6,9c0.1,4.8,4.1,8.7,9,8.6c4.8-0.1,8.6-4,8.6-8.8
					C217.4,203.6,213.4,199.7,208.5,199.8z M208.5,215.3c-3.7-0.1-6.7-3.2-6.6-7c0.1-3.7,3.2-6.7,7-6.6c3.7,0.1,6.6,3.1,6.6,6.8
					C215.4,212.3,212.3,215.3,208.5,215.3L208.5,215.3z"/>
				<path id="Path_12340" class="st1" d="M208.5,205.1c-1.9,0-3.4,1.6-3.3,3.5c0,1.9,1.6,3.4,3.5,3.3c1.9,0,3.3-1.6,3.3-3.4
					C212,206.6,210.4,205.1,208.5,205.1z"/>
				<path id="Path_12341" class="st11" d="M212.9,129.4c-4.3-1-8.6,1.7-9.6,6c-0.9,4.2,1.8,8.4,6,9.4c0,0,0.1,0,0.1,0
					c4.3,1,8.6-1.7,9.6-6c0.9-4.2-1.8-8.4-6-9.4C213,129.4,212.9,129.4,212.9,129.4z"/>
				<path id="Path_12342" d="M225.1,147.6c0.9-1.1,1.6-2.4,2.1-3.7l-2.4-2.2c0.1-0.4,0.3-0.9,0.4-1.4c0-0.2,0.1-0.3,0.1-0.5l3.2-0.8
					c0.2-1.4,0.1-2.9,0-4.3l-3.2-0.7c-0.1-0.6-0.3-1.2-0.5-1.8l2.3-2.3c-0.6-1.3-1.3-2.5-2.2-3.7l-3.1,0.9c-0.4-0.5-0.9-0.9-1.4-1.3
					l0.9-3.1c-1.2-0.8-2.5-1.5-3.8-2.1l-2.3,2.3c-0.5-0.1-0.9-0.3-1.4-0.4c-0.2,0-0.3-0.1-0.5-0.1l-0.8-3.1c-1.5-0.2-2.9-0.1-4.4,0
					l-0.8,3.1c-0.6,0.1-1.3,0.3-1.9,0.5l-2.3-2.3c-1.3,0.6-2.6,1.3-3.8,2.2l0.9,3.1c-0.5,0.4-0.9,0.9-1.4,1.4l-3.2-0.8
					c-0.9,1.1-1.6,2.4-2.1,3.7l2.4,2.2c-0.1,0.4-0.3,0.9-0.4,1.4c0,0.2-0.1,0.3-0.1,0.5l-3.2,0.8c-0.2,1.4-0.1,2.9,0,4.3l3.2,0.7
					c0.1,0.6,0.3,1.2,0.5,1.8l-2.3,2.3c0.6,1.3,1.3,2.5,2.2,3.7l3.1-0.9c0.4,0.5,0.9,0.9,1.4,1.3l-0.9,3.1c1.2,0.8,2.5,1.5,3.8,2.1
					l2.3-2.3c0.5,0.1,0.9,0.3,1.4,0.4c0.2,0,0.3,0.1,0.5,0.1l0.8,3.1c1.5,0.2,2.9,0.1,4.4,0l0.8-3.1c0.6-0.1,1.3-0.3,1.9-0.5
					l2.3,2.3c1.3-0.6,2.6-1.3,3.8-2.2l-0.9-3.1c0.5-0.4,0.9-0.9,1.4-1.4L225.1,147.6z"/>
				
					<linearGradient id="Path_12343_1_" gradientUnits="userSpaceOnUse" x1="-8.9166" y1="400.77" x2="-7.9026" y2="400.77" gradientTransform="matrix(38.4261 0 0 -37.594 533.5331 15203.584)">
					<stop  offset="0" style="stop-color:#F0047F"/>
					<stop  offset="1" style="stop-color:#13017C"/>
				</linearGradient>
				<path id="Path_12343" class="st12" d="M229.4,134.6l-0.1-0.7l-3.3-0.8c-0.1-0.2-0.1-0.5-0.2-0.7l2.4-2.3l-0.3-0.6
					c-0.6-1.4-1.4-2.7-2.4-3.9l-0.4-0.5L222,126c-0.2-0.2-0.4-0.3-0.5-0.5l0.9-3.2l-0.6-0.4c-1.2-0.9-2.6-1.6-4-2.2l-0.6-0.3
					l-2.3,2.4c-0.3-0.1-0.5-0.1-0.8-0.2l-0.9-3.2l-0.7-0.1c-0.7-0.1-1.4-0.1-2.1-0.1c-0.8,0-1.7,0.1-2.5,0.2l-0.7,0.1l-0.8,3.2
					c-0.3,0.1-0.5,0.1-0.8,0.2l-2.4-2.3l-0.6,0.3c-1.4,0.6-2.7,1.4-4,2.3l-0.6,0.4l1,3.2c-0.2,0.2-0.4,0.3-0.5,0.5l-3.3-0.9
					l-0.4,0.5c-0.9,1.2-1.7,2.5-2.3,3.9l-0.3,0.6l2.5,2.3c-0.1,0.2-0.1,0.5-0.2,0.7l-3.2,0.8l-0.1,0.7c-0.1,0.7-0.1,1.4-0.1,2.1
					c0,0.8,0.1,1.6,0.2,2.4l0.1,0.7l3.3,0.8c0.1,0.2,0.1,0.5,0.2,0.7l-2.4,2.3l0.3,0.6c0.6,1.4,1.4,2.7,2.4,3.9l0.4,0.5l3.2-0.9
					c0.2,0.2,0.4,0.3,0.5,0.5l-0.9,3.2l0.6,0.4c1.2,0.9,2.6,1.6,4,2.2l0.6,0.3l2.3-2.4c0.3,0.1,0.5,0.1,0.8,0.2l0.9,3.2l0.7,0.1
					c0.7,0.1,1.4,0.1,2.1,0.1c0.8,0,1.7-0.1,2.5-0.2l0.7-0.1l0.8-3.2c0.3-0.1,0.5-0.1,0.8-0.2l2.4,2.3l0.6-0.3
					c1.4-0.6,2.7-1.4,4-2.3l0.6-0.4l-1-3.2c0.2-0.2,0.4-0.3,0.5-0.5l2.6,0.7l0.7,0.2l0.4-0.5c0.9-1.2,1.7-2.5,2.3-3.9l0.3-0.6
					l-2.5-2.3c0.1-0.2,0.1-0.5,0.2-0.7l3.2-0.8l0.1-0.7c0.1-0.7,0.1-1.4,0.1-2.1C229.6,136.2,229.5,135.4,229.4,134.6z M194.6,133.6
					L194.6,133.6L194.6,133.6z M206.9,152.5L206.9,152.5L206.9,152.5z M227.5,138.2l-3.1,0.8l-0.1,0.6c0,0.2-0.1,0.3-0.1,0.4v0v0
					c-0.1,0.4-0.2,0.9-0.4,1.3l-0.2,0.6l2.3,2.1c-0.4,0.8-0.8,1.6-1.3,2.3l-3.1-0.8l-0.4,0.5c-0.4,0.5-0.8,0.9-1.3,1.3l-0.5,0.4
					l0.9,3c-0.8,0.5-1.6,1-2.4,1.4l-2.2-2.2l-0.6,0.2c-0.6,0.2-1.2,0.4-1.8,0.5l-0.6,0.1l-0.7,3c-0.5,0-1,0.1-1.6,0.1
					c-0.4,0-0.8,0-1.2-0.1l-0.8-3l-0.6-0.1c-0.2,0-0.3-0.1-0.4-0.1h0c-0.4-0.1-0.9-0.2-1.3-0.4l-0.6-0.2l-2.2,2.3
					c-0.8-0.4-1.7-0.8-2.4-1.3l0.8-3l-0.5-0.4c-0.5-0.4-0.9-0.8-1.3-1.2l-0.4-0.5l-3.1,0.9c-0.5-0.7-1-1.5-1.4-2.3l2.3-2.2l-0.2-0.6
					c-0.2-0.6-0.4-1.1-0.5-1.7l-0.1-0.6l-3.1-0.7c0-0.5-0.1-1-0.1-1.5c0-0.4,0-0.8,0.1-1.2l3.1-0.8l0.1-0.6c0-0.2,0.1-0.3,0.1-0.4
					l0,0l0,0c0.1-0.4,0.2-0.9,0.4-1.3l0.2-0.6l-2.3-2.1c0.4-0.8,0.8-1.6,1.3-2.3l3.1,0.8l0.4-0.5c0.4-0.4,0.8-0.9,1.3-1.3l0.5-0.4
					l-0.9-3c0.8-0.5,1.6-1,2.4-1.4l2.2,2.2l0.6-0.2c0.6-0.2,1.2-0.4,1.8-0.5l0.6-0.1l0.7-3.1c0.5,0,1-0.1,1.6-0.1
					c0.4,0,0.8,0,1.2,0.1l0.8,3l0.6,0.1c0.2,0,0.3,0.1,0.5,0.1c0.4,0.1,0.9,0.2,1.3,0.3l0.6,0.2l2.2-2.3c0.8,0.4,1.7,0.8,2.4,1.3
					l-0.8,3l0.5,0.4c0.5,0.4,0.9,0.8,1.3,1.2l0.4,0.5l3.1-0.9c0.5,0.7,1,1.5,1.4,2.3l-2.3,2.2l0.2,0.6c0.2,0.6,0.4,1.1,0.5,1.7
					l0.1,0.6l3.1,0.7c0,0.5,0.1,1,0.1,1.5C227.6,137.4,227.6,137.8,227.5,138.2z"/>
				<path id="Path_12344" d="M210.4,144.8c4.3-0.1,7.7-3.7,7.6-8c-0.1-4.3-3.7-7.7-8-7.6c-4.2,0.1-7.6,3.5-7.6,7.8
					C202.5,141.4,206,144.8,210.4,144.8"/>
				
					<linearGradient id="Path_12345_1_" gradientUnits="userSpaceOnUse" x1="-3.1903" y1="395.1281" x2="-2.1343" y2="395.1281" gradientTransform="matrix(17.5161 0 0 -17.5142 257.2222 7057.3984)">
					<stop  offset="0" style="stop-color:#F0047F"/>
					<stop  offset="1" style="stop-color:#13017C"/>
				</linearGradient>
				<path id="Path_12345" class="st13" d="M210.4,128.3c-4.8,0.1-8.7,4.1-8.6,9c0.1,4.8,4.1,8.7,9,8.6c4.8-0.1,8.6-4,8.6-8.8
					C219.3,132.1,215.3,128.2,210.4,128.3z M210.4,143.8c-3.7-0.1-6.7-3.2-6.6-7c0.1-3.7,3.2-6.7,7-6.6c3.7,0.1,6.6,3.1,6.6,6.8
					C217.3,140.8,214.2,143.8,210.4,143.8z"/>
				<path id="Path_12346" class="st1" d="M210.4,133.6c-1.9,0-3.4,1.6-3.3,3.5c0,1.9,1.6,3.4,3.5,3.3c1.9,0,3.3-1.6,3.3-3.4
					C213.8,135.1,212.3,133.6,210.4,133.6z"/>
				<path id="Path_12347" d="M285,214c0.9-0.6,1.7-1.4,2.4-2.2l-1.2-2.1c0.2-0.3,0.4-0.6,0.6-0.9c0.1-0.1,0.1-0.2,0.2-0.3l2.5,0.1
					c0.4-1,0.7-2,0.9-3.1l-2.1-1.2c0-0.5,0.1-0.9,0-1.4l2.2-1.1c-0.1-1.1-0.4-2.1-0.8-3.1l-2.5,0c-0.2-0.4-0.4-0.8-0.7-1.2l1.3-2
					c-0.7-0.9-1.4-1.6-2.3-2.3l-2.1,1.2c-0.3-0.2-0.6-0.4-0.9-0.6c-0.1-0.1-0.2-0.1-0.3-0.2l0.1-2.4c-1-0.4-2.1-0.7-3.1-0.9
					l-1.2,2.1c-0.5,0-1-0.1-1.5,0l-1.1-2.1c-1.1,0.1-2.1,0.4-3.2,0.8l0,2.4c-0.4,0.2-0.9,0.4-1.3,0.7l-2.1-1.3
					c-0.9,0.6-1.7,1.4-2.4,2.2l1.2,2.1c-0.2,0.3-0.4,0.6-0.6,0.9c-0.1,0.1-0.1,0.2-0.2,0.3l-2.5-0.1c-0.4,1-0.7,2-0.9,3.1l2.1,1.2
					c0,0.5-0.1,0.9,0,1.4l-2.2,1.1c0.1,1.1,0.4,2.1,0.8,3.1l2.5,0c0.2,0.4,0.4,0.8,0.7,1.2l-1.3,2c0.7,0.9,1.4,1.6,2.3,2.3l2.1-1.2
					c0.3,0.2,0.6,0.4,0.9,0.6c0.1,0.1,0.2,0.1,0.3,0.2l-0.1,2.4c1,0.4,2.1,0.7,3.1,0.9l1.2-2.1c0.5,0,1,0.1,1.5,0l1.1,2.1
					c1.1-0.1,2.1-0.4,3.2-0.8l0-2.4c0.4-0.2,0.9-0.4,1.3-0.7L285,214z"/>
				<g id="Group_5587">
					
						<linearGradient id="Path_12348_1_" gradientUnits="userSpaceOnUse" x1="171.276" y1="221.191" x2="171.276" y2="221.191" gradientTransform="matrix(1 0 0 -1 95.324 418.841)">
						<stop  offset="0" style="stop-color:#F0047F"/>
						<stop  offset="1" style="stop-color:#13017C"/>
					</linearGradient>
					<path id="Path_12348" class="st14" d="M266.6,197.6L266.6,197.6z"/>
					
						<linearGradient id="Path_12349_1_" gradientUnits="userSpaceOnUse" x1="-7.1551" y1="398.9544" x2="-6.1191" y2="398.9544" gradientTransform="matrix(28.0861 0 0 -27.462 463.3194 11159.4473)">
						<stop  offset="0" style="stop-color:#F0047F"/>
						<stop  offset="1" style="stop-color:#13017C"/>
					</linearGradient>
					<path id="Path_12349" class="st15" d="M288.8,203.4c0-0.1,0-0.1,0-0.2l2.2-1.1l0-0.3c-0.1-1.1-0.4-2.2-0.8-3.2l-0.1-0.3l-2.5,0
						c-0.1-0.2-0.3-0.5-0.4-0.7l1.3-2.1l-0.2-0.3c-0.7-0.9-1.5-1.7-2.3-2.4l-0.3-0.2l-2.2,1.2c-0.2-0.1-0.4-0.3-0.7-0.4l0,0l-0.1,0
						l0.1-2.4l-0.3-0.1c-1-0.4-2.1-0.8-3.2-0.9l-0.3-0.1l-1.3,2.1c-0.2,0-0.5,0-0.7,0c-0.1,0-0.1,0-0.2,0l-1.2-2.1l-0.3,0
						c-1.1,0.1-2.2,0.4-3.3,0.8l-0.3,0.1l0,2.4c-0.3,0.1-0.5,0.3-0.8,0.4l-2.1-1.3l-0.3,0.2c-0.9,0.7-1.7,1.4-2.4,2.3l-0.2,0.3
						l1.2,2.1c-0.1,0.2-0.3,0.4-0.4,0.7c0,0,0,0,0,0.1l-2.5-0.1l-0.1,0.3c-0.4,1-0.8,2.1-1,3.2l-0.1,0.3l2.2,1.2c0,0.2,0,0.5,0,0.7
						c0,0.1,0,0.1,0,0.2l-2.2,1.1l0,0.3c0.1,1.1,0.4,2.2,0.8,3.2l0.1,0.3l2.5,0c0.1,0.2,0.3,0.5,0.4,0.7l-1.3,2.1l0.2,0.3
						c0.7,0.9,1.5,1.7,2.3,2.4l0.3,0.2l2.2-1.2c0.2,0.1,0.4,0.3,0.7,0.4l0,0c0,0,0,0,0.1,0l-0.1,2.4l0.3,0.1c1,0.4,2.1,0.8,3.2,0.9
						l0.3,0.1l1.3-2.1c0.2,0,0.5,0,0.7,0h0.2l1.2,2.1l0.3,0c1.1-0.1,2.2-0.4,3.3-0.8l0.3-0.1l0-2.4c0.3-0.1,0.5-0.3,0.8-0.4l1.8,1.1
						l0.3,0.2l0.3-0.2c0.9-0.7,1.7-1.4,2.4-2.3l0.2-0.3l-1.2-2.1c0.1-0.2,0.3-0.4,0.4-0.6l0,0v0v0l0,0c0,0,0,0,0-0.1l2.5,0.1
						l0.1-0.3c0.4-1,0.8-2.1,1-3.2l0.1-0.3l-2.2-1.2C288.7,203.8,288.8,203.6,288.8,203.4z M289.1,208.1l-2.4-0.1l-0.1,0.3
						c-0.1,0.1-0.1,0.2-0.2,0.3v0v0c-0.2,0.3-0.4,0.6-0.5,0.9l-0.2,0.3l1.2,2c-0.5,0.6-1.1,1.2-1.8,1.7l-2-1.3l-0.3,0.2
						c-0.4,0.2-0.8,0.5-1.2,0.7l-0.3,0.1l0,2.3c-0.8,0.3-1.6,0.5-2.4,0.6l-1.1-2.1l-0.3,0c-0.1,0-0.3,0-0.4,0c-0.3,0-0.6,0-1,0
						l-0.3,0l-1.2,2c-0.8-0.2-1.6-0.4-2.4-0.7l0.1-2.4l-0.3-0.1c-0.1-0.1-0.2-0.1-0.3-0.2l0,0c-0.3-0.2-0.6-0.4-0.9-0.5l-0.3-0.2
						l-2.1,1.2c-0.6-0.5-1.2-1.1-1.7-1.7l1.3-2l-0.2-0.3c-0.2-0.4-0.5-0.8-0.7-1.2l-0.1-0.3l-2.4,0c-0.3-0.8-0.5-1.5-0.6-2.3
						l2.1-1.1l0-0.3c0-0.1,0-0.3,0-0.4c0-0.3,0-0.6,0-0.9l0-0.3l-2.1-1.2c0.2-0.8,0.4-1.6,0.7-2.3l2.4,0.1l0.1-0.3
						c0.1-0.1,0.1-0.2,0.2-0.3l0,0c0.2-0.3,0.4-0.6,0.6-0.9l0.2-0.3l-1.2-2c0.5-0.6,1.1-1.2,1.8-1.7l2,1.3l0.3-0.2
						c0.4-0.2,0.8-0.5,1.2-0.6l0.3-0.1l0-2.4c0.8-0.3,1.6-0.5,2.4-0.6l1.1,2.1l0.3,0c0.2,0,0.3,0,0.5,0c0.3,0,0.6,0,0.9,0l0.3,0
						l1.2-2c0.8,0.2,1.6,0.4,2.4,0.7l-0.1,2.3l0.3,0.1c0.1,0.1,0.2,0.1,0.3,0.2l0,0c0.3,0.2,0.6,0.3,0.9,0.5l0.3,0.2l2.1-1.2
						c0.6,0.5,1.2,1.1,1.7,1.7l-1.3,2l0.2,0.3c0.2,0.4,0.5,0.8,0.7,1.2l0.1,0.3l2.4,0c0.3,0.8,0.5,1.5,0.6,2.3l-2.1,1.1l0,0.3
						c0,0.1,0,0.3,0,0.4c0,0.3,0,0.6,0,0.9l0,0.3l2.1,1.2C289.6,206.6,289.4,207.3,289.1,208.1L289.1,208.1z"/>
				</g>
				<path id="Path_12350" d="M275.2,208.9c3.1,1,6.4-0.8,7.4-3.8c0.9-3-0.8-6.3-3.8-7.2c0,0-0.1,0-0.1,0c-3.1-0.9-6.4,0.8-7.4,3.8
					c-0.9,3,0.8,6.3,3.8,7.2C275.1,208.9,275.1,208.9,275.2,208.9"/>
				<g id="Group_5588">
					
						<linearGradient id="Path_12351_1_" gradientUnits="userSpaceOnUse" x1="15411.376" y1="221.191" x2="15412.4541" y2="221.191" gradientTransform="matrix(1.199341e-02 0 0 -1 90.1826 430.565)">
						<stop  offset="0" style="stop-color:#F0047F"/>
						<stop  offset="1" style="stop-color:#13017C"/>
					</linearGradient>
					<path id="Path_12351" class="st16" d="M275,209.4L275,209.4L275,209.4L275,209.4z"/>
					
						<linearGradient id="Path_12352_1_" gradientUnits="userSpaceOnUse" x1="0.6104" y1="390.976" x2="1.6884" y2="390.976" gradientTransform="matrix(12.871 0 0 -12.5723 262.1136 5118.8159)">
						<stop  offset="0" style="stop-color:#F0047F"/>
						<stop  offset="1" style="stop-color:#13017C"/>
					</linearGradient>
					<path id="Path_12352" class="st17" d="M278.8,197.4c-0.6-0.2-1.2-0.3-1.9-0.3c-2.8,0-5.3,1.8-6.1,4.4c-0.2,0.6-0.3,1.2-0.3,1.8
						c0,2.8,1.9,5.2,4.6,6c0.6,0.2,1.2,0.3,1.9,0.3c2.8,0,5.3-1.8,6.1-4.4c0.2-0.6,0.3-1.2,0.3-1.8
						C283.3,200.6,281.5,198.1,278.8,197.4z M282.1,204.9c-0.7,2.2-2.8,3.8-5.2,3.7c-0.5,0-1.1-0.1-1.6-0.2l-0.1,0.5l0.1-0.5
						c-2.3-0.6-3.8-2.7-3.8-5.1c0-0.5,0.1-1,0.2-1.5c0.7-2.2,2.8-3.8,5.2-3.7c0.5,0,1.1,0.1,1.6,0.2c2.3,0.6,3.8,2.7,3.8,5.1
						C282.3,203.9,282.3,204.4,282.1,204.9L282.1,204.9z"/>
				</g>
				<path id="Path_12353" class="st1" d="M277.7,200.9c-1.4-0.4-2.8,0.3-3.2,1.7c-0.4,1.3,0.3,2.8,1.7,3.2c0,0,0,0,0,0
					c1.4,0.4,2.8-0.3,3.2-1.7C279.8,202.8,279,201.4,277.7,200.9C277.7,200.9,277.7,200.9,277.7,200.9z"/>
			</g>
		</g>
	</g>
	<g id="Group_5591">
		
			<linearGradient id="Path_12355_1_" gradientUnits="userSpaceOnUse" x1="-11.9033" y1="404.8703" x2="-11.9033" y2="403.8593" gradientTransform="matrix(140.08 0 0 -140.08 1908.7318 56793.4258)">
			<stop  offset="0" style="stop-color:#F0047F"/>
			<stop  offset="1" style="stop-color:#13017C"/>
		</linearGradient>
		<path id="Path_12355" class="st18" d="M241.3,216.8v-2.5c35.9,0,65-29.1,65-65c0-35.9-29.1-65-65-65s-65,29.1-65,65
			c0,35.9,29.1,65,65,65v5c-38.7,0-70-31.4-70-70s31.4-70,70-70s70,31.4,70,70c0,38.7-31.4,70-70,70V216.8z"/>
	</g>
</g>
</svg>
