<svg xmlns="http://www.w3.org/2000/svg" xmlns:xlink="http://www.w3.org/1999/xlink" width="724.962" height="572.023" viewBox="0 0 724.962 572.023">
  <defs>
    <clipPath id="clip-path">
      <rect id="Rectangle_2042" data-name="Rectangle 2042" width="92.135" height="92.135" fill="none"/>
    </clipPath>
    <linearGradient id="linear-gradient" x1="0.5" x2="0.5" y2="1.011" gradientUnits="objectBoundingBox">
      <stop offset="0" stop-color="#f0047f"/>
      <stop offset="1" stop-color="#13007c"/>
    </linearGradient>
    <clipPath id="clip-path-2">
      <rect id="Rectangle_2043" data-name="Rectangle 2043" width="92.235" height="92.235" fill="none"/>
    </clipPath>
    <clipPath id="clip-path-3">
      <path id="Path_13630" data-name="Path 13630" d="M671.3,492.4a44.879,44.879,0,1,0,44.879-44.88A44.879,44.879,0,0,0,671.3,492.4" transform="translate(-671.3 -447.516)" fill="none"/>
    </clipPath>
    <linearGradient id="linear-gradient-2" x1="0.5" y1="0" x2="0.5" y2="1" xlink:href="#linear-gradient"/>
    <clipPath id="clip-path-4">
      <path id="Path_13632" data-name="Path 13632" d="M702.138,508.447s-3.114,0-3.114,2.755V527.9a44.462,44.462,0,0,0,27.283.17V514.722l-7.107-6.275Z" transform="translate(-699.024 -508.447)" fill="none"/>
    </clipPath>
    <linearGradient id="linear-gradient-3" x1="0" y1="0.5" x2="1" y2="0.5" xlink:href="#linear-gradient"/>
    <clipPath id="clip-path-5">
      <path id="Path_13638" data-name="Path 13638" d="M671.905,492.93a44.2,44.2,0,1,0,44.2-44.2,44.2,44.2,0,0,0-44.2,44.2" transform="translate(-671.905 -448.725)" fill="none"/>
    </clipPath>
    <linearGradient id="linear-gradient-5" x1="0" y1="0.5" x2="1" y2="0.5" xlink:href="#linear-gradient"/>
    <linearGradient id="linear-gradient-6" x1="0" y1="0.5" x2="1" y2="0.5" xlink:href="#linear-gradient"/>
    <linearGradient id="linear-gradient-7" x1="0" y1="0.5" x2="1" y2="0.5" xlink:href="#linear-gradient"/>
    <clipPath id="clip-path-6">
      <path id="Path_13670" data-name="Path 13670" d="M641.664,719.569a44.581,44.581,0,1,0,44.581-44.58,44.582,44.582,0,0,0-44.581,44.58" transform="translate(-641.664 -674.989)" fill="none"/>
    </clipPath>
    <linearGradient id="linear-gradient-9" x1="-0.028" y1="0.498" x2="0.585" y2="0.498" xlink:href="#linear-gradient"/>
    <linearGradient id="linear-gradient-10" x1="-0.037" y1="0.414" x2="1.088" y2="0.414" xlink:href="#linear-gradient"/>
    <linearGradient id="linear-gradient-11" x1="-0.021" y1="0.5" x2="1.019" y2="0.5" xlink:href="#linear-gradient"/>
    <linearGradient id="linear-gradient-12" x1="-0.019" y1="0.5" x2="1.019" y2="0.5" xlink:href="#linear-gradient"/>
    <linearGradient id="linear-gradient-13" x1="-0.008" y1="0.5" x2="1.007" y2="0.5" xlink:href="#linear-gradient"/>
    <linearGradient id="linear-gradient-15" x1="-0.028" y1="0.5" x2="1.028" y2="0.5" xlink:href="#linear-gradient"/>
    <linearGradient id="linear-gradient-16" x1="-0.028" y1="0.5" x2="1.028" y2="0.5" xlink:href="#linear-gradient"/>
    <linearGradient id="linear-gradient-18" x1="-0.006" y1="0.5" x2="1.007" y2="0.5" xlink:href="#linear-gradient"/>
    <linearGradient id="linear-gradient-19" x1="-0.028" y1="0.5" x2="1.028" y2="0.5" xlink:href="#linear-gradient"/>
    <linearGradient id="linear-gradient-20" x1="-0.004" y1="0.487" x2="0.997" y2="0.487" xlink:href="#linear-gradient"/>
    <linearGradient id="linear-gradient-21" x1="-0.018" y1="0.5" x2="1.018" y2="0.5" xlink:href="#linear-gradient"/>
    <linearGradient id="linear-gradient-22" x1="-0.041" y1="0.497" x2="1.042" y2="0.497" xlink:href="#linear-gradient"/>
    <linearGradient id="linear-gradient-23" x1="-0.039" y1="0.5" x2="1.039" y2="0.5" xlink:href="#linear-gradient"/>
    <clipPath id="clip-path-8">
      <path id="Path_13674" data-name="Path 13674" d="M323.923,718.5a43.436,43.436,0,1,0,43.437-43.438A43.437,43.437,0,0,0,323.923,718.5" transform="translate(-323.923 -675.057)" fill="none"/>
    </clipPath>
    <linearGradient id="linear-gradient-26" x1="0.5" y1="0" x2="0.5" y2="1.011" xlink:href="#linear-gradient"/>
    <clipPath id="clip-path-10">
      <rect id="Rectangle_2049" data-name="Rectangle 2049" width="99.473" height="99.473" fill="none"/>
    </clipPath>
    <clipPath id="clip-path-12">
      <path id="Path_13693" data-name="Path 13693" d="M506.8,429.828a43.878,43.878,0,1,0,43.878-43.88,43.879,43.879,0,0,0-43.878,43.88" transform="translate(-506.802 -385.948)" fill="none"/>
    </clipPath>
    <linearGradient id="linear-gradient-38" x1="0" y1="0.5" x2="1" y2="0.5" xlink:href="#linear-gradient"/>
  </defs>
  <g id="Group_6827" data-name="Group 6827" transform="translate(-210.215 -382.803)">
    <g id="Group_6765" data-name="Group 6765" transform="translate(210.215 398.57)">
      <g id="Group_6764" data-name="Group 6764">
        <path id="Path_13609" data-name="Path 13609" d="M845.8,605.592c42.722-51.732,65.668-80.159,42.492-142.74-1.268-3.416-2.653-6.932-4.209-10.548-29.923-70.064-318.545-63.133-270.692-36.514,33.094,18.383,17.873,26.921-25.714,27.776-19.43.451-44.568-.7-73.511-3.114-157.63-13.21-165.586,24.911-84.753,55.75,80.833,30.788-21.1,88.748-89.769,108.788a298.022,298.022,0,0,0-33.036,11.653c-55.753,23.706-84.58,58.864-93.4,95.328-19.2,79.356,56.5,164.84,156.3,150.877,45.72-6.429,128.283-5.876,202.311,10.2,45.779,10,88.328,25.917,116.868,49.825,59.9,50.074,131.742,29.934,147.655-1.91a27.685,27.685,0,0,0,.461-25.011c-19.142-40.582,14.644-67.956,54.6-71.321,39.956-3.415,64.862-67.5,19.372-107.081C865.288,677.917,800.772,660.087,845.8,605.592Z" transform="translate(-210.215 -396.915)" fill="#e6e6e6"/>
        <path id="Path_13610" data-name="Path 13610" d="M807.528,599.074c42.722-51.732,65.668-80.159,42.492-142.74a299.756,299.756,0,0,0-48.373-3.867c-146.444,0-265.214,103.414-265.214,231.037,0,126.518,116.867,229.279,261.64,230.936a27.685,27.685,0,0,0,.462-25.011c-19.142-40.582,14.644-67.956,54.6-71.321,39.956-3.415,64.862-67.5,19.372-107.081C827.015,671.4,762.5,653.57,807.528,599.074Z" transform="translate(-171.943 -390.397)" fill="#b3b3b3" opacity="0.7" style="mix-blend-mode: overlay;isolation: isolate"/>
        <path id="Path_13611" data-name="Path 13611" d="M571.88,838.812c0-107.734-100.263-195.076-223.933-195.076-50.621,0-97.265,14.615-134.741,39.276-19.2,79.356,56.5,164.84,156.3,150.877,45.72-6.429,128.283-5.876,202.311,10.2C571.88,842.327,571.88,840.569,571.88,838.812Z" transform="translate(-210.215 -367.957)" fill="#e6e6e6"/>
        <path id="Path_13612" data-name="Path 13612" d="M603.27,518.18c0-28.93-9.4-56-25.714-78.9-19.43.451-44.568-.7-73.511-3.114-157.63-13.21-165.586,24.911-84.753,55.75,80.833,30.788-21.1,88.748-89.769,108.788a298.049,298.049,0,0,0-33.036,11.653c31.595,34.2,80.025,56.052,134.336,56.052C526.07,668.4,603.27,601.152,603.27,518.18Z" transform="translate(-200.094 -392.626)" fill="#e6e6e6"/>
      </g>
    </g>
    <g id="Group_6826" data-name="Group 6826" transform="translate(333.911 382.803)">
      <g id="Group_6766" data-name="Group 6766" transform="translate(322.592 110.014)">
        <path id="Path_13613" data-name="Path 13613" d="M613.05,832.02h54.328a28.644,28.644,0,0,0,28.608-28.609V509.873a21.816,21.816,0,0,1,21.795-21.79h39.444a3.409,3.409,0,1,0,0-6.818H717.78a28.642,28.642,0,0,0-28.611,28.608V803.411A21.814,21.814,0,0,1,667.378,825.2H613.05a3.409,3.409,0,1,0,0,6.818Z" transform="translate(-609.641 -481.265)" fill="#f0047f"/>
      </g>
      <g id="Group_6767" data-name="Group 6767" transform="translate(118.97 430.082)">
        <path id="Path_13614" data-name="Path 13614" d="M454.532,833.9l178.294-18.2a8.932,8.932,0,0,0,8.932-8.932l18.3-16.4c0-4.933-22.3-22.643-27.236-22.643H436.332a8.932,8.932,0,0,0-8.932,8.932v30.112C427.4,811.7,449.6,833.9,454.532,833.9Z" transform="translate(-427.4 -767.725)" fill="#333"/>
        <path id="Rectangle_2033" data-name="Rectangle 2033" d="M14.157,0H200.2a14.158,14.158,0,0,1,14.158,14.158v19.66A14.158,14.158,0,0,1,200.2,47.975H14.157A14.157,14.157,0,0,1,0,33.817V14.157A14.157,14.157,0,0,1,14.157,0Z" transform="translate(234.089 66.499) rotate(-180)" fill="#fdeded"/>
        <rect id="Rectangle_2034" data-name="Rectangle 2034" width="198.768" height="39.739" rx="15.785" transform="translate(226.294 62.381) rotate(-180)" fill="#fff"/>
        <circle id="Ellipse_414" data-name="Ellipse 414" cx="7.893" cy="7.893" r="7.893" transform="matrix(0.383, -0.924, 0.924, 0.383, 196.722, 46.783)" fill="#f0047f"/>
        <circle id="Ellipse_415" data-name="Ellipse 415" cx="7.893" cy="7.893" r="7.893" transform="translate(171.503 46.783) rotate(-67.5)" fill="#4d4d4d"/>
        <rect id="Rectangle_2035" data-name="Rectangle 2035" width="96.079" height="10.927" rx="4.89" transform="translate(132.374 47.975) rotate(180)" fill="#333"/>
      </g>
      <g id="Group_6768" data-name="Group 6768" transform="translate(118.97 369.986)">
        <path id="Path_13615" data-name="Path 13615" d="M454.532,780.114l178.294-18.2a8.932,8.932,0,0,0,8.932-8.932l18.3-16.4c0-4.933-22.3-22.643-27.236-22.643H436.332a8.932,8.932,0,0,0-8.932,8.932v30.112C427.4,757.916,449.6,780.114,454.532,780.114Z" transform="translate(-427.4 -713.939)" fill="#333"/>
        <path id="Rectangle_2036" data-name="Rectangle 2036" d="M14.158,0H200.2a14.158,14.158,0,0,1,14.158,14.158v19.66A14.157,14.157,0,0,1,200.2,47.975H14.157A14.157,14.157,0,0,1,0,33.817V14.158A14.158,14.158,0,0,1,14.158,0Z" transform="translate(234.089 66.499) rotate(-180)" fill="#fdeded"/>
        <rect id="Rectangle_2037" data-name="Rectangle 2037" width="198.768" height="39.739" rx="15.785" transform="translate(226.294 62.381) rotate(-180)" fill="#fff"/>
        <circle id="Ellipse_416" data-name="Ellipse 416" cx="7.893" cy="7.893" r="7.893" transform="translate(199.141 34.619)" fill="#f0047f"/>
        <circle id="Ellipse_417" data-name="Ellipse 417" cx="7.893" cy="7.893" r="7.893" transform="translate(173.923 34.619)" fill="#4d4d4d"/>
        <path id="Path_13616" data-name="Path 13616" d="M465.348,758.025H550.5a5.464,5.464,0,0,0,5.464-5.464h0A5.463,5.463,0,0,0,550.5,747.1H465.348a5.463,5.463,0,0,0-5.464,5.464h0A5.464,5.464,0,0,0,465.348,758.025Z" transform="translate(-423.589 -710.049)" fill="#333"/>
      </g>
      <g id="Group_6769" data-name="Group 6769" transform="translate(118.97 309.89)">
        <path id="Path_13617" data-name="Path 13617" d="M454.532,726.328l178.294-18.2a8.932,8.932,0,0,0,8.932-8.932l18.3-16.4c0-4.933-22.3-22.643-27.236-22.643H436.332a8.932,8.932,0,0,0-8.932,8.932V699.2C427.4,704.13,449.6,726.328,454.532,726.328Z" transform="translate(-427.4 -660.153)" fill="#333"/>
        <path id="Rectangle_2038" data-name="Rectangle 2038" d="M14.157,0H200.2a14.158,14.158,0,0,1,14.158,14.158v19.66A14.158,14.158,0,0,1,200.2,47.975H14.157A14.157,14.157,0,0,1,0,33.817V14.157A14.157,14.157,0,0,1,14.157,0Z" transform="translate(234.089 66.499) rotate(-180)" fill="#fdeded"/>
        <path id="Rectangle_2039" data-name="Rectangle 2039" d="M15.785,0h167.2a15.785,15.785,0,0,1,15.785,15.785v8.17a15.784,15.784,0,0,1-15.784,15.784H15.785A15.785,15.785,0,0,1,0,23.954v-8.17A15.785,15.785,0,0,1,15.785,0Z" transform="translate(226.294 62.381) rotate(-180)" fill="#fff"/>
        <circle id="Ellipse_418" data-name="Ellipse 418" cx="7.893" cy="7.893" r="7.893" transform="translate(199.141 34.619)" fill="#f0047f"/>
        <circle id="Ellipse_419" data-name="Ellipse 419" cx="7.893" cy="7.893" r="7.893" transform="translate(173.923 34.619)" fill="#333"/>
        <path id="Path_13618" data-name="Path 13618" d="M465.348,704.238H550.5a5.464,5.464,0,0,0,5.464-5.464h0a5.463,5.463,0,0,0-5.464-5.464H465.348a5.463,5.463,0,0,0-5.464,5.464h0A5.464,5.464,0,0,0,465.348,704.238Z" transform="translate(-423.589 -656.263)" fill="#333"/>
      </g>
      <g id="Group_6770" data-name="Group 6770" transform="translate(118.97 249.793)">
        <path id="Path_13619" data-name="Path 13619" d="M454.532,672.542l178.294-18.2a8.932,8.932,0,0,0,8.932-8.932l18.3-16.4c0-4.933-22.3-22.643-27.236-22.643H436.332A8.932,8.932,0,0,0,427.4,615.3v30.112C427.4,650.344,449.6,672.542,454.532,672.542Z" transform="translate(-427.4 -606.367)" fill="#333"/>
        <path id="Rectangle_2040" data-name="Rectangle 2040" d="M14.158,0H200.2a14.158,14.158,0,0,1,14.158,14.158v19.66A14.157,14.157,0,0,1,200.2,47.975H14.157A14.157,14.157,0,0,1,0,33.817V14.158A14.158,14.158,0,0,1,14.158,0Z" transform="translate(234.089 66.499) rotate(-180)" fill="#fdeded"/>
        <rect id="Rectangle_2041" data-name="Rectangle 2041" width="198.768" height="39.739" rx="15.785" transform="translate(226.294 62.381) rotate(-180)" fill="#fff"/>
        <circle id="Ellipse_420" data-name="Ellipse 420" cx="7.893" cy="7.893" r="7.893" transform="translate(199.141 34.619)" fill="#f0047f"/>
        <circle id="Ellipse_421" data-name="Ellipse 421" cx="7.893" cy="7.893" r="7.893" transform="translate(173.923 34.619)" fill="#333"/>
        <path id="Path_13620" data-name="Path 13620" d="M465.348,650.452H550.5a5.464,5.464,0,0,0,5.464-5.464h0a5.463,5.463,0,0,0-5.464-5.464H465.348a5.463,5.463,0,0,0-5.464,5.464h0A5.464,5.464,0,0,0,465.348,650.452Z" transform="translate(-423.589 -602.477)" fill="#333"/>
      </g>
      <g id="Group_6771" data-name="Group 6771" transform="translate(43.531 273.165)">
        <path id="Path_13621" data-name="Path 13621" d="M378.465,822.231H442.4a3.408,3.408,0,1,0,0-6.817H378.465A11.781,11.781,0,0,1,366.7,803.65V645.867A11.78,11.78,0,0,1,378.465,634.1H442.4a3.409,3.409,0,0,0,0-6.818H378.465a18.6,18.6,0,0,0-18.582,18.582V803.65A18.6,18.6,0,0,0,378.465,822.231Z" transform="translate(-359.883 -627.285)" fill="#f0047f"/>
      </g>
      <g id="Group_6772" data-name="Group 6772" transform="translate(247.934 9.499)">
        <path id="Path_13622" data-name="Path 13622" d="M546.232,643.161a3.407,3.407,0,0,0,3.409-3.409V394.714a3.409,3.409,0,1,0-6.818,0V639.752A3.408,3.408,0,0,0,546.232,643.161Z" transform="translate(-542.823 -391.305)" fill="#f0047f"/>
      </g>
      <g id="Group_6774" data-name="Group 6774" transform="translate(357.853 324.571)">
        <g id="Group_6773" data-name="Group 6773" clip-path="url(#clip-path)">
          <path id="Path_13623" data-name="Path 13623" d="M687.133,764.016a44.789,44.789,0,1,0-44.789-44.79,44.789,44.789,0,0,0,44.789,44.79" transform="translate(-641.066 -673.159)" fill="#fff"/>
        </g>
      </g>
      <g id="Group_6775" data-name="Group 6775" transform="translate(449.439 110.014)">
        <path id="Path_13624" data-name="Path 13624" d="M751.777,509.876a28.642,28.642,0,0,0-28.608-28.611" transform="translate(-723.169 -481.265)" fill="#f0047f"/>
        <path id="Path_13625" data-name="Path 13625" d="M745.722,596.225" transform="translate(-720.523 -467.778)" fill="#f0047f"/>
        <path id="Path_13626" data-name="Path 13626" d="M723.169,487.367A21.816,21.816,0,0,1,744.96,509.16" transform="translate(-723.169 -480.549)" fill="#f0047f"/>
      </g>
      <g id="Group_6792" data-name="Group 6792" transform="translate(388.415 68.883)">
        <g id="Group_6776" data-name="Group 6776">
          <path id="Path_13627" data-name="Path 13627" d="M716.5,538.639v-1.712A44.526,44.526,0,1,0,671.977,492.4,44.584,44.584,0,0,0,716.5,536.927v3.424A47.949,47.949,0,1,1,764.45,492.4a47.95,47.95,0,0,1-47.948,47.95Z" transform="translate(-668.553 -444.453)" fill="url(#linear-gradient)"/>
        </g>
        <g id="Group_6778" data-name="Group 6778" transform="translate(1.831 2.86)">
          <g id="Group_6777" data-name="Group 6777" clip-path="url(#clip-path-2)">
            <path id="Path_13628" data-name="Path 13628" d="M716.108,537.132a44.2,44.2,0,1,0-44.2-44.2,44.2,44.2,0,0,0,44.2,44.2" transform="translate(-669.99 -446.812)" fill="#fff"/>
          </g>
        </g>
        <g id="Group_6781" data-name="Group 6781" transform="translate(3.069 3.422)">
          <g id="Group_6780" data-name="Group 6780" clip-path="url(#clip-path-3)">
            <g id="Group_6779" data-name="Group 6779" transform="translate(11.011 20.758)">
              <path id="Path_13629" data-name="Path 13629" d="M735.959,517.569v-1.15l-.008,1.15-6.154-.04.016-2.3,6.149.04a12.148,12.148,0,0,0,2.1-24.12l-1.9-.33,1.2-1.516a7.376,7.376,0,0,0,1.6-4.609,7.486,7.486,0,0,0-12.625-5.427l-1.228,1.155-.628-1.564a16.684,16.684,0,0,0-32.165,6.177c0,.43.028.858.07,1.368l.065.787-.711.343a14.586,14.586,0,0,0,6.363,27.736v2.3a16.941,16.941,0,0,1-16.941-16.9,16.764,16.764,0,0,1,8.876-14.847c-.015-.257-.022-.52-.022-.784a18.986,18.986,0,0,1,35.976-8.429,9.786,9.786,0,0,1,15.27,8.088,9.636,9.636,0,0,1-1.142,4.577,14.448,14.448,0,0,1-4.154,28.3Z" transform="translate(-681.155 -466.094)" fill="url(#linear-gradient-2)"/>
            </g>
          </g>
        </g>
        <g id="Group_6784" data-name="Group 6784" transform="translate(34.046 71.502)">
          <g id="Group_6783" data-name="Group 6783" clip-path="url(#clip-path-4)">
            <g id="Group_6782" data-name="Group 6782" transform="translate(21.788 -33.16)">
              <path id="Path_13631" data-name="Path 13631" d="M746.694,521.032h-23.9a4.118,4.118,0,0,1-4.27-4.271V483.039a4.117,4.117,0,0,1,4.27-4.27h23.9a4.117,4.117,0,0,1,4.27,4.27V516.76A4.118,4.118,0,0,1,746.694,521.032ZM722.8,480.24a2.7,2.7,0,0,0-2.8,2.8V516.76a2.694,2.694,0,0,0,2.8,2.8h23.9a2.694,2.694,0,0,0,2.8-2.8V483.039a2.694,2.694,0,0,0-2.8-2.8Z" transform="translate(-718.524 -478.769)" fill="url(#linear-gradient-3)"/>
            </g>
          </g>
        </g>
        <g id="Group_6791" data-name="Group 6791" transform="translate(3.745 4.773)">
          <g id="Group_6790" data-name="Group 6790" clip-path="url(#clip-path-5)">
            <g id="Group_6785" data-name="Group 6785" transform="translate(29.274 65.702)">
              <path id="Path_13633" data-name="Path 13633" d="M723.3,541.386H702.246a3.84,3.84,0,0,1-4.141-3.783V511.311a3.884,3.884,0,0,1,4.141-3.783H719.7l7.746,6.839V537.6A3.884,3.884,0,0,1,723.3,541.386Zm-21.05-31.8c-.355,0-2.092.111-2.092,1.73V537.6c.009.4.189,1.73,2.087,1.73H723.3c.343,0,2.087-.106,2.087-1.73v-22.31l-6.469-5.712Z" transform="translate(-698.105 -507.528)" fill="url(#linear-gradient-2)"/>
            </g>
            <g id="Group_6786" data-name="Group 6786" transform="translate(40.148 71.824)">
              <path id="Path_13634" data-name="Path 13634" d="M715.087,519.925h-7.25v-6.918h7.25Zm-5.483-1.768h3.715v-3.383H709.6Z" transform="translate(-707.837 -513.007)" fill="url(#linear-gradient-5)"/>
            </g>
            <g id="Group_6787" data-name="Group 6787" transform="translate(34.392 82.473)">
              <path id="Path_13635" data-name="Path 13635" d="M721.126,524.6H703.717a1.031,1.031,0,1,1,0-2.061h17.409a1.031,1.031,0,1,1,0,2.061Z" transform="translate(-702.686 -522.538)" fill="url(#linear-gradient-6)"/>
            </g>
            <g id="Group_6788" data-name="Group 6788" transform="translate(34.392 86.571)">
              <path id="Path_13636" data-name="Path 13636" d="M721.126,528.267H703.717a1.031,1.031,0,1,1,0-2.061h17.409a1.031,1.031,0,1,1,0,2.061Z" transform="translate(-702.686 -526.206)" fill="url(#linear-gradient-7)"/>
            </g>
            <g id="Group_6789" data-name="Group 6789" transform="translate(30.775 33.271)">
              <path id="Path_13637" data-name="Path 13637" d="M717.9,506.775H707.431V491.67h-7.982L712.616,478.5l13.167,13.168H717.9Zm-8.2-2.267h5.935v-15.1l4.682-.006-7.7-7.7-7.7,7.7,4.777.006Z" transform="translate(-699.449 -478.502)" fill="url(#linear-gradient-2)"/>
            </g>
          </g>
        </g>
      </g>
      <g id="Group_6800" data-name="Group 6800" transform="translate(356.392 324.816)">
        <g id="Group_6798" data-name="Group 6798" transform="translate(1.98 1.65)">
          <g id="Group_6797" data-name="Group 6797" clip-path="url(#clip-path-6)">
            <path id="Path_13639" data-name="Path 13639" d="M710.629,708.349l-23.443-5.566-16.33-2.148L670.6,702.6l16.18,2.123L709.007,710l4.867,19.027v28.909l-49.033,1.492-1.136-7.281,16.443-7.667-4.723-10.4-14.934,4.558-4.519-3.78,2.182-21.624-1.97-.2L653.9,735.7l6.148,5.141,14.3-4.363,3.194,7.034-16.016,7.468,1.635,10.48,52.7-1.6V728.9Z" transform="translate(-640.229 -671.98)" fill="#13007c"/>
            <path id="Path_13640" data-name="Path 13640" d="M697.531,711.85a7.858,7.858,0,0,0-9.372,5.815,7.664,7.664,0,0,0,5.962,9.143,7.857,7.857,0,0,0,9.371-5.816,7.659,7.659,0,0,0-5.961-9.142" transform="translate(-636.231 -670.686)" fill="#fff"/>
            <g id="Group_6793" data-name="Group 6793" transform="translate(51.078 40.317)">
              <path id="Path_13641" data-name="Path 13641" d="M702.438,720.143h0Z" transform="translate(-685.612 -710.009)" fill="url(#linear-gradient-9)"/>
              <path id="Path_13642" data-name="Path 13642" d="M693.35,725.795h0Z" transform="translate(-686.679 -709.346)" fill="url(#linear-gradient-10)"/>
              <path id="Path_13643" data-name="Path 13643" d="M696.652,711.252h0l.011,0Z" transform="translate(-686.291 -711.052)" fill="url(#linear-gradient-11)"/>
              <path id="Path_13644" data-name="Path 13644" d="M697.74,711.273h0a8.774,8.774,0,0,0-1.854-.2,8.479,8.479,0,0,0-8.3,6.513h0a8.172,8.172,0,0,0-.206,1.816,8.372,8.372,0,0,0,6.672,8.121,8.771,8.771,0,0,0,1.854.2,8.479,8.479,0,0,0,8.3-6.515,8.2,8.2,0,0,0,.206-1.819A8.368,8.368,0,0,0,697.74,711.273Zm5.178,9.64h0A7.158,7.158,0,0,1,695.9,726.4a7.4,7.4,0,0,1-1.574-.17h0a7.053,7.053,0,0,1-5.631-6.83,6.791,6.791,0,0,1,.173-1.522,7.159,7.159,0,0,1,7.015-5.486,7.394,7.394,0,0,1,1.573.17l-.01,0,.01,0a7.049,7.049,0,0,1,5.631,6.825A6.831,6.831,0,0,1,702.918,720.913Z" transform="translate(-687.379 -711.073)" fill="url(#linear-gradient-12)"/>
            </g>
            <path id="Path_13645" data-name="Path 13645" d="M693.468,732.249a12.1,12.1,0,0,1-8.1-15.224,12.491,12.491,0,0,1,15.583-7.917,12.1,12.1,0,0,1,8.1,15.224,12.491,12.491,0,0,1-15.581,7.917m20.679.552a20.074,20.074,0,0,0,2.466-4.3l-2.75-2.537c.17-.514.318-1.037.439-1.572.045-.183.077-.368.114-.553l3.663-.943a19.782,19.782,0,0,0-.051-4.921l-3.689-.858a16.281,16.281,0,0,0-.606-2.113l2.686-2.6a20.683,20.683,0,0,0-2.568-4.236l-3.631,1.058a17.373,17.373,0,0,0-1.6-1.536l1-3.564a21.012,21.012,0,0,0-4.394-2.412l-2.6,2.688c-.524-.166-1.057-.309-1.607-.43-.191-.041-.38-.074-.568-.108l-.962-3.581a21.462,21.462,0,0,0-5.041.051l-.876,3.6a17.307,17.307,0,0,0-2.162.593l-2.665-2.627a21.118,21.118,0,0,0-4.334,2.514l1.085,3.545a17.053,17.053,0,0,0-1.574,1.564l-3.65-.974a20.194,20.194,0,0,0-2.465,4.3l2.751,2.537c-.17.514-.321,1.037-.442,1.571-.041.185-.076.368-.11.554l-3.666.942a20.067,20.067,0,0,0,.054,4.922l3.688.857a16.774,16.774,0,0,0,.607,2.113l-2.687,2.6a20.378,20.378,0,0,0,2.57,4.237l3.629-1.059a16.828,16.828,0,0,0,1.6,1.539l-1,3.565a20.911,20.911,0,0,0,4.393,2.408l2.6-2.686c.523.165,1.06.312,1.608.431.188.042.377.073.564.106l.962,3.583a21.458,21.458,0,0,0,5.041-.05l.878-3.6a18.587,18.587,0,0,0,2.163-.593l2.663,2.626a21.322,21.322,0,0,0,4.333-2.512l-1.082-3.545a18.44,18.44,0,0,0,1.574-1.568Z" transform="translate(-637.611 -672.036)" fill="#fff"/>
            <g id="Group_6794" data-name="Group 6794" transform="translate(37.606 27.133)">
              <path id="Path_13646" data-name="Path 13646" d="M719.112,717.947l-.093-.675-3.765-.876q-.127-.506-.287-1l2.744-2.657-.286-.635a21.679,21.679,0,0,0-2.692-4.439l-.413-.527-3.705,1.08q-.375-.382-.775-.745l1.017-3.64-.563-.4a21.969,21.969,0,0,0-4.6-2.526l-.619-.249-2.658,2.75c-.354-.1-.705-.206-1.071-.286l-.977-3.64-.676-.073a22.846,22.846,0,0,0-2.417-.128,22.259,22.259,0,0,0-2.857.183l-.674.088-.894,3.677q-.54.131-1.069.294l-2.718-2.679-.612.264a22.154,22.154,0,0,0-4.537,2.632l-.554.417,1.106,3.618q-.39.367-.761.758l-3.725-.994-.4.534a21.244,21.244,0,0,0-2.586,4.507l-.27.641,2.8,2.585c-.1.334-.191.67-.27,1.017l-3.726.956-.075.679a21.451,21.451,0,0,0-.132,2.371,20.741,20.741,0,0,0,.188,2.794l.093.676,3.764.875q.129.506.287,1l-2.743,2.655.284.635a21.443,21.443,0,0,0,2.695,4.442l.413.526,3.7-1.079c.251.256.509.5.777.745l-1.017,3.642.563.4a21.983,21.983,0,0,0,4.6,2.523l.617.248,2.65-2.735c.354.1.713.194,1.081.275l.978,3.64.675.072a22.754,22.754,0,0,0,2.426.13,22.116,22.116,0,0,0,2.848-.182l.674-.087.9-3.679q.538-.132,1.068-.294l2.717,2.68.613-.266a22.282,22.282,0,0,0,4.534-2.629l.555-.417-1.1-3.62q.39-.367.761-.759l3.078.822.645.173.4-.534a21.108,21.108,0,0,0,2.587-4.508l.268-.64-2.8-2.587c.1-.333.19-.67.268-1.013l3.726-.96.077-.677a20.962,20.962,0,0,0,.135-2.373A20.71,20.71,0,0,0,719.112,717.947Zm-25.824,20.506h.007Zm23.968-16.235-3.586.924-.122.61c-.039.2-.069.37-.105.513v.008l0,.008c-.113.5-.253.992-.413,1.478l-.2.606,2.69,2.485a18.981,18.981,0,0,1-1.678,2.921l-3.57-.954-.406.456a17.621,17.621,0,0,1-1.489,1.484l-.477.421,1.058,3.469a20.318,20.318,0,0,1-2.973,1.721l-2.608-2.572-.579.2a17.62,17.62,0,0,1-2.049.562l-.609.13-.859,3.526c-.637.061-1.277.1-1.925.1-.512,0-1.028-.026-1.545-.065l-.945-3.518-.62-.109c-.2-.034-.37-.063-.518-.1h-.007c-.515-.112-1.022-.25-1.522-.408l-.583-.184-2.55,2.632a19.949,19.949,0,0,1-3.013-1.648l.976-3.492-.489-.41a15.921,15.921,0,0,1-1.508-1.448l-.416-.455-3.559,1.038a19.457,19.457,0,0,1-1.751-2.88l2.63-2.546-.216-.6a15.761,15.761,0,0,1-.571-1.989l-.134-.611-3.609-.839c-.06-.613-.1-1.231-.1-1.856,0-.489.026-.983.064-1.477l3.6-.925.111-.628c.031-.18.064-.346.1-.508.114-.5.256-.991.417-1.479l.2-.606-2.693-2.484a19.2,19.2,0,0,1,1.678-2.921l3.577.954.406-.46a16.059,16.059,0,0,1,1.484-1.474l.482-.422-1.063-3.474a20.074,20.074,0,0,1,2.972-1.721l2.614,2.576.582-.2a16.28,16.28,0,0,1,2.038-.559l.613-.126.858-3.531c.639-.061,1.283-.1,1.933-.1.509,0,1.022.027,1.537.065l.942,3.512.617.113c.192.035.37.066.534.1h0c.52.114,1.022.249,1.518.407l.586.185L705.556,703a20.019,20.019,0,0,1,3.015,1.65l-.974,3.49.486.41A16.59,16.59,0,0,1,709.595,710l.417.451,3.556-1.036a19.644,19.644,0,0,1,1.75,2.88l-2.63,2.547.217.6a15.27,15.27,0,0,1,.57,1.984l.132.615,3.612.839a18.574,18.574,0,0,1,.1,1.856C717.321,721.231,717.3,721.724,717.256,722.218Z" transform="translate(-675.321 -699.273)" fill="url(#linear-gradient-13)"/>
              <path id="Path_13647" data-name="Path 13647" d="M700.442,707.385a13.635,13.635,0,0,0-4.025-.608,13.4,13.4,0,0,0-12.792,9.167,12.836,12.836,0,0,0-.626,3.951,13.177,13.177,0,0,0,9.38,12.524,13.614,13.614,0,0,0,4.022.608,13.4,13.4,0,0,0,12.792-9.167,12.831,12.831,0,0,0,.626-3.951A13.178,13.178,0,0,0,700.442,707.385Zm6.868,15.866a11.426,11.426,0,0,1-10.908,7.8,11.678,11.678,0,0,1-3.439-.52l-.292.945.292-.945a11.2,11.2,0,0,1-7.983-10.632,10.87,10.87,0,0,1,.53-3.342,11.426,11.426,0,0,1,10.908-7.8,11.663,11.663,0,0,1,3.441.521,11.2,11.2,0,0,1,7.981,10.631A10.871,10.871,0,0,1,707.31,723.251Z" transform="translate(-674.42 -698.393)" fill="url(#linear-gradient-13)"/>
            </g>
            <path id="Path_13648" data-name="Path 13648" d="M659.307,737.291a5.121,5.121,0,1,0-5.254-5.12,5.188,5.188,0,0,0,5.254,5.12" transform="translate(-640.211 -668.881)" fill="#fff"/>
            <path id="Path_13649" data-name="Path 13649" d="M659.376,726.462a5.78,5.78,0,1,0,5.914,5.779A5.852,5.852,0,0,0,659.376,726.462Zm0,10.238a4.461,4.461,0,1,1,4.594-4.459A4.532,4.532,0,0,1,659.376,736.7Z" transform="translate(-640.28 -668.95)" fill="url(#linear-gradient-15)"/>
            <path id="Path_13650" data-name="Path 13650" d="M659,729.623a2.248,2.248,0,1,0,2.3,2.248A2.273,2.273,0,0,0,659,729.623Z" transform="translate(-639.9 -668.579)" fill="#13007c"/>
            <path id="Path_13651" data-name="Path 13651" d="M675.431,741.165a5.121,5.121,0,1,0-5.255-5.12,5.188,5.188,0,0,0,5.255,5.12" transform="translate(-638.319 -668.426)" fill="#fff"/>
            <path id="Path_13652" data-name="Path 13652" d="M675.5,730.336a5.781,5.781,0,1,0,5.914,5.779A5.854,5.854,0,0,0,675.5,730.336Zm0,10.239a4.461,4.461,0,1,1,4.593-4.46A4.534,4.534,0,0,1,675.5,740.575Z" transform="translate(-638.388 -668.496)" fill="url(#linear-gradient-16)"/>
            <path id="Path_13653" data-name="Path 13653" d="M675.12,733.5a2.249,2.249,0,1,0,2.3,2.248A2.273,2.273,0,0,0,675.12,733.5Z" transform="translate(-638.008 -668.125)" fill="#13007c"/>
            <path id="Path_13654" data-name="Path 13654" d="M662.435,755.564a5.121,5.121,0,1,0-5.255-5.12,5.188,5.188,0,0,0,5.255,5.12" transform="translate(-639.844 -666.737)" fill="#fff"/>
            <path id="Path_13655" data-name="Path 13655" d="M662.5,744.735a5.781,5.781,0,1,0,5.914,5.779A5.854,5.854,0,0,0,662.5,744.735Zm0,10.239a4.462,4.462,0,1,1,4.593-4.46A4.533,4.533,0,0,1,662.5,754.974Z" transform="translate(-639.913 -666.806)" fill="url(#linear-gradient-16)"/>
            <path id="Path_13656" data-name="Path 13656" d="M662.124,747.9a2.248,2.248,0,1,0,2.3,2.248A2.273,2.273,0,0,0,662.124,747.9Z" transform="translate(-639.533 -666.435)" fill="#13007c"/>
            <path id="Path_13657" data-name="Path 13657" d="M665.152,703.161a5.32,5.32,0,0,0-6.344,3.941,5.2,5.2,0,0,0,4.036,6.2,5.32,5.32,0,0,0,6.344-3.943A5.191,5.191,0,0,0,665.152,703.161Z" transform="translate(-639.668 -671.698)" fill="none" stroke="#3d891f" stroke-miterlimit="10" stroke-width="0.676"/>
            <path id="Path_13658" data-name="Path 13658" d="M673.96,715.858a11.549,11.549,0,0,0,1.412-2.459l-1.574-1.454c.1-.293.182-.593.251-.9.026-.105.044-.21.065-.316l2.1-.541a11.3,11.3,0,0,0-.03-2.817l-2.113-.49a9.309,9.309,0,0,0-.346-1.21l1.539-1.489a11.751,11.751,0,0,0-1.471-2.426l-2.078.606a10.06,10.06,0,0,0-.918-.879l.571-2.04a11.971,11.971,0,0,0-2.516-1.381l-1.488,1.538c-.3-.095-.606-.177-.921-.246-.108-.023-.217-.043-.324-.063l-.551-2.05a12.33,12.33,0,0,0-2.887.03l-.5,2.064a9.893,9.893,0,0,0-1.239.34l-1.526-1.5a12.067,12.067,0,0,0-2.482,1.439l.622,2.03a9.6,9.6,0,0,0-.9.9l-2.09-.558a11.546,11.546,0,0,0-1.411,2.459l1.574,1.454c-.1.294-.182.593-.253.9-.025.1-.044.21-.062.317l-2.1.539a11.528,11.528,0,0,0,.031,2.818l2.111.491a9.745,9.745,0,0,0,.349,1.21l-1.539,1.489a11.694,11.694,0,0,0,1.471,2.426l2.079-.607a9.508,9.508,0,0,0,.917.88l-.571,2.041a11.947,11.947,0,0,0,2.516,1.379l1.489-1.538c.3.094.608.178.921.247.107.023.216.041.323.06l.551,2.052a12.45,12.45,0,0,0,2.887-.029l.5-2.065a10.668,10.668,0,0,0,1.238-.339l1.525,1.5a12.213,12.213,0,0,0,2.481-1.438l-.619-2.03a10.355,10.355,0,0,0,.9-.9Z" transform="translate(-640.424 -672.387)" fill="#fff"/>
            <path id="Path_13659" data-name="Path 13659" d="M676.906,707.352l-.061-.45-2.164-.5c-.04-.158-.085-.314-.134-.47l1.578-1.526-.191-.422a12.515,12.515,0,0,0-1.554-2.561l-.275-.352-2.143.625c-.115-.116-.235-.23-.356-.341l.589-2.106-.375-.269a12.706,12.706,0,0,0-2.654-1.457l-.412-.167-1.529,1.58c-.169-.046-.335-.1-.507-.135l-.563-2.095-.45-.047a12.991,12.991,0,0,0-1.392-.075,12.8,12.8,0,0,0-1.648.106l-.45.058-.513,2.113c-.172.042-.342.089-.511.14l-1.561-1.538-.408.175a12.78,12.78,0,0,0-2.618,1.518l-.37.278.641,2.093c-.12.113-.235.228-.349.346l-2.155-.576-.268.356a12.226,12.226,0,0,0-1.493,2.6l-.18.427,1.619,1.494c-.045.155-.094.308-.132.468l-2.144.55-.05.454a12.485,12.485,0,0,0-.076,1.365,11.922,11.922,0,0,0,.109,1.615l.061.45,2.162.5q.062.236.134.469l-1.575,1.525.19.423a12.344,12.344,0,0,0,1.554,2.563l.275.351,2.142-.626c.116.117.235.231.356.342l-.589,2.107.375.269a12.6,12.6,0,0,0,2.655,1.455l.411.165,1.528-1.578c.169.047.334.1.507.136l.563,2.094.45.048a13.387,13.387,0,0,0,1.4.075,12.927,12.927,0,0,0,1.643-.105l.45-.058.515-2.114c.17-.044.34-.089.508-.14l1.562,1.539.408-.177a12.9,12.9,0,0,0,2.616-1.516l.37-.277-.638-2.094c.118-.114.235-.229.349-.349l1.723.46.431.115.267-.356a12.158,12.158,0,0,0,1.493-2.6l.18-.427L674.61,711.8c.045-.155.093-.307.131-.467l2.144-.552.051-.451a12.021,12.021,0,0,0,.077-1.369A11.89,11.89,0,0,0,676.906,707.352Zm-23.01-.641ZM662,719.2h0Zm13.646-9.456-2.034.523-.081.407c-.023.116-.04.212-.059.288v.007l0,.006c-.064.283-.143.563-.234.838l-.134.4,1.525,1.408a10.754,10.754,0,0,1-.891,1.549l-2.024-.541-.27.305a9.653,9.653,0,0,1-.845.84l-.318.281.6,1.965a11.436,11.436,0,0,1-1.58.914l-1.478-1.457-.385.132a10.147,10.147,0,0,1-1.163.317l-.406.087-.49,2.011c-.34.03-.683.051-1.028.051-.269,0-.543-.025-.815-.044l-.536-2-.416-.072c-.111-.019-.209-.036-.288-.054h-.006c-.293-.065-.581-.143-.864-.232l-.389-.122-1.446,1.492a11.228,11.228,0,0,1-1.6-.876l.552-1.978-.325-.274a8.853,8.853,0,0,1-.855-.821l-.277-.3-2.032.592a11.074,11.074,0,0,1-.925-1.522l1.5-1.453-.145-.4a8.859,8.859,0,0,1-.323-1.127l-.089-.408L653.017,710c-.031-.326-.051-.656-.051-.989,0-.256.025-.515.042-.773l2.044-.524.074-.418c.019-.105.037-.2.057-.285h0c.065-.284.144-.562.236-.84l.133-.4-1.524-1.407a10.841,10.841,0,0,1,.889-1.549l2.027.541.27-.306a8.963,8.963,0,0,1,.84-.835l.323-.282-.6-1.97a11.538,11.538,0,0,1,1.58-.914l1.482,1.461.388-.135a9.215,9.215,0,0,1,1.155-.317l.409-.084.489-2.015c.342-.03.686-.051,1.034-.051.267,0,.539.025.809.042l.534,1.989.407.077c.116.022.218.039.306.059.3.066.583.141.862.23l.39.125,1.446-1.5a11.382,11.382,0,0,1,1.6.878l-.553,1.977.325.274a9.481,9.481,0,0,1,.858.821l.277.3,2.029-.591a10.974,10.974,0,0,1,.925,1.522l-1.5,1.453.145.4a8.763,8.763,0,0,1,.322,1.125l.088.41,2.061.478c.03.326.052.655.052.987C675.694,709.221,675.669,709.481,675.651,709.74Z" transform="translate(-640.493 -672.456)" fill="url(#linear-gradient-18)"/>
            <path id="Path_13660" data-name="Path 13660" d="M663.55,713.341a5.121,5.121,0,1,0-5.255-5.12,5.188,5.188,0,0,0,5.255,5.12" transform="translate(-639.713 -671.691)" fill="#fff"/>
            <path id="Path_13661" data-name="Path 13661" d="M663.619,702.512a5.781,5.781,0,1,0,5.914,5.779A5.853,5.853,0,0,0,663.619,702.512Zm0,10.239a4.461,4.461,0,1,1,4.594-4.46A4.534,4.534,0,0,1,663.619,712.751Z" transform="translate(-639.782 -671.76)" fill="url(#linear-gradient-19)"/>
            <path id="Path_13662" data-name="Path 13662" d="M663.239,705.673a2.249,2.249,0,1,0,2.3,2.248A2.273,2.273,0,0,0,663.239,705.673Z" transform="translate(-639.402 -671.389)" fill="#13007c"/>
            <path id="Path_13663" data-name="Path 13663" d="M708.605,754.81a8.8,8.8,0,0,0,1.558-1.456l-.8-1.373c.134-.189.263-.385.38-.589.042-.069.078-.141.117-.212l1.619.061a8.519,8.519,0,0,0,.608-2.019l-1.4-.8a6.94,6.94,0,0,0,.024-.938l1.431-.735a8.764,8.764,0,0,0-.508-2.046l-1.62-.011a7.436,7.436,0,0,0-.459-.823l.864-1.336a8.789,8.789,0,0,0-1.488-1.522l-1.405.781c-.194-.132-.394-.256-.6-.372-.073-.04-.145-.076-.218-.114l.065-1.581a9.142,9.142,0,0,0-2.067-.594l-.819,1.367a7.264,7.264,0,0,0-.961-.021l-.753-1.4a9.144,9.144,0,0,0-2.094.5l-.01,1.583a7.437,7.437,0,0,0-.844.447l-1.368-.845a8.838,8.838,0,0,0-1.558,1.456l.8,1.374a6.937,6.937,0,0,0-.381.588c-.041.07-.079.141-.116.213l-1.619-.063a8.6,8.6,0,0,0-.608,2.018l1.4.8a7.118,7.118,0,0,0-.022.937l-1.43.735a8.622,8.622,0,0,0,.507,2.047l1.62.01a7.168,7.168,0,0,0,.458.825l-.864,1.336a8.778,8.778,0,0,0,1.488,1.521l1.408-.78c.193.131.393.256.6.372.072.04.144.076.217.113l-.065,1.582a9.156,9.156,0,0,0,2.067.6l.82-1.366a8.08,8.08,0,0,0,.96.021l.753,1.4a9.218,9.218,0,0,0,2.094-.5l.011-1.581a8.226,8.226,0,0,0,.844-.448Z" transform="translate(-635.486 -667.47)" fill="#fff"/>
            <g id="Group_6795" data-name="Group 6795" transform="translate(58.476 71.252)">
              <path id="Path_13664" data-name="Path 13664" d="M696.208,743.493h0Z" transform="translate(-693.741 -738.204)" fill="url(#linear-gradient-20)"/>
              <path id="Path_13665" data-name="Path 13665" d="M711.086,747.821c0-.034,0-.067,0-.1l1.453-.747-.028-.228a9.044,9.044,0,0,0-.527-2.123l-.08-.211-1.655-.011q-.124-.245-.268-.482l.883-1.365-.141-.184a9.173,9.173,0,0,0-1.544-1.58l-.173-.138-1.431.8c-.148-.095-.295-.191-.45-.278h0l-.039-.021.066-1.6-.212-.089a9.46,9.46,0,0,0-2.142-.615l-.22-.037-.833,1.39c-.154-.009-.308-.02-.463-.02-.04,0-.08,0-.121,0l-.764-1.419-.222.026A9.421,9.421,0,0,0,700,739.3l-.216.078-.01,1.616q-.255.124-.5.266l-1.4-.862-.18.131a9.218,9.218,0,0,0-1.616,1.511l-.15.178.816,1.4c-.1.141-.193.28-.28.43l-.022.043-1.638-.064-.09.206a8.874,8.874,0,0,0-.631,2.1l-.038.227,1.422.816c-.009.15-.02.3-.02.451,0,.034,0,.067,0,.1l-1.451.746.027.228a8.856,8.856,0,0,0,.529,2.124l.08.211,1.653.01q.126.246.268.483l-.883,1.365.142.184a9.117,9.117,0,0,0,1.543,1.579l.173.138,1.432-.794c.148.095.294.191.45.278h0l.039.02-.066,1.6.211.088a9.461,9.461,0,0,0,2.142.617l.221.036.835-1.39c.16.009.318.019.478.019h.105l.763,1.418.223-.026a9.615,9.615,0,0,0,2.168-.515l.214-.079.012-1.615c.17-.083.338-.172.5-.266l1.206.744.189.116.179-.131a9.136,9.136,0,0,0,1.617-1.51l.149-.178-.815-1.4c.094-.14.189-.278.275-.427h0l0,0,0,0h0c.009-.014.013-.026.021-.039l1.64.063.09-.206a8.842,8.842,0,0,0,.631-2.1l.039-.228-1.424-.815C711.075,748.122,711.086,747.97,711.086,747.821Zm.206,3.12-1.584-.06-.1.179c-.041.077-.076.144-.109.2l0,0,0,0c-.112.193-.234.381-.363.563l-.123.173.782,1.344a8.5,8.5,0,0,1-1.175,1.1l-1.339-.826-.172.105a7.7,7.7,0,0,1-.81.43l-.191.087-.011,1.55a8.963,8.963,0,0,1-1.588.377l-.737-1.371-.206.009c-.1,0-.191.006-.287.006q-.317,0-.633-.027l-.2-.016-.8,1.337a8.752,8.752,0,0,1-1.566-.451l.064-1.552L699.94,754c-.073-.037-.142-.072-.2-.106h0c-.2-.111-.392-.23-.578-.356l-.168-.115-1.38.765a8.45,8.45,0,0,1-1.123-1.148l.846-1.307-.116-.179a6.945,6.945,0,0,1-.437-.788l-.089-.188-1.587-.009a8.294,8.294,0,0,1-.382-1.536l1.4-.72-.009-.211c0-.1-.006-.191-.006-.286,0-.2.009-.406.028-.609l.019-.21-1.37-.784a8.215,8.215,0,0,1,.458-1.515l1.588.061.1-.184c.037-.071.071-.138.108-.2h0q.169-.29.364-.561l.125-.174-.783-1.345a8.52,8.52,0,0,1,1.175-1.1l1.341.828.173-.107a6.939,6.939,0,0,1,.806-.427l.193-.087.009-1.551a8.684,8.684,0,0,1,1.588-.378l.739,1.373.208-.01c.1,0,.2-.007.3-.007q.307,0,.616.027l.206.018.8-1.34a8.9,8.9,0,0,1,1.566.45l-.064,1.549.187.1c.076.039.145.075.21.111h0c.2.111.391.229.577.355l.169.115,1.378-.767a8.507,8.507,0,0,1,1.123,1.149l-.845,1.307.115.179a6.986,6.986,0,0,1,.438.787l.089.188,1.587.01a8.387,8.387,0,0,1,.382,1.535l-1.4.721.009.211c0,.095.006.19.006.285,0,.2-.009.406-.028.608l-.02.212,1.371.784A8.264,8.264,0,0,1,711.292,750.94Z" transform="translate(-694 -738.759)" fill="url(#linear-gradient-21)"/>
            </g>
            <path id="Path_13666" data-name="Path 13666" d="M701.561,750.922a3.935,3.935,0,0,0,4.891-2.534,3.8,3.8,0,0,0-2.6-4.769,3.937,3.937,0,0,0-4.892,2.536,3.8,3.8,0,0,0,2.6,4.766" transform="translate(-634.962 -666.957)" fill="#fff"/>
            <g id="Group_6796" data-name="Group 6796" transform="translate(63.496 76.166)">
              <path id="Path_13667" data-name="Path 13667" d="M701.178,750.419l.008,0h0Z" transform="translate(-698.178 -742.305)" fill="url(#linear-gradient-22)"/>
              <path id="Path_13668" data-name="Path 13668" d="M703.98,743.338a4.34,4.34,0,0,0-1.24-.181,4.24,4.24,0,0,0-4.06,2.934,4.077,4.077,0,0,0-.187,1.217,4.162,4.162,0,0,0,3.008,3.965,4.358,4.358,0,0,0,1.243.182,4.237,4.237,0,0,0,4.058-2.934,4.041,4.041,0,0,0,.188-1.217A4.164,4.164,0,0,0,703.98,743.338Zm2.191,4.985a3.577,3.577,0,0,1-3.428,2.471,3.667,3.667,0,0,1-1.054-.154l-.094.316.094-.316a3.5,3.5,0,0,1-2.536-3.333,3.408,3.408,0,0,1,.156-1.019,3.58,3.58,0,0,1,3.43-2.472,3.654,3.654,0,0,1,1.051.154,3.5,3.5,0,0,1,2.537,3.333A3.37,3.37,0,0,1,706.171,748.323Z" transform="translate(-698.493 -743.157)" fill="url(#linear-gradient-23)"/>
            </g>
            <path id="Path_13669" data-name="Path 13669" d="M702.976,745.443a1.721,1.721,0,0,0-2.141,1.113,1.671,1.671,0,0,0,1.139,2.1,1.721,1.721,0,0,0,2.141-1.114A1.67,1.67,0,0,0,702.976,745.443Z" transform="translate(-634.731 -666.732)" fill="#13007c"/>
          </g>
        </g>
        <g id="Group_6799" data-name="Group 6799">
          <path id="Path_13671" data-name="Path 13671" d="M686.122,764.325v-1.65a42.931,42.931,0,1,0-42.93-42.932,42.987,42.987,0,0,0,42.93,42.932v3.3a46.231,46.231,0,1,1,46.23-46.233,46.233,46.233,0,0,1-46.23,46.233Z" transform="translate(-639.892 -673.512)" fill="url(#linear-gradient)"/>
        </g>
      </g>
      <g id="Group_6802" data-name="Group 6802" transform="translate(0 324.571)">
        <g id="Group_6801" data-name="Group 6801" clip-path="url(#clip-path)">
          <path id="Path_13672" data-name="Path 13672" d="M366.856,764.016a44.789,44.789,0,1,0-44.789-44.79,44.789,44.789,0,0,0,44.789,44.79" transform="translate(-320.788 -673.159)" fill="#fff"/>
        </g>
      </g>
      <g id="Group_6807" data-name="Group 6807" transform="translate(0.949 325.109)">
        <g id="Group_6805" data-name="Group 6805" transform="translate(2.403 1.434)">
          <g id="Group_6804" data-name="Group 6804">
            <g id="Group_6803" data-name="Group 6803" clip-path="url(#clip-path-8)">
              <path id="Path_13673" data-name="Path 13673" d="M369.456,727.181h30.89V696.291h-30.89Zm6.179-24.712h18.532V721H375.635Zm-43.248,24.712h30.889V696.291H332.387Zm6.178-24.712H357.1V721H338.565Zm43.248,12.355h6.178v-6.179h-6.178Zm-37.07,0h6.179v-6.179h-6.179Zm49.425,18.535v6.178h-6.177v-6.178H369.456V764.25h6.179V745.716h6.178v6.179h18.533V733.359Zm-61.78,30.891h30.889V733.36H332.387Zm6.178-24.713H357.1v18.486H338.565Zm6.178,12.358h6.179v-6.179h-6.179Zm49.425,12.355h6.179v-6.178h-6.179Zm-12.354,0h6.178v-6.178h-6.178Z" transform="translate(-322.93 -672.566)" fill="url(#linear-gradient-2)"/>
            </g>
          </g>
          <rect id="Rectangle_2045" data-name="Rectangle 2045" width="6.879" height="6.879" transform="translate(21.55 35.806)" fill="#13007c"/>
          <rect id="Rectangle_2046" data-name="Rectangle 2046" width="6.879" height="6.879" transform="translate(58.77 35.806)" fill="#13007c"/>
          <rect id="Rectangle_2047" data-name="Rectangle 2047" width="6.879" height="6.879" transform="translate(21.55 72.92)" fill="#13007c"/>
        </g>
        <g id="Group_6806" data-name="Group 6806">
          <path id="Path_13675" data-name="Path 13675" d="M366.967,762.551v-1.614A41.969,41.969,0,1,0,325,718.969a42.024,42.024,0,0,0,41.968,41.969v3.227a45.2,45.2,0,1,1,45.195-45.2,45.2,45.2,0,0,1-45.195,45.2Z" transform="translate(-321.772 -673.774)" fill="url(#linear-gradient-26)"/>
        </g>
      </g>
      <g id="Group_6809" data-name="Group 6809" transform="translate(205.453 131.016)">
        <g id="Group_6808" data-name="Group 6808" clip-path="url(#clip-path)">
          <path id="Path_13676" data-name="Path 13676" d="M550.736,590.785A44.79,44.79,0,1,0,505.946,546a44.79,44.79,0,0,0,44.79,44.79" transform="translate(-504.668 -499.928)" fill="#fff"/>
        </g>
      </g>
      <g id="Group_6814" data-name="Group 6814" transform="translate(201.607 131.346)">
        <g id="Group_6813" data-name="Group 6813" transform="translate(0 3.071)">
          <g id="Group_6812" data-name="Group 6812" clip-path="url(#clip-path-10)">
            <path id="Path_13677" data-name="Path 13677" d="M583.985,536.4c-4.149-14.748-16.963-23.132-35.634-23.132a38.386,38.386,0,0,0-1.255,76.734q.625.02,1.255.02v-2.761c-.382,0-.762-.007-1.143-.019-18.746-.613-33.43-16.617-33.43-35.6a34.81,34.81,0,0,1,34.573-34.964c22.153,0,29.707,11.684,32.262,20.373l-5.47,1.063,8.81,6.424,5.766-9.254Z" transform="translate(-500.304 -501.913)" fill="url(#linear-gradient-2)"/>
            <g id="Group_6810" data-name="Group 6810" transform="translate(28.627 37.648)">
              <path id="Path_13678" data-name="Path 13678" d="M558.064,571.428H535.516a7.917,7.917,0,0,1-7.5-4.359,10.113,10.113,0,0,1-1.034-4.178V545.335c0-6.752,5.583-8.535,8.535-8.535h22.548c6.752,0,8.536,5.583,8.536,8.535v17.556C566.6,569.644,561.016,571.428,558.064,571.428Zm-22.54-31.215c-.864.011-5.13.307-5.13,5.122v17.556a4.87,4.87,0,0,0,5.122,5.123h22.548a4.87,4.87,0,0,0,5.123-5.123V545.335a4.869,4.869,0,0,0-5.123-5.122Z" transform="translate(-526.981 -536.8)" fill="url(#linear-gradient-2)"/>
            </g>
            <g id="Group_6811" data-name="Group 6811" transform="translate(36.486 20.87)">
              <path id="Path_13679" data-name="Path 13679" d="M557.916,536.713H554.5V531.3c0-.618-.188-6.1-5.122-6.1H542.55c-.845.013-5.122.368-5.122,6.1v5.382h-3.413V531.3c0-9.4,8.45-9.512,8.535-9.512h6.829c6.752,0,8.536,6.222,8.536,9.512Z" transform="translate(-534.015 -521.784)" fill="url(#linear-gradient-2)"/>
            </g>
            <path id="Path_13680" data-name="Path 13680" d="M535.316,556.2a2.9,2.9,0,1,0-2.9-2.9,2.9,2.9,0,0,0,2.9,2.9" transform="translate(-497.716 -497.556)" fill="#f0047f"/>
            <path id="Path_13681" data-name="Path 13681" d="M541.782,556.2a2.9,2.9,0,1,0-2.9-2.9,2.9,2.9,0,0,0,2.9,2.9" transform="translate(-496.957 -497.556)" fill="#f0047f"/>
            <path id="Path_13682" data-name="Path 13682" d="M548.247,556.2a2.9,2.9,0,1,0-2.9-2.9,2.9,2.9,0,0,0,2.9,2.9" transform="translate(-496.199 -497.556)" fill="#f0047f"/>
            <path id="Path_13683" data-name="Path 13683" d="M554.712,556.2a2.9,2.9,0,1,0-2.895-2.9,2.9,2.9,0,0,0,2.895,2.9" transform="translate(-495.44 -497.556)" fill="#f0047f"/>
          </g>
        </g>
        <path id="Path_13684" data-name="Path 13684" d="M550.391,590.2v-1.632a42.473,42.473,0,1,0-42.472-42.473,42.528,42.528,0,0,0,42.472,42.473v3.265a45.738,45.738,0,1,1,45.738-45.738,45.738,45.738,0,0,1-45.738,45.738Z" transform="translate(-500.974 -500.357)" fill="url(#linear-gradient-26)"/>
      </g>
      <g id="Group_6816" data-name="Group 6816" transform="translate(204.957 1.325)">
        <g id="Group_6815" data-name="Group 6815" clip-path="url(#clip-path)">
          <path id="Path_13685" data-name="Path 13685" d="M550.292,474.712a44.789,44.789,0,1,0-44.79-44.789,44.789,44.789,0,0,0,44.79,44.789" transform="translate(-504.224 -383.855)" fill="#fff"/>
        </g>
      </g>
      <g id="Group_6825" data-name="Group 6825" transform="translate(204.136)">
        <path id="Path_13686" data-name="Path 13686" d="M550.831,475.533v-1.685a43.838,43.838,0,1,0-43.836-43.838,43.894,43.894,0,0,0,43.836,43.838v3.37a47.207,47.207,0,1,1,47.207-47.208,47.209,47.209,0,0,1-47.207,47.208Z" transform="translate(-503.624 -382.803)" fill="url(#linear-gradient-26)"/>
        <g id="Group_6824" data-name="Group 6824" transform="translate(3.551 3.514)">
          <g id="Group_6823" data-name="Group 6823" clip-path="url(#clip-path-12)">
            <rect id="Rectangle_2051" data-name="Rectangle 2051" width="57.051" height="71.497" transform="translate(15.353 21.473)" fill="#fff"/>
            <g id="Group_6817" data-name="Group 6817" transform="translate(14.188 20.307)">
              <path id="Path_13687" data-name="Path 13687" d="M577.716,477.952h-57.05a1.165,1.165,0,0,1-1.165-1.165v-71.5a1.166,1.166,0,0,1,1.165-1.166h57.05a1.166,1.166,0,0,1,1.165,1.166v71.5A1.165,1.165,0,0,1,577.716,477.952Zm-55.885-2.332h54.719V406.455H521.831Z" transform="translate(-519.5 -404.123)" fill="url(#linear-gradient-2)"/>
            </g>
            <g id="Group_6818" data-name="Group 6818" transform="translate(24.771 36.958)">
              <rect id="Rectangle_2052" data-name="Rectangle 2052" width="38.215" height="1.943" fill="url(#linear-gradient-3)"/>
            </g>
            <g id="Group_6819" data-name="Group 6819" transform="translate(24.478 45.206)">
              <path id="Path_13688" data-name="Path 13688" d="M567.51,439.035h-38.8V426.407h38.8Zm-36.934-1.866h35.067v-8.9H530.576Z" transform="translate(-528.71 -426.407)" fill="url(#linear-gradient-3)"/>
            </g>
            <g id="Group_6820" data-name="Group 6820" transform="translate(45.2 60.282)">
              <path id="Path_13689" data-name="Path 13689" d="M565.334,448.644H547.256V439.9h18.078Zm-16.211-1.866h14.344v-5.012H549.123Z" transform="translate(-547.256 -439.9)" fill="url(#linear-gradient-3)"/>
            </g>
            <g id="Group_6821" data-name="Group 6821" transform="translate(24.435 60.282)">
              <path id="Path_13690" data-name="Path 13690" d="M546.749,448.644H528.671V439.9h18.078Zm-16.212-1.866h14.345v-5.012H530.537Z" transform="translate(-528.671 -439.9)" fill="url(#linear-gradient-3)"/>
            </g>
            <rect id="Rectangle_2053" data-name="Rectangle 2053" width="8.55" height="8.55" transform="translate(39.603 25.944)" fill="url(#linear-gradient-2)"/>
            <path id="Path_13691" data-name="Path 13691" d="M558.211,456.712a.366.366,0,0,0-.275-.114.378.378,0,0,0-.146.03.356.356,0,0,0-.245.352v9a.355.355,0,0,0,.245.352.36.36,0,0,0,.146.031.38.38,0,0,0,.275-.114l1.908-1.867,1.169,2.7a.392.392,0,0,0,.214.2.4.4,0,0,0,.3,0l1.082-.449a.393.393,0,0,0,.209-.21.371.371,0,0,0,0-.293l-1.23-2.847H564.2a.367.367,0,0,0,.361-.24.335.335,0,0,0-.086-.412Z" transform="translate(-500.849 -377.659)" fill="url(#linear-gradient-38)"/>
            <g id="Group_6822" data-name="Group 6822" transform="translate(24.154 70.976)">
              <path id="Path_13692" data-name="Path 13692" d="M542.611,460.953a1.922,1.922,0,0,1-1.03-.287,1.757,1.757,0,0,1-.807-1.118c-.317-1.349.781-3.114,2.055-5.159a18.016,18.016,0,0,0,1.6-2.923c-.513.1-1.77.686-4.78,3.184-.247.2-.437.362-.55.447s-.315.275-.609.541c-2.939,2.667-5.952,5.091-8.074,4.8a2.189,2.189,0,0,1-1.6-1.041,2.611,2.611,0,0,1-.285-2.16c.747-2.564,5.208-4.768,5.714-5.01l.855,1.783c-1.6.771-4.292,2.48-4.67,3.781a.627.627,0,0,0,.066.561.222.222,0,0,0,.192.127c1,.14,3.172-1.309,6.472-4.305.356-.324.618-.557.744-.654.1-.074.264-.212.481-.392,2.9-2.406,6.122-4.826,7.669-3.039,1.036,1.194-.105,3.026-1.549,5.344-.637,1.025-1.793,2.882-1.817,3.554.674-.013,2.705-1.664,3.7-2.473,2.238-1.818,4.354-3.535,5.674-2.055a2.969,2.969,0,0,1,.567,2.836c-.147.709-.156.752.645,1.048,2.4.887,5.468-.583,5.933-.891l1.091,1.65c-.76.5-4.523,2.275-7.71,1.1-2.4-.887-2.07-2.46-1.9-3.305.113-.541.136-.765,0-.986a15.065,15.065,0,0,0-3.055,2.142C545.81,459.534,544.063,460.953,542.611,460.953Z" transform="translate(-528.419 -449.471)" fill="url(#linear-gradient-3)"/>
            </g>
          </g>
        </g>
      </g>
    </g>
  </g>
</svg>
