<?xml version="1.0" encoding="utf-8"?>
<!-- Generator: Adobe Illustrator 25.0.1, SVG Export Plug-In . SVG Version: 6.00 Build 0)  -->
<svg version="1.1" id="Layer_1" xmlns="http://www.w3.org/2000/svg" xmlns:xlink="http://www.w3.org/1999/xlink" x="0px" y="0px"
	 viewBox="0 0 725 572" style="enable-background:new 0 0 725 572;" xml:space="preserve">
<style type="text/css">
	.st0{fill:#16013F;}
	.st1{opacity:0.7;fill:#000122;enable-background:new    ;}
	.st2{fill:#18013D;}
	.st3{fill:#12022C;}
	.st4{fill:#F0047F;}
	.st5{fill:#333333;}
	.st6{fill:#FDEDED;}
	.st7{fill:#FFFFFF;}
	.st8{fill:#4D4D4D;}
	.st9{clip-path:url(#SVGID_2_);}
	.st10{fill:#E2DEE1;}
	.st11{fill:url(#Path_13627_1_);}
	.st12{clip-path:url(#SVGID_4_);}
	.st13{clip-path:url(#SVGID_6_);}
	.st14{fill:url(#Path_13629_1_);}
	.st15{clip-path:url(#SVGID_8_);}
	.st16{fill:url(#Path_13631_1_);}
	.st17{clip-path:url(#SVGID_10_);}
	.st18{fill:url(#Path_13633_1_);}
	.st19{fill:url(#Path_13634_1_);}
	.st20{fill:url(#Path_13635_1_);}
	.st21{fill:url(#Path_13636_1_);}
	.st22{fill:url(#Path_13637_1_);}
	.st23{clip-path:url(#SVGID_12_);}
	.st24{fill:#13007C;}
	.st25{fill:url(#Path_13641_1_);}
	.st26{fill:url(#Path_13642_1_);}
	.st27{fill:url(#Path_13643_1_);}
	.st28{fill:url(#Path_13644_1_);}
	.st29{fill:url(#Path_13646_1_);}
	.st30{fill:url(#Path_13647_1_);}
	.st31{fill:url(#Path_13649_1_);}
	.st32{fill:url(#Path_13652_1_);}
	.st33{fill:url(#Path_13655_1_);}
	.st34{fill:none;stroke:#3D891F;stroke-width:0.676;stroke-miterlimit:10;}
	.st35{fill:url(#Path_13659_1_);}
	.st36{fill:url(#Path_13661_1_);}
	.st37{fill:url(#Path_13664_1_);}
	.st38{fill:url(#Path_13665_1_);}
	.st39{fill:url(#Path_13667_1_);}
	.st40{fill:url(#Path_13668_1_);}
	.st41{fill:url(#Path_13671_1_);}
	.st42{clip-path:url(#SVGID_14_);}
	.st43{clip-path:url(#SVGID_16_);}
	.st44{fill:url(#Path_13673_1_);}
	.st45{fill:url(#Path_13675_1_);}
	.st46{clip-path:url(#SVGID_18_);}
	.st47{clip-path:url(#SVGID_20_);}
	.st48{fill:url(#Path_13677_1_);}
	.st49{fill:url(#Path_13678_1_);}
	.st50{fill:url(#Path_13679_1_);}
	.st51{fill:url(#Path_13684_1_);}
	.st52{clip-path:url(#SVGID_22_);}
	.st53{fill:url(#Path_13686_1_);}
	.st54{clip-path:url(#SVGID_24_);}
	.st55{fill:url(#Path_13687_1_);}
	.st56{fill:url(#Rectangle_2052_1_);}
	.st57{fill:url(#Path_13688_1_);}
	.st58{fill:url(#Path_13689_1_);}
	.st59{fill:url(#Path_13690_1_);}
	.st60{fill:url(#Rectangle_2053_1_);}
	.st61{fill:url(#Path_13691_1_);}
	.st62{fill:url(#Path_13692_1_);}
</style>
<g id="Group_6827" transform="translate(-210.215 -382.803)">
	<g id="Group_6765" transform="translate(210.215 398.57)">
		<g id="Group_6764">
			<path id="Path_13609" class="st0" d="M635.6,208.7c42.7-51.7,65.7-80.2,42.5-142.7c-1.3-3.4-2.7-6.9-4.2-10.5
				C643.9-14.7,355.3-7.7,403.2,18.9c33.1,18.4,17.9,26.9-25.7,27.8C358,47.1,332.9,46,304,43.5c-157.6-13.2-165.6,24.9-84.8,55.8
				c80.8,30.8-21.1,88.7-89.8,108.8c-11.2,3.2-22.3,7.1-33,11.7C40.6,243.4,11.8,278.6,3,315.1c-19.2,79.4,56.5,164.8,156.3,150.9
				c45.7-6.4,128.3-5.9,202.3,10.2c45.8,10,88.3,25.9,116.9,49.8c59.9,50.1,131.7,29.9,147.7-1.9c4.1-7.8,4.3-17.1,0.5-25
				c-19.1-40.6,14.6-68,54.6-71.3c40-3.4,64.9-67.5,19.4-107.1C655.1,281,590.6,263.2,635.6,208.7z"/>
			<path id="Path_13610" class="st1" d="M635.6,208.7c42.7-51.7,65.7-80.2,42.5-142.7c-16-2.6-32.2-3.9-48.4-3.9
				c-146.4,0-265.2,103.4-265.2,231c0,126.5,116.9,229.3,261.6,230.9c4.1-7.8,4.3-17.1,0.5-25c-19.1-40.6,14.6-68,54.6-71.3
				c40-3.4,64.9-67.5,19.4-107.1C655.1,281,590.6,263.2,635.6,208.7z"/>
			<path id="Path_13611" class="st2" d="M361.7,470.9c0-107.7-100.3-195.1-223.9-195.1c-50.6,0-97.3,14.6-134.7,39.3
				c-19.2,79.4,56.5,164.8,156.3,150.9c45.7-6.4,128.3-5.9,202.3,10.2C361.7,474.4,361.7,472.6,361.7,470.9z"/>
			<path id="Path_13612" class="st3" d="M403.2,125.6c0-28.9-9.4-56-25.7-78.9C358,47.1,332.9,46,304,43.5
				c-157.6-13.2-165.6,24.9-84.8,55.8c80.8,30.8-21.1,88.7-89.8,108.8c-11.2,3.2-22.3,7.1-33,11.7c31.6,34.2,80,56.1,134.3,56.1
				C326,275.8,403.2,208.5,403.2,125.6z"/>
		</g>
	</g>
	<g id="Group_6826" transform="translate(333.911 382.803)">
		<g id="Group_6766" transform="translate(322.592 110.014)">
			<path id="Path_13613" class="st4" d="M3.4,350.8h54.3c15.8,0,28.6-12.8,28.6-28.6V28.6c0-12,9.8-21.8,21.8-21.8h39.4
				c1.9,0,3.4-1.5,3.4-3.4c0-1.9-1.5-3.4-3.4-3.4c0,0,0,0,0,0h-39.4C92.3,0,79.5,12.8,79.5,28.6v293.5c0,12-9.8,21.8-21.8,21.8H3.4
				c-1.9,0-3.4,1.5-3.4,3.4C0,349.2,1.5,350.8,3.4,350.8C3.4,350.8,3.4,350.8,3.4,350.8L3.4,350.8z"/>
		</g>
		<g id="Group_6767" transform="translate(118.97 430.082)">
			<path id="Path_13614" class="st5" d="M27.1,66.2L205.4,48c4.9,0,8.9-4,8.9-8.9l0,0l18.3-16.4c0-4.9-22.3-22.6-27.2-22.6H8.9
				C4,0,0,4,0,8.9l0,0V39C0,44,22.2,66.2,27.1,66.2z"/>
			<path id="Rectangle_2033" class="st6" d="M219.9,66.5h-186c-7.8,0-14.2-6.3-14.2-14.2c0,0,0,0,0,0V32.7c0-7.8,6.3-14.2,14.2-14.2
				h186c7.8,0,14.2,6.3,14.2,14.2c0,0,0,0,0,0v19.7C234.1,60.2,227.8,66.5,219.9,66.5z"/>
			<path id="Rectangle_2034" class="st7" d="M210.5,62.4H43.3c-8.7,0-15.8-7.1-15.8-15.8v-8.2c0-8.7,7.1-15.8,15.8-15.8h167.2
				c8.7,0,15.8,7.1,15.8,15.8v8.2C226.3,55.3,219.2,62.4,210.5,62.4z"/>
			<circle id="Ellipse_414" class="st4" cx="207" cy="42.5" r="7.9"/>
			<circle id="Ellipse_415" class="st8" cx="181.8" cy="42.5" r="7.9"/>
			<path id="Rectangle_2035" class="st5" d="M127.5,48H41.2c-2.7,0-4.9-2.2-4.9-4.9v-1.1c0-2.7,2.2-4.9,4.9-4.9h86.3
				c2.7,0,4.9,2.2,4.9,4.9v1.1C132.4,45.8,130.2,48,127.5,48z"/>
		</g>
		<g id="Group_6768" transform="translate(118.97 369.986)">
			<path id="Path_13615" class="st5" d="M27.1,66.2L205.4,48c4.9,0,8.9-4,8.9-8.9l0,0l18.3-16.4c0-4.9-22.3-22.6-27.2-22.6H8.9
				C4,0,0,4,0,8.9l0,0V39C0,44,22.2,66.2,27.1,66.2z"/>
			<path id="Rectangle_2036" class="st6" d="M219.9,66.5h-186c-7.8,0-14.2-6.3-14.2-14.2c0,0,0,0,0,0V32.7c0-7.8,6.3-14.2,14.2-14.2
				c0,0,0,0,0,0h186c7.8,0,14.2,6.3,14.2,14.2c0,0,0,0,0,0v19.7C234.1,60.2,227.8,66.5,219.9,66.5C219.9,66.5,219.9,66.5,219.9,66.5
				z"/>
			<path id="Rectangle_2037" class="st7" d="M210.5,62.4H43.3c-8.7,0-15.8-7.1-15.8-15.8v-8.2c0-8.7,7.1-15.8,15.8-15.8h167.2
				c8.7,0,15.8,7.1,15.8,15.8v8.2C226.3,55.3,219.2,62.4,210.5,62.4z"/>
			<circle id="Ellipse_416" class="st4" cx="207" cy="42.5" r="7.9"/>
			<circle id="Ellipse_417" class="st8" cx="181.8" cy="42.5" r="7.9"/>
			<path id="Path_13616" class="st5" d="M41.8,48h85.2c3,0,5.5-2.4,5.5-5.5l0,0c0-3-2.4-5.5-5.5-5.5H41.8c-3,0-5.5,2.4-5.5,5.5
				c0,0,0,0,0,0l0,0C36.3,45.5,38.7,48,41.8,48z"/>
		</g>
		<g id="Group_6769" transform="translate(118.97 309.89)">
			<path id="Path_13617" class="st5" d="M27.1,66.2L205.4,48c4.9,0,8.9-4,8.9-8.9l0,0l18.3-16.4c0-4.9-22.3-22.6-27.2-22.6H8.9
				C4,0,0,4,0,8.9l0,0V39C0,44,22.2,66.2,27.1,66.2z"/>
			<path id="Rectangle_2038" class="st6" d="M219.9,66.5h-186c-7.8,0-14.2-6.3-14.2-14.2c0,0,0,0,0,0V32.7c0-7.8,6.3-14.2,14.2-14.2
				h186c7.8,0,14.2,6.3,14.2,14.2c0,0,0,0,0,0v19.7C234.1,60.2,227.8,66.5,219.9,66.5z"/>
			<path id="Rectangle_2039" class="st7" d="M210.5,62.4H43.3c-8.7,0-15.8-7.1-15.8-15.8c0,0,0,0,0,0v-8.2c0-8.7,7.1-15.8,15.8-15.8
				h167.2c8.7,0,15.8,7.1,15.8,15.8v8.2C226.3,55.3,219.2,62.4,210.5,62.4z"/>
			<circle id="Ellipse_418" class="st4" cx="207" cy="42.5" r="7.9"/>
			<circle id="Ellipse_419" class="st5" cx="181.8" cy="42.5" r="7.9"/>
			<path id="Path_13618" class="st5" d="M41.8,48h85.2c3,0,5.5-2.4,5.5-5.5l0,0c0-3-2.4-5.5-5.5-5.5c0,0,0,0,0,0H41.8
				c-3,0-5.5,2.4-5.5,5.5c0,0,0,0,0,0l0,0C36.3,45.5,38.7,48,41.8,48z"/>
		</g>
		<g id="Group_6770" transform="translate(118.97 249.793)">
			<path id="Path_13619" class="st5" d="M27.1,66.2L205.4,48c4.9,0,8.9-4,8.9-8.9l0,0l18.3-16.4c0-4.9-22.3-22.6-27.2-22.6H8.9
				C4,0,0,4,0,8.9c0,0,0,0,0,0V39C0,44,22.2,66.2,27.1,66.2z"/>
			<path id="Rectangle_2040" class="st6" d="M219.9,66.5h-186c-7.8,0-14.2-6.3-14.2-14.2c0,0,0,0,0,0V32.7c0-7.8,6.3-14.2,14.2-14.2
				c0,0,0,0,0,0h186c7.8,0,14.2,6.3,14.2,14.2c0,0,0,0,0,0v19.7C234.1,60.2,227.8,66.5,219.9,66.5C219.9,66.5,219.9,66.5,219.9,66.5
				z"/>
			<path id="Rectangle_2041" class="st7" d="M210.5,62.4H43.3c-8.7,0-15.8-7.1-15.8-15.8v-8.2c0-8.7,7.1-15.8,15.8-15.8h167.2
				c8.7,0,15.8,7.1,15.8,15.8v8.2C226.3,55.3,219.2,62.4,210.5,62.4z"/>
			<circle id="Ellipse_420" class="st4" cx="207" cy="42.5" r="7.9"/>
			<circle id="Ellipse_421" class="st5" cx="181.8" cy="42.5" r="7.9"/>
			<path id="Path_13620" class="st5" d="M41.8,48h85.2c3,0,5.5-2.4,5.5-5.5l0,0c0-3-2.4-5.5-5.5-5.5c0,0,0,0,0,0H41.8
				c-3,0-5.5,2.4-5.5,5.5c0,0,0,0,0,0l0,0C36.3,45.5,38.7,48,41.8,48z"/>
		</g>
		<g id="Group_6771" transform="translate(43.531 273.165)">
			<path id="Path_13621" class="st4" d="M18.6,194.9h63.9c1.9,0,3.4-1.5,3.4-3.4s-1.5-3.4-3.4-3.4l0,0H18.6
				c-6.5,0-11.8-5.3-11.8-11.8V18.6c0-6.5,5.3-11.8,11.8-11.8h63.9c1.9,0,3.4-1.5,3.4-3.4c0-1.9-1.5-3.4-3.4-3.4H18.6
				C8.3,0,0,8.3,0,18.6v157.8C0,186.6,8.3,194.9,18.6,194.9z"/>
		</g>
		<g id="Group_6772" transform="translate(247.934 9.499)">
			<path id="Path_13622" class="st4" d="M3.4,251.9c1.9,0,3.4-1.5,3.4-3.4c0,0,0,0,0,0V3.4C6.8,1.5,5.3,0,3.4,0C1.5,0,0,1.5,0,3.4
				c0,0,0,0,0,0v245C0,250.3,1.5,251.9,3.4,251.9C3.4,251.9,3.4,251.9,3.4,251.9z"/>
		</g>
		<g id="Group_6774" transform="translate(357.853 324.571)">
			<g>
				<defs>
					<rect id="SVGID_1_" x="0" y="0" width="92.1" height="92.1"/>
				</defs>
				<clipPath id="SVGID_2_">
					<use xlink:href="#SVGID_1_"  style="overflow:visible;"/>
				</clipPath>
				<g id="Group_6773" class="st9">
					<path id="Path_13623" class="st10" d="M46.1,90.9c24.7,0,44.8-20.1,44.8-44.8S70.8,1.3,46.1,1.3C21.3,1.3,1.3,21.3,1.3,46.1
						C1.3,70.8,21.3,90.9,46.1,90.9C46.1,90.9,46.1,90.9,46.1,90.9"/>
				</g>
			</g>
		</g>
		<g id="Group_6775" transform="translate(449.439 110.014)">
			<path id="Path_13624" class="st4" d="M28.6,28.6C28.6,12.8,15.8,0,0,0"/>
			<path id="Path_13625" class="st4" d="M25.2,128.4"/>
			<path id="Path_13626" class="st4" d="M0,6.8c12,0,21.8,9.8,21.8,21.8"/>
		</g>
		<g id="Group_6792" transform="translate(388.415 68.883)">
			<g id="Group_6776">
				
					<linearGradient id="Path_13627_1_" gradientUnits="userSpaceOnUse" x1="-406.7164" y1="473.4298" x2="-406.7164" y2="472.4188" gradientTransform="matrix(95.8981 0 0 -95.898 39051.2617 45400.9922)">
					<stop  offset="0" style="stop-color:#F0047F"/>
					<stop  offset="1" style="stop-color:#13007C"/>
				</linearGradient>
				<path id="Path_13627" class="st11" d="M47.9,94.2v-1.7c24.6,0,44.5-19.9,44.5-44.5C92.5,23.4,72.5,3.4,48,3.4S3.4,23.4,3.4,47.9
					c0,0,0,0,0,0c0,24.6,19.9,44.5,44.5,44.5v3.4C21.5,95.9,0,74.4,0,47.9S21.5,0,47.9,0c26.5,0,47.9,21.5,47.9,47.9
					c0,26.5-21.5,47.9-47.9,47.9L47.9,94.2z"/>
			</g>
			<g id="Group_6778" transform="translate(1.831 2.86)">
				<g>
					<defs>
						<rect id="SVGID_3_" x="0" y="0" width="92.2" height="92.2"/>
					</defs>
					<clipPath id="SVGID_4_">
						<use xlink:href="#SVGID_3_"  style="overflow:visible;"/>
					</clipPath>
					<g id="Group_6777" class="st12">
						<path id="Path_13628" class="st10" d="M46.1,90.3c24.4,0,44.2-19.8,44.2-44.2c0-24.4-19.8-44.2-44.2-44.2
							C21.7,1.9,1.9,21.7,1.9,46.1C1.9,70.5,21.7,90.3,46.1,90.3L46.1,90.3"/>
					</g>
				</g>
			</g>
			<g id="Group_6781" transform="translate(3.069 3.422)">
				<g>
					<defs>
						<path id="SVGID_5_" d="M0,44.9c0,24.8,20.1,44.9,44.9,44.9s44.9-20.1,44.9-44.9C89.8,20.1,69.7,0,44.9,0C20.1,0,0,20.1,0,44.9
							C0,44.9,0,44.9,0,44.9"/>
					</defs>
					<clipPath id="SVGID_6_">
						<use xlink:href="#SVGID_5_"  style="overflow:visible;"/>
					</clipPath>
					<g id="Group_6780" class="st13">
						<g id="Group_6779" transform="translate(11.011 20.758)">
							
								<linearGradient id="Path_13629_1_" gradientUnits="userSpaceOnUse" x1="-421.2205" y1="449.5198" x2="-421.2205" y2="448.5198" gradientTransform="matrix(69.3032 0 0 -51.4772 29226.5723 23140.0371)">
								<stop  offset="0" style="stop-color:#F0047F"/>
								<stop  offset="1" style="stop-color:#13007C"/>
							</linearGradient>
							<path id="Path_13629" class="st14" d="M54.8,51.5v-1.2V51.5l-6.2,0l0-2.3l6.1,0c6.7,0,12.2-5.4,12.2-12.1
								c0-5.9-4.2-11-10.1-12L55,24.7l1.2-1.5c1-1.3,1.6-2.9,1.6-4.6c0-4.1-3.4-7.5-7.5-7.5c-1.9,0-3.7,0.7-5.1,2L44,14.3l-0.6-1.6
								C39.9,4.2,30.2,0.1,21.6,3.5C15.3,6,11.2,12.1,11.2,18.9c0,0.4,0,0.9,0.1,1.4l0.1,0.8l-0.7,0.3C3.3,24.9,0.3,33.6,3.7,40.9
								c2.4,5.1,7.6,8.3,13.2,8.3v2.3C7.6,51.5,0,43.9,0,34.6c0-6.2,3.4-11.9,8.9-14.8c0-0.3,0-0.5,0-0.8c0-10.5,8.5-19,19-18.9
								c7.2,0,13.7,4.1,16.9,10.5c4.5-3,10.6-1.9,13.6,2.6c1.1,1.6,1.7,3.5,1.7,5.5c0,1.6-0.4,3.2-1.1,4.6c7.7,2.3,12,10.3,9.7,18
								C66.9,47.3,61.2,51.5,54.8,51.5L54.8,51.5z"/>
						</g>
					</g>
				</g>
			</g>
			<g id="Group_6784" transform="translate(34.046 71.502)">
				<g>
					<defs>
						<path id="SVGID_7_" d="M3.1,0C3.1,0,0,0,0,2.8v16.7c8.9,2.9,18.4,3,27.3,0.2V6.3L20.2,0H3.1z"/>
					</defs>
					<clipPath id="SVGID_8_">
						<use xlink:href="#SVGID_7_"  style="overflow:visible;"/>
					</clipPath>
					<g id="Group_6783" class="st15">
						<g id="Group_6782" transform="translate(21.788 -33.16)">
							
								<linearGradient id="Path_13631_1_" gradientUnits="userSpaceOnUse" x1="-465.212" y1="434.9847" x2="-464.212" y2="434.9847" gradientTransform="matrix(32.4461 0 0 -42.2689 15094.3145 18407.4668)">
								<stop  offset="0" style="stop-color:#F0047F"/>
								<stop  offset="1" style="stop-color:#13007C"/>
							</linearGradient>
							<path id="Path_13631" class="st16" d="M28.2,42.3H4.3c-2.3,0.1-4.2-1.7-4.3-4c0-0.1,0-0.2,0-0.3V4.3C-0.1,2,1.7,0.1,4,0
								c0.1,0,0.2,0,0.3,0h23.9c2.3-0.1,4.2,1.7,4.3,4c0,0.1,0,0.2,0,0.3V38c0.1,2.3-1.7,4.2-4,4.3C28.4,42.3,28.3,42.3,28.2,42.3z
								 M4.3,1.5C2.8,1.4,1.5,2.6,1.5,4.1c0,0.1,0,0.1,0,0.2V38c-0.1,1.5,1.1,2.7,2.6,2.8c0.1,0,0.1,0,0.2,0h23.9
								c1.5,0.1,2.7-1.1,2.8-2.6c0-0.1,0-0.1,0-0.2V4.3c0.1-1.5-1.1-2.7-2.6-2.8c-0.1,0-0.1,0-0.2,0L4.3,1.5z"/>
						</g>
					</g>
				</g>
			</g>
			<g id="Group_6791" transform="translate(3.745 4.773)">
				<g>
					<defs>
						<path id="SVGID_9_" d="M0,44.2c0,24.4,19.8,44.2,44.2,44.2s44.2-19.8,44.2-44.2S68.6,0,44.2,0C19.8,0,0,19.8,0,44.2L0,44.2"/>
					</defs>
					<clipPath id="SVGID_10_">
						<use xlink:href="#SVGID_9_"  style="overflow:visible;"/>
					</clipPath>
					<g id="Group_6790" class="st17">
						<g id="Group_6785" transform="translate(29.274 65.702)">
							
								<linearGradient id="Path_13633_1_" gradientUnits="userSpaceOnUse" x1="-442.2427" y1="403.5275" x2="-442.2427" y2="402.5275" gradientTransform="matrix(29.341 0 0 -33.8786 12990.5156 13670.9385)">
								<stop  offset="0" style="stop-color:#F0047F"/>
								<stop  offset="1" style="stop-color:#13007C"/>
							</linearGradient>
							<path id="Path_13633" class="st18" d="M25.2,33.9H4.1C2,34,0.2,32.4,0,30.3c0-0.1,0-0.2,0-0.3V3.8C0.1,1.6,1.8-0.1,4,0
								C4,0,4.1,0,4.1,0h17.5l7.7,6.8v23.2c0,2.1-1.8,3.8-4,3.8C25.3,33.9,25.3,33.9,25.2,33.9z M4.1,2.1c-0.4,0-2.1,0.1-2.1,1.7
								v26.3c0,0.4,0.2,1.7,2.1,1.7h21.1c0.3,0,2.1-0.1,2.1-1.7V7.8L20.8,2L4.1,2.1z"/>
						</g>
						<g id="Group_6786" transform="translate(40.148 71.824)">
							
								<linearGradient id="Path_13634_1_" gradientUnits="userSpaceOnUse" x1="-464.6247" y1="400.3565" x2="-463.6247" y2="400.3565" gradientTransform="matrix(7.25 0 0 -6.918 3368.5291 2773.1372)">
								<stop  offset="0" style="stop-color:#F0047F"/>
								<stop  offset="1" style="stop-color:#13007C"/>
							</linearGradient>
							<path id="Path_13634" class="st19" d="M7.2,6.9H0V0h7.2V6.9z M1.8,5.1h3.7V1.8H1.8L1.8,5.1z"/>
						</g>
						<g id="Group_6787" transform="translate(34.392 82.473)">
							
								<linearGradient id="Path_13635_1_" gradientUnits="userSpaceOnUse" x1="-449.6739" y1="399.9199" x2="-448.6739" y2="399.9199" gradientTransform="matrix(19.536 0 0 -2.062 8784.8018 825.671)">
								<stop  offset="0" style="stop-color:#F0047F"/>
								<stop  offset="1" style="stop-color:#13007C"/>
							</linearGradient>
							<path id="Path_13635" class="st20" d="M18.4,2.1H1c-0.6,0-1-0.4-1.1-1C0,0.5,0.4,0,1,0C1,0,1,0,1,0h17.4c0.6,0,1,0.4,1.1,1
								C19.5,1.6,19.1,2,18.4,2.1C18.5,2.1,18.5,2.1,18.4,2.1z"/>
						</g>
						<g id="Group_6788" transform="translate(34.392 86.571)">
							
								<linearGradient id="Path_13636_1_" gradientUnits="userSpaceOnUse" x1="-449.6739" y1="395.8219" x2="-448.6739" y2="395.8219" gradientTransform="matrix(19.536 0 0 -2.062 8784.8018 817.2199)">
								<stop  offset="0" style="stop-color:#F0047F"/>
								<stop  offset="1" style="stop-color:#13007C"/>
							</linearGradient>
							<path id="Path_13636" class="st21" d="M18.4,2.1H1c-0.6,0-1-0.4-1.1-1C0,0.5,0.4,0,1,0C1,0,1,0,1,0h17.4c0.6,0,1,0.4,1.1,1
								C19.5,1.6,19.1,2,18.4,2.1C18.5,2.1,18.5,2.1,18.4,2.1z"/>
						</g>
						<g id="Group_6789" transform="translate(30.775 33.271)">
							
								<linearGradient id="Path_13637_1_" gradientUnits="userSpaceOnUse" x1="-444.1562" y1="436.134" x2="-444.1562" y2="435.134" gradientTransform="matrix(26.334 0 0 -28.275 11709.5703 12331.6846)">
								<stop  offset="0" style="stop-color:#F0047F"/>
								<stop  offset="1" style="stop-color:#13007C"/>
							</linearGradient>
							<path id="Path_13637" class="st22" d="M18.5,28.3H8V13.2H0L13.2,0l13.2,13.2h-7.9V28.3z M10.3,26h5.9V10.9l4.7,0l-7.7-7.7
								l-7.7,7.7l4.8,0L10.3,26z"/>
						</g>
					</g>
				</g>
			</g>
		</g>
		<g id="Group_6800" transform="translate(356.392 324.816)">
			<g id="Group_6798" transform="translate(1.98 1.65)">
				<g>
					<defs>
						<path id="SVGID_11_" d="M0,44.6c0,24.6,20,44.6,44.6,44.6s44.6-20,44.6-44.6S69.2,0,44.6,0c0,0,0,0,0,0C20,0,0,20,0,44.6"/>
					</defs>
					<clipPath id="SVGID_12_">
						<use xlink:href="#SVGID_11_"  style="overflow:visible;"/>
					</clipPath>
					<g id="Group_6797" class="st23">
						<path id="Path_13639" class="st24" d="M70.4,36.4L47,30.8l-16.3-2.1l-0.3,2l16.2,2.1L68.8,38l4.9,19V86l-49,1.5l-1.1-7.3
							l16.4-7.7l-4.7-10.4l-14.9,4.6l-4.5-3.8l2.2-21.6l-2-0.2l-2.3,22.7l6.1,5.1l14.3-4.4l3.2,7l-16,7.5l1.6,10.5l52.7-1.6v-31
							L70.4,36.4z"/>
						<path id="Path_13640" class="st7" d="M61.3,41.2c-4.2-0.9-8.4,1.6-9.4,5.8c-0.9,4.1,1.7,8.2,5.9,9.1c0,0,0.1,0,0.1,0
							c4.2,0.9,8.4-1.6,9.4-5.8c0.9-4.1-1.7-8.2-5.8-9.1C61.4,41.2,61.3,41.2,61.3,41.2"/>
						<g id="Group_6793" transform="translate(51.078 40.317)">
							
								<linearGradient id="Path_13641_1_" gradientUnits="userSpaceOnUse" x1="-533.146" y1="205.217" x2="-533.146" y2="205.217" gradientTransform="matrix(1 0 0 -1 549.972 215.351)">
								<stop  offset="0" style="stop-color:#F0047F"/>
								<stop  offset="1" style="stop-color:#13007C"/>
							</linearGradient>
							<path id="Path_13641" class="st25" d="M16.8,10.1L16.8,10.1z"/>
							
								<linearGradient id="Path_13642_1_" gradientUnits="userSpaceOnUse" x1="-533.146" y1="205.217" x2="-533.146" y2="205.217" gradientTransform="matrix(1 0 0 -1 539.817 221.666)">
								<stop  offset="0" style="stop-color:#F0047F"/>
								<stop  offset="1" style="stop-color:#13007C"/>
							</linearGradient>
							<path id="Path_13642" class="st26" d="M6.7,16.4L6.7,16.4z"/>
							
								<linearGradient id="Path_13643_1_" gradientUnits="userSpaceOnUse" x1="-10075.5225" y1="205.217" x2="-10074.4824" y2="205.217" gradientTransform="matrix(1.098633e-02 0 0 -1 121.0537 205.417)">
								<stop  offset="0" style="stop-color:#F0047F"/>
								<stop  offset="1" style="stop-color:#13007C"/>
							</linearGradient>
							<path id="Path_13643" class="st27" d="M10.4,0.2L10.4,0.2L10.4,0.2L10.4,0.2z"/>
							
								<linearGradient id="Path_13644_1_" gradientUnits="userSpaceOnUse" x1="-433.3886" y1="176.5188" x2="-432.3506" y2="176.5188" gradientTransform="matrix(17.032 0 0 -16.6503 7381.1445 2947.4097)">
								<stop  offset="0" style="stop-color:#F0047F"/>
								<stop  offset="1" style="stop-color:#13007C"/>
							</linearGradient>
							<path id="Path_13644" class="st28" d="M10.4,0.2L10.4,0.2C9.8,0.1,9.1,0,8.5,0C4.6,0,1.1,2.7,0.2,6.5l0,0
								C0.1,7.1,0,7.7,0,8.3c0,3.9,2.8,7.3,6.7,8.1c0.6,0.1,1.2,0.2,1.9,0.2c3.9,0,7.4-2.7,8.3-6.5C17,9.5,17,8.9,17,8.3
								C17,4.4,14.2,1,10.4,0.2z M15.5,9.8L15.5,9.8c-0.8,3.2-3.7,5.5-7,5.5c-0.5,0-1.1-0.1-1.6-0.2l0,0c-3.2-0.7-5.6-3.5-5.6-6.8
								c0-0.5,0.1-1,0.2-1.5c0.8-3.2,3.7-5.5,7-5.5c0.5,0,1.1,0.1,1.6,0.2h0h0c3.2,0.7,5.6,3.5,5.6,6.8C15.7,8.8,15.7,9.3,15.5,9.8
								L15.5,9.8z"/>
						</g>
						<path id="Path_13645" class="st7" d="M55.9,60.2c-6.4-1.9-10.1-8.6-8.2-15c0-0.1,0-0.1,0.1-0.2c2.2-6.4,9.1-10,15.6-7.9
							c6.4,1.9,10.1,8.6,8.2,15c0,0.1,0,0.1-0.1,0.2C69.3,58.7,62.3,62.3,55.9,60.2 M76.5,60.8c1-1.3,1.8-2.8,2.5-4.3l-2.8-2.5
							c0.2-0.5,0.3-1,0.4-1.6c0-0.2,0.1-0.4,0.1-0.6l3.7-0.9c0.2-1.6,0.2-3.3-0.1-4.9l-3.7-0.9c-0.2-0.7-0.4-1.4-0.6-2.1l2.7-2.6
							c-0.7-1.5-1.5-2.9-2.6-4.2l-3.6,1.1c-0.5-0.5-1-1.1-1.6-1.5l1-3.6c-1.4-1-2.8-1.8-4.4-2.4L65,32.4c-0.5-0.2-1.1-0.3-1.6-0.4
							c-0.2,0-0.4-0.1-0.6-0.1l-1-3.6c-1.7-0.2-3.4-0.2-5,0.1L56,31.9c-0.7,0.2-1.5,0.3-2.2,0.6l-2.7-2.6c-1.5,0.7-3,1.5-4.3,2.5
							l1.1,3.5c-0.6,0.5-1.1,1-1.6,1.6l-3.7-1c-1,1.3-1.8,2.8-2.5,4.3l2.8,2.5c-0.2,0.5-0.3,1-0.4,1.6c0,0.2-0.1,0.4-0.1,0.6
							l-3.7,0.9c-0.2,1.6-0.2,3.3,0.1,4.9l3.7,0.9c0.2,0.7,0.4,1.4,0.6,2.1l-2.7,2.6c0.7,1.5,1.5,2.9,2.6,4.2l3.6-1.1
							c0.5,0.5,1,1.1,1.6,1.5l-1,3.6c1.4,1,2.8,1.8,4.4,2.4l2.6-2.7c0.5,0.2,1.1,0.3,1.6,0.4c0.2,0,0.4,0.1,0.6,0.1l1,3.6
							c1.7,0.2,3.4,0.2,5,0l0.9-3.6c0.7-0.2,1.5-0.4,2.2-0.6l2.7,2.6c1.5-0.7,3-1.5,4.3-2.5l-1.1-3.5c0.6-0.5,1.1-1,1.6-1.6
							L76.5,60.8z"/>
						<g id="Group_6794" transform="translate(37.606 27.133)">
							
								<linearGradient id="Path_13646_1_" gradientUnits="userSpaceOnUse" x1="-416.0919" y1="188.5985" x2="-415.0769" y2="188.5985" gradientTransform="matrix(43.9852 0 0 -43.0123 18301.5215 8133.562)">
								<stop  offset="0" style="stop-color:#F0047F"/>
								<stop  offset="1" style="stop-color:#13007C"/>
							</linearGradient>
							<path id="Path_13646" class="st29" d="M43.8,18.7L43.7,18l-3.8-0.9c-0.1-0.3-0.2-0.7-0.3-1l2.7-2.7l-0.3-0.6
								c-0.7-1.6-1.6-3.1-2.7-4.4L39,7.9l-3.7,1.1c-0.2-0.3-0.5-0.5-0.8-0.7l1-3.6L35,4.2c-1.4-1-3-1.9-4.6-2.5l-0.6-0.2l-2.7,2.8
								C26.7,4,26.4,3.9,26,3.8l-1-3.6l-0.7-0.1C23.6,0.1,22.8,0,22,0c-1,0-1.9,0.1-2.9,0.2l-0.7,0.1L17.5,4
								c-0.4,0.1-0.7,0.2-1.1,0.3l-2.7-2.7l-0.6,0.3C11.5,2.5,10,3.4,8.6,4.5L8,4.9l1.1,3.6C8.9,8.7,8.6,9,8.4,9.3l-3.7-1L4.3,8.8
								c-1,1.4-1.9,2.9-2.6,4.5l-0.3,0.6l2.8,2.6c-0.1,0.3-0.2,0.7-0.3,1l-3.7,1l-0.1,0.7C0,20,0,20.8,0,21.6c0,0.9,0.1,1.9,0.2,2.8
								L0.3,25L4,25.9c0.1,0.3,0.2,0.7,0.3,1l-2.7,2.7l0.3,0.6c0.7,1.6,1.6,3.1,2.7,4.4L5,35.2l3.7-1.1c0.3,0.3,0.5,0.5,0.8,0.7
								l-1,3.6L9,38.9c1.4,1,3,1.9,4.6,2.5l0.6,0.2l2.7-2.7c0.4,0.1,0.7,0.2,1.1,0.3l1,3.6l0.7,0.1C20.4,43,21.2,43,22,43
								c1,0,1.9-0.1,2.8-0.2l0.7-0.1l0.9-3.7c0.4-0.1,0.7-0.2,1.1-0.3l2.7,2.7l0.6-0.3c1.6-0.7,3.1-1.6,4.5-2.6l0.6-0.4l-1.1-3.6
								c0.3-0.2,0.5-0.5,0.8-0.8l3.1,0.8l0.6,0.2l0.4-0.5c1-1.4,1.9-2.9,2.6-4.5l0.3-0.6l-2.8-2.6c0.1-0.3,0.2-0.7,0.3-1l3.7-1
								l0.1-0.7c0.1-0.8,0.1-1.6,0.1-2.4C44,20.5,43.9,19.6,43.8,18.7z M18,39.2L18,39.2L18,39.2z M41.9,22.9l-3.6,0.9l-0.1,0.6
								c0,0.2-0.1,0.4-0.1,0.5v0v0c-0.1,0.5-0.3,1-0.4,1.5l-0.2,0.6l2.7,2.5c-0.5,1-1,2-1.7,2.9l-3.6-1L34.5,32
								c-0.5,0.5-1,1-1.5,1.5l-0.5,0.4l1.1,3.5c-0.9,0.7-1.9,1.2-3,1.7l-2.6-2.6l-0.6,0.2c-0.7,0.2-1.4,0.4-2,0.6l-0.6,0.1L24,40.9
								C23.3,41,22.7,41,22,41c-0.5,0-1,0-1.5-0.1l-0.9-3.5l-0.6-0.1c-0.2,0-0.4-0.1-0.5-0.1h0c-0.5-0.1-1-0.2-1.5-0.4l-0.6-0.2
								l-2.5,2.6c-1-0.5-2.1-1-3-1.6l1-3.5l-0.5-0.4c-0.5-0.4-1-0.9-1.5-1.4l-0.4-0.5l-3.6,1C5.1,32,4.5,31,4,30l2.6-2.5l-0.2-0.6
								c-0.2-0.6-0.4-1.3-0.6-2l-0.1-0.6l-3.6-0.8C2,22.8,2,22.2,2,21.6c0-0.5,0-1,0.1-1.5l3.6-0.9l0.1-0.6c0-0.2,0.1-0.3,0.1-0.5
								c0.1-0.5,0.3-1,0.4-1.5l0.2-0.6l-2.7-2.5c0.5-1,1-2,1.7-2.9l3.6,1L9.4,11c0.5-0.5,1-1,1.5-1.5l0.5-0.4l-1.1-3.5
								c0.9-0.7,1.9-1.2,3-1.7l2.6,2.6l0.6-0.2c0.7-0.2,1.3-0.4,2-0.6l0.6-0.1L20,2.1C20.7,2,21.3,2,22,2c0.5,0,1,0,1.5,0.1l0.9,3.5
								l0.6,0.1c0.2,0,0.4,0.1,0.5,0.1l0,0c0.5,0.1,1,0.2,1.5,0.4l0.6,0.2l2.5-2.6c1.1,0.5,2.1,1,3,1.7l-1,3.5l0.5,0.4
								c0.5,0.5,1,0.9,1.5,1.5l0.4,0.5l3.6-1c0.7,0.9,1.3,1.9,1.8,2.9l-2.6,2.5l0.2,0.6c0.2,0.6,0.4,1.3,0.6,2l0.1,0.6l3.6,0.8
								c0.1,0.6,0.1,1.2,0.1,1.9C42,22,42,22.5,41.9,22.9L41.9,22.9z"/>
							
								<linearGradient id="Path_13647_1_" gradientUnits="userSpaceOnUse" x1="-417.6343" y1="189.0438" x2="-416.6193" y2="189.0438" gradientTransform="matrix(26.8199 0 0 -26.2504 11209.2939 4983.979)">
								<stop  offset="0" style="stop-color:#F0047F"/>
								<stop  offset="1" style="stop-color:#13007C"/>
							</linearGradient>
							<path id="Path_13647" class="st30" d="M26,9c-1.3-0.4-2.7-0.6-4-0.6c-5.8,0-11,3.7-12.8,9.2c-0.4,1.3-0.6,2.6-0.6,4
								c0,5.8,3.8,10.9,9.4,12.5c1.3,0.4,2.7,0.6,4,0.6c5.8,0,11-3.7,12.8-9.2c0.4-1.3,0.6-2.6,0.6-4C35.4,15.7,31.6,10.7,26,9z
								 M32.9,24.9c-1.6,4.7-6,7.8-10.9,7.8c-1.2,0-2.3-0.2-3.4-0.5l-0.3,0.9l0.3-0.9c-4.7-1.4-7.9-5.7-8-10.6
								c0-1.1,0.2-2.3,0.5-3.3c1.6-4.7,6-7.8,10.9-7.8c1.2,0,2.3,0.2,3.4,0.5c4.7,1.4,7.9,5.7,8,10.6C33.4,22.7,33.2,23.8,32.9,24.9
								L32.9,24.9z"/>
						</g>
						<path id="Path_13648" class="st7" d="M19.1,68.4c2.8-0.1,5.1-2.4,5-5.3c-0.1-2.8-2.4-5.1-5.3-5c-2.8,0.1-5,2.3-5,5.1
							C13.9,66.2,16.2,68.4,19.1,68.4"/>
						
							<linearGradient id="Path_13649_1_" gradientUnits="userSpaceOnUse" x1="-385.2655" y1="217.6294" x2="-384.2095" y2="217.6294" gradientTransform="matrix(11.5601 0 0 -11.5588 4466.8184 2578.8208)">
							<stop  offset="0" style="stop-color:#F0047F"/>
							<stop  offset="1" style="stop-color:#13007C"/>
						</linearGradient>
						<path id="Path_13649" class="st31" d="M19.1,57.5c-3.2,0.1-5.7,2.7-5.6,5.9c0.1,3.2,2.7,5.7,5.9,5.6c3.1-0.1,5.6-2.6,5.6-5.8
							C25,60.1,22.3,57.5,19.1,57.5z M19.1,67.7c-2.5-0.1-4.4-2.1-4.3-4.6c0.1-2.5,2.1-4.4,4.6-4.3c2.4,0.1,4.3,2,4.3,4.5
							C23.6,65.8,21.6,67.8,19.1,67.7L19.1,67.7z"/>
						<path id="Path_13650" class="st24" d="M19.1,61c-1.2,0-2.2,1.1-2.2,2.3c0,1.2,1.1,2.2,2.3,2.2c1.2,0,2.2-1,2.2-2.2
							C21.4,62,20.4,61,19.1,61C19.1,61,19.1,61,19.1,61z"/>
						<path id="Path_13651" class="st7" d="M37.1,72.7c2.8-0.1,5.1-2.4,5-5.3c-0.1-2.8-2.4-5.1-5.3-5c-2.8,0.1-5,2.3-5,5.1
							C31.9,70.5,34.2,72.8,37.1,72.7"/>
						
							<linearGradient id="Path_13652_1_" gradientUnits="userSpaceOnUse" x1="-385.2639" y1="217.629" x2="-384.2079" y2="217.629" gradientTransform="matrix(11.5621 0 0 -11.5609 4485.5898 2583.5962)">
							<stop  offset="0" style="stop-color:#F0047F"/>
							<stop  offset="1" style="stop-color:#13007C"/>
						</linearGradient>
						<path id="Path_13652" class="st32" d="M37.1,61.8c-3.2,0.1-5.7,2.7-5.6,5.9c0.1,3.2,2.7,5.7,5.9,5.6c3.1-0.1,5.6-2.6,5.6-5.8
							C43,64.4,40.3,61.8,37.1,61.8z M37.1,72.1c-2.5-0.1-4.4-2.1-4.3-4.6s2.1-4.4,4.6-4.3c2.4,0.1,4.3,2,4.3,4.5
							C41.7,70.1,39.6,72.1,37.1,72.1z"/>
						<path id="Path_13653" class="st24" d="M37.1,65.4c-1.2,0-2.2,1.1-2.2,2.3c0,1.2,1.1,2.2,2.3,2.2c1.2,0,2.2-1,2.2-2.2
							C39.4,66.4,38.4,65.4,37.1,65.4C37.1,65.4,37.1,65.4,37.1,65.4z"/>
						<path id="Path_13654" class="st7" d="M22.6,88.8c2.8-0.1,5.1-2.4,5-5.3c-0.1-2.8-2.4-5.1-5.3-5c-2.8,0.1-5,2.3-5,5.1
							C17.4,86.6,19.7,88.9,22.6,88.8"/>
						
							<linearGradient id="Path_13655_1_" gradientUnits="userSpaceOnUse" x1="-385.2639" y1="217.629" x2="-384.2079" y2="217.629" gradientTransform="matrix(11.5621 0 0 -11.5609 4471.0645 2599.6851)">
							<stop  offset="0" style="stop-color:#F0047F"/>
							<stop  offset="1" style="stop-color:#13007C"/>
						</linearGradient>
						<path id="Path_13655" class="st33" d="M22.6,77.9c-3.2,0.1-5.7,2.7-5.6,5.9c0.1,3.2,2.7,5.7,5.9,5.6c3.1-0.1,5.6-2.6,5.6-5.8
							C28.5,80.5,25.8,77.9,22.6,77.9z M22.6,88.2c-2.5-0.1-4.4-2.1-4.3-4.6c0.1-2.5,2.1-4.4,4.6-4.3c2.4,0.1,4.3,2,4.3,4.5
							C27.1,86.2,25.1,88.2,22.6,88.2z"/>
						<path id="Path_13656" class="st24" d="M22.6,81.5c-1.2,0-2.2,1.1-2.2,2.3c0,1.2,1.1,2.2,2.3,2.2c1.2,0,2.2-1,2.2-2.2
							C24.9,82.5,23.8,81.5,22.6,81.5C22.6,81.5,22.6,81.5,22.6,81.5z"/>
						<path id="Path_13657" class="st34" d="M25.5,31.5c-2.8-0.6-5.7,1.1-6.3,3.9c-0.6,2.8,1.2,5.6,4,6.2c0,0,0,0,0.1,0
							c2.8,0.6,5.7-1.1,6.3-3.9C30.1,34.9,28.4,32.1,25.5,31.5C25.5,31.5,25.5,31.5,25.5,31.5z"/>
						<path id="Path_13658" class="st7" d="M33.5,43.5c0.6-0.8,1-1.6,1.4-2.5l-1.6-1.5c0.1-0.3,0.2-0.6,0.3-0.9c0-0.1,0-0.2,0.1-0.3
							l2.1-0.5c0.1-0.9,0.1-1.9,0-2.8l-2.1-0.5c-0.1-0.4-0.2-0.8-0.3-1.2l1.5-1.5c-0.4-0.9-0.9-1.7-1.5-2.4L31.3,30
							c-0.3-0.3-0.6-0.6-0.9-0.9l0.6-2c-0.8-0.6-1.6-1-2.5-1.4l-1.5,1.5C26.6,27.1,26.3,27,26,27c-0.1,0-0.2,0-0.3-0.1l-0.6-2
							c-1-0.1-1.9-0.1-2.9,0l-0.5,2.1c-0.4,0.1-0.8,0.2-1.2,0.3L19,25.8c-0.9,0.4-1.7,0.9-2.5,1.4l0.6,2c-0.3,0.3-0.6,0.6-0.9,0.9
							l-2.1-0.6c-0.6,0.8-1,1.6-1.4,2.5l1.6,1.5c-0.1,0.3-0.2,0.6-0.3,0.9c0,0.1,0,0.2-0.1,0.3l-2.1,0.5c-0.1,0.9-0.1,1.9,0,2.8
							l2.1,0.5c0.1,0.4,0.2,0.8,0.3,1.2l-1.5,1.5c0.4,0.9,0.9,1.7,1.5,2.4l2.1-0.6c0.3,0.3,0.6,0.6,0.9,0.9l-0.6,2
							c0.8,0.6,1.6,1,2.5,1.4l1.5-1.5c0.3,0.1,0.6,0.2,0.9,0.2c0.1,0,0.2,0,0.3,0.1l0.6,2.1c1,0.1,1.9,0.1,2.9,0l0.5-2.1
							c0.4-0.1,0.8-0.2,1.2-0.3l1.5,1.5c0.9-0.4,1.7-0.9,2.5-1.4l-0.6-2c0.3-0.3,0.6-0.6,0.9-0.9L33.5,43.5z"/>
						
							<linearGradient id="Path_13659_1_" gradientUnits="userSpaceOnUse" x1="-380.2528" y1="216.2432" x2="-379.2398" y2="216.2432" gradientTransform="matrix(25.366 0 0 -24.81 9656.5059 5401.5259)">
							<stop  offset="0" style="stop-color:#F0047F"/>
							<stop  offset="1" style="stop-color:#13007C"/>
						</linearGradient>
						<path id="Path_13659" class="st35" d="M36.4,34.9l-0.1-0.5l-2.2-0.5c0-0.2-0.1-0.3-0.1-0.5l1.6-1.5l-0.2-0.4
							c-0.4-0.9-0.9-1.8-1.6-2.6l-0.3-0.4l-2.1,0.6c-0.1-0.1-0.2-0.2-0.4-0.3l0.6-2.1l-0.4-0.3c-0.8-0.6-1.7-1.1-2.7-1.5l-0.4-0.2
							l-1.5,1.6c-0.2,0-0.3-0.1-0.5-0.1l-0.6-2.1l-0.5,0c-0.5,0-0.9-0.1-1.4-0.1c-0.6,0-1.1,0-1.6,0.1l-0.5,0.1l-0.5,2.1
							c-0.2,0-0.3,0.1-0.5,0.1L19.1,25l-0.4,0.2c-0.9,0.4-1.8,0.9-2.6,1.5L15.7,27l0.6,2.1c-0.1,0.1-0.2,0.2-0.3,0.3l-2.2-0.6
							l-0.3,0.4c-0.6,0.8-1.1,1.7-1.5,2.6l-0.2,0.4l1.6,1.5c0,0.2-0.1,0.3-0.1,0.5l-2.1,0.5l0,0.5c-0.1,0.5-0.1,0.9-0.1,1.4
							c0,0.5,0,1.1,0.1,1.6l0.1,0.5l2.2,0.5c0,0.2,0.1,0.3,0.1,0.5L12,41.1l0.2,0.4c0.4,0.9,0.9,1.8,1.6,2.6l0.3,0.4l2.1-0.6
							c0.1,0.1,0.2,0.2,0.4,0.3L16,46.3l0.4,0.3c0.8,0.6,1.7,1.1,2.7,1.5l0.4,0.2l1.5-1.6c0.2,0,0.3,0.1,0.5,0.1l0.6,2.1l0.5,0
							c0.5,0,0.9,0.1,1.4,0.1c0.5,0,1.1,0,1.6-0.1l0.5-0.1l0.5-2.1c0.2,0,0.3-0.1,0.5-0.1l1.6,1.5l0.4-0.2c0.9-0.4,1.8-0.9,2.6-1.5
							l0.4-0.3L31.3,44c0.1-0.1,0.2-0.2,0.3-0.3l1.7,0.5l0.4,0.1l0.3-0.4c0.6-0.8,1.1-1.7,1.5-2.6l0.2-0.4l-1.6-1.5
							c0-0.2,0.1-0.3,0.1-0.5l2.1-0.6l0.1-0.5c0.1-0.5,0.1-0.9,0.1-1.4C36.5,36,36.5,35.4,36.4,34.9z M21.5,46.7L21.5,46.7z
							 M35.2,37.3l-2,0.5L33,38.2c0,0.1,0,0.2-0.1,0.3v0v0c-0.1,0.3-0.1,0.6-0.2,0.8l-0.1,0.4l1.5,1.4c-0.3,0.5-0.6,1.1-0.9,1.5
							l-2-0.5L31,42.5c-0.3,0.3-0.5,0.6-0.8,0.8l-0.3,0.3l0.6,2c-0.5,0.3-1,0.7-1.6,0.9L27.3,45l-0.4,0.1c-0.4,0.1-0.8,0.2-1.2,0.3
							l-0.4,0.1l-0.5,2c-0.3,0-0.7,0.1-1,0.1c-0.3,0-0.5,0-0.8,0l-0.5-2l-0.4-0.1c-0.1,0-0.2,0-0.3-0.1h0c-0.3-0.1-0.6-0.1-0.9-0.2
							l-0.4-0.1l-1.4,1.5c-0.6-0.2-1.1-0.5-1.6-0.9l0.6-2l-0.3-0.3c-0.3-0.3-0.6-0.5-0.9-0.8l-0.3-0.3l-2,0.6
							c-0.3-0.5-0.7-1-0.9-1.5l1.5-1.5L15,39.6c-0.1-0.4-0.2-0.7-0.3-1.1L14.6,38l-2.1-0.5c0-0.3-0.1-0.7-0.1-1c0-0.3,0-0.5,0-0.8
							l2-0.5l0.1-0.4c0-0.1,0-0.2,0.1-0.3l0,0c0.1-0.3,0.1-0.6,0.2-0.8l0.1-0.4l-1.5-1.4c0.3-0.5,0.6-1.1,0.9-1.5l2,0.5l0.3-0.3
							c0.3-0.3,0.5-0.6,0.8-0.8l0.3-0.3l-0.6-2c0.5-0.3,1-0.7,1.6-0.9l1.5,1.5l0.4-0.1c0.4-0.1,0.8-0.2,1.2-0.3l0.4-0.1l0.5-2
							c0.3,0,0.7-0.1,1-0.1c0.3,0,0.5,0,0.8,0l0.5,2l0.4,0.1c0.1,0,0.2,0,0.3,0.1c0.3,0.1,0.6,0.1,0.9,0.2l0.4,0.1l1.4-1.5
							c0.6,0.2,1.1,0.5,1.6,0.9l-0.6,2l0.3,0.3c0.3,0.3,0.6,0.5,0.9,0.8l0.3,0.3l2-0.6c0.3,0.5,0.7,1,0.9,1.5l-1.5,1.5l0.1,0.4
							c0.1,0.4,0.2,0.7,0.3,1.1l0.1,0.4l2.1,0.5c0,0.3,0.1,0.7,0.1,1C35.2,36.8,35.2,37,35.2,37.3L35.2,37.3z"/>
						<path id="Path_13660" class="st7" d="M23.8,41.7c2.8-0.1,5.1-2.4,5-5.3c-0.1-2.8-2.4-5.1-5.3-5c-2.8,0.1-5,2.3-5,5.1
							C18.6,39.4,21,41.7,23.8,41.7"/>
						
							<linearGradient id="Path_13661_1_" gradientUnits="userSpaceOnUse" x1="-385.2639" y1="217.629" x2="-384.2079" y2="217.629" gradientTransform="matrix(11.5621 0 0 -11.5609 4472.3145 2552.5083)">
							<stop  offset="0" style="stop-color:#F0047F"/>
							<stop  offset="1" style="stop-color:#13007C"/>
						</linearGradient>
						<path id="Path_13661" class="st36" d="M23.8,30.8c-3.2,0.1-5.7,2.7-5.6,5.9c0.1,3.2,2.7,5.7,5.9,5.6c3.1-0.1,5.6-2.6,5.6-5.8
							C29.7,33.3,27.1,30.7,23.8,30.8z M23.8,41c-2.5-0.1-4.4-2.1-4.3-4.6c0.1-2.5,2.1-4.4,4.6-4.3c2.4,0.1,4.3,2,4.3,4.5
							C28.4,39,26.3,41,23.8,41L23.8,41z"/>
						<path id="Path_13662" class="st24" d="M23.8,34.3c-1.2,0-2.2,1.1-2.2,2.3c0,1.2,1.1,2.2,2.3,2.2c1.2,0,2.2-1,2.2-2.2
							C26.1,35.3,25.1,34.3,23.8,34.3C23.8,34.3,23.8,34.3,23.8,34.3z"/>
						<path id="Path_13663" class="st7" d="M73.1,87.3c0.6-0.4,1.1-0.9,1.6-1.5l-0.8-1.4c0.1-0.2,0.3-0.4,0.4-0.6
							c0-0.1,0.1-0.1,0.1-0.2l1.6,0.1c0.3-0.6,0.5-1.3,0.6-2L75.2,81c0-0.3,0-0.6,0-0.9l1.4-0.7c-0.1-0.7-0.3-1.4-0.5-2l-1.6,0
							c-0.1-0.3-0.3-0.6-0.5-0.8l0.9-1.3c-0.4-0.6-0.9-1.1-1.5-1.5L72,74.3c-0.2-0.1-0.4-0.3-0.6-0.4c-0.1,0-0.1-0.1-0.2-0.1
							l0.1-1.6c-0.7-0.3-1.4-0.5-2.1-0.6L68.4,73c-0.3,0-0.6,0-1,0l-0.8-1.4c-0.7,0.1-1.4,0.3-2.1,0.5l0,1.6
							c-0.3,0.1-0.6,0.3-0.8,0.4l-1.4-0.8c-0.6,0.4-1.1,0.9-1.6,1.5l0.8,1.4c-0.1,0.2-0.3,0.4-0.4,0.6c0,0.1-0.1,0.1-0.1,0.2
							l-1.6-0.1c-0.3,0.6-0.5,1.3-0.6,2l1.4,0.8c0,0.3,0,0.6,0,0.9l-1.4,0.7c0.1,0.7,0.3,1.4,0.5,2l1.6,0c0.1,0.3,0.3,0.6,0.5,0.8
							l-0.9,1.3c0.4,0.6,0.9,1.1,1.5,1.5l1.4-0.8c0.2,0.1,0.4,0.3,0.6,0.4c0.1,0,0.1,0.1,0.2,0.1l-0.1,1.6c0.7,0.3,1.4,0.5,2.1,0.6
							l0.8-1.4c0.3,0,0.6,0,1,0l0.8,1.4c0.7-0.1,1.4-0.3,2.1-0.5l0-1.6c0.3-0.1,0.6-0.3,0.8-0.4L73.1,87.3z"/>
						<g id="Group_6795" transform="translate(58.476 71.252)">
							
								<linearGradient id="Path_13664_1_" gradientUnits="userSpaceOnUse" x1="-540.544" y1="174.282" x2="-540.544" y2="174.282" gradientTransform="matrix(1 0 0 -1 543.011 179.571)">
								<stop  offset="0" style="stop-color:#F0047F"/>
								<stop  offset="1" style="stop-color:#13007C"/>
							</linearGradient>
							<path id="Path_13664" class="st37" d="M2.5,5.3L2.5,5.3z"/>
							
								<linearGradient id="Path_13665_1_" gradientUnits="userSpaceOnUse" x1="-440.2784" y1="145.4373" x2="-439.2424" y2="145.4373" gradientTransform="matrix(18.5432 0 0 -18.1239 8163.8115 2644.9565)">
								<stop  offset="0" style="stop-color:#F0047F"/>
								<stop  offset="1" style="stop-color:#13007C"/>
							</linearGradient>
							<path id="Path_13665" class="st38" d="M17.1,9.1C17.1,9,17.1,9,17.1,9.1l1.5-0.8l0-0.2c-0.1-0.7-0.3-1.4-0.5-2.1l-0.1-0.2
								l-1.7,0c-0.1-0.2-0.2-0.3-0.3-0.5l0.9-1.4l-0.1-0.2c-0.4-0.6-1-1.1-1.5-1.6L15,1.9l-1.4,0.8c-0.1-0.1-0.3-0.2-0.5-0.3l0,0
								l0,0l0.1-1.6l-0.2-0.1c-0.7-0.3-1.4-0.5-2.1-0.6l-0.2,0L9.7,1.4c-0.2,0-0.3,0-0.5,0c0,0-0.1,0-0.1,0L8.4,0L8.2,0
								C7.4,0.1,6.7,0.3,6,0.5L5.8,0.6l0,1.6C5.6,2.3,5.4,2.4,5.3,2.5L3.9,1.6L3.7,1.8C3.1,2.2,2.6,2.7,2.1,3.3L1.9,3.5l0.8,1.4
								C2.6,5,2.6,5.1,2.5,5.3l0,0L0.8,5.3L0.7,5.5C0.4,6.1,0.2,6.9,0.1,7.6l0,0.2l1.4,0.8c0,0.2,0,0.3,0,0.5c0,0,0,0.1,0,0.1L0,9.9
								l0,0.2c0.1,0.7,0.3,1.4,0.5,2.1l0.1,0.2l1.7,0c0.1,0.2,0.2,0.3,0.3,0.5l-0.9,1.4l0.1,0.2c0.4,0.6,1,1.1,1.5,1.6l0.2,0.1
								L5,15.4c0.1,0.1,0.3,0.2,0.5,0.3l0,0l0,0l-0.1,1.6l0.2,0.1C6.3,17.7,7,17.9,7.7,18l0.2,0l0.8-1.4c0.2,0,0.3,0,0.5,0h0.1
								l0.8,1.4l0.2,0c0.7-0.1,1.5-0.3,2.2-0.5l0.2-0.1l0-1.6c0.2-0.1,0.3-0.2,0.5-0.3l1.2,0.7l0.2,0.1l0.2-0.1
								c0.6-0.4,1.1-0.9,1.6-1.5l0.1-0.2l-0.8-1.4c0.1-0.1,0.2-0.3,0.3-0.4l0,0l0,0l0,0l0,0c0,0,0,0,0,0l1.6,0.1l0.1-0.2
								c0.3-0.7,0.5-1.4,0.6-2.1l0-0.2l-1.4-0.8C17.1,9.4,17.1,9.2,17.1,9.1z M17.3,12.2l-1.6-0.1l-0.1,0.2c0,0.1-0.1,0.1-0.1,0.2
								l0,0l0,0c-0.1,0.2-0.2,0.4-0.4,0.6L15,13.2l0.8,1.3c-0.4,0.4-0.7,0.8-1.2,1.1l-1.3-0.8L13.1,15c-0.3,0.2-0.5,0.3-0.8,0.4
								l-0.2,0.1l0,1.5c-0.5,0.2-1,0.3-1.6,0.4L9.8,16l-0.2,0c-0.1,0-0.2,0-0.3,0c-0.2,0-0.4,0-0.6,0l-0.2,0l-0.8,1.3
								c-0.5-0.1-1.1-0.3-1.6-0.5l0.1-1.6l-0.2-0.1c-0.1,0-0.1-0.1-0.2-0.1l0,0c-0.2-0.1-0.4-0.2-0.6-0.4L5,14.7l-1.4,0.8
								c-0.4-0.3-0.8-0.7-1.1-1.1L3.3,13l-0.1-0.2c-0.2-0.3-0.3-0.5-0.4-0.8l-0.1-0.2l-1.6,0c-0.2-0.5-0.3-1-0.4-1.5l1.4-0.7l0-0.2
								c0-0.1,0-0.2,0-0.3c0-0.2,0-0.4,0-0.6l0-0.2L0.8,7.5c0.1-0.5,0.3-1,0.5-1.5L2.8,6l0.1-0.2C3,5.7,3,5.7,3,5.6l0,0
								c0.1-0.2,0.2-0.4,0.4-0.6l0.1-0.2L2.7,3.5c0.4-0.4,0.7-0.8,1.2-1.1l1.3,0.8l0.2-0.1C5.7,3,6,2.9,6.2,2.7l0.2-0.1l0-1.6
								C7,0.9,7.5,0.8,8,0.7l0.7,1.4l0.2,0c0.1,0,0.2,0,0.3,0c0.2,0,0.4,0,0.6,0l0.2,0l0.8-1.3C11.4,0.9,12,1,12.5,1.2l-0.1,1.5
								l0.2,0.1c0.1,0,0.1,0.1,0.2,0.1l0,0c0.2,0.1,0.4,0.2,0.6,0.4l0.2,0.1l1.4-0.8C15.3,3,15.7,3.4,16,3.8l-0.8,1.3l0.1,0.2
								c0.2,0.3,0.3,0.5,0.4,0.8l0.1,0.2l1.6,0c0.2,0.5,0.3,1,0.4,1.5l-1.4,0.7l0,0.2c0,0.1,0,0.2,0,0.3c0,0.2,0,0.4,0,0.6l0,0.2
								l1.4,0.8C17.6,11.2,17.5,11.7,17.3,12.2L17.3,12.2z"/>
						</g>
						<path id="Path_13666" class="st7" d="M66.6,84c2,0.6,4.2-0.5,4.9-2.5c0.6-2-0.5-4.1-2.5-4.7c0,0-0.1,0-0.1,0
							c-2-0.6-4.2,0.5-4.9,2.5C63.4,81.2,64.5,83.3,66.6,84C66.5,83.9,66.6,84,66.6,84"/>
						<g id="Group_6796" transform="translate(63.496 76.166)">
							
								<linearGradient id="Path_13667_1_" gradientUnits="userSpaceOnUse" x1="-13696.8877" y1="169.368" x2="-13695.8047" y2="169.368" gradientTransform="matrix(7.995605e-03 0 0 -1 112.5146 177.482)">
								<stop  offset="0" style="stop-color:#F0047F"/>
								<stop  offset="1" style="stop-color:#13007C"/>
							</linearGradient>
							<path id="Path_13667" class="st39" d="M3,8.1L3,8.1L3,8.1L3,8.1z"/>
							
								<linearGradient id="Path_13668_1_" gradientUnits="userSpaceOnUse" x1="-452.0781" y1="142.4832" x2="-451.0001" y2="142.4832" gradientTransform="matrix(8.4969 0 0 -8.2982 3840.9526 1186.5059)">
								<stop  offset="0" style="stop-color:#F0047F"/>
								<stop  offset="1" style="stop-color:#13007C"/>
							</linearGradient>
							<path id="Path_13668" class="st40" d="M5.5,0.2C5.1,0.1,4.7,0,4.2,0C2.4,0,0.8,1.2,0.2,2.9C0.1,3.3,0,3.7,0,4.2
								c0,1.8,1.2,3.5,3,4c0.4,0.1,0.8,0.2,1.2,0.2c1.8,0,3.5-1.2,4.1-2.9C8.4,5,8.5,4.6,8.5,4.1C8.5,2.3,7.3,0.7,5.5,0.2z M7.7,5.2
								C7.2,6.6,5.8,7.6,4.2,7.6c-0.4,0-0.7-0.1-1.1-0.2L3.1,7.8l0.1-0.3C1.7,7.1,0.7,5.7,0.7,4.2c0-0.3,0.1-0.7,0.2-1
								c0.5-1.5,1.9-2.5,3.4-2.5c0.4,0,0.7,0.1,1.1,0.2c1.5,0.4,2.5,1.8,2.5,3.3C7.8,4.5,7.8,4.8,7.7,5.2L7.7,5.2z"/>
						</g>
						<path id="Path_13669" class="st24" d="M68.2,78.7c-0.9-0.3-1.9,0.2-2.1,1.1c-0.3,0.9,0.2,1.8,1.1,2.1c0,0,0,0,0,0
							c0.9,0.3,1.9-0.2,2.1-1.1C69.7,79.9,69.2,79,68.2,78.7C68.3,78.7,68.3,78.7,68.2,78.7z"/>
					</g>
				</g>
			</g>
			<g id="Group_6799">
				
					<linearGradient id="Path_13671_1_" gradientUnits="userSpaceOnUse" x1="-374.7344" y1="217.5085" x2="-374.7344" y2="216.4975" gradientTransform="matrix(92.462 0 0 -92.462 34694.9141 20111.2617)">
					<stop  offset="0" style="stop-color:#F0047F"/>
					<stop  offset="1" style="stop-color:#13007C"/>
				</linearGradient>
				<path id="Path_13671" class="st41" d="M46.2,90.8v-1.7c23.7,0,42.9-19.2,42.9-42.9S69.9,3.3,46.2,3.3S3.3,22.5,3.3,46.2l0,0
					c0,23.7,19.2,42.9,42.9,42.9v3.3C20.7,92.5,0,71.8,0,46.2C0,20.7,20.7,0,46.2,0c25.5,0,46.2,20.7,46.2,46.2
					c0,25.5-20.7,46.2-46.2,46.2V90.8z"/>
			</g>
		</g>
		<g id="Group_6802" transform="translate(0 324.571)">
			<g>
				<defs>
					<rect id="SVGID_13_" x="0" y="0" width="92.1" height="92.1"/>
				</defs>
				<clipPath id="SVGID_14_">
					<use xlink:href="#SVGID_13_"  style="overflow:visible;"/>
				</clipPath>
				<g id="Group_6801" class="st42">
					<path id="Path_13672" class="st10" d="M46.1,90.9c24.7,0,44.8-20.1,44.8-44.8S70.8,1.3,46.1,1.3C21.3,1.3,1.3,21.3,1.3,46.1
						C1.3,70.8,21.3,90.9,46.1,90.9C46.1,90.9,46.1,90.9,46.1,90.9"/>
				</g>
			</g>
		</g>
		<g id="Group_6807" transform="translate(0.949 325.109)">
			<g id="Group_6805" transform="translate(2.403 1.434)">
				<g id="Group_6804">
					<g>
						<defs>
							<path id="SVGID_15_" d="M0,43.4c0,24,19.4,43.4,43.4,43.4s43.4-19.4,43.4-43.4C86.9,19.5,67.4,0,43.4,0C19.4,0,0,19.5,0,43.4
								C0,43.4,0,43.4,0,43.4"/>
						</defs>
						<clipPath id="SVGID_16_">
							<use xlink:href="#SVGID_15_"  style="overflow:visible;"/>
						</clipPath>
						<g id="Group_6803" class="st43">
							
								<linearGradient id="Path_13673_1_" gradientUnits="userSpaceOnUse" x1="-22.1077" y1="215.8984" x2="-22.1077" y2="214.8984" gradientTransform="matrix(67.961 0 0 -67.959 1545.9011 14695.9629)">
								<stop  offset="0" style="stop-color:#F0047F"/>
								<stop  offset="1" style="stop-color:#13007C"/>
							</linearGradient>
							<path id="Path_13673" class="st44" d="M46.5,54.6h30.9V23.7H46.5V54.6z M52.7,29.9h18.5v18.5H52.7L52.7,29.9z M9.5,54.6h30.9
								V23.7H9.5L9.5,54.6z M15.6,29.9h18.5v18.5H15.6L15.6,29.9z M58.9,42.3h6.2v-6.2h-6.2V42.3z M21.8,42.3H28v-6.2h-6.2V42.3z
								 M71.2,60.8V67h-6.2v-6.2H46.5v30.9h6.2V73.2h6.2v6.2h18.5V60.8H71.2z M9.5,91.7h30.9V60.8H9.5L9.5,91.7z M15.6,67h18.5v18.5
								H15.6L15.6,67z M21.8,79.3H28v-6.2h-6.2V79.3z M71.2,91.7h6.2v-6.2h-6.2V91.7z M58.9,91.7h6.2v-6.2h-6.2V91.7z"/>
						</g>
					</g>
				</g>
				<rect id="Rectangle_2045" x="21.5" y="35.8" class="st24" width="6.9" height="6.9"/>
				<rect id="Rectangle_2046" x="58.8" y="35.8" class="st24" width="6.9" height="6.9"/>
				<rect id="Rectangle_2047" x="21.5" y="72.9" class="st24" width="6.9" height="6.9"/>
			</g>
			<g id="Group_6806">
				
					<linearGradient id="Path_13675_1_" gradientUnits="userSpaceOnUse" x1="-19.3176" y1="217.2229" x2="-19.3176" y2="216.2119" gradientTransform="matrix(90.4 0 0 -90.4 1791.5002 19636.9414)">
					<stop  offset="0" style="stop-color:#F0047F"/>
					<stop  offset="1" style="stop-color:#13007C"/>
				</linearGradient>
				<path id="Path_13675" class="st45" d="M45.2,88.8v-1.6c23.2,0,42-18.8,42-42c0-23.2-18.8-42-42-42c-23.2,0-42,18.8-42,42
					c0,0,0,0,0,0c0,23.2,18.8,41.9,42,42v3.2C20.2,90.4,0,70.2,0,45.2C0,20.2,20.2,0,45.2,0c25,0,45.2,20.2,45.2,45.2c0,0,0,0,0,0
					c0,25-20.2,45.2-45.2,45.2L45.2,88.8z"/>
			</g>
		</g>
		<g id="Group_6809" transform="translate(205.453 131.016)">
			<g>
				<defs>
					<rect id="SVGID_17_" x="0" y="0" width="92.1" height="92.1"/>
				</defs>
				<clipPath id="SVGID_18_">
					<use xlink:href="#SVGID_17_"  style="overflow:visible;"/>
				</clipPath>
				<g id="Group_6808" class="st46">
					<path id="Path_13676" class="st10" d="M46.1,90.9c24.7,0,44.8-20.1,44.8-44.8c0-24.7-20.1-44.8-44.8-44.8
						C21.3,1.3,1.3,21.3,1.3,46.1c0,0,0,0,0,0C1.3,70.8,21.3,90.9,46.1,90.9"/>
				</g>
			</g>
		</g>
		<g id="Group_6814" transform="translate(201.607 131.346)">
			<g id="Group_6813" transform="translate(0 3.071)">
				<g>
					<defs>
						<rect id="SVGID_19_" x="0" y="0" width="99.5" height="99.5"/>
					</defs>
					<clipPath id="SVGID_20_">
						<use xlink:href="#SVGID_19_"  style="overflow:visible;"/>
					</clipPath>
					<g id="Group_6812" class="st47">
						
							<linearGradient id="Path_13677_1_" gradientUnits="userSpaceOnUse" x1="-220.1389" y1="407.9739" x2="-220.1389" y2="406.9739" gradientTransform="matrix(79.3501 0 0 -76.754 17517.7793 31324.9922)">
							<stop  offset="0" style="stop-color:#F0047F"/>
							<stop  offset="1" style="stop-color:#13007C"/>
						</linearGradient>
						<path id="Path_13677" class="st48" d="M83.7,34.5c-4.1-14.7-17-23.1-35.6-23.1c-21.2,0.2-38.2,17.6-38,38.8
							c0.2,20.4,16.3,37.1,36.7,37.9c0.4,0,0.8,0,1.3,0v-2.8c-0.4,0-0.8,0-1.1,0c-18.7-0.6-33.4-16.6-33.4-35.6
							c-0.1-19.2,15.4-34.8,34.6-35c22.2,0,29.7,11.7,32.3,20.4l-5.5,1.1l8.8,6.4l5.8-9.3L83.7,34.5z"/>
						<g id="Group_6810" transform="translate(28.627 37.648)">
							
								<linearGradient id="Path_13678_1_" gradientUnits="userSpaceOnUse" x1="-250.1055" y1="370.8011" x2="-250.1055" y2="369.8011" gradientTransform="matrix(39.619 0 0 -34.6392 9928.7295 12844.2607)">
								<stop  offset="0" style="stop-color:#F0047F"/>
								<stop  offset="1" style="stop-color:#13007C"/>
							</linearGradient>
							<path id="Path_13678" class="st49" d="M31.1,34.6H8.5c-3.1,0.2-6.1-1.5-7.5-4.4c-0.6-1.3-1-2.7-1-4.2V8.5C0,1.8,5.6,0,8.5,0
								h22.5c6.8,0,8.5,5.6,8.5,8.5v17.6C39.6,32.8,34,34.6,31.1,34.6z M8.5,3.4c-0.9,0-5.1,0.3-5.1,5.1v17.6
								c-0.1,2.7,1.9,5,4.6,5.1c0.2,0,0.3,0,0.5,0h22.5c2.7,0.1,5-1.9,5.1-4.6c0-0.2,0-0.3,0-0.5V8.5c0.1-2.7-1.9-5-4.6-5.1
								c-0.2,0-0.3,0-0.5,0L8.5,3.4z"/>
						</g>
						<g id="Group_6811" transform="translate(36.486 20.87)">
							
								<linearGradient id="Path_13679_1_" gradientUnits="userSpaceOnUse" x1="-259.724" y1="388.7231" x2="-259.724" y2="387.7231" gradientTransform="matrix(23.9011 0 0 -14.925 6219.6289 5801.7144)">
								<stop  offset="0" style="stop-color:#F0047F"/>
								<stop  offset="1" style="stop-color:#13007C"/>
							</linearGradient>
							<path id="Path_13679" class="st50" d="M23.9,14.9h-3.4V9.5c0-0.6-0.2-6.1-5.1-6.1H8.5c-0.8,0-5.1,0.4-5.1,6.1v5.4H0V9.5
								C0,0.1,8.4,0,8.5,0h6.8c6.8,0,8.5,6.2,8.5,9.5L23.9,14.9z"/>
						</g>
						<path id="Path_13680" class="st4" d="M37.6,58.6c1.6,0,2.9-1.3,2.9-2.9s-1.3-2.9-2.9-2.9s-2.9,1.3-2.9,2.9S36,58.6,37.6,58.6
							L37.6,58.6"/>
						<path id="Path_13681" class="st4" d="M44.8,58.6c1.6,0,2.9-1.3,2.9-2.9s-1.3-2.9-2.9-2.9s-2.9,1.3-2.9,2.9
							S43.2,58.6,44.8,58.6L44.8,58.6"/>
						<path id="Path_13682" class="st4" d="M52,58.6c1.6,0,2.9-1.3,2.9-2.9s-1.3-2.9-2.9-2.9s-2.9,1.3-2.9,2.9S50.4,58.6,52,58.6
							L52,58.6"/>
						<path id="Path_13683" class="st4" d="M59.3,58.6c1.6,0,2.9-1.3,2.9-2.9s-1.3-2.9-2.9-2.9s-2.9,1.3-2.9,2.9c0,0,0,0,0,0
							C56.4,57.3,57.7,58.6,59.3,58.6"/>
					</g>
				</g>
			</g>
			
				<linearGradient id="Path_13684_1_" gradientUnits="userSpaceOnUse" x1="-219.9618" y1="410.982" x2="-219.9618" y2="409.9709" gradientTransform="matrix(91.476 0 0 -91.476 20170.6445 37594.9922)">
				<stop  offset="0" style="stop-color:#F0047F"/>
				<stop  offset="1" style="stop-color:#13007C"/>
			</linearGradient>
			<path id="Path_13684" class="st51" d="M49.4,89.8v-1.6c23.5,0,42.5-19,42.5-42.5S72.9,3.3,49.4,3.3C26,3.3,6.9,22.3,6.9,45.7
				c0,0,0,0,0,0c0,23.4,19,42.4,42.5,42.5v3.3C24.2,91.5,3.7,71,3.7,45.7C3.7,20.5,24.2,0,49.4,0c25.3,0,45.7,20.5,45.7,45.7v0
				c0,25.3-20.5,45.7-45.7,45.7V89.8z"/>
		</g>
		<g id="Group_6816" transform="translate(204.957 1.325)">
			<g>
				<defs>
					<rect id="SVGID_21_" x="0" y="0" width="92.1" height="92.1"/>
				</defs>
				<clipPath id="SVGID_22_">
					<use xlink:href="#SVGID_21_"  style="overflow:visible;"/>
				</clipPath>
				<g id="Group_6815" class="st52">
					<path id="Path_13685" class="st10" d="M46.1,90.9c24.7,0,44.8-20.1,44.8-44.8c0-24.7-20.1-44.8-44.8-44.8
						C21.3,1.3,1.3,21.3,1.3,46.1C1.3,70.8,21.3,90.9,46.1,90.9C46.1,90.9,46.1,90.9,46.1,90.9"/>
				</g>
			</g>
		</g>
		<g id="Group_6825" transform="translate(204.136)">
			
				<linearGradient id="Path_13686_1_" gradientUnits="userSpaceOnUse" x1="-222.4547" y1="542.3177" x2="-222.4547" y2="541.3068" gradientTransform="matrix(94.414 0 0 -94.414 21050.0488 51202.3906)">
				<stop  offset="0" style="stop-color:#F0047F"/>
				<stop  offset="1" style="stop-color:#13007C"/>
			</linearGradient>
			<path id="Path_13686" class="st53" d="M47.2,92.7V91C71.4,91,91,71.4,91,47.2S71.4,3.4,47.2,3.4C23,3.4,3.4,23,3.4,47.2
				c0,0,0,0,0,0C3.4,71.4,23,91,47.2,91v3.4C21.1,94.4,0,73.3,0,47.2S21.1,0,47.2,0c26.1,0,47.2,21.1,47.2,47.2
				c0,26.1-21.1,47.2-47.2,47.2L47.2,92.7z"/>
			<g id="Group_6824" transform="translate(3.551 3.514)">
				<g>
					<defs>
						<path id="SVGID_23_" d="M0,43.9c0,24.2,19.6,43.9,43.9,43.9c24.2,0,43.9-19.6,43.9-43.9C87.8,19.6,68.1,0,43.9,0
							C19.6,0,0,19.6,0,43.9"/>
					</defs>
					<clipPath id="SVGID_24_">
						<use xlink:href="#SVGID_23_"  style="overflow:visible;"/>
					</clipPath>
					<g id="Group_6823" class="st54">
						<rect id="Rectangle_2051" x="15.4" y="21.5" class="st7" width="57.1" height="71.5"/>
						<g id="Group_6817" transform="translate(14.188 20.307)">
							
								<linearGradient id="Path_13687_1_" gradientUnits="userSpaceOnUse" x1="-240.8561" y1="518.5853" x2="-240.8561" y2="517.5853" gradientTransform="matrix(59.3799 0 0 -73.831 14331.7148 38287.668)">
								<stop  offset="0" style="stop-color:#F0047F"/>
								<stop  offset="1" style="stop-color:#13007C"/>
							</linearGradient>
							<path id="Path_13687" class="st55" d="M58.2,73.8h-57c-0.6,0-1.2-0.5-1.2-1.2V1.2C0,0.5,0.5,0,1.2,0h57
								c0.6,0,1.2,0.5,1.2,1.2v71.5C59.4,73.3,58.9,73.8,58.2,73.8z M2.3,71.5H57V2.3H2.3V71.5z"/>
						</g>
						<g id="Group_6818" transform="translate(24.771 36.958)">
							
								<linearGradient id="Rectangle_2052_1_" gradientUnits="userSpaceOnUse" x1="-252.9278" y1="516.468" x2="-251.9278" y2="516.468" gradientTransform="matrix(38.215 0 0 -1.943 9665.6357 1004.4689)">
								<stop  offset="0" style="stop-color:#F0047F"/>
								<stop  offset="1" style="stop-color:#13007C"/>
							</linearGradient>
							<rect id="Rectangle_2052" x="0" y="0" class="st56" width="38.2" height="1.9"/>
						</g>
						<g id="Group_6819" transform="translate(24.478 45.206)">
							
								<linearGradient id="Path_13688_1_" gradientUnits="userSpaceOnUse" x1="-252.593" y1="495.1557" x2="-251.593" y2="495.1557" gradientTransform="matrix(38.8 0 0 -12.628 9800.6045 6259.1353)">
								<stop  offset="0" style="stop-color:#F0047F"/>
								<stop  offset="1" style="stop-color:#13007C"/>
							</linearGradient>
							<path id="Path_13688" class="st57" d="M38.8,12.6H0V0h38.8V12.6z M1.9,10.8h35.1V1.9H1.9V10.8z"/>
						</g>
						<g id="Group_6820" transform="translate(45.2 60.282)">
							
								<linearGradient id="Path_13689_1_" gradientUnits="userSpaceOnUse" x1="-276.4465" y1="481.1349" x2="-275.4465" y2="481.1349" gradientTransform="matrix(18.078 0 0 -8.744 4997.6006 4211.4248)">
								<stop  offset="0" style="stop-color:#F0047F"/>
								<stop  offset="1" style="stop-color:#13007C"/>
							</linearGradient>
							<path id="Path_13689" class="st58" d="M18.1,8.7H0V0h18.1V8.7z M1.9,6.9h14.3v-5H1.9V6.9z"/>
						</g>
						<g id="Group_6821" transform="translate(24.435 60.282)">
							
								<linearGradient id="Path_13690_1_" gradientUnits="userSpaceOnUse" x1="-255.6815" y1="481.1349" x2="-254.6815" y2="481.1349" gradientTransform="matrix(18.078 0 0 -8.744 4622.2109 4211.4248)">
								<stop  offset="0" style="stop-color:#F0047F"/>
								<stop  offset="1" style="stop-color:#13007C"/>
							</linearGradient>
							<path id="Path_13690" class="st59" d="M18.1,8.7H0V0h18.1V8.7z M1.9,6.9h14.3v-5H1.9L1.9,6.9z"/>
						</g>
						
							<linearGradient id="Rectangle_2053_1_" gradientUnits="userSpaceOnUse" x1="-237.2807" y1="541.9948" x2="-237.2807" y2="540.9948" gradientTransform="matrix(8.55 0 0 -8.55 2072.6279 4659.9995)">
							<stop  offset="0" style="stop-color:#F0047F"/>
							<stop  offset="1" style="stop-color:#13007C"/>
						</linearGradient>
						<rect id="Rectangle_2053" x="39.6" y="25.9" class="st60" width="8.6" height="8.6"/>
						
							<linearGradient id="Path_13691_1_" gradientUnits="userSpaceOnUse" x1="-240.4116" y1="540.7863" x2="-239.4116" y2="540.7863" gradientTransform="matrix(7.0532 0 0 -10.7133 1752.3723 5877.9106)">
							<stop  offset="0" style="stop-color:#F0047F"/>
							<stop  offset="1" style="stop-color:#13007C"/>
						</linearGradient>
						<path id="Path_13691" class="st61" d="M57.4,79.1c-0.1-0.1-0.2-0.1-0.3-0.1c-0.1,0-0.1,0-0.1,0c-0.2,0-0.3,0.2-0.2,0.4v9
							c0,0.2,0.1,0.3,0.2,0.4c0,0,0.1,0,0.1,0c0.1,0,0.2,0,0.3-0.1l1.9-1.9l1.2,2.7c0,0.1,0.1,0.2,0.2,0.2c0.1,0,0.2,0,0.3,0
							l1.1-0.4c0.1,0,0.2-0.1,0.2-0.2c0-0.1,0-0.2,0-0.3L61,85.8h2.3c0.2,0,0.3-0.1,0.4-0.2c0.1-0.1,0-0.3-0.1-0.4L57.4,79.1z"/>
						<g id="Group_6822" transform="translate(24.154 70.976)">
							
								<linearGradient id="Path_13692_1_" gradientUnits="userSpaceOnUse" x1="-252.8617" y1="469.6227" x2="-251.8617" y2="469.6227" gradientTransform="matrix(31.8831 0 0 -11.4822 8061.999 5398.0327)">
								<stop  offset="0" style="stop-color:#F0047F"/>
								<stop  offset="1" style="stop-color:#13007C"/>
							</linearGradient>
							<path id="Path_13692" class="st62" d="M14.2,11.5c-0.4,0-0.7-0.1-1-0.3c-0.4-0.2-0.7-0.7-0.8-1.1C12,8.7,13.1,7,14.4,4.9
								C15,4,15.6,3,16,2c-0.5,0.1-1.8,0.7-4.8,3.2c-0.2,0.2-0.4,0.4-0.5,0.4s-0.3,0.3-0.6,0.5C7.1,8.8,4.1,11.3,2,11
								c-0.7-0.1-1.3-0.5-1.6-1C0,9.3-0.1,8.5,0.1,7.8c0.7-2.6,5.2-4.8,5.7-5l0.9,1.8C5.1,5.3,2.4,7,2,8.3C1.9,8.5,2,8.7,2.1,8.9
								C2.1,9,2.2,9,2.3,9c1,0.1,3.2-1.3,6.5-4.3C9.1,4.4,9.4,4.1,9.5,4C9.6,4,9.7,3.8,10,3.7c2.9-2.4,6.1-4.8,7.7-3
								c1,1.2-0.1,3-1.5,5.3c-0.6,1-1.8,2.9-1.8,3.6C14.9,9.5,17,7.9,18,7c2.2-1.8,4.4-3.5,5.7-2.1c0.7,0.8,0.9,1.9,0.6,2.8
								c-0.1,0.7-0.2,0.8,0.6,1c2.4,0.9,5.5-0.6,5.9-0.9l1.1,1.6c-0.8,0.5-4.5,2.3-7.7,1.1c-2.4-0.9-2.1-2.5-1.9-3.3
								c0.1-0.5,0.1-0.8,0-1c-1.1,0.6-2.1,1.3-3.1,2.1C17.4,10.1,15.6,11.5,14.2,11.5z"/>
						</g>
					</g>
				</g>
			</g>
		</g>
	</g>
</g>
</svg>
