<svg xmlns="http://www.w3.org/2000/svg" viewBox="0 0 32.42 32.42">
  <defs>
    <style>
      .bb818d0a-ac7d-4300-8a32-0663e78638a8 {
        fill: #F0047F;
      }

      .a0393ffa-7da8-43fc-a1b9-769647e73411 {
        fill: #fff;
      }
    </style>
  </defs>
  <title>Asset 56</title>
  <g id="abf51769-68cc-4cc6-9898-a60cd2d88706" data-name="Layer 2">
    <g id="b53ed9fd-c0fe-49a1-901f-07c96014fefb" data-name="Layer 1">
      <g>
        <circle class="bb818d0a-ac7d-4300-8a32-0663e78638a8" cx="16.21" cy="16.21" r="16.21"/>
        <path class="a0393ffa-7da8-43fc-a1b9-769647e73411" d="M20.16,7.89H18.11a3.6,3.6,0,0,0-3.79,3.89v1.8H12.26a.32.32,0,0,0-.32.32v2.6a.32.32,0,0,0,.32.32h2.06v6.56a.32.32,0,0,0,.32.32h2.69a.32.32,0,0,0,.33-.32V16.81h2.4a.32.32,0,0,0,.33-.32v-2.6a.34.34,0,0,0-.1-.23.31.31,0,0,0-.22-.09H17.66V12.05c0-.73.17-1.1,1.12-1.1h1.38a.32.32,0,0,0,.32-.33V8.21a.32.32,0,0,0-.32-.32Z"/>
      </g>
    </g>
  </g>
</svg>
