<?xml version="1.0" encoding="utf-8"?>
<!-- Generator: Adobe Illustrator 25.0.1, SVG Export Plug-In . SVG Version: 6.00 Build 0)  -->
<svg version="1.1" id="Layer_1" xmlns="http://www.w3.org/2000/svg" xmlns:xlink="http://www.w3.org/1999/xlink" x="0px" y="0px"
	 viewBox="0 0 695.8 533.9" style="enable-background:new 0 0 695.8 533.9;" xml:space="preserve">
<style type="text/css">
	.st0{fill:#18013D;}
	.st1{opacity:0.7;fill:#000122;enable-background:new    ;}
	.st2{fill:#12022C;}
	.st3{fill:#16013F;}
	.st4{fill:#E2DEE1;}
	.st5{fill:url(#Path_14258_1_);}
	.st6{clip-path:url(#SVGID_2_);}
	.st7{fill:url(#Path_14259_1_);}
	.st8{fill:url(#Path_14260_1_);}
	.st9{fill:url(#Path_14261_1_);}
	.st10{fill:url(#Path_14262_1_);}
	.st11{fill:url(#Path_14263_1_);}
	.st12{clip-path:url(#SVGID_4_);}
	.st13{fill:url(#Path_14264_1_);}
	.st14{fill:url(#Rectangle_4606_1_);}
	.st15{fill:url(#Path_14265_1_);}
	.st16{fill:url(#Ellipse_452_1_);}
	.st17{fill:#13007C;}
	.st18{clip-path:url(#SVGID_6_);}
	.st19{fill:#FF0000;}
	.st20{fill:url(#Path_14277_1_);}
	.st21{fill:url(#Path_14278_1_);}
	.st22{fill:url(#Path_14279_1_);}
	.st23{fill:url(#Path_14280_1_);}
	.st24{fill:url(#Path_14281_1_);}
	.st25{fill:url(#Path_14282_1_);}
	.st26{fill:url(#Path_14283_1_);}
	.st27{fill:#F0047F;}
	.st28{fill:#F0047F;stroke:#F0047F;stroke-width:2.616;stroke-linecap:round;stroke-linejoin:round;}
	.st29{fill:none;stroke:#F0047F;stroke-width:2.616;stroke-linecap:round;stroke-linejoin:round;}
	.st30{fill:#FFFFFF;}
	.st31{fill:url(#Path_14291_1_);}
	.st32{fill:url(#Path_14293_1_);}
	.st33{fill:url(#Path_14296_1_);}
	.st34{fill:none;stroke:#FF0000;stroke-width:0.303;}
	.st35{fill:none;stroke:#FF0000;stroke-width:0.398;}
	.st36{fill:url(#Rectangle_4609_1_);}
	.st37{fill:url(#Path_14302_1_);}
	.st38{clip-path:url(#SVGID_8_);}
	.st39{fill:url(#Path_14303_1_);}
	.st40{fill:url(#Path_14305_1_);}
</style>
<g id="Group_7046" transform="translate(-290.756 -319.25)">
	<g id="Group_7330" transform="translate(290.756 319.25)">
		<g id="Group_7329">
			<path id="Path_14254" class="st0" d="M85.8,333.6c-41,49.7-63,76.9-40.8,137c1.2,3.3,2.5,6.7,4,10.1
				c28.7,67.2,305.7,60.6,259.8,35c-31.8-17.6-17.2-25.8,24.7-26.7c18.6-0.4,42.8,0.7,70.6,3c151.3,12.7,158.9-23.9,81.3-53.5
				c-77.6-29.6,20.3-85.2,86.2-104.4c10.8-3.1,21.4-6.8,31.7-11.2c53.5-22.8,81.2-56.5,89.6-91.5c18.4-76.2-54.2-158.2-150-144.8
				c-43.9,6.2-123.1,5.6-194.2-9.8C304.8,67.3,264,52,236.6,29.1C179.1-19,110.1,0.4,94.9,30.9c-4,7.5-4.1,16.4-0.4,24
				c18.4,39-14.1,65.2-52.4,68.5c-38.3,3.3-62.3,64.8-18.6,102.8C67.1,264.2,129,281.3,85.8,333.6z"/>
			<path id="Path_14255" class="st1" d="M85.8,333.6c-41,49.7-63,76.9-40.8,137c15.4,2.5,30.9,3.7,46.4,3.7
				C232,474.3,346,375.1,346,252.6C346,131.1,233.8,32.5,94.9,30.9c-4,7.5-4.1,16.4-0.4,24c18.4,39-14.1,65.2-52.4,68.5
				c-38.3,3.3-62.3,64.8-18.6,102.8C67.1,264.2,129,281.3,85.8,333.6z"/>
			<path id="Path_14256" class="st2" d="M348.7,82c0,103.4,96.2,187.2,214.9,187.2c48.6,0,93.4-14,129.3-37.7
				c18.4-76.2-54.2-158.2-150-144.8c-43.9,6.2-123.1,5.6-194.2-9.8C348.7,78.6,348.7,80.3,348.7,82z"/>
			<path id="Path_14257" class="st3" d="M308.9,413.4c0,27.8,9,53.8,24.7,75.7c18.6-0.4,42.8,0.7,70.6,3
				c151.3,12.7,158.9-23.9,81.3-53.5c-77.6-29.6,20.3-85.2,86.2-104.4c10.8-3.1,21.4-6.8,31.7-11.2c-30.3-32.8-76.8-53.8-128.9-53.8
				C383,269.2,308.9,333.8,308.9,413.4z"/>
		</g>
	</g>
	<circle id="Ellipse_449" class="st4" cx="631.3" cy="597.8" r="130.5"/>
	<circle id="Ellipse_450" class="st4" cx="415.2" cy="747.8" r="55.6"/>
	<g id="Group_7338" transform="translate(822.357 481.824)">
		<circle id="Ellipse_451" class="st4" cx="57.4" cy="58.8" r="55.6"/>
		<g id="Group_7337">
			
				<linearGradient id="Path_14258_1_" gradientUnits="userSpaceOnUse" x1="-439.9069" y1="360.503" x2="-439.9069" y2="359.492" gradientTransform="matrix(113 0 0 -113 49766.9102 40739.1367)">
				<stop  offset="0" style="stop-color:#F0047F"/>
				<stop  offset="1" style="stop-color:#13007C"/>
			</linearGradient>
			<path id="Path_14258" class="st5" d="M57.4,113.3v-2c29,0,52.5-23.5,52.5-52.5S86.4,6.3,57.4,6.3C28.5,6.3,5,29.8,5,58.8
				c0,29,23.5,52.4,52.5,52.5v4C26.2,115.3,0.9,90,0.9,58.8S26.2,2.3,57.4,2.3s56.5,25.3,56.5,56.5s-25.3,56.5-56.5,56.5l0,0V113.3z
				"/>
			<g id="Group_7336" transform="translate(16.065 27.619)">
				<g>
					<defs>
						<rect id="SVGID_1_" x="0" y="0" width="92.9" height="76.8"/>
					</defs>
					<clipPath id="SVGID_2_">
						<use xlink:href="#SVGID_1_"  style="overflow:visible;"/>
					</clipPath>
					<g id="Group_7335" class="st6">
						<g id="Group_7331" transform="translate(-0.001 6.244)">
							
								<linearGradient id="Path_14259_1_" gradientUnits="userSpaceOnUse" x1="-456.4793" y1="326.719" x2="-456.4793" y2="325.719" gradientTransform="matrix(69.998 0 0 -70.516 31987.6738 23038.9062)">
								<stop  offset="0" style="stop-color:#F0047F"/>
								<stop  offset="1" style="stop-color:#13007C"/>
							</linearGradient>
							<path id="Path_14259" class="st7" d="M30.3,70.5c-0.6,0-1.2-0.1-1.7-0.3c-0.9-0.3-1.8-0.8-2.5-1.5L1.8,44.5
								c-1.6-1.4-2.2-3.7-1.5-5.7c0.3-0.9,0.8-1.8,1.5-2.5L38,0l22.8,0c0.9,0,1.7,0.8,1.7,1.7c0,0.9-0.8,1.7-1.7,1.7l0,0l-21.3,0
								L4.2,38.7c-0.9,0.8-1.1,2.2-0.2,3.2C4,41.9,4.1,42,4.2,42.1l24.3,24.3c0.8,0.9,2.2,1.1,3.2,0.2c0.1-0.1,0.2-0.2,0.2-0.2
								l34.7-34.7L66.1,7.3c0-0.9,0.7-1.7,1.7-1.7c0.9,0,1.7,0.7,1.7,1.7L70,33L34.3,68.7C33.2,69.8,31.8,70.5,30.3,70.5z"/>
						</g>
						<g id="Group_7332" transform="translate(47.814 13.116)">
							
								<linearGradient id="Path_14260_1_" gradientUnits="userSpaceOnUse" x1="-509.557" y1="320.4774" x2="-509.557" y2="319.4774" gradientTransform="matrix(13.988 0 0 -13.988 7134.6938 4482.8506)">
								<stop  offset="0" style="stop-color:#F0047F"/>
								<stop  offset="1" style="stop-color:#13007C"/>
							</linearGradient>
							<path id="Path_14260" class="st8" d="M7,14c-3.9,0-7-3.1-7-7s3.1-7,7-7c3.9,0,7,3.1,7,7c0,0,0,0,0,0C14,10.9,10.9,14,7,14z
								 M7,2.9C4.7,2.9,2.9,4.7,2.9,7s1.8,4.1,4.1,4.1s4.1-1.8,4.1-4.1l0,0C11.1,4.7,9.3,2.9,7,2.9z"/>
						</g>
						<g id="Group_7333" transform="translate(23.748 25.485)">
							
								<linearGradient id="Path_14261_1_" gradientUnits="userSpaceOnUse" x1="-482.1243" y1="307.6729" x2="-482.1243" y2="306.6729" gradientTransform="matrix(28.6573 0 0 -31.3497 13830.709 9645.4414)">
								<stop  offset="0" style="stop-color:#F0047F"/>
								<stop  offset="1" style="stop-color:#13007C"/>
							</linearGradient>
							<path id="Path_14261" class="st9" d="M14.2,29.7c1-3.3,0.1-6.8-2.4-9.2c-0.6-0.6-1.3-1.1-2-1.6l-3.2,3.2L5,20.5l2-2.3
								l0.6-0.6c-1.8-0.8-3.5-1.9-4.9-3.2C-1,10.8-0.8,6.2,2.8,2.6c1.9-2,4.7-2.9,7.4-2.6l-0.1,3C8.3,2.8,6.4,3.3,5.1,4.6
								C2.8,6.9,3.1,9.8,5.3,12c1.4,1.3,3,2.3,4.7,3.2l5.1-5.1l1.8,1.8l-4.7,4.7c0.7,0.5,1.4,1,2,1.6c2,1.8,3.1,4.3,3,7l0.1,0.1
								l9.1-9.1l2.3,2.3L15.8,31.3L14.2,29.7z"/>
						</g>
						<g id="Group_7334" transform="translate(53.563 -0.002)">
							
								<linearGradient id="Path_14262_1_" gradientUnits="userSpaceOnUse" x1="-511.2014" y1="333.3148" x2="-511.2014" y2="332.3148" gradientTransform="matrix(37.2108 0 0 -21.7491 19040.8281 7249.2915)">
								<stop  offset="0" style="stop-color:#F0047F"/>
								<stop  offset="1" style="stop-color:#13007C"/>
							</linearGradient>
							<path id="Path_14262" class="st10" d="M1.5,21.8c-0.8,0-1.5-0.7-1.5-1.5c0-0.4,0.2-0.8,0.4-1L18.8,0.9
								c1.3-1.1,3.2-1.2,4.5-0.1C25,2.1,25,4.6,24.9,5v6.6c0.1,0.5,0.3,1.2,0.5,1.3c0.3,0,0.8-0.5,1.1-1l0.2-0.2l8-7.8
								c0.6-0.5,1.5-0.5,2.1,0.1c0.5,0.6,0.5,1.4,0,2l-7.9,7.7c-0.7,1.2-2,1.9-3.3,2.1c-2.2,0.1-3.4-2-3.6-4v-0.1V4.9
								c0.1-0.7-0.1-1.3-0.5-1.9c-0.2-0.2-0.6-0.2-0.8,0L2.5,21.3C2.2,21.6,1.8,21.8,1.5,21.8z"/>
						</g>
					</g>
				</g>
			</g>
		</g>
	</g>
	<g id="Group_7345" transform="translate(497.839 465.96)">
		
			<linearGradient id="Path_14263_1_" gradientUnits="userSpaceOnUse" x1="-114.9319" y1="376.3317" x2="-114.9319" y2="375.3207" gradientTransform="matrix(263.666 0 0 -263.666 30435.4629 99225.8828)">
			<stop  offset="0" style="stop-color:#F0047F"/>
			<stop  offset="1" style="stop-color:#13007C"/>
		</linearGradient>
		<path id="Path_14263" class="st11" d="M131.8,259v-4.7c67.6,0,122.4-54.8,122.4-122.4S199.4,9.4,131.8,9.4S9.4,64.2,9.4,131.8l0,0
			c0.1,67.6,54.8,122.3,122.4,122.4v9.4C59,263.7,0,204.6,0,131.8C0,59,59,0,131.8,0c72.8,0,131.8,59,131.8,131.8
			c0,72.8-59,131.8-131.8,131.8V259z"/>
		<g id="Group_7344" transform="translate(9.975 10.112)">
			<g>
				<defs>
					<circle id="SVGID_3_" cx="122.4" cy="122.4" r="122.4"/>
				</defs>
				<clipPath id="SVGID_4_">
					<use xlink:href="#SVGID_3_"  style="overflow:visible;"/>
				</clipPath>
				<g id="Group_7343" class="st12">
					<g id="Group_7342" transform="translate(20.351 57.776)">
						<g id="Group_7339">
							
								<linearGradient id="Path_14264_1_" gradientUnits="userSpaceOnUse" x1="-145.2556" y1="308.4691" x2="-145.2556" y2="307.4691" gradientTransform="matrix(265.448 0 0 -164.078 38690.5234 50612.9844)">
								<stop  offset="0" style="stop-color:#F0047F"/>
								<stop  offset="1" style="stop-color:#13007C"/>
							</linearGradient>
							<path id="Path_14264" class="st13" d="M240.8,164.1H24.7C11.1,164.1,0,153,0,139.4V24.7C0,11.1,11.1,0,24.7,0h216.1
								c13.6,0,24.7,11.1,24.7,24.7v114.7C265.4,153,254.4,164.1,240.8,164.1z M24.7,7C14.9,7.1,7.1,14.9,7,24.7v114.7
								c0,9.7,7.9,17.6,17.6,17.6h216.1c9.7,0,17.6-7.9,17.6-17.6V24.7c0-9.7-7.9-17.6-17.6-17.6L24.7,7z"/>
						</g>
						
							<linearGradient id="Rectangle_4606_1_" gradientUnits="userSpaceOnUse" x1="-145.832" y1="308.1924" x2="-144.832" y2="308.1924" gradientTransform="matrix(217.473 0 0 -37.878 31721.5762 11727.4004)">
							<stop  offset="0" style="stop-color:#F0047F"/>
							<stop  offset="1" style="stop-color:#13007C"/>
						</linearGradient>
						<rect id="Rectangle_4606" x="7" y="34.8" class="st14" width="217.5" height="37.9"/>
						<g id="Group_7340" transform="translate(43.418 93.657)">
							
								<linearGradient id="Path_14265_1_" gradientUnits="userSpaceOnUse" x1="-191.267" y1="214.5368" x2="-190.267" y2="214.5368" gradientTransform="matrix(37.704 0 0 -37.704 7211.5254 8107.7427)">
								<stop  offset="0" style="stop-color:#F0047F"/>
								<stop  offset="1" style="stop-color:#13007C"/>
							</linearGradient>
							<path id="Path_14265" class="st15" d="M18.9,37.7C8.4,37.7,0,29.3,0,18.9C0,8.4,8.4,0,18.8,0c10.4,0,18.9,8.4,18.9,18.8
								c0,0,0,0,0,0C37.7,29.3,29.3,37.7,18.9,37.7z M18.9,1.8C9.4,1.8,1.8,9.4,1.8,18.9s7.7,17.1,17.1,17.1s17.1-7.7,17.1-17.1
								c0,0,0,0,0,0C35.9,9.4,28.3,1.8,18.9,1.8z"/>
						</g>
						
							<linearGradient id="Ellipse_452_1_" gradientUnits="userSpaceOnUse" x1="-147.9684" y1="308.208" x2="-146.9684" y2="308.208" gradientTransform="matrix(35.946 0 0 -35.946 5344.8872 11191.3545)">
							<stop  offset="0" style="stop-color:#F0047F"/>
							<stop  offset="1" style="stop-color:#13007C"/>
						</linearGradient>
						<circle id="Ellipse_452" class="st16" cx="44" cy="112.5" r="18"/>
						<g id="Group_7341" transform="translate(96.209 105.884)">
							<path id="Path_14266" class="st17" d="M11.2,8.8c0,0.4-0.1,0.9-0.3,1.3c-0.2,0.5-0.5,1-0.9,1.4c-0.5,0.5-1,0.8-1.6,1.1
								C7.6,12.9,6.9,13,6.1,13c-0.6,0-1.2-0.1-1.8-0.2c-0.5-0.1-1-0.3-1.5-0.6c-0.5-0.3-0.9-0.6-1.2-1.1c-0.3-0.4-0.6-0.8-0.8-1.3
								c-0.2-0.5-0.4-1-0.5-1.6C0.1,7.7,0,7.1,0,6.5c0-0.9,0.1-1.8,0.4-2.7C0.7,3,1.1,2.3,1.7,1.7c0.5-0.6,1.2-1,1.9-1.3
								C4.4,0.1,5.2,0,6,0c0.9,0,1.9,0.2,2.7,0.6c0.7,0.3,1.4,0.9,1.8,1.5c0.4,0.5,0.6,1.1,0.6,1.7c0,0.3-0.1,0.6-0.3,0.8
								c-0.2,0.2-0.5,0.3-0.7,0.3c-0.3,0-0.5-0.1-0.7-0.2C9.2,4.4,9,4.2,8.8,3.9c-0.3-0.6-0.7-1-1.2-1.4C7.2,2.2,6.6,2,6,2
								C5,2,4.1,2.4,3.5,3.2c-0.7,1-1,2.2-0.9,3.4C2.6,7.4,2.7,8.3,3,9c0.2,0.6,0.6,1.1,1.2,1.5C4.7,10.8,5.3,11,5.9,11
								c0.7,0,1.3-0.2,1.9-0.5c0.5-0.4,0.9-1,1.1-1.6C9,8.5,9.2,8.3,9.3,8c0.2-0.2,0.5-0.3,0.8-0.3c0.3,0,0.6,0.1,0.8,0.3
								C11.1,8.2,11.2,8.5,11.2,8.8z"/>
							<path id="Path_14267" class="st17" d="M16.9,7.4H16v4c0,0.4-0.1,0.8-0.4,1.2c-0.2,0.3-0.6,0.4-0.9,0.4
								c-0.4,0-0.7-0.1-0.9-0.4c-0.2-0.3-0.4-0.7-0.3-1.2V1.8c-0.1-0.7,0.3-1.4,1.1-1.6c0.2,0,0.3,0,0.5,0h4.1c0.5,0,1,0,1.5,0.1
								c0.4,0,0.8,0.1,1.1,0.3c0.4,0.2,0.7,0.4,1,0.7c0.3,0.3,0.5,0.7,0.7,1.1c0.2,0.4,0.2,0.9,0.2,1.3c0,0.8-0.2,1.6-0.8,2.2
								c-0.7,0.6-1.5,1-2.4,1.2c0.5,0.3,0.9,0.6,1.3,1.1c0.8,0.9,1.4,1.9,1.9,2.9c0.1,0.3,0.2,0.6,0.3,0.9c0,0.2-0.1,0.3-0.2,0.5
								c-0.1,0.2-0.3,0.3-0.4,0.4C23.2,13,23,13,22.7,13c-0.3,0-0.5-0.1-0.7-0.2c-0.2-0.1-0.4-0.3-0.5-0.5c-0.1-0.2-0.3-0.5-0.6-0.9
								l-1-1.7c-0.3-0.5-0.6-1-1-1.4c-0.2-0.3-0.5-0.5-0.9-0.7C17.7,7.5,17.3,7.4,16.9,7.4z M18.4,2.1H16v3.5h2.3c0.5,0,1,0,1.5-0.2
								c0.4-0.1,0.7-0.3,1-0.5c0.2-0.3,0.4-0.7,0.3-1c0-0.3-0.1-0.6-0.3-0.9c-0.2-0.3-0.4-0.5-0.7-0.6C19.6,2.2,19,2.1,18.4,2.1
								L18.4,2.1z"/>
							<path id="Path_14268" class="st17" d="M34.4,2.2h-5.7v3.1H34c0.3,0,0.6,0.1,0.9,0.3C35,5.7,35.2,6,35.1,6.2
								c0,0.3-0.1,0.5-0.3,0.7c-0.2,0.2-0.6,0.3-0.9,0.3h-5.3v3.6h5.9c0.3,0,0.6,0.1,0.9,0.3c0.2,0.2,0.3,0.5,0.3,0.7
								c0,0.3-0.1,0.5-0.3,0.7c-0.3,0.2-0.6,0.3-0.9,0.3h-6.9c-0.7,0.1-1.4-0.3-1.6-1.1c0-0.2,0-0.3,0-0.5V1.8c0-0.3,0-0.6,0.2-0.9
								c0.1-0.2,0.3-0.4,0.5-0.5c0.3-0.1,0.6-0.2,0.9-0.2h6.7c0.3,0,0.6,0.1,0.9,0.3c0.2,0.2,0.3,0.4,0.3,0.7c0,0.3-0.1,0.5-0.3,0.7
								C35.1,2.1,34.8,2.2,34.4,2.2z"/>
							<path id="Path_14269" class="st17" d="M39.4,0.2h3.3c0.7,0,1.5,0.1,2.2,0.2c0.6,0.2,1.2,0.5,1.7,0.9c1.4,1.3,2.1,3.2,2,5.1
								c0,0.7-0.1,1.4-0.2,2.1c-0.1,0.6-0.3,1.2-0.6,1.7c-0.3,0.5-0.6,1-1.1,1.3c-0.3,0.3-0.7,0.5-1.1,0.7c-0.4,0.2-0.8,0.3-1.3,0.4
								c-0.5,0.1-1,0.1-1.6,0.1h-3.3c-0.4,0-0.7-0.1-1-0.2c-0.2-0.1-0.4-0.3-0.5-0.6c-0.1-0.3-0.1-0.7-0.1-1V1.8
								C37.7,1,38.2,0.3,39,0.2C39.1,0.2,39.3,0.2,39.4,0.2L39.4,0.2z M40.4,2.2v8.5h1.9c0.4,0,0.8,0,1,0c0.3,0,0.5-0.1,0.7-0.2
								c0.2-0.1,0.5-0.2,0.7-0.4c1-1,1.4-2.4,1.3-3.7c0.1-1-0.1-1.9-0.6-2.8c-0.3-0.6-0.8-1-1.4-1.2c-0.6-0.2-1.3-0.3-2-0.3
								L40.4,2.2z"/>
							<path id="Path_14270" class="st17" d="M51,11.5V1.5c0-0.4,0.1-0.8,0.4-1.2C51.6,0.1,51.9,0,52.2,0c0.4,0,0.7,0.1,0.9,0.4
								c0.3,0.3,0.4,0.7,0.4,1.2v9.9c0,0.4-0.1,0.8-0.4,1.2c-0.2,0.3-0.6,0.4-0.9,0.4c-0.3,0-0.7-0.1-0.9-0.4
								C51.1,12.3,50.9,11.9,51,11.5z"/>
							<path id="Path_14271" class="st17" d="M64.5,2.3h-2.8v9.1c0,0.4-0.1,0.8-0.4,1.2c-0.2,0.3-0.6,0.4-0.9,0.4
								c-0.3,0-0.7-0.1-0.9-0.4c-0.3-0.3-0.4-0.7-0.4-1.2V2.3h-2.8c-0.3,0-0.7-0.1-1-0.3c-0.2-0.2-0.3-0.5-0.3-0.8
								c0-0.3,0.1-0.6,0.3-0.8c0.3-0.2,0.6-0.3,1-0.3h8.1c0.4,0,0.7,0.1,1,0.3c0.2,0.2,0.3,0.5,0.3,0.8c0,0.3-0.1,0.6-0.3,0.8
								C65.2,2.2,64.9,2.3,64.5,2.3z"/>
							<path id="Path_14272" class="st17" d="M82.5,8.8c0,0.4-0.1,0.9-0.3,1.3c-0.2,0.5-0.5,1-0.9,1.4c-0.5,0.5-1,0.8-1.6,1.1
								c-0.7,0.3-1.5,0.4-2.3,0.4c-0.6,0-1.2-0.1-1.8-0.2c-1.1-0.2-2-0.8-2.7-1.6c-0.3-0.4-0.6-0.8-0.8-1.3c-0.2-0.5-0.4-1-0.5-1.6
								c-0.1-0.6-0.2-1.2-0.2-1.8c0-0.9,0.1-1.8,0.4-2.7C72,3,72.4,2.3,73,1.7c0.5-0.6,1.2-1,1.9-1.3C75.6,0.1,76.4,0,77.3,0
								c0.9,0,1.9,0.2,2.7,0.6c0.7,0.3,1.3,0.9,1.8,1.5c0.4,0.5,0.6,1.1,0.6,1.7c0,0.3-0.1,0.6-0.3,0.8c-0.2,0.2-0.5,0.3-0.7,0.3
								c-0.3,0-0.5-0.1-0.7-0.2c-0.2-0.2-0.4-0.5-0.5-0.8c-0.3-0.6-0.7-1-1.2-1.4C78.4,2.2,77.9,2,77.3,2c-1,0-1.9,0.4-2.5,1.2
								c-0.7,1-1,2.2-0.9,3.4c0,0.8,0.1,1.7,0.4,2.4c0.2,0.6,0.6,1.1,1.2,1.5c0.5,0.3,1.1,0.5,1.8,0.5c0.7,0,1.3-0.2,1.9-0.5
								c0.5-0.4,0.9-1,1.1-1.6c0.1-0.3,0.2-0.6,0.4-0.8c0.2-0.2,0.5-0.3,0.8-0.3c0.3,0,0.6,0.1,0.8,0.3C82.4,8.2,82.5,8.5,82.5,8.8z
								"/>
							<path id="Path_14273" class="st17" d="M92.8,11.4l-0.6-1.6h-5.1l-0.6,1.6c-0.1,0.4-0.3,0.9-0.6,1.3c-0.2,0.2-0.5,0.4-0.8,0.3
								c-0.3,0-0.6-0.1-0.8-0.4c-0.2-0.2-0.4-0.5-0.4-0.8c0-0.2,0-0.4,0.1-0.5c0.1-0.2,0.2-0.4,0.3-0.8l3.2-8.2
								c0.1-0.2,0.2-0.5,0.3-0.8C87.9,1.3,88,1,88.2,0.7c0.1-0.2,0.3-0.4,0.6-0.5c0.6-0.3,1.2-0.3,1.8,0c0.2,0.1,0.4,0.3,0.6,0.5
								c0.1,0.2,0.3,0.4,0.4,0.7c0.1,0.2,0.2,0.6,0.4,1l3.3,8.1c0.2,0.4,0.3,0.9,0.4,1.3c0,0.3-0.1,0.6-0.4,0.8
								c-0.2,0.2-0.5,0.4-0.9,0.4c-0.2,0-0.4,0-0.5-0.1c-0.1-0.1-0.3-0.2-0.4-0.3c-0.1-0.2-0.2-0.4-0.3-0.6
								C93,11.8,92.9,11.6,92.8,11.4z M87.8,7.9h3.8l-1.9-5.2L87.8,7.9z"/>
							<path id="Path_14274" class="st17" d="M100.8,7.4h-0.9v4c0,0.4-0.1,0.8-0.4,1.2C99.3,12.9,99,13,98.7,13
								c-0.4,0-0.7-0.1-0.9-0.4c-0.2-0.3-0.4-0.7-0.3-1.2V1.8c-0.1-0.7,0.3-1.4,1.1-1.6c0.2,0,0.3,0,0.5,0h4.1c0.5,0,1,0,1.5,0.1
								c0.4,0,0.8,0.1,1.1,0.3c0.4,0.2,0.7,0.4,1,0.7c0.3,0.3,0.5,0.7,0.7,1.1c0.2,0.4,0.2,0.9,0.2,1.3c0,0.8-0.2,1.6-0.8,2.2
								c-0.7,0.6-1.5,1-2.4,1.2c0.5,0.3,0.9,0.6,1.3,1.1c0.4,0.5,0.8,1,1.1,1.5c0.3,0.5,0.5,0.9,0.8,1.4c0.1,0.3,0.2,0.6,0.3,0.9
								c0,0.2-0.1,0.3-0.2,0.5c-0.1,0.2-0.3,0.3-0.4,0.4c-0.2,0.1-0.4,0.1-0.6,0.1c-0.3,0-0.5-0.1-0.7-0.2c-0.2-0.1-0.4-0.3-0.5-0.5
								c-0.1-0.2-0.3-0.5-0.6-0.9l-1-1.7c-0.3-0.5-0.6-1-1-1.4c-0.2-0.3-0.5-0.5-0.9-0.7C101.6,7.5,101.2,7.4,100.8,7.4z M102.3,2.1
								h-2.3v3.5h2.3c0.5,0,1,0,1.5-0.2c0.4-0.1,0.7-0.3,1-0.5c0.2-0.3,0.4-0.7,0.3-1c0-0.7-0.4-1.3-1-1.5
								C103.5,2.2,102.9,2.1,102.3,2.1L102.3,2.1z"/>
							<path id="Path_14275" class="st17" d="M111.6,0.2h3.3c0.7,0,1.5,0.1,2.2,0.2c0.6,0.2,1.2,0.5,1.7,0.9c1.4,1.3,2.1,3.2,2,5.1
								c0,0.7-0.1,1.4-0.2,2.1c-0.1,0.6-0.3,1.2-0.6,1.7c-0.3,0.5-0.6,1-1.1,1.3c-0.3,0.3-0.7,0.5-1.1,0.7c-0.4,0.2-0.8,0.3-1.3,0.4
								c-0.5,0.1-1,0.1-1.6,0.1h-3.3c-0.4,0-0.7-0.1-1-0.2c-0.2-0.1-0.4-0.3-0.5-0.6c-0.1-0.3-0.1-0.7-0.1-1V1.8
								c-0.1-0.7,0.3-1.4,1.1-1.6C111.3,0.2,111.5,0.2,111.6,0.2L111.6,0.2z M112.6,2.2v8.5h1.9c0.4,0,0.8,0,1,0
								c0.3,0,0.5-0.1,0.7-0.2c0.2-0.1,0.5-0.2,0.7-0.4c1-1,1.4-2.4,1.3-3.7c0.1-1-0.1-1.9-0.6-2.8c-0.3-0.6-0.8-1-1.4-1.2
								c-0.6-0.2-1.3-0.3-2-0.3L112.6,2.2z"/>
						</g>
					</g>
				</g>
			</g>
		</g>
	</g>
	<g id="Group_7369" transform="translate(355.762 690.193)">
		<g id="Group_7358" transform="translate(3.729 3.95)">
			<g>
				<defs>
					<path id="SVGID_5_" d="M0,54c0,29.8,24.2,54,54,54s54-24.2,54-54c0-29.8-24.2-54-54-54C24.2,0,0,24.2,0,54"/>
				</defs>
				<clipPath id="SVGID_6_">
					<use xlink:href="#SVGID_5_"  style="overflow:visible;"/>
				</clipPath>
				<g id="Group_7357" class="st18">
					<path id="Path_14276" class="st19" d="M29.2,84.8L29.2,84.8z M28.6,72H10.8v12.5l8.9,6.3l8.9-6.3 M19.7,92.3L9.5,85.1V70.8
						h20.3v14.4L19.7,92.3z"/>
					<g id="Group_7346" transform="translate(9.042 70.276)">
						
							<linearGradient id="Path_14277_1_" gradientUnits="userSpaceOnUse" x1="10.3999" y1="78.3173" x2="10.3999" y2="77.3173" gradientTransform="matrix(21.281 0 0 -22.621 -210.6797 1771.6151)">
							<stop  offset="0" style="stop-color:#F0047F"/>
							<stop  offset="1" style="stop-color:#13007C"/>
						</linearGradient>
						<path id="Path_14277" class="st20" d="M10.6,22.6L0,15.1V0h21.3v15.1L10.6,22.6z M1,14.6l9.7,6.8 M1,1h19.3l-0.1,13.7v-0.6h0
							v0.6l0.1-0.1 M2.3,14l8.4,5.9L19,14V2.2H2.3L2.3,14z"/>
					</g>
					<g id="Group_7347" transform="translate(14.88 78.138)">
						
							<linearGradient id="Path_14278_1_" gradientUnits="userSpaceOnUse" x1="-0.8155" y1="71.275" x2="-0.8155" y2="70.275" gradientTransform="matrix(9.484 0 0 -8.4229 12.4757 600.3398)">
							<stop  offset="0" style="stop-color:#F0047F"/>
							<stop  offset="1" style="stop-color:#13007C"/>
						</linearGradient>
						<path id="Path_14278" class="st21" d="M7.2,8.4h-5C1,8.5,0,7.5,0,6.3c0,0,0-0.1,0-0.1V2.3C0,1,0.9,0,2.1,0c0,0,0.1,0,0.1,0h5
							c1.2,0,2.2,0.9,2.3,2.1c0,0,0,0.1,0,0.1v3.9c0,1.2-0.9,2.2-2.1,2.3C7.3,8.4,7.3,8.4,7.2,8.4z M2.3,1.7c-0.5,0-0.5,0.4-0.5,0.5
							v3.9c0,0.5,0.4,0.5,0.5,0.5h5c0.5,0,0.5-0.4,0.5-0.5V2.3c0-0.5-0.4-0.5-0.5-0.5H2.3z"/>
					</g>
					<g id="Group_7348" transform="translate(16.552 73.732)">
						
							<linearGradient id="Path_14279_1_" gradientUnits="userSpaceOnUse" x1="-7.7445" y1="77.3448" x2="-7.7445" y2="76.3448" gradientTransform="matrix(6.1508 0 0 -3.704 50.703 286.4835)">
							<stop  offset="0" style="stop-color:#F0047F"/>
							<stop  offset="1" style="stop-color:#13007C"/>
						</linearGradient>
						<path id="Path_14279" class="st22" d="M6.1,3.7H4.4V2.5c0-0.3-0.1-0.8-0.6-0.8H2.3c-0.6,0-0.6,0.6-0.6,0.8v1.2H0V2.5
							C-0.1,1.2,0.9,0.1,2.2,0c0.1,0,0.1,0,0.2,0h1.5c1.3,0,2.4,1.1,2.3,2.4c0,0,0,0.1,0,0.1V3.7z"/>
					</g>
					
						<linearGradient id="Path_14280_1_" gradientUnits="userSpaceOnUse" x1="19.2761" y1="148.6438" x2="19.2761" y2="147.6438" gradientTransform="matrix(20.495 0 0 -20.493 -304.0232 3116.4392)">
						<stop  offset="0" style="stop-color:#F0047F"/>
						<stop  offset="1" style="stop-color:#13007C"/>
					</linearGradient>
					<path id="Path_14280" class="st23" d="M92,79.6h9.3v-9.3H92V79.6z M93.8,72.1h5.6v5.6h-5.6V72.1z M80.8,79.6h9.3v-9.3h-9.3
						L80.8,79.6z M82.7,72.1h5.6v5.6h-5.6V72.1z M95.7,75.9h1.9V74h-1.9V75.9z M84.5,75.9h1.9V74h-1.9V75.9z M99.4,81.5v1.9h-1.9
						v-1.9H92v9.3h1.9v-5.6h1.9V87h5.6v-5.6L99.4,81.5z M80.8,90.8h9.3v-9.3h-9.3L80.8,90.8z M82.7,83.3h5.6v5.6h-5.6V83.3z
						 M84.5,87h1.9v-1.9h-1.9V87z M99.4,90.8h1.9v-1.9h-1.9V90.8z M95.7,90.8h1.9v-1.9h-1.9V90.8z"/>
					<g id="Group_7349" transform="translate(29.566 10.357)">
						
							<linearGradient id="Path_14281_1_" gradientUnits="userSpaceOnUse" x1="-7.6992" y1="138.0687" x2="-7.6992" y2="137.0687" gradientTransform="matrix(48.4677 0 0 -34.5161 397.3919 4765.582)">
							<stop  offset="0" style="stop-color:#F0047F"/>
							<stop  offset="1" style="stop-color:#13007C"/>
						</linearGradient>
						<path id="Path_14281" class="st24" d="M43.4,34.5H5c-2.7,0.1-4.9-2-5-4.7c0-0.1,0-0.2,0-0.3V5c-0.1-2.7,2-4.9,4.7-5
							C4.8,0,4.9,0,5,0h38.4c2.7-0.1,4.9,2,5,4.7c0,0.1,0,0.2,0,0.3v24.5c0.1,2.7-2.1,4.9-4.7,5C43.6,34.5,43.5,34.5,43.4,34.5z
							 M5,2.8C3.9,2.7,2.9,3.5,2.8,4.7c0,0.1,0,0.2,0,0.3v24.5c-0.1,1.1,0.8,2.1,1.9,2.2c0.1,0,0.2,0,0.3,0h38.4
							c1.1,0.1,2.1-0.7,2.2-1.9c0-0.1,0-0.2,0-0.3V5c0.1-1.1-0.8-2.1-1.9-2.2c-0.1,0-0.2,0-0.3,0H5z"/>
					</g>
					<g id="Group_7350" transform="translate(-4.699 63.099)">
						
							<linearGradient id="Path_14282_1_" gradientUnits="userSpaceOnUse" x1="26.5658" y1="85.3267" x2="26.5658" y2="84.3267" gradientTransform="matrix(48.4667 0 0 -34.5151 -1263.3267 2945.0605)">
							<stop  offset="0" style="stop-color:#F0047F"/>
							<stop  offset="1" style="stop-color:#13007C"/>
						</linearGradient>
						<path id="Path_14282" class="st25" d="M43.4,34.5H5c-2.7,0.1-4.9-2-5-4.7c0-0.1,0-0.2,0-0.3V5c-0.1-2.7,2.1-4.9,4.7-5
							C4.8,0,4.9,0,5,0h38.4c2.7-0.1,4.9,2,5,4.7c0,0.1,0,0.2,0,0.3v24.5c0.1,2.7-2,4.9-4.7,5C43.6,34.5,43.5,34.5,43.4,34.5z
							 M5,2.8C3.9,2.7,2.9,3.5,2.8,4.7c0,0.1,0,0.2,0,0.3v24.5c-0.1,1.1,0.8,2.1,1.9,2.2c0.1,0,0.2,0,0.3,0h38.4
							c1.1,0.1,2.1-0.7,2.2-1.9c0-0.1,0-0.2,0-0.3V5c0.1-1.1-0.8-2.1-1.9-2.2c-0.1,0-0.2,0-0.3,0H5z"/>
					</g>
					<g id="Group_7351" transform="translate(65.487 63.099)">
						
							<linearGradient id="Path_14283_1_" gradientUnits="userSpaceOnUse" x1="-43.6202" y1="85.3267" x2="-43.6202" y2="84.3267" gradientTransform="matrix(48.4667 0 0 -34.5151 2138.3584 2945.0552)">
							<stop  offset="0" style="stop-color:#F0047F"/>
							<stop  offset="1" style="stop-color:#13007C"/>
						</linearGradient>
						<path id="Path_14283" class="st26" d="M43.4,34.5H5c-2.7,0.1-4.9-2-5-4.7c0-0.1,0-0.2,0-0.3V5c-0.1-2.7,2.1-4.9,4.7-5
							C4.8,0,4.9,0,5,0h38.4c2.7-0.1,4.9,2,5,4.7c0,0.1,0,0.2,0,0.3v24.5c0.1,2.7-2.1,4.9-4.7,5C43.6,34.5,43.5,34.5,43.4,34.5z
							 M5,2.8C3.9,2.7,2.9,3.5,2.8,4.7c0,0.1,0,0.2,0,0.3v24.5c-0.1,1.1,0.8,2.1,1.9,2.2c0.1,0,0.2,0,0.3,0h38.4
							c1.1,0.1,2.1-0.7,2.2-1.9c0-0.1,0-0.2,0-0.3V5c0.1-1.1-0.8-2.1-1.9-2.2c-0.1,0-0.2,0-0.3,0H5z"/>
					</g>
					<g id="Group_7352" transform="translate(29.381 50.425)">
						<path id="Path_14284" class="st27" d="M0.4,6c-0.5-0.5-0.5-1.4,0-2l0,0c0.5-0.5,1.4-0.5,2,0l0,0c0.5,0.5,0.5,1.4,0,2l0,0
							c-0.3,0.3-0.6,0.4-1,0.4l0,0C1,6.4,0.7,6.3,0.4,6z M4,2.4C3.5,1.8,3.5,1,4,0.4l0,0c0.5-0.5,1.4-0.5,2,0l0,0
							c0.5,0.5,0.6,1.4,0,2c0,0,0,0,0,0l0,0C5.7,2.7,5.4,2.8,5,2.8l0,0C4.6,2.8,4.3,2.7,4,2.4z"/>
					</g>
					<path id="Path_14285" class="st28" d="M27.2,59.1L27.2,59.1 M38,48.2L38,48.2"/>
					<g id="Group_7353" transform="translate(73.45 50.425)">
						<path id="Path_14286" class="st27" d="M4,6C3.5,5.5,3.5,4.6,4,4c0,0,0,0,0,0l0,0c0.5-0.5,1.4-0.5,2,0l0,0c0.5,0.5,0.6,1.4,0,2
							c0,0,0,0,0,0l0,0C5.7,6.3,5.4,6.4,5,6.4l0,0C4.6,6.4,4.3,6.3,4,6z M0.4,2.4c-0.5-0.5-0.5-1.4,0-2l0,0c0.5-0.5,1.4-0.5,2,0l0,0
							c0.5,0.5,0.5,1.4,0,2l0,0c-0.3,0.3-0.6,0.4-1,0.4l0,0C1,2.8,0.7,2.7,0.4,2.4L0.4,2.4z"/>
					</g>
					<path id="Path_14287" class="st29" d="M82.1,59.1L82.1,59.1 M71.2,48.2L71.2,48.2"/>
					<g id="Group_7354" transform="translate(50.807 78.916)">
						<path id="Path_14288" class="st27" d="M4.7,1.4C4.7,0.6,5.3,0,6.1,0c0,0,0,0,0,0l0,0c0.8,0,1.4,0.6,1.4,1.4c0,0,0,0,0,0l0,0
							c0,0.8-0.6,1.4-1.4,1.4c0,0,0,0,0,0l0,0C5.3,2.8,4.7,2.2,4.7,1.4C4.7,1.4,4.7,1.4,4.7,1.4z M0,1.4C0,0.6,0.6,0,1.4,0
							c0,0,0,0,0,0l0,0c0.8,0,1.4,0.6,1.4,1.4c0,0,0,0,0,0l0,0c0,0.8-0.6,1.4-1.4,1.4c0,0,0,0,0,0l0,0C0.6,2.8,0,2.2,0,1.4
							C0,1.4,0,1.4,0,1.4z"/>
					</g>
					<path id="Path_14289" class="st29" d="M61.6,80.3L61.6,80.3 M47.5,80.3L47.5,80.3"/>
					<path id="Path_14290" class="st30" d="M61.1,67.7c0.7-0.5,1.3-1.1,1.9-1.8l-1-1.7c0.2-0.2,0.3-0.5,0.5-0.7
						c0-0.1,0.1-0.2,0.1-0.3l1.9,0.1c0.3-0.8,0.6-1.6,0.7-2.5l-1.7-1c0-0.4,0-0.8,0-1.2l1.7-0.9c-0.1-0.9-0.3-1.7-0.6-2.5l-1.9,0
						c-0.2-0.3-0.3-0.7-0.5-1l1-1.6c-0.5-0.7-1.1-1.3-1.8-1.9l-1.7,1c-0.2-0.2-0.5-0.3-0.7-0.5c-0.1,0-0.2-0.1-0.3-0.1l0.1-1.9
						c-0.8-0.3-1.6-0.6-2.5-0.7l-1,1.7c-0.4,0-0.8,0-1.2,0l-0.9-1.7c-0.9,0.1-1.7,0.3-2.5,0.6l0,1.9c-0.3,0.2-0.7,0.3-1,0.5l-1.6-1
						c-0.7,0.5-1.3,1.1-1.9,1.8l1,1.7c-0.2,0.2-0.3,0.5-0.5,0.7c0,0.1-0.1,0.2-0.1,0.3l-1.9-0.1c-0.3,0.8-0.6,1.6-0.7,2.5l1.7,1
						c0,0.4,0,0.8,0,1.2l-1.7,0.9c0.1,0.9,0.3,1.7,0.6,2.5l1.9,0c0.2,0.3,0.3,0.7,0.6,1l-1,1.6c0.5,0.7,1.1,1.3,1.8,1.9l1.7-1
						c0.2,0.2,0.5,0.3,0.7,0.5c0.1,0,0.2,0.1,0.3,0.1L50.4,69c0.8,0.3,1.6,0.6,2.5,0.7l1-1.7c0.4,0,0.8,0,1.2,0l0.9,1.7
						c0.9-0.1,1.7-0.3,2.5-0.6l0-1.9c0.3-0.2,0.7-0.3,1-0.6L61.1,67.7z"/>
					<g id="Group_7355" transform="translate(43.014 47.451)">
						
							<linearGradient id="Path_14291_1_" gradientUnits="userSpaceOnUse" x1="-23.2116" y1="101.1297" x2="-23.2116" y2="100.1297" gradientTransform="matrix(23.217 0 0 -23.222 550.5148 2348.4343)">
							<stop  offset="0" style="stop-color:#F0047F"/>
							<stop  offset="1" style="stop-color:#13007C"/>
						</linearGradient>
						<path id="Path_14291" class="st31" d="M12.4,23.2l-0.9-1.8h-0.2l-1,1.7l-0.6-0.1c-0.9-0.2-1.8-0.4-2.7-0.8l-0.5-0.2l0.1-2
							L6.4,20l-1.7,1l-0.4-0.4c-0.7-0.6-1.4-1.3-1.9-2L2,18.1L3,16.4c0-0.1-0.1-0.1-0.1-0.2l-2,0l-0.2-0.5c-0.3-0.9-0.5-1.8-0.7-2.7
							L0,12.4l1.8-0.9c0-0.1,0-0.1,0-0.2l-1.7-1l0.1-0.6C0.3,8.8,0.6,7.9,0.9,7l0.2-0.5l2,0.1c0-0.1,0.1-0.1,0.1-0.2l-1-1.7l0.4-0.4
							c0.6-0.7,1.3-1.4,2-1.9L5.1,2L6.8,3L7,2.9l0-2l0.5-0.2c0.9-0.3,1.8-0.6,2.7-0.7L10.8,0l0.9,1.8h0.2l1-1.7l0.6,0.1
							c0.9,0.2,1.8,0.4,2.7,0.8l0.5,0.2l-0.1,2l0.2,0.1l1.7-1L19,2.6c0.7,0.6,1.4,1.3,1.9,2l0.3,0.5l-1.1,1.7c0,0.1,0.1,0.1,0.1,0.2
							l2,0l0.2,0.5c0.3,0.9,0.5,1.8,0.7,2.7l0.1,0.6l-1.8,0.9c0,0.1,0,0.1,0,0.2l1.7,1l-0.1,0.6c-0.2,0.9-0.4,1.8-0.8,2.7l-0.2,0.5
							l-2-0.1c0,0.1-0.1,0.1-0.1,0.2l1,1.7L20.6,19c-0.6,0.7-1.3,1.4-2,1.9l-0.5,0.3l-1.7-1.1c-0.1,0-0.1,0.1-0.2,0.1l0,2l-0.5,0.2
							c-0.9,0.3-1.8,0.5-2.7,0.7L12.4,23.2z M12.5,19.7l0.9,1.7c0.4-0.1,0.8-0.2,1.2-0.3l0-1.9l0.5-0.2c0.3-0.1,0.6-0.3,0.9-0.5
							l0.4-0.3l1.6,1c0.3-0.3,0.6-0.6,0.9-0.9L18,16.7l0.3-0.4c0.1-0.2,0.3-0.4,0.4-0.7c0-0.1,0.1-0.1,0.1-0.2l0.3-0.5L21,15
							c0.1-0.4,0.3-0.8,0.4-1.2l-1.6-1l0-0.5c0-0.3,0-0.7,0-1l0-0.5l1.7-0.9c-0.1-0.4-0.2-0.8-0.3-1.2l-1.9,0L19,8.2
							c-0.1-0.3-0.3-0.6-0.5-0.9l-0.3-0.4l1-1.6c-0.3-0.3-0.6-0.6-0.9-0.9l-1.6,0.9l-0.4-0.3c-0.2-0.1-0.4-0.3-0.7-0.4L15,4.2l0-0.6
							L15,2.3c-0.4-0.1-0.8-0.3-1.2-0.4l-1,1.6l-0.5,0c-0.3,0-0.7,0-1,0l-0.5,0L9.9,1.8C9.5,1.9,9,2,8.6,2.1l0,1.9L8.2,4.2
							C7.8,4.4,7.5,4.5,7.2,4.7L6.8,5L5.2,4C4.9,4.3,4.6,4.6,4.3,4.9l0.9,1.6L4.9,6.9C4.8,7.2,4.6,7.4,4.5,7.6
							c0,0.1-0.1,0.1-0.1,0.2L4.1,8.3L2.3,8.2C2.1,8.6,2,9,1.9,9.4l1.6,1l0,0.5c0,0.3,0,0.7,0,1l0,0.5l-1.7,0.9
							c0.1,0.4,0.2,0.8,0.3,1.2l1.9,0l0.2,0.5c0.1,0.3,0.3,0.6,0.5,0.9L5,16.4L4,18c0.3,0.3,0.6,0.6,0.9,0.9L6.5,18l0.4,0.3
							c0.2,0.1,0.4,0.3,0.7,0.4l0.7,0.3l0,0.6L8.2,21c0.4,0.1,0.8,0.3,1.2,0.4l0.9-1.6l0.5,0c0.4,0,0.7,0,1.1,0L12.5,19.7z"/>
					</g>
					<path id="Path_14292" class="st30" d="M53.3,63.5c2.5,0.8,5.1-0.6,5.8-3.1s-0.6-5.1-3.1-5.8c-2.5-0.8-5.1,0.6-5.8,3.1
						C49.4,60.2,50.8,62.8,53.3,63.5"/>
					<g id="Group_7356" transform="translate(49.101 53.539)">
						
							<linearGradient id="Path_14293_1_" gradientUnits="userSpaceOnUse" x1="-33.6641" y1="95.5639" x2="-33.6641" y2="94.5639" gradientTransform="matrix(11.0469 0 0 -11.0455 377.4086 1055.5487)">
							<stop  offset="0" style="stop-color:#F0047F"/>
							<stop  offset="1" style="stop-color:#13007C"/>
						</linearGradient>
						<path id="Path_14293" class="st32" d="M5.5,11C5,11,4.4,11,3.9,10.8l0,0C1,9.9-0.6,6.8,0.2,3.9c0.9-2.9,4-4.6,6.9-3.7
							s4.6,4,3.7,6.9C10.1,9.5,8,11,5.5,11L5.5,11z M4.4,9.2c2,0.6,4.2-0.5,4.8-2.5c0.3-1,0.2-2-0.3-2.9c-1-1.9-3.3-2.6-5.2-1.6
							c-1.9,1-2.6,3.3-1.6,5.2C2.6,8.2,3.4,8.9,4.4,9.2z"/>
					</g>
					<path id="Path_14294" class="st17" d="M54,61c1.1,0.3,2.2-0.3,2.6-1.4c0.3-1.1-0.3-2.2-1.4-2.6s-2.2,0.3-2.6,1.4c0,0,0,0,0,0
						C52.3,59.6,52.9,60.7,54,61"/>
				</g>
			</g>
		</g>
		<g id="Group_7359">
			
				<linearGradient id="Path_14296_1_" gradientUnits="userSpaceOnUse" x1="26.7" y1="152.1519" x2="26.7" y2="151.1409" gradientTransform="matrix(115.866 0 0 -115.866 -3035.6938 17629.2383)">
				<stop  offset="0" style="stop-color:#F0047F"/>
				<stop  offset="1" style="stop-color:#13007C"/>
			</linearGradient>
			<path id="Path_14296" class="st33" d="M57.9,113.8v-2.1c29.7,0,53.8-24.1,53.8-53.8S87.6,4.1,57.9,4.1S4.1,28.2,4.1,57.9l0,0
				c0,29.7,24.1,53.8,53.8,53.8v4.1C25.9,115.9,0,89.9,0,57.9S25.9,0,57.9,0c32,0,57.9,25.9,57.9,57.9c0,32-25.9,57.9-57.9,57.9
				V113.8z"/>
		</g>
		<path id="Path_14297" class="st34" d="M73.1,33.9"/>
		<g id="Group_7368" transform="translate(35.471 22.852)">
			<g id="Group_7367">
				<path id="Path_14298" class="st35" d="M39.8,12.2"/>
				<g id="Group_7360" transform="translate(41.609 11.255)">
					<path id="Path_14299" class="st27" d="M0.5,0.3C0.5,0.3,0.5,0.4,0.5,0.3C0.5,0.4,0.4,0.4,0.5,0.3L0.4,0.4V0.3L0.5,0.3
						C0.4,0.3,0.5,0.3,0.5,0.3C0.5,0.3,0.5,0.3,0.5,0.3 M0.4,0.5L0.4,0.5l0.2,0.2h0.1L0.5,0.5c0,0,0.1,0,0.1-0.1c0,0,0-0.1,0-0.1
						c0,0,0-0.1-0.1-0.1c0,0-0.1,0-0.1,0H0.2v0.5h0.1L0.4,0.5z M0.1,0.4c0-0.1,0.1-0.3,0.2-0.3c0.1,0,0.2,0,0.3,0c0,0,0.1,0,0.1,0.1
						c0,0,0.1,0.1,0.1,0.1c0,0,0,0.1,0,0.1c0,0,0,0.1,0,0.1c0,0,0,0.1-0.1,0.1c0,0-0.1,0.1-0.1,0.1c-0.1,0-0.2,0-0.3,0
						c0,0-0.1,0-0.1-0.1C0.1,0.6,0.1,0.5,0.1,0.4 M0,0.4c0,0.1,0,0.1,0,0.2c0,0,0.1,0.1,0.1,0.1c0,0,0.1,0.1,0.1,0.1
						c0.1,0,0.2,0,0.3,0c0,0,0.1-0.1,0.1-0.1c0.1-0.1,0.1-0.2,0.1-0.3c0-0.1,0-0.2-0.1-0.3c0,0-0.1-0.1-0.1-0.1C0.5,0,0.4,0,0.3,0
						c0,0-0.1,0.1-0.1,0.1c0,0-0.1,0.1-0.1,0.1C0,0.3,0,0.4,0,0.4"/>
				</g>
				<g id="Group_7366">
					<g id="Group_7364">
						<g id="Group_7362">
							
								<image style="overflow:visible;opacity:0.5;enable-background:new    ;" width="16" height="16" id="Rectangle_4607" xlink:href="F6F14EBD0656717A.png"  transform="matrix(1.0724 0 0 1.0724 0 0)">
							</image>
							<g id="Group_7361" transform="translate(2.906 2.869)">
								<path id="Rectangle_4608" class="st30" d="M2.4,0h6.3c1.3,0,2.4,1.1,2.4,2.4v6.3c0,1.3-1.1,2.4-2.4,2.4H2.4
									C1.1,11.1,0,10,0,8.7V2.4C0,1.1,1.1,0,2.4,0z"/>
							</g>
						</g>
						
							<linearGradient id="Rectangle_4609_1_" gradientUnits="userSpaceOnUse" x1="-16.9543" y1="130.2764" x2="-16.9543" y2="129.3924" gradientTransform="matrix(10.248 0 0 -10.248 182.2061 1338.3899)">
							<stop  offset="0" style="stop-color:#F0047F"/>
							<stop  offset="1" style="stop-color:#13007C"/>
						</linearGradient>
						<path id="Rectangle_4609" class="st36" d="M5.3,3.3h6.2c1.1,0,2,0.9,2,2v6.2c0,1.1-0.9,2-2,2H5.3c-1.1,0-2-0.9-2-2V5.3
							C3.3,4.2,4.2,3.3,5.3,3.3z"/>
						<g id="Group_7363" transform="translate(3.984 5.803)">
							<path id="Path_14300" class="st30" d="M9.9,4.3c-0.4,0.2-1,0.5-1.4,0.1C8,4.1,8.3,3.5,8.4,3.2c0.2-0.5,0.2-0.6,0-0.7
								c-0.2-0.2-0.8,0.5-1.3,1C6.4,4.2,5.6,5,5,4.5C4.8,4.4,4.7,4.2,4.7,4c0-0.6,0.6-1.2,1.2-2c0.5-0.5,1-1.1,1-1.4
								c0,0,0-0.1,0-0.1C6.5,0.1,5.3,1.4,4.4,2.3C4.1,2.7,3.9,3,3.6,3.2C2.9,4,1.9,4.5,0.9,4.6c-0.1,0-0.2,0-0.2,0
								C0.4,4.5,0.2,4.4,0.1,4.1C-0.4,3.1,1.2,2,1.2,2l0.3,0.4c-0.4,0.2-1.2,1-1,1.6c0,0.1,0.2,0.2,0.3,0.2c1-0.1,1.8-0.5,2.5-1.2
								C3.5,2.7,3.8,2.4,4.1,2c1.2-1.2,2.4-2.5,3.2-1.8c0.1,0.1,0.2,0.2,0.2,0.4c0,0.5-0.5,1.1-1.1,1.8C5.8,2.9,5.1,3.6,5.2,4
								c0,0.1,0,0.1,0.1,0.1c0.3,0.3,1-0.5,1.6-1c0.7-0.7,1.3-1.4,1.9-1S9,2.9,8.8,3.3s-0.2,0.6,0,0.7c0.2,0.2,0.6,0,1.1-0.3
								L9.9,4.3z"/>
						</g>
						<path id="Path_14301" class="st30" d="M12.6,12.8L11.8,12l-0.4,0.4l-0.7-1.7l1.7,0.7l-0.4,0.4l0.8,0.8L12.6,12.8z"/>
					</g>
					<g id="Group_7365" transform="translate(16.276 4.915)">
						
							<linearGradient id="Path_14302_1_" gradientUnits="userSpaceOnUse" x1="-27.2701" y1="124.7722" x2="-28.2681" y2="124.7722" gradientTransform="matrix(26.1799 0 0 -11.2 740.0306 1403.042)">
							<stop  offset="0" style="stop-color:#F0047F"/>
							<stop  offset="1" style="stop-color:#13007C"/>
						</linearGradient>
						<path id="Path_14302" class="st37" d="M12.7,0c-0.8,0-1.5,0.2-2.2,0.5c-0.4,0.1-0.7,0.4-1.1,0.6C9.2,1.3,9,1.6,9,1.9
							c0,0.3,0.1,0.5,0.4,0.7C9.6,2.8,9.9,3,10.3,3.1c0.7,0.2,1.4,0.5,2.1,0.8C12.7,4,13,4.3,13,4.7c0,0.2-0.1,0.3-0.2,0.5
							c-0.6,0.7-1.4,1.2-2.3,1.3C10,6.7,9.4,6.8,8.8,6.8c-0.4,0-0.8,0-1.2-0.3C7.4,6.4,7.3,6.2,7.3,5.9c0-0.4,0.2-0.8,0.6-1
							c0.3-0.3,0.6-0.5,1-0.6C9.1,4.1,9.3,4.1,9.6,4C9.9,4,10,4,10,4S9.9,3.9,9.8,3.9c-0.7,0-1.4,0.2-2,0.6c-0.7,0.3-1.1,1-1.1,1.8
							c0,0.7,0.6,1,1.8,1c0.8,0,1.5-0.2,2.2-0.5c0.8-0.3,1.5-0.7,2.1-1.3c0.3-0.2,0.5-0.6,0.5-1c0-0.3-0.2-0.6-0.4-0.8
							c-0.3-0.2-0.5-0.4-0.8-0.6C11.9,3,11.5,2.8,11,2.6c-0.5-0.2-0.8-0.3-1-0.4C9.7,2.1,9.6,1.9,9.6,1.8c0-0.2,0.2-0.4,0.7-0.7
							c0.7-0.4,1.6-0.6,2.4-0.7c0.7,0,1,0.2,1,0.5c0,0.2-0.1,0.4-0.4,0.6c-0.1,0.1-0.1,0.1-0.1,0.1c0,0.1,0.1,0.1,0.2,0
							c0.2-0.1,0.3-0.3,0.4-0.4C13.9,1.1,14,0.8,14,0.6C14,0.2,13.6,0,12.7,0z M7.3,3.3l-1.7,0c0,0-0.1,0-0.1,0
							C5.3,3.4,5.2,3.5,5.2,3.6c0,0.1,0.1,0.1,0.2,0.1h0.1c1.6,0,2.5-0.1,2.5-0.3C7.9,3.3,7.7,3.3,7.3,3.3z M26.1,5c0,0-0.1,0-0.1,0
							c-0.3,0.3-0.5,0.7-0.9,0.9c-0.3,0.2-0.5,0.5-0.8,0.7c-0.2,0.1-0.4,0.1-0.5,0c-0.1-0.1-0.1-0.3-0.1-0.4c0-0.3,0.1-0.6,0.2-0.9
							c0.1-0.3,0.2-0.5,0.4-0.8c0.1-0.2,0.2-0.5,0.3-0.8c0-0.2-0.1-0.3-0.3-0.3c-0.3,0-0.5,0.1-0.7,0.3c-0.4,0.3-0.7,0.7-1.1,1
							c-0.4,0.4-0.8,0.8-1.1,1.2c0.4-1.1,0.6-1.7,0.7-1.9c0.1-0.1,0.1-0.2,0.1-0.4c0-0.1-0.1-0.1-0.2-0.1c-0.1,0-0.2,0-0.3,0
							c-0.1,0-0.1,0-0.2,0.1c0,0-0.1,0.1-0.1,0.2c0,0.1,0,0.1,0,0.2c0,0.1,0,0.2-0.1,0.2c0,0.1-0.1,0.4-0.3,0.8
							c-0.3,0.4-0.7,0.8-1.1,1.1c-0.3,0.3-0.6,0.5-0.9,0.7c0.1-0.3,0.3-0.7,0.6-1.2c0.3-0.6,0.5-0.9,0.6-1.2c0,0,0-0.1-0.2-0.2
							c-0.3-0.2-0.5-0.2-0.6,0c-0.6,0.7-1.2,1.3-1.9,1.9c-0.3,0.3-0.6,0.5-1,0.5c-0.2,0-0.2-0.1-0.2-0.4c0-0.3,0.1-0.5,0.3-0.7
							c0.2-0.3,0.5-0.6,0.7-0.9c0.3-0.3,0.6-0.5,1-0.7c0.3-0.2,0.6-0.3,1-0.3c0.3,0,0.5,0.1,0.6,0.2c0.1,0,0.1,0,0.1-0.1
							c0-0.1-0.1-0.2-0.2-0.3c-0.2-0.1-0.3-0.2-0.5-0.2c-0.2,0-0.4,0-0.6,0.1c-0.3,0.1-0.6,0.2-0.9,0.4c-0.4,0.2-0.7,0.5-1.1,0.8
							c-0.1,0.1-0.3,0.3-0.4,0.4l0,0l0,0c-0.1,0.1-0.1,0.2-0.2,0.2C16,5.5,15.8,5.8,15.5,6c-0.3,0.2-0.5,0.5-0.8,0.7
							c-0.2,0.1-0.4,0.1-0.5,0c-0.1-0.1-0.1-0.2-0.1-0.3c0-0.1,0-0.2,0-0.3c0.2-0.6,0.4-1.2,0.7-1.7c0-0.1,0.1-0.1,0.1-0.2
							c0,0,0-0.1,0-0.1C15,4,15,4,15.1,3.9c0-0.1,0-0.1,0-0.2c0-0.1-0.2-0.2-0.3-0.2h-0.1c-0.1,0-0.3,0.3-0.4,0.7c0,0,0,0.1,0,0.2
							c-0.2,0.3-0.5,0.7-0.9,1.2c0,0,0,0.1,0,0.1c0,0,0,0,0,0.1c0,0.1,0.1,0.1,0.2,0c0.2-0.2,0.3-0.4,0.5-0.6
							c-0.2,0.4-0.3,0.8-0.4,1.2c0,0.1,0,0.1,0,0.2c0.1,0.3,0.3,0.5,0.6,0.4c0.2,0,0.3,0,0.5-0.1c0.5-0.2,0.9-0.6,1.2-1l0,0
							C16,6,16,6,16,6c0,0.2,0.1,0.3,0.2,0.4c0.1,0.1,0.2,0.2,0.4,0.3c0.1,0.1,0.3,0.1,0.4,0.1c0.4,0,1-0.4,1.7-1.2
							c0.2-0.2,0.5-0.6,0.9-1.1c-0.3,0.9-0.7,1.8-1.2,2.7c-0.9,0.6-1.8,1.2-2.6,2c-0.3,0.3-0.5,0.7-0.6,1.2c0,0.3,0.2,0.5,0.6,0.6
							c0.1,0,0.2,0,0.2,0c0.6,0,1.1-0.4,1.7-1.3c0.2-0.4,0.7-1.2,1.3-2.6c0.4-0.3,0.8-0.6,1.1-0.9c0.4-0.4,0.7-0.6,0.9-0.9
							c-0.1,0.3-0.2,0.5-0.3,0.7c-0.1,0.4-0.2,0.6-0.2,0.6c0,0,0,0.1,0,0.1c0,0,0,0,0.1,0C20.9,7,21,7,21.2,6.9
							c0.3-0.3,0.6-0.6,0.8-1c0.3-0.5,0.7-0.9,1.1-1.3c0.3-0.3,0.6-0.5,0.7-0.5c0.1,0,0.1,0,0.1,0.1c0,0.1-0.1,0.3-0.2,0.4
							c-0.1,0.3-0.3,0.5-0.4,0.8c-0.1,0.2-0.1,0.4-0.2,0.6c0,0.2,0,0.3,0,0.5c0,0.2,0.1,0.3,0.2,0.4C23.4,7,23.6,7,23.8,7
							c0.3,0,0.6-0.1,0.8-0.3c0.3-0.2,0.6-0.5,0.9-0.8c0.2-0.2,0.4-0.5,0.6-0.8C26.2,5.1,26.2,5.1,26.1,5C26.2,5.1,26.1,5,26.1,5
							L26.1,5z M17.9,8.2c-0.1,0.2-0.2,0.3-0.2,0.4s-0.1,0.2-0.2,0.4s-0.2,0.3-0.2,0.4s-0.1,0.2-0.2,0.4s-0.2,0.3-0.3,0.4
							s-0.2,0.2-0.3,0.3c-0.1,0.1-0.2,0.2-0.4,0.3c-0.1,0.1-0.2,0.2-0.3,0.2c-0.1,0-0.2,0-0.2-0.1c-0.1-0.1-0.1-0.1-0.1-0.2
							c0-0.4,0.3-0.9,0.6-1.1c0.6-0.6,1.3-1.1,2-1.7C18.1,7.8,18,8,17.9,8.2L17.9,8.2z M15.6,2c0,0-0.1,0.1-0.2,0.2l-0.2,0.2
							c-0.2,0.1-0.4,0.3-0.5,0.4c0,0.2,0.2,0.2,0.5,0.2c0.1,0,0.1-0.1,0.2-0.2c0.1-0.1,0.1-0.2,0.2-0.3L15.6,2C15.7,2,15.7,2,15.6,2
							C15.6,2,15.6,2,15.6,2L15.6,2z M1.1,6.1V4h3.3V3H1.1V1.1h3.6V0H0v7.2h4.8V6.1L1.1,6.1z"/>
					</g>
				</g>
			</g>
		</g>
	</g>
	<g id="Group_7375" transform="translate(429.474 338.511)">
		<circle id="Ellipse_454" class="st4" cx="57.8" cy="59" r="54.2"/>
		<g id="Group_7374">
			<g id="Group_7372" transform="translate(3.082 1.84)">
				<g id="Group_7371">
					<g>
						<defs>
							<path id="SVGID_7_" d="M0,55.7c0,30.8,24.9,55.7,55.7,55.7s55.7-24.9,55.7-55.7C111.4,24.9,86.5,0,55.7,0C25,0,0,24.9,0,55.7
								"/>
						</defs>
						<clipPath id="SVGID_8_">
							<use xlink:href="#SVGID_7_"  style="overflow:visible;"/>
						</clipPath>
						<g id="Group_7370" class="st38">
							
								<linearGradient id="Path_14303_1_" gradientUnits="userSpaceOnUse" x1="-50.3553" y1="502.0252" x2="-50.3553" y2="501.0252" gradientTransform="matrix(87.176 0 0 -87.173 4445.4932 43793.457)">
								<stop  offset="0" style="stop-color:#F0047F"/>
								<stop  offset="1" style="stop-color:#13007C"/>
							</linearGradient>
							<path id="Path_14303" class="st39" d="M59.7,70.1h39.6V30.4H59.7V70.1z M67.6,38.4h23.8v23.8H67.6L67.6,38.4z M12.1,70.1
								h39.6V30.4H12.1L12.1,70.1z M20.1,38.4h23.8v23.8H20.1L20.1,38.4z M75.5,54.2h7.9v-7.9h-7.9V54.2z M28,54.2h7.9v-7.9H28V54.2
								z M91.4,78v7.9h-7.9V78H59.7v39.6h7.9V93.8h7.9v7.9h23.8V78L91.4,78z M12.1,117.6h39.6V78H12.1L12.1,117.6z M20.1,85.9h23.8
								v23.7H20.1L20.1,85.9z M28,101.8h7.9v-7.9H28V101.8z M91.4,117.6h7.9v-7.9h-7.9V117.6z M75.5,117.6h7.9v-7.9h-7.9V117.6z"/>
						</g>
					</g>
				</g>
				<rect id="Rectangle_4610" x="27.6" y="45.9" class="st17" width="8.8" height="8.8"/>
				<rect id="Rectangle_4611" x="75.4" y="45.9" class="st17" width="8.8" height="8.8"/>
				<rect id="Rectangle_4612" x="27.6" y="93.5" class="st17" width="8.8" height="8.8"/>
			</g>
			<g id="Group_7373">
				
					<linearGradient id="Path_14305_1_" gradientUnits="userSpaceOnUse" x1="-47.0115" y1="503.8339" x2="-47.0115" y2="502.8229" gradientTransform="matrix(115.946 0 0 -115.946 5508.7607 58417.5156)">
					<stop  offset="0" style="stop-color:#F0047F"/>
					<stop  offset="1" style="stop-color:#13007C"/>
				</linearGradient>
				<path id="Path_14305" class="st40" d="M58,113.9v-2.1c29.7,0,53.8-24.1,53.8-53.8c0-29.7-24.1-53.8-53.8-53.8S4.1,28.2,4.1,58
					l0,0c0,29.7,24.1,53.8,53.8,53.8v4.1c-32,0-58-26-58-58C0,26,26,0,58,0c32,0,58,26,58,58l0,0c0,32-26,58-58,58V113.9z"/>
			</g>
		</g>
	</g>
</g>
</svg>
