<?xml version="1.0" encoding="utf-8"?>
<!-- Generator: Adobe Illustrator 25.0.1, SVG Export Plug-In . SVG Version: 6.00 Build 0)  -->
<svg version="1.1" id="Layer_1" xmlns="http://www.w3.org/2000/svg" xmlns:xlink="http://www.w3.org/1999/xlink" x="0px" y="0px"
	 viewBox="0 0 760.5 562.3" style="enable-background:new 0 0 760.5 562.3;" xml:space="preserve">
<style type="text/css">
	.st0{fill:#18013D;}
	.st1{fill:#000122;}
	.st2{fill:#12022C;}
	.st3{fill:#16013F;}
	.st4{fill:#E2DEE1;}
	.st5{fill:url(#Path_13844_1_);}
	.st6{clip-path:url(#SVGID_2_);}
	.st7{fill:#13007C;}
	.st8{fill:#8C8C8C;}
	.st9{fill:url(#Path_13849_1_);}
	.st10{fill:#CCCCCC;}
	.st11{fill:#FFFFFF;}
	.st12{fill:#F0047F;}
	.st13{clip-path:url(#SVGID_4_);}
	.st14{fill:url(#Path_13861_1_);}
	.st15{fill:none;}
	.st16{clip-path:url(#SVGID_6_);}
	.st17{clip-path:url(#SVGID_8_);}
	.st18{fill:url(#Path_13866_1_);}
	.st19{clip-path:url(#SVGID_10_);}
	.st20{fill:url(#Path_13868_1_);}
	.st21{clip-path:url(#SVGID_12_);}
	.st22{fill:url(#Path_13871_1_);}
	.st23{fill:url(#Path_13873_1_);}
	.st24{clip-path:url(#SVGID_14_);}
	.st25{fill:url(#Path_13875_1_);}
	.st26{fill:url(#Rectangle_4519_1_);}
	.st27{fill:url(#Rectangle_4520_1_);}
	.st28{fill:url(#Rectangle_4521_1_);}
	.st29{fill:url(#Path_13877_1_);}
	.st30{clip-path:url(#SVGID_16_);}
	.st31{fill:url(#Path_13878_1_);}
	.st32{fill:url(#Rectangle_4523_1_);}
	.st33{fill:url(#Rectangle_4525_1_);}
	.st34{fill:url(#Rectangle_4526_1_);}
	.st35{fill:none;stroke:#F0047F;stroke-width:5.542;stroke-miterlimit:10;}
	.st36{fill:url(#Rectangle_4529_1_);}
	.st37{fill:url(#Rectangle_4531_1_);}
	.st38{fill:none;stroke:#13007C;stroke-width:3.946;stroke-miterlimit:10;}
	.st39{fill:none;stroke:#F0047F;stroke-width:3;stroke-dasharray:12,8;}
</style>
<g id="Group_7038" transform="translate(-276.115 -341.925)">
	<g id="Group_6979" transform="translate(276.115 341.925)">
		<path id="Path_13840" class="st0" d="M755.5,217c-7.3,24.8-23.2,48-48.8,65c-3.4,2.2-6.5,4.5-9.5,6.4
			c-49.1,33.8-42.4,40.4-27.5,106.1c12.3,54.4-3,117.1-58.1,148.3c-7.4,4.1-15.1,7.6-23.2,10.3c-4.5,1.7-9.2,3-14,4.3
			c-1.7,0.4-3.4,0.7-5.2,1.1c-4.1,0.9-8.4,1.7-12.7,2.2c-0.6,0.2-1.2,0.3-1.9,0.4c-4.9,0.6-9.7,0.9-14.6,1.1
			c-2.4,0.1-4.7,0.1-7.1-0.2c-7.9,0-15.8-0.7-23.5-2.2c-33.8-5.8-63.5-21.7-90-37.6c-42.6-25.8-76.4-51.9-103.5-36.2
			c-50.1,29.1-98.8,37.9-142,33.6c-29.3-2.6-57.7-11.8-83.1-26.7C29,456.9-2.8,392.8,23,347.4c13.3-23.2,19.6-42,21.7-57.9v-0.2
			c9.7-72.5-70.6-87.1-35.9-173.7C50.1,12.5,138.4-12.4,218,5.2c51.6,11,99.6,40,128.7,76.8c19.8,25,39,40.4,57.7,48.4
			c36.4,15.7,70.8,4.5,104.4-13.5c30.6-16.3,60.5-38.1,91.2-49.9c14.2-5.6,28.8-9,43.3-8.6C729.3,60.7,776.6,146.2,755.5,217z"/>
		<path id="Path_13841" class="st1" d="M755.5,217c-7.3,24.8-23.2,48-48.8,65c-3.4,2.2-6.5,4.5-9.5,6.4
			c-49.1,33.8-42.4,40.4-27.5,106.1c12.3,54.4-3,117.1-58.1,148.3c-7.4,4.1-15.1,7.6-23.2,10.3c-4.5,1.7-9.2,3-14,4.3
			c-1.7,0.4-3.4,0.7-5.2,1.1c-4.1,0.9-8.4,1.7-12.7,2.2c-0.6,0.2-1.2,0.3-1.9,0.4c-4.9,0.6-9.7,0.9-14.6,1.1
			c-2.4,0.1-4.7,0.1-7.1-0.2c-7.9,0-15.8-0.7-23.5-2.2c-33.8-5.8-63.5-21.7-90-37.6c-2-5.2-4.4-10.2-7.3-14.9
			c-20.7-33.8-62.8-46.1-99.6-61.1c-5.8-2.4-11.6-4.9-17.4-7.7H295c-57-26.5-108.7-69.3-136-124v-0.2c-2.3-4.3-4.3-8.7-6-13.3
			c-5.5-13.2-9.4-27-11.6-41.1c-3.9-23.9-2.2-50.6,13.1-69.3c24.1-29.3,69.5-27.3,106.1-17.4c0.2,0,0.4,0.2,0.6,0.2
			c34.2,9.2,67.1,22.8,100.5,34c0.2,0.2,0.2,0.2,0.4,0.2c4.9,1.7,9.7,3.4,14.6,4.9c3.2,0.9,6.4,1.9,9.5,2.8
			c36.1,10.6,74,17,111,11.4c40.4-6.3,79.8-29.1,97.7-65.8c10.1-20.5,12.5-43.7,10.8-66.5c-0.7-9.3-3-18.3-5.6-27.5
			c14.2-5.6,28.8-9,43.3-8.6C729.3,60.7,776.6,146.2,755.5,217z"/>
		<path id="Path_13842" class="st2" d="M318.9,422.7c-6.9,6.7-14.9,12-23.7,15.9H295c-20.2,9-43.7,11-65.9,9.3
			c-23.4-1.9-46.9-7.3-66.5-19.8c-42.2-27.3-58.5-80.9-93-117.5c-7.4-8-15.8-15.1-24.8-21.1v-0.2c9.7-72.5-70.6-87.1-35.9-173.7
			C50.1,12.5,138.4-12.4,218,5.2c-2.1,4.4-4,9-5.6,13.6c-15.1,44.3-5.2,96.4,25.2,132.1c7.2,8.2,15.1,15.7,23.5,22.6
			c28.4,23.9,61.6,43.7,76.6,77c9,20.2,10.3,43,10.6,65C349.1,353.8,346.2,396.2,318.9,422.7z"/>
		<path id="Path_13843" class="st3" d="M531.3,162.5c-1.7,11-10.8,19.2-20.2,25.2c-11.1,6.7-23.3,11.4-36.1,13.8
			c-12.5,2.2-25.4,2.2-37.7,4.7c-14,2.6-27.3,8.4-41.5,9.3c-3.2,0.2-6.5,0.2-9.7-0.2c-8.5-0.8-16.7-3.4-24.1-7.7
			c-0.2,0-0.2,0-0.4-0.2c-1.7-0.9-3.4-2.1-5-3.2c-7.5-5.2-14-13.3-14.2-22.4c-0.4-12.9,11.8-22.6,23.2-28.8
			c13.5-7.1,27.8-12.5,38.9-22.8c36.4,15.7,70.8,4.5,104.4-13.5c1.4,2.1,2.9,4.2,4.5,6.2C522.5,134.6,533.7,147.7,531.3,162.5z"/>
	</g>
	<g id="Group_7037" transform="translate(334.426 492.09)">
		<circle id="Ellipse_426" class="st4" cx="59" cy="141" r="58"/>
		<circle id="Ellipse_427" class="st4" cx="560" cy="141" r="57.1"/>
		<circle id="Ellipse_428" class="st4" cx="310.3" cy="139.2" r="138.1"/>
		<g id="Group_6993" transform="translate(0 82.057)">
			
				<linearGradient id="Path_13844_1_" gradientUnits="userSpaceOnUse" x1="65.1311" y1="304.9913" x2="65.1311" y2="303.9803" gradientTransform="matrix(117.212 0 0 -117.212 -7575.1909 35748.6328)">
				<stop  offset="0" style="stop-color:#F0047F"/>
				<stop  offset="1" style="stop-color:#13007C"/>
			</linearGradient>
			<path id="Path_13844" class="st5" d="M59,115.1V113c30.1,0,54.4-24.4,54.4-54.4S89,4.2,59,4.2C28.9,4.2,4.5,28.5,4.5,58.6l0,0
				c0,30,24.4,54.4,54.4,54.4v4.2C26.6,117.2,0.4,91,0.3,58.6C0.3,26.2,26.6,0,58.9,0c32.4,0,58.6,26.2,58.6,58.6c0,0,0,0,0,0
				c0,32.4-26.2,58.6-58.6,58.6V115.1z"/>
			<g id="Group_6992" transform="translate(0 2.117)">
				<g id="Group_6988">
					<g>
						<defs>
							<rect id="SVGID_1_" x="0" y="0" width="113.7" height="113.7"/>
						</defs>
						<clipPath id="SVGID_2_">
							<use xlink:href="#SVGID_1_"  style="overflow:visible;"/>
						</clipPath>
						<g id="Group_6987" class="st6">
							<path id="Path_13845" d="M38.8,65v-2c0,0,0-1.5-1-1.5H27.1c0,0-1,0-1,1.5v10c0,0,0,1.5,1,1.5h10.7c0,0,1,0,1-1.5V65"/>
							<g id="Group_6980" transform="translate(24.654 60.124)">
								<path id="Path_13846" class="st7" d="M13.1,15.8H2.4C1,15.7-0.1,14.4,0,13c0,0,0-0.1,0-0.1v-10C-0.2,1.5,0.8,0.2,2.2,0
									c0.1,0,0.1,0,0.2,0h10.7c1.4,0.1,2.5,1.3,2.4,2.8c0,0,0,0.1,0,0.1v10c0.2,1.4-0.8,2.7-2.2,2.9
									C13.3,15.8,13.2,15.8,13.1,15.8z M2.8,13h9.9c0,0,0,0,0-0.1v-10c0,0,0,0,0-0.1H2.8c0,0,0,0,0,0.1L2.8,13
									C2.8,12.9,2.8,12.9,2.8,13L2.8,13z"/>
							</g>
							<path id="Path_13847" class="st8" d="M57.8,65v-2c0,0,0-1.5-1-1.5H46.1c0,0-1,0-1,1.5v10c0,0,0,1.5,1,1.5h10.7c0,0,1,0,1-1.5
								V65"/>
							<g id="Group_6981" transform="translate(43.662 60.124)">
								<path id="Path_13848" class="st7" d="M13.1,15.8H2.4C1,15.7-0.1,14.4,0,13c0,0,0-0.1,0-0.1v-10C-0.2,1.5,0.8,0.2,2.2,0
									c0.1,0,0.1,0,0.2,0h10.7c1.4,0.1,2.5,1.3,2.4,2.8c0,0,0,0.1,0,0.1v10c0.2,1.4-0.8,2.7-2.2,2.9
									C13.3,15.8,13.2,15.8,13.1,15.8z M2.8,13h9.9c0,0,0,0,0-0.1v-10c0,0,0,0,0-0.1H2.8c0,0,0,0,0,0.1L2.8,13
									C2.8,12.9,2.8,12.9,2.8,13L2.8,13z"/>
							</g>
							
								<linearGradient id="Path_13849_1_" gradientUnits="userSpaceOnUse" x1="56.4727" y1="304.5905" x2="56.4727" y2="303.5905" gradientTransform="matrix(12.762 0 0 -12.957 -669.2585 3988.2988)">
								<stop  offset="0" style="stop-color:#F0047F"/>
								<stop  offset="1" style="stop-color:#13007C"/>
							</linearGradient>
							<path id="Path_13849" class="st9" d="M57.8,45.1v-2c0,0,0-1.5-1-1.5H46.1c0,0-1,0-1,1.5v10c0,0,0,1.5,1,1.5h10.7
								c0,0,1,0,1-1.5V45.1"/>
							<g id="Group_6982" transform="translate(43.662 40.305)">
								<path id="Path_13850" class="st7" d="M13.1,15.8H2.4C1,15.7-0.1,14.4,0,13c0,0,0-0.1,0-0.1v-10C-0.2,1.5,0.8,0.2,2.2,0
									c0.1,0,0.1,0,0.2,0h10.7c1.4,0.1,2.5,1.3,2.4,2.8c0,0,0,0.1,0,0.1v10c0.2,1.4-0.8,2.7-2.2,2.9
									C13.3,15.8,13.2,15.8,13.1,15.8z M2.8,13h9.9c0,0,0,0,0-0.1v-10c0,0,0,0,0-0.1H2.8c0,0,0,0,0,0.1L2.8,13
									C2.8,12.9,2.8,12.9,2.8,13L2.8,13z"/>
							</g>
							<path id="Path_13851" class="st10" d="M76.8,65v-2c0,0,0-1.5-1-1.5H65.1c0,0-1,0-1,1.5v10c0,0,0,1.5,1,1.5h10.7
								c0,0,1,0,1-1.5L76.8,65"/>
							<g id="Group_6983" transform="translate(62.671 60.124)">
								<path id="Path_13852" class="st7" d="M13.1,15.8H2.4C1,15.7-0.1,14.4,0,13c0,0,0-0.1,0-0.1v-10C-0.2,1.5,0.8,0.2,2.2,0
									c0.1,0,0.1,0,0.2,0h10.7c1.4,0.1,2.5,1.3,2.4,2.8c0,0,0,0.1,0,0.1v10c0.2,1.4-0.8,2.7-2.2,2.9
									C13.3,15.8,13.2,15.8,13.1,15.8z M2.8,13h9.9c0,0,0,0,0-0.1v-10c0,0,0,0,0-0.1H2.8c0,0,0,0,0,0.1L2.8,13
									C2.8,12.9,2.8,12.9,2.8,13L2.8,13z"/>
							</g>
							<path id="Path_13853" class="st7" d="M76.7,45.1v-2c0,0,0-1.5-1-1.5H65c0,0-1,0-1,1.5v10c0,0,0,1.5,1,1.5h10.7c0,0,1,0,1-1.5
								L76.7,45.1"/>
							<g id="Group_6984" transform="translate(62.545 40.305)">
								<path id="Path_13854" class="st7" d="M13.1,15.8H2.4C1,15.7-0.1,14.4,0,13c0,0,0-0.1,0-0.1v-10C-0.2,1.5,0.8,0.2,2.2,0
									c0.1,0,0.1,0,0.2,0h10.7c1.4,0.1,2.5,1.3,2.4,2.8c0,0,0,0.1,0,0.1v10c0.2,1.4-0.8,2.7-2.2,2.9
									C13.3,15.8,13.2,15.8,13.1,15.8z M2.8,13h9.9c0,0,0,0,0-0.1v-10c0,0,0,0,0-0.1H2.8c0,0,0,0,0,0.1L2.8,13
									C2.8,12.9,2.8,12.9,2.8,13z"/>
							</g>
							<path id="Path_13855" class="st11" d="M95.8,65v-2c0,0,0-1.5-1-1.5H84.1c0,0-1,0-1,1.5v10c0,0,0,1.5,1,1.5h10.7
								c0,0,1,0,1-1.5V65"/>
							<g id="Group_6985" transform="translate(81.68 60.124)">
								<path id="Path_13856" class="st7" d="M13.1,15.8H2.4C1,15.7-0.1,14.4,0,13c0,0,0-0.1,0-0.1v-10C-0.2,1.5,0.8,0.2,2.2,0
									c0.1,0,0.1,0,0.2,0h10.7c1.4,0.1,2.5,1.3,2.4,2.8c0,0,0,0.1,0,0.1v10c0.2,1.4-0.8,2.7-2.2,2.9
									C13.3,15.8,13.2,15.8,13.1,15.8z M2.8,13h9.9c0,0,0,0,0-0.1v-10c0,0,0,0,0-0.1H2.8c0,0,0,0,0,0.1L2.8,13
									C2.8,12.9,2.8,12.9,2.8,13z"/>
							</g>
							<path id="Path_13857" class="st12" d="M95.8,45.1v-2c0,0,0-1.5-1-1.5H84.1c0,0-1,0-1,1.5v10c0,0,0,1.5,1,1.5h10.7
								c0,0,1,0,1-1.5V45.1"/>
							<g id="Group_6986" transform="translate(81.68 40.305)">
								<path id="Path_13858" class="st7" d="M13.1,15.8H2.4C1,15.7-0.1,14.4,0,13c0,0,0-0.1,0-0.1v-10C-0.2,1.5,0.8,0.2,2.2,0
									c0.1,0,0.1,0,0.2,0h10.7c1.4,0.1,2.5,1.3,2.4,2.8c0,0,0,0.1,0,0.1v10c0.2,1.4-0.8,2.7-2.2,2.9
									C13.3,15.8,13.2,15.8,13.1,15.8z M2.8,13h9.9c0,0,0,0,0-0.1v-10c0,0,0,0,0-0.1H2.8c0,0,0,0,0,0.1L2.8,13
									C2.8,12.9,2.8,12.9,2.8,13z"/>
							</g>
						</g>
					</g>
				</g>
				<g id="Group_6989" transform="translate(18.821 41.352)">
					<rect id="Rectangle_4517" x="0" y="0" class="st12" width="1.9" height="34.5"/>
				</g>
				<g id="Group_6991">
					<g>
						<defs>
							<rect id="SVGID_3_" x="0" y="0" width="113.7" height="113.7"/>
						</defs>
						<clipPath id="SVGID_4_">
							<use xlink:href="#SVGID_3_"  style="overflow:visible;"/>
						</clipPath>
						<g id="Group_6990" class="st13">
							<path id="Path_13859" class="st12" d="M32.2,56.1c4.4,0.1,7.9-3.4,8-7.8c0.1-4.4-3.4-7.9-7.8-8c-4.4-0.1-7.9,3.4-8,7.8
								c0,0,0,0.1,0,0.1C24.4,52.5,27.9,56,32.2,56.1"/>
							<path id="Path_13860" class="st11" d="M31.8,52.9c-0.3,0-0.6-0.1-0.9-0.3l-3.4-2.7c-0.5-0.4-0.6-1.2-0.2-1.7c0,0,0,0,0.1-0.1
								c0.5-0.5,1.3-0.6,1.9-0.1l2.2,1.8l3.4-5.6c0.4-0.6,1.2-0.8,1.8-0.5c0.6,0.3,0.8,1,0.5,1.6c0,0,0,0,0,0.1L33,52.3
								C32.7,52.6,32.3,52.9,31.8,52.9"/>
						</g>
					</g>
				</g>
			</g>
		</g>
		<g id="Group_7021" transform="translate(502.099 82.494)">
			
				<linearGradient id="Path_13861_1_" gradientUnits="userSpaceOnUse" x1="-436.9765" y1="304.556" x2="-436.9765" y2="303.545" gradientTransform="matrix(116.268 0 0 -116.268 50864.5195 35410.1211)">
				<stop  offset="0" style="stop-color:#F0047F"/>
				<stop  offset="1" style="stop-color:#13007C"/>
			</linearGradient>
			<path id="Path_13861" class="st14" d="M58.1,114.2v-2.1c29.8,0,54-24.2,54-54s-24.2-54-54-54c-29.8,0-54,24.2-54,54
				c0,29.8,24.2,53.9,54,54v4.2C26,116.3,0,90.2,0,58.1S26,0,58.1,0c32.1,0,58.1,26,58.1,58.1c0,32.1-26,58.1-58.1,58.1c0,0,0,0,0,0
				V114.2z"/>
			<g id="Group_7020" transform="translate(3.973 5.011)">
				<g id="Group_7019">
					<g id="Group_7018">
						<g id="Group_6995" transform="translate(0 0.001)">
							<g id="Group_6994">
								<path id="Path_13862" class="st15" d="M54.2,108.3c29.9,0,54.2-24.2,54.2-54.2S84.1,0,54.2,0C24.2,0,0,24.2,0,54.2
									C0,84.1,24.2,108.3,54.2,108.3"/>
							</g>
						</g>
						<g id="Group_6998">
							<g>
								<defs>
									<path id="SVGID_5_" d="M0,54.2c0,29.9,24.2,54.2,54.2,54.2s54.2-24.2,54.2-54.2S84.1,0,54.2,0h0C24.2,0,0,24.2,0,54.2"/>
								</defs>
								<clipPath id="SVGID_6_">
									<use xlink:href="#SVGID_5_"  style="overflow:visible;"/>
								</clipPath>
								<g id="Group_6997" class="st16">
									<g id="Group_6996" transform="translate(50.37 26.96)">
										<path id="Path_13863" class="st15" d="M10.2,0C10.2,0,0,0,0,10.2v25.6c0,0,0,10.2,10.2,10.2h51.3c0,0,10.2,0,10.2-10.2
											V10.2c0,0,0-10.2-10.2-10.2H10.2z"/>
									</g>
								</g>
							</g>
						</g>
						<g id="Group_7002" transform="translate(50.37 26.96)">
							<g>
								<defs>
									<path id="SVGID_7_" d="M10.2,0C10.2,0,0,0,0,10.2v25.6c0,0,0,10.2,10.2,10.2h44.5c5.5-15.1,4.1-32-4-45.9L10.2,0z"/>
								</defs>
								<clipPath id="SVGID_8_">
									<use xlink:href="#SVGID_7_"  style="overflow:visible;"/>
								</clipPath>
								<g id="Group_7001" class="st17">
									<g id="Group_6999" transform="translate(0.855 -0.346)">
										<path id="Path_13865" class="st15" d="M0,0l34.9,27.8L72,0L0,0z"/>
									</g>
									<g id="Group_7000" transform="translate(-4.37 -2.171)">
										
											<linearGradient id="Path_13866_1_" gradientUnits="userSpaceOnUse" x1="-487.3822" y1="276.4768" x2="-487.3822" y2="271.8568" gradientTransform="matrix(82.712 0 0 -12.988 40353.6992 3590.7319)">
											<stop  offset="0" style="stop-color:#F0047F"/>
											<stop  offset="1" style="stop-color:#13007C"/>
										</linearGradient>
										<path id="Path_13866" class="st18" d="M16.3,13L0,0h82.7L67.4,11.5l-2.2-2.9l6.6-4.9H10.4l8.1,6.5L16.3,13z"/>
									</g>
								</g>
							</g>
						</g>
						<g id="Group_7006">
							<g>
								<defs>
									<path id="SVGID_9_" d="M0,54.2c0,29.9,24.2,54.2,54.2,54.2s54.2-24.2,54.2-54.2S84.1,0,54.2,0h0C24.2,0,0,24.2,0,54.2"/>
								</defs>
								<clipPath id="SVGID_10_">
									<use xlink:href="#SVGID_9_"  style="overflow:visible;"/>
								</clipPath>
								<g id="Group_7005" class="st19">
									<g id="Group_7003" transform="translate(48.466 25.055)">
										
											<linearGradient id="Path_13868_1_" gradientUnits="userSpaceOnUse" x1="-490.7092" y1="276.2917" x2="-490.7092" y2="271.4417" gradientTransform="matrix(52.539 0 0 -12.073 25807.6387 3336.3254)">
											<stop  offset="0" style="stop-color:#F0047F"/>
											<stop  offset="1" style="stop-color:#13007C"/>
										</linearGradient>
										<path id="Path_13868" class="st20" d="M3.8,12.1H0C0,2.5,7.9,0,12.1,0h40.5v3.8H12.1C11.2,3.8,3.8,4.1,3.8,12.1z"/>
									</g>
									<g id="Group_7004" transform="translate(40.148 36.705)">
										<path id="Path_13869" class="st15" d="M10.2,0C10.2,0,0,0,0,10.2v25.6c0,0,0,10.2,10.2,10.2h51.3c0,0,10.2,0,10.2-10.2
											V10.2c0,0,0-10.2-10.2-10.2H10.2z"/>
									</g>
								</g>
							</g>
						</g>
						<g id="Group_7011" transform="translate(40.148 36.705)">
							<g>
								<defs>
									<path id="SVGID_11_" d="M10.2,0C10.2,0,0,0,0,10.2v25.6c0,0,0,10.2,10.2,10.2h49.9c8.3-13.6,10.3-30.1,5.4-45.2
										C64.2,0.2,62.8,0,61.4,0L10.2,0z"/>
								</defs>
								<clipPath id="SVGID_12_">
									<use xlink:href="#SVGID_11_"  style="overflow:visible;"/>
								</clipPath>
								<g id="Group_7010" class="st21">
									<g id="Group_7007" transform="translate(-4.814 21.203)">
										
											<linearGradient id="Path_13871_1_" gradientUnits="userSpaceOnUse" x1="-476.7162" y1="243.6409" x2="-476.7162" y2="241.3789" gradientTransform="matrix(82.71 0 0 -25.963 39470.5664 6293.0264)">
											<stop  offset="0" style="stop-color:#F0047F"/>
											<stop  offset="1" style="stop-color:#13007C"/>
										</linearGradient>
										<path id="Path_13871" class="st22" d="M82.7,26H0L32.2,0.3l2.3,2.9l-24,19.1h61.3L45.9,2.9L48.1,0L82.7,26z"/>
									</g>
									<g id="Group_7008" transform="translate(0.855 -0.346)">
										<path id="Path_13872" class="st15" d="M0,0l34.9,27.8L72,0H0z"/>
									</g>
									<g id="Group_7009" transform="translate(-4.37 -2.171)">
										
											<linearGradient id="Path_13873_1_" gradientUnits="userSpaceOnUse" x1="-477.1602" y1="265.5757" x2="-477.1602" y2="264.5967" gradientTransform="matrix(82.713 0 0 -31.94 39508.7148 8482.584)">
											<stop  offset="0" style="stop-color:#F0047F"/>
											<stop  offset="1" style="stop-color:#13007C"/>
										</linearGradient>
										<path id="Path_13873" class="st23" d="M40.1,31.9L0,0h82.7L40.1,31.9z M10.4,3.7l29.8,23.7L71.8,3.6L10.4,3.7z"/>
									</g>
								</g>
							</g>
						</g>
						<g id="Group_7017">
							<g>
								<defs>
									<path id="SVGID_13_" d="M0,54.2c0,29.9,24.2,54.2,54.2,54.2s54.2-24.2,54.2-54.2S84.1,0,54.2,0h0C24.2,0,0,24.2,0,54.2"/>
								</defs>
								<clipPath id="SVGID_14_">
									<use xlink:href="#SVGID_13_"  style="overflow:visible;"/>
								</clipPath>
								<g id="Group_7016" class="st24">
									<g id="Group_7012" transform="translate(38.244 34.8)">
										
											<linearGradient id="Path_13875_1_" gradientUnits="userSpaceOnUse" x1="-479.7715" y1="265.2199" x2="-479.7715" y2="264.0469" gradientTransform="matrix(75.405 0 0 -49.708 36214.8555 13174.2588)">
											<stop  offset="0" style="stop-color:#F0047F"/>
											<stop  offset="1" style="stop-color:#13007C"/>
										</linearGradient>
										<path id="Path_13875" class="st25" d="M63.3,49.7H12.1C2.5,49.7,0,41.8,0,37.6V12.1C0,2.5,7.9,0,12.1,0h51.3
											c9.5,0,12.1,7.9,12.1,12.1v25.6C75.4,47.2,67.5,49.7,63.3,49.7z M12.1,3.8c-0.9,0-8.3,0.3-8.3,8.3v25.6
											c0,0.8,0.3,8.3,8.3,8.3h51.3c0.8,0,8.3-0.3,8.3-8.3V12.1c0-0.8-0.3-8.3-8.3-8.3L12.1,3.8z"/>
									</g>
									<g id="Group_7013" transform="translate(12.663 50.094)">
										
											<linearGradient id="Rectangle_4519_1_" gradientUnits="userSpaceOnUse" x1="-458.5386" y1="256.115" x2="-457.5386" y2="256.115" gradientTransform="matrix(22.576 0 0 -3.388 10351.9668 869.4115)">
											<stop  offset="0" style="stop-color:#F0047F"/>
											<stop  offset="1" style="stop-color:#13007C"/>
										</linearGradient>
										<rect id="Rectangle_4519" x="0" y="0" class="st26" width="22.6" height="3.4"/>
									</g>
									<g id="Group_7014" transform="translate(12.663 64.812)">
										
											<linearGradient id="Rectangle_4520_1_" gradientUnits="userSpaceOnUse" x1="-458.5386" y1="241.397" x2="-457.5386" y2="241.397" gradientTransform="matrix(22.576 0 0 -3.388 10351.9668 819.5469)">
											<stop  offset="0" style="stop-color:#F0047F"/>
											<stop  offset="1" style="stop-color:#13007C"/>
										</linearGradient>
										<rect id="Rectangle_4520" x="0" y="0" class="st27" width="22.6" height="3.4"/>
									</g>
									<g id="Group_7015" transform="translate(22.27 57.454)">
										
											<linearGradient id="Rectangle_4521_1_" gradientUnits="userSpaceOnUse" x1="-472.2143" y1="248.755" x2="-471.2143" y2="248.755" gradientTransform="matrix(12.969 0 0 -3.388 6124.147 844.4758)">
											<stop  offset="0" style="stop-color:#F0047F"/>
											<stop  offset="1" style="stop-color:#13007C"/>
										</linearGradient>
										<rect id="Rectangle_4521" x="0" y="0" class="st28" width="13" height="3.4"/>
									</g>
								</g>
							</g>
						</g>
					</g>
				</g>
			</g>
		</g>
		<g id="Group_7036" transform="translate(169.188)">
			
				<linearGradient id="Path_13877_1_" gradientUnits="userSpaceOnUse" x1="-103.4415" y1="386.9242" x2="-103.4415" y2="385.9132" gradientTransform="matrix(280.25 0 0 -280.254 29129.5938 108437.0625)">
				<stop  offset="0" style="stop-color:#F0047F"/>
				<stop  offset="1" style="stop-color:#13007C"/>
			</linearGradient>
			<path id="Path_13877" class="st29" d="M140.1,275.2v-5c71.9,0,130.1-58.3,130.1-130.1S212,10,140.1,10C68.3,10,10,68.3,10,140.1
				c0.1,71.8,58.3,130,130.1,130.1v10C62.7,280.2,0,217.5,0,140.1S62.7,0,140.1,0s140.1,62.7,140.1,140.1c0,0,0,0,0,0
				c0,77.4-62.7,140.1-140.1,140.1V275.2z"/>
			<g id="Group_7035" transform="translate(10.538 10.431)">
				<g>
					<defs>
						<path id="SVGID_15_" d="M0,130.2c0,71.9,58.3,130.2,130.2,130.2s130.2-58.3,130.2-130.2C260.5,58.3,202.2,0,130.2,0
							C58.3,0,0,58.3,0,130.2"/>
					</defs>
					<clipPath id="SVGID_16_">
						<use xlink:href="#SVGID_15_"  style="overflow:visible;"/>
					</clipPath>
					<g id="Group_7034" class="st30">
						<g id="Group_7022" transform="translate(37.892 49.028)">
							
								<linearGradient id="Path_13878_1_" gradientUnits="userSpaceOnUse" x1="-152.1004" y1="327.5009" x2="-152.1004" y2="326.5009" gradientTransform="matrix(184.7029 0 0 -200.224 28185.7344 65573.5234)">
								<stop  offset="0" style="stop-color:#F0047F"/>
								<stop  offset="1" style="stop-color:#13007C"/>
							</linearGradient>
							<path id="Path_13878" class="st31" d="M181.1,200.2H3.6c-1.9,0.1-3.5-1.3-3.6-3.2V3.2C0.1,1.3,1.8-0.1,3.6,0h177.5
								c1.9-0.1,3.5,1.3,3.6,3.2V197C184.6,198.9,182.9,200.3,181.1,200.2z M7.3,193.9h170.2V6.3H7.3V193.9z"/>
						</g>
						<g id="Group_7023" transform="translate(73.527 102.305)">
							<rect id="Rectangle_4522" x="0" y="0" class="st7" width="18.5" height="7.2"/>
						</g>
						<g id="Group_7024" transform="translate(73.527 116.809)">
							
								<linearGradient id="Rectangle_4523_1_" gradientUnits="userSpaceOnUse" x1="-188.6564" y1="262.5595" x2="-187.6564" y2="262.5595" gradientTransform="matrix(113.508 0 0 -7.216 21414.0156 1898.2375)">
								<stop  offset="0" style="stop-color:#F0047F"/>
								<stop  offset="1" style="stop-color:#13007C"/>
							</linearGradient>
							<rect id="Rectangle_4523" x="0" y="0" class="st32" width="113.5" height="7.2"/>
						</g>
						<g id="Group_7028" transform="translate(125.765 140.311)">
							<g id="Group_7025">
								<rect id="Rectangle_4524" x="0" y="0" class="st7" width="40.3" height="7.1"/>
							</g>
							<g id="Group_7026" transform="translate(0 13.42)">
								
									<linearGradient id="Rectangle_4525_1_" gradientUnits="userSpaceOnUse" x1="-241.8341" y1="225.6719" x2="-240.8341" y2="225.6719" gradientTransform="matrix(61.02 0 0 -7.145 14756.7188 1615.9985)">
									<stop  offset="0" style="stop-color:#F0047F"/>
									<stop  offset="1" style="stop-color:#13007C"/>
								</linearGradient>
								<rect id="Rectangle_4525" x="0" y="0" class="st33" width="61" height="7.1"/>
							</g>
							<g id="Group_7027" transform="translate(0 27.678)">
								
									<linearGradient id="Rectangle_4526_1_" gradientUnits="userSpaceOnUse" x1="-242.4536" y1="209.5566" x2="-241.4536" y2="209.5566" gradientTransform="matrix(46.765 0 0 -15.229 11338.3408 3198.9519)">
									<stop  offset="0" style="stop-color:#F0047F"/>
									<stop  offset="1" style="stop-color:#13007C"/>
								</linearGradient>
								<rect id="Rectangle_4526" x="0" y="0" class="st34" width="46.8" height="15.2"/>
							</g>
						</g>
						<g id="Group_7029" transform="translate(74.004 192.758)">
							<rect id="Rectangle_4527" x="0" y="0" class="st7" width="18.1" height="5.8"/>
						</g>
						<rect id="Rectangle_4528" x="117.6" y="67.5" class="st35" width="25.4" height="25.4"/>
						<g id="Group_7033" transform="translate(75.486 134.221)">
							<g id="Group_7030" transform="translate(9.973 19.176)">
								
									<linearGradient id="Rectangle_4529_1_" gradientUnits="userSpaceOnUse" x1="-206.096" y1="226.3064" x2="-205.096" y2="226.3064" gradientTransform="matrix(18.788 0 0 -6.58 3872.1311 1492.386)">
									<stop  offset="0" style="stop-color:#F0047F"/>
									<stop  offset="1" style="stop-color:#13007C"/>
								</linearGradient>
								<rect id="Rectangle_4529" x="0" y="0" class="st36" width="18.8" height="6.6"/>
							</g>
							<g id="Group_7031" transform="translate(15.591 8.774)">
								<rect id="Rectangle_4530" x="0" y="0" class="st7" width="6.6" height="6.6"/>
							</g>
							<g id="Group_7032" transform="translate(9.973 30.055)">
								
									<linearGradient id="Rectangle_4531_1_" gradientUnits="userSpaceOnUse" x1="-206.096" y1="215.4274" x2="-205.096" y2="215.4274" gradientTransform="matrix(18.788 0 0 -6.58 3872.1311 1420.8022)">
									<stop  offset="0" style="stop-color:#F0047F"/>
									<stop  offset="1" style="stop-color:#13007C"/>
								</linearGradient>
								<rect id="Rectangle_4531" x="0" y="0" class="st37" width="18.8" height="6.6"/>
							</g>
							<rect id="Rectangle_4532" x="0" y="0" class="st38" width="37.8" height="48.6"/>
						</g>
						<rect id="Rectangle_4533" x="76.3" y="207.2" class="st35" width="61.7" height="14.8"/>
						<path id="Path_13879" class="st7" d="M150.4,209.9c-0.2-0.2-0.5-0.3-0.8-0.3c-0.1,0-0.3,0-0.4,0.1c-0.4,0.1-0.7,0.6-0.7,1
							v26.7c0,0.5,0.3,0.9,0.7,1c0.1,0.1,0.3,0.1,0.4,0.1c0.3,0,0.6-0.1,0.8-0.3l5.7-5.5l3.5,8c0.3,0.6,0.9,0.8,1.5,0.6l3.2-1.3
							c0.3-0.1,0.5-0.3,0.6-0.6c0.1-0.3,0.1-0.6,0-0.9l-3.7-8.5h6.9c0.5,0,0.9-0.3,1.1-0.7c0.2-0.4,0.1-0.9-0.3-1.2L150.4,209.9z"/>
					</g>
				</g>
			</g>
		</g>
	</g>
</g>
<line id="Line_246" class="st39" x1="219" y1="294.5" x2="183" y2="294.5"/>
<line id="Line_250" class="st39" x1="550" y1="294.5" x2="514" y2="294.5"/>
</svg>
